<svg xmlns="http://www.w3.org/2000/svg" width="24" height="24" viewBox="0 0 24 24">
  <g fill="none" fill-rule="evenodd">
    <path fill="#864CCC" d="M14.4292026,20.65 C14.7392284,21.1 14.9492459,21.54 15.2592717,21.99 C15.7793151,22.66 16.4093676,22.87 16.8194017,22.89 C17.7694809,22.94 18.5895492,22.55 18.9995834,22 C19.3396117,22.58 19.979665,22.92 20.459705,23 L20.7797317,23 C21.5097925,23 22.4946188,22.58 23.5792618,20.43 L24,19.64 L22.6498875,18.08 L21.9198267,19.64 C21.7098092,20.09 21.3997834,20.87 20.87974,20.76 C20.7797317,20.76 20.459705,20.65 20.1496792,20.31 C20.87974,19.08 20.9797484,17.97 20.7797317,17.29 C20.5697142,16.85 20.1496792,16.4 19.6296359,16.4 C19.0095842,16.29 18.47954,16.6460248 18.0695059,17.29 C17.6594717,17.9339752 17.5494625,19.31 17.6594717,19.98 C17.63947,20.48 17.0594217,20.53 16.9294109,20.43 C16.5093759,19.87 16.1993501,19.2 15.9893326,18.41 L15.9893326,18.3 C17.6594717,15.61 13.0790901,15.39 13.5991334,18.08 L13.5991334,18.19 C12.9790817,19.08 10.9689143,21 9.99883343,21 L2.40820098,21 L4.19835014,15.91 L16.2093509,3.11 C16.2893576,3.02 16.3893659,3 16.4393701,3 C16.4993751,3 16.5893826,3.02 16.6693892,3.09 L19.2296025,5.65 C19.379615,5.79 19.379615,6.05 19.2396034,6.21 L7.36861428,18.87 C6.98858262,19.27 7.00858428,19.9 7.41861845,20.28 C7.81865178,20.66 8.44870427,20.64 8.82873594,20.23 L20.699725,7.57 C21.5697975,6.63 21.5497959,5.13 20.6497209,4.23 L18.0695059,1.67 C17.6194684,1.23 17.0194184,1.01 16.3993667,1 C15.7693142,1.01 15.1892659,1.27 14.7492292,1.74 L2.59821681,14.7 C2.50820931,14.8 2.42820265,14.92 2.38819931,15.05 L0.0580051633,21.67 C-0.0520040026,21.97 -0.00199983631,22.31 0.178015162,22.58 C0.368030995,22.84 0.678056826,23 0.99808349,23 L10.9989168,23 C11.9389951,23 13.8291526,21.55 14.4292026,20.65 Z"/>
    <path fill="#864CCC" fill-opacity=".2" d="M4.19835014,15.91 L16.2760608,2.94346134 C16.3553013,2.85291282 16.4543518,2.83279093 16.5038771,2.83279093 C16.5633074,2.83279093 16.6524529,2.85291282 16.7316934,2.92333945 L19.2772925,5.63624497 C19.4258684,5.77709822 19.4258684,6.03868282 19.2871976,6.19965796 L7.58066403,18.6887137 L4.19835014,15.91 Z"/>
  </g>
</svg>
