<svg xmlns="http://www.w3.org/2000/svg" width="24" height="24" viewBox="0 0 24 24">
  <g fill="none" fill-rule="evenodd">
    <path fill="#2680EB" d="M17,20 L17,16.688 L17.1317546,16.6138825 L17.1843603,16.7689113 C17.2058545,16.8268847 17.2292472,16.8844673 17.2545577,16.9415777 L17.2545577,16.9415777 L17.3362621,17.1114102 L17.3927409,17.212726 L17.452554,17.3130661 L17.5143846,17.4103072 C17.8872437,17.9609973 18.4135361,18.3507258 19.0000842,18.5574217 L19,20 C19,21.1 18.1,22 17,22 L17,22 L4,22 C2.9,22 2,21.1 2,20 L2,20 L2,3 C2,1.9 2.9,1 4,1 L4,1 L13,1 C14.1,1 14.2178049,1.08585366 14.9878049,1.86585366 L14.9878049,1.86585366 L17.58,4.24 C18.36,5.02 18.99,5.55 19,6.65 L19,6.65 L19.0001808,7.91446627 C18.3252878,8.41977752 17.8201221,9.01177868 17.9174707,10.2427623 C17.9473485,10.4096734 17.9473485,10.4954193 17.9174707,10.5 C17.6034282,10.5481471 17.2977315,10.607067 17.000261,10.676921 L17,8 L14,8 C12.9,8 12,7.1 12,6 L12,6 L12,3 L4,3 L4,20 L11.302,20 L11.321,20.014 L11.3571439,20.0134602 C11.5692239,20.007615 12.4547474,20.0052943 13.2879093,20.0039127 L13.8474284,20.0030745 C13.9066855,20.002991 13.9646417,20.0029095 14.0209666,20.0028288 L14.4749266,20.0020942 C14.5184906,20.002008 14.5594322,20.0019192 14.5974211,20.0018265 L14.7872788,20.0012148 C14.8121354,20.001102 14.8333784,20.0009829 14.8506777,20.0008565 L17,20 Z M14,3.42 L14,6 L16.58,6 L14,3.42 Z"/>
    <path fill="#2680EB" d="M12,3 L12,6 C12,7.1 12.9,8 14,8 L17,8 L17.000261,10.676921 C14.0358126,11.373052 11.8883106,13.1550607 10.4393397,16.1825373 L10.4393397,16.1825373 L10.3059789,16.468366 C9.69873098,17.8033467 10.1689123,19.2046347 11.3268306,20.0181018 L11.302,20 L4,20 L4,3 L12,3 Z M17,16.688 L17,20 L14.8904137,20.000454 L14.8904137,20.000454 L14.9045047,20 C15.2650927,19.7139981 15.5815531,19.2546923 15.785209,18.8069729 L15.785209,18.8069729 L15.949977,18.4615008 C16.4037576,17.5561037 16.4327648,16.9667819 17.1317546,16.6138825 L17,16.688 Z" opacity=".1"/>
    <polygon fill="#2680EB" points="16.596 6.041 14 6.041 14 3.4" opacity=".1"/>
    <path fill="#2680EB" fill-rule="nonzero" d="M6.5 10L13.5 10C13.7761424 10 14 10.2238576 14 10.5 14 10.7761424 13.7761424 11 13.5 11L6.5 11C6.22385763 11 6 10.7761424 6 10.5 6 10.2238576 6.22385763 10 6.5 10zM6.5 13L11.5 13C11.7761424 13 12 13.2238576 12 13.5 12 13.7761424 11.7761424 14 11.5 14L6.5 14C6.22385763 14 6 13.7761424 6 13.5 6 13.2238576 6.22385763 13 6.5 13z"/>
    <path fill="#2680EB" fill-rule="nonzero" d="M13.6834526,10.1021526 L13.8734827,10.5190396 C15.0797862,13.0345571 16.7366347,14.0473121 20.2194569,13.9906019 L19.0727672,13.0890283 C18.6692042,12.7725832 18.5747997,12.2079896 18.8362255,11.7809778 L18.9028923,11.6850544 C19.2193374,11.2814914 19.7839309,11.187087 20.2109428,11.4485128 L20.3068661,11.5151795 L23.4704027,13.9957974 C23.8780058,14.3154105 23.9696208,14.8873092 23.7001035,15.3149011 L23.631476,15.410834 L21.0411054,18.6198567 C20.6942086,19.049602 20.0646158,19.116764 19.6348704,18.7698672 C19.2358212,18.4477488 19.1494076,17.8818771 19.4168437,17.4586036 L19.4848599,17.3636322 L20.6045669,15.975078 C15.8888747,16.110414 13.4583535,14.6073026 11.8487699,10.8983558 C11.6289045,10.3917221 11.8613761,9.80277828 12.3680097,9.58291286 C12.8746434,9.36304744 13.4635872,9.59551901 13.6834526,10.1021526 Z" transform="matrix(1 0 0 -1 0 28.492)"/>
  </g>
</svg>
