<svg xmlns="http://www.w3.org/2000/svg" width="24" height="24" viewBox="0 0 24 24">
  <g fill="none" fill-rule="evenodd">
    <path fill="#5C5CE0" fill-rule="nonzero" d="M11.0106611,0 L11.1963767,0.123660116 C13.3373441,1.54923905 16.020832,2.70885043 18.9657077,3.24767761 L19.351604,3.31440946 L19.4275344,3.33056118 C19.7511559,3.41680135 19.9999805,3.70997307 19.9999805,4.04136521 L19.9998281,11.5927038 C19.6759192,11.5318479 19.3416272,11.5 19,11.5 L18.7789948,11.5044568 C18.5136822,11.5151759 18.2532872,11.5451041 17.9992799,11.5928714 L17.999,5.094 L17.5234198,4.98940324 C15.3718642,4.48586974 13.3054787,3.67247423 11.4438604,2.6207471 L11.012,2.37 L10.6049972,2.60834971 C8.77132659,3.64873299 6.72367061,4.45827616 4.58307995,4.9662861 L4,5.095 L4,13.4181852 C4,15.1265644 4.91529294,16.7599963 6.80042282,18.3274859 L7.06350249,18.5408266 C8.15299658,19.4029181 9.50968861,20.1876415 10.8669198,20.7840178 L10.999,20.84 L11.1172231,20.790188 C11.5832486,20.5856217 12.0473924,20.3601012 12.499834,20.1177198 L12.4986984,22.3573483 C12.1268578,22.533886 11.7634075,22.6936409 11.4154404,22.8357573 L10.9997483,23 L10.5840562,22.8357573 C9.0949573,22.2275808 7.32279015,21.2963825 5.82247238,20.1092157 C3.41554344,18.2046683 2,15.9730079 2,13.4181852 L2,4.04136521 C2,3.6842744 2.28891245,3.37156166 2.64806926,3.31445967 C5.77396479,2.80841938 8.61339668,1.60558112 10.8252852,0.124156528 L11.0106611,0 Z"/>
    <path fill="#5C5CE0" fill-rule="nonzero" d="M19,12.95 C21.0710625,12.95 22.75,14.5658195 22.75,16.5590226 L22.75,16.5590226 L22.75,16.9629635 C23.440375,16.9629635 24,17.50155 24,18.165971 L24,18.165971 L24,22.8038349 C24,23.468256 23.440375,24.0068425 22.75,24.0068425 L22.75,24.0068425 L15.25,24.0068425 C14.559625,24.0068425 14,23.468256 14,22.8038349 L14,22.8038349 L14,18.165971 C14,17.50155 14.559625,16.9629635 15.25,16.9629635 L15.25,16.9629635 L15.25,16.5590226 C15.25,14.5658195 16.9289375,12.95 19,12.95 Z M19,18.5933086 C18.309625,18.5933086 17.75,19.1318951 17.75,19.7963161 C17.75,20.2403462 18.0026875,20.6233838 18.375,20.8309026 L18.375,20.8309026 L18.375,21.7211282 C18.375,21.9868725 18.598875,22.2023312 18.875,22.2023312 L18.875,22.2023312 L19.125,22.2023312 C19.401125,22.2023312 19.625,21.9868725 19.625,21.7211282 L19.625,21.7211282 L19.625,20.8309026 C19.9973125,20.623444 20.25,20.2404064 20.25,19.7963161 C20.25,19.1318951 19.690375,18.5933086 19,18.5933086 Z M19,14.1845273 C17.5525625,14.1845273 16.5785815,15.166 16.5785815,16.5590226 C16.5785815,16.6947704 16.5664982,16.8337105 16.5785815,16.9629635 C16.5664982,16.9665727 21.493346,16.9633061 21.493346,16.9629635 L21.493346,16.9629635 L21.493346,16.5590226 C21.493346,15.166 20.4474375,14.1845273 19,14.1845273 Z"/>
    <path fill="#6767EC" fill-opacity=".2" d="M10.9999786,2 C10.9999786,2 7.6862138,4.72120332 4,4.96738852 L4,13.262098 C4,18.3681402 9.80998221,20.6492687 10.9999786,21.0688834 L10.9999786,2 Z"/>
    <rect width="25" height="25" x="-.5" y="-.5" stroke="#979797"/>
  </g>
</svg>
