<svg xmlns="http://www.w3.org/2000/svg" width="24" height="24" viewBox="0 0 24 24">
  <g fill="none" fill-rule="evenodd">
    <path fill="#864CCC" d="M12,3.4199 L12,5.9999 L14.58,5.9999 L12,3.4199 Z M11,1 C12.1,1 12.218,1.086 12.988,1.866 L15.58,4.24 C16.36,5.02 16.99,5.55 17,6.65 L17,8 L12,8 C10.95,8 10.082,7.18 10.005,6.149 L10,6 L10,3 L2,3 L2,20 L10.6189438,20 L10.7659438,22 L2,22 C0.95,22 0.082,21.18 0.005,20.149 L0,20 L0,3 C0,1.9 0.9,1 2,1 L11,1 Z"/>
    <path fill="#864CCC" d="M10,3 L10,6 C10,7.1 10.9,8 12,8 L11.793,8 L17,8 L17,9.12353076 L12.9997,9.12353076 L12.9997,10.992 L9.05794764,10.992 L9.05794764,14.0264 L10.1209476,14 L10.565,20 L2,20 L2,3 L10,3 Z" opacity=".1"/>
    <polygon fill="#864CCC" points="14.596 6.032 12 6.032 12 3.392" opacity=".1"/>
    <polygon fill="#864CCC" points="16.389 21.605 17.233 21.605 17.233 14.026 16.389 14.026"/>
    <polygon fill="#864CCC" points="19.79 14.081 18.867 14 18.2 21.634 19.122 21.715"/>
    <polygon fill="#864CCC" points="13.7 14.081 14.623 14 15.29 21.634 14.368 21.715"/>
    <path fill="#864CCC" d="M19.7617,11.8296 L19.7617,10.7516 C19.7777,10.4996 19.6857,10.2476 19.5107,10.0626 C19.3367,9.8786 19.0917,9.7736 18.8377,9.7736 L14.7017,9.7896 C14.4477,9.7896 14.2017,9.8956 14.0277,10.0796 C13.8537,10.2646 13.7617,10.5156 13.7767,10.7626 L13.7767,11.8466 L10.0117,11.8466 L9.9997,13.0406 L11.3147,13.0406 L12.2277,23.5546 C12.2537,23.8316 12.4827,24.0486 12.7667,24.0586 L20.7187,24.0586 C20.9977,24.0486 21.2277,23.8316 21.2527,23.5536 L22.2147,13.0406 L23.6017,13.0406 L23.6017,11.8296 L19.7617,11.8296 Z M13.3927,22.8436 L12.5497,13.0006 L21.0107,13.0566 L20.0957,22.8436 L13.3927,22.8436 Z M14.9497,11.8296 L18.6507,11.8296 L18.6507,10.9776 L14.9497,10.9776 L14.9497,11.8296 Z"/>
  </g>
</svg>
