<svg xmlns="http://www.w3.org/2000/svg" width="24" height="24" viewBox="0 0 24 24">
  <g fill="none" fill-rule="evenodd">
    <path fill="#B130BD" d="M17.6087835,4.27675297 L19.494757,2.20832317 C19.5619467,2.1423147 19.6619753,2.12328915 19.7485062,2.16005981 C19.8332685,2.19656069 19.8875279,2.28111245 19.8857143,2.37379756 L19.8857143,7.66897785 C19.8819577,7.79574525 19.7786406,7.89655172 19.652493,7.89655172 L14.5432191,7.89655172 C14.4510271,7.898375 14.3669251,7.84382548 14.3306184,7.75860981 C14.2898928,7.67210672 14.3092823,7.56907142 14.378625,7.50350346 L16.5937868,5.33165217 C15.4944675,3.5719364 13.6044723,2.46848399 11.5393775,2.38069232 C8.4120904,2.38069232 6.12148975,4.393964 5.51112011,7.48971393 C5.4719805,7.71972583 5.27679167,7.88998663 5.04477028,7.89655172 L4.57842045,7.89655172 C4.4413157,7.89589109 4.31121565,7.83552376 4.22179998,7.73103074 C4.13777677,7.62926293 4.1004165,7.49655062 4.1189287,7.36560814 C4.56298124,4.32340076 6.82129808,1.86843347 9.80346512,1.1860718 C12.7856322,0.503710124 15.8783063,1.73429559 17.5882092,4.28364774 L17.6087835,4.27675297 Z"/>
    <path fill="#B130BD" fill-rule="nonzero" d="M12.525 10C12.75 10 12.975 10.075 13.125 10.225L13.125 10.225 14.7 11.875C14.85 12.025 14.925 12.25 14.925 12.475L14.925 12.475 14.925 19.025C14.925 19.55 14.55 20 13.95 20L13.95 20 8.975 20C8.45 20 8 19.55 8 19.025L8 19.025 8 10.975C8 10.45 8.375 10 8.975 10L8.975 10zM11 11.875L9.98933919 11.875 9.98933919 18.0262044 13.125 18.0262044 13.124 14 12 14C11.4477153 14 11 13.5522847 11 13L11 11.875zM13.125 13L12.075 11.875 12 11.875 12 13 13.125 13zM4.525 10C4.75 10 4.975 10.075 5.125 10.225L5.125 10.225 6.7 11.875C6.85 12.025 6.925 12.25 6.925 12.475L6.925 12.475 6.925 19.025C6.925 19.55 6.55 20 5.95 20L5.95 20 .975 20C.45 20 2.96886959e-11 19.55 2.96886959e-11 19.025L2.96886959e-11 19.025 2.96886959e-11 10.975C2.96886959e-11 10.45.375 10 .975 10L.975 10zM3 11.875L1.98933919 11.875 1.98933919 18.0262044 5.125 18.0262044 5.124 14 4 14C3.44771525 14 3 13.5522847 3 13L3 11.875zM5.125 13L4.075 11.875 4 11.875 4 13 5.125 13z"/>
    <path fill="#B130BD" fill-rule="nonzero" d="M.975 10C.375 10-2.64952504e-11 10.45-2.64952504e-11 10.975L-2.64952504e-11 19.025C-2.64952504e-11 19.55.45 20 .975 20L5.95 20C6.55 20 6.925 19.55 6.925 19.025L6.925 12.475C6.925 12.25 6.85 12.025 6.7 11.875L5.125 10.225C4.975 10.075 4.75 10 4.525 10L.975 10zM8.975 10C8.375 10 8 10.45 8 10.975L8 19.025C8 19.55 8.45 20 8.975 20L13.95 20C14.55 20 14.925 19.55 14.925 19.025L14.925 12.475C14.925 12.25 14.85 12.025 14.7 11.875L13.125 10.225C12.975 10.075 12.75 10 12.525 10L8.975 10z" opacity=".1"/>
    <path fill="#B130BD" fill-rule="nonzero" d="M21.525,10 C21.75,10 21.975,10.075 22.125,10.225 L22.125,10.225 L23.7,11.875 C23.85,12.025 23.925,12.25 23.925,12.475 L23.925,12.475 L23.924,13 L21,13 L21,10 Z M20,13 C20,13.5522847 20.4477153,14 21,14 L21,14 L23.924,14 L23.925,19.025 C23.925,19.5125 23.6016582,19.9353316 23.0750729,19.9932489 L22.95,20 L16.975,20 C16.45,20 16,19.55 16,19.025 L16,19.025 L16,10.975 C16,10.45 16.375,10 16.975,10 L16.975,10 L20,10 Z"/>
  </g>
</svg>
