<svg xmlns="http://www.w3.org/2000/svg" width="24" height="24" viewBox="0 0 24 24">
  <g fill="none" fill-rule="evenodd">
    <path fill="#CE2783" d="M17.4364146 11.7314854C16.7464146 11.7314854 16.1864146 11.1714854 16.1864146 10.4814854 16.1864146 9.79148537 16.7464146 9.23148537 17.4364146 9.23148537 18.1264146 9.23148537 18.6864146 9.79148537 18.6864146 10.4814854 18.6864146 11.1714854 18.1264146 11.7314854 17.4364146 11.7314854zM18.0000398 2C18.5452911 2 18.9975289 2.44874022 18.9944807 3.00228933L18.9930547 2.977 18.9873098 3.07225063C18.931014 3.52891738 18.5615969 3.89780435 18.0982622 3.95185402L17.9805987 3.95867592 3.97236763 3.95867592 3.99107817 11.4449328C3.28231562 11.555384 2.61146872 11.7803539 1.99805395 12.100326L2 2.99850233C2 2.44748943 2.44769743 2 2.9999602 2L2.9999602 2z"/>
    <path fill="#CE2783" d="M22.0000398,6 C22.5452911,6 23,6.44704472 23,6.99850233 L23,6.99850233 L23,18.0014977 C23,18.5525106 22.5523026,19 22.0000398,19 L22.0000398,19 L11.401474,19.0008008 C11.4662286,18.6326474 11.5,18.2538179 11.5,17.8671007 C11.5,16.2541124 10.912477,14.7783475 9.93975931,13.6421341 C10.3710641,13.299082 10.8516841,13.0641662 11.39,13.05 C12.86,13.01 14.13,16.05 15.59,16.05 C17.06,16.05 17.0801135,14.0646157 18.5501135,14.0146157 C19.9301135,13.9646157 20.1,15.52 21,16.05 L21,16.05 L21,8 L8,8 L8.00007786,12.0993519 C7.38467238,11.7785959 6.7115033,11.5534433 6.00026649,11.44359 L6,6.99850233 C6,6.44748943 6.44769743,6 6.9999602,6 L6.9999602,6 Z"/>
    <path fill="#CE2783" d="M21,8 L21,16.05 C20.1,15.52 19.9301135,13.9646157 18.5501135,14.0146157 C17.0801135,14.0646157 17.06,16.05 15.59,16.05 C14.13,16.05 12.86,13.01 11.39,13.05 C10.8516841,13.0641662 10.3710641,13.299082 9.93881178,13.6414758 C9.40041504,13.0121361 8.742647,12.4865294 8.00094528,12.0998041 L8,8 L21,8 Z" opacity=".1"/>
    <path fill="#CE2783" fill-rule="nonzero" d="M2.27750103,19.0704174 C2.02750103,19.0704174 1.86083437,18.9037507 1.86083437,18.6537507 L1.86083437,17.4037507 C1.86083437,17.1537507 2.02750103,16.987084 2.27750103,16.987084 L4.9441677,16.987084 L4.9441677,15.1537507 C4.9441677,14.8885992 5.1941677,14.987084 5.1941677,14.987084 L7.86083437,17.8204174 C7.9441677,17.9037507 7.9441677,17.987084 7.86083437,18.0704174 L5.1941677,20.8204174 C5.11083437,20.9037507 4.89208437,20.987084 4.86083437,20.737084 C4.86083437,20.737084 4.86083437,20.1815285 4.86083437,19.0704174 L2.27750103,19.0704174 Z M0,17.9180328 C0,20.6229508 2.21311475,22.8360656 5,22.8360656 C7.78688525,22.8360656 10,20.6229508 10,17.9180328 C10,15.2131148 7.78688525,13 5,13 C2.21311475,13 0,15.2131148 0,17.9180328 Z"/>
  </g>
</svg>
