<svg xmlns="http://www.w3.org/2000/svg" width="24" height="24" viewBox="0 0 24 24">
  <g fill="none" fill-rule="evenodd">
    <path fill="#C038CC" fill-rule="nonzero" d="M7.5,6 L11.5,6 C11.78,6 12,6.22 12,6.5 C12,6.78 11.78,7 11.5,7 L7.5,7 C7.22,7 7,6.78 7,6.5 C7,6.22 7.22,6 7.5,6 Z M13.1985276,14.3432238 C13.0208277,14.5885903 13.0430402,14.9269236 13.265165,15.1490485 L14.236,16.121 L13.2651062,17.093651 L13.1991546,17.1714842 C13.0193308,17.427931 13.0481467,17.7604573 13.265165,17.9774756 L13.3430571,18.0434861 L13.4310943,18.095728 C13.6719726,18.2145829 13.9561433,18.1703808 14.1490485,17.9774756 L15.121,17.005 L16.0935877,17.9774712 C16.3403976,18.2242811 16.7306702,18.2242811 16.9774756,17.9774756 L17.0441131,17.8994169 C17.221813,17.6540504 17.1996005,17.3157171 16.9774756,17.0935922 L16.005,16.121 L16.9774496,15.1490746 L17.0434861,15.0711565 C17.2233099,14.8147097 17.194494,14.4821834 16.9774756,14.265165 L16.8995836,14.1991546 L16.8115464,14.1469127 C16.5706681,14.0280578 16.2864974,14.0722599 16.0935922,14.265165 L15.121,15.236 L14.1490485,14.265165 C13.9022431,14.0183596 13.5119705,14.0183596 13.265165,14.265165 L13.1985276,14.3432238 Z M7.5,8 L15.5,8 C15.78,8 16,8.22 16,8.5 C16,8.78 15.78,9 15.5,9 L7.5,9 C7.22,9 7,8.78 7,8.5 C7,8.22 7.22,8 7.5,8 Z M7.5,10 L15.5,10 C15.78,10 16,10.22 16,10.5 C16,10.78 15.78,11 15.5,11 L7.5,11 C7.22,11 7,10.78 7,10.5 C7,10.22 7.22,10 7.5,10 Z"/>
    <path fill="#C038CC" fill-rule="nonzero" d="M19,6.3 L19,20 L5,20 L5,3 L15.6,3 L19,6.3 Z M15.7,1 L5,1 C3.9,1 3,1.9 3,3 L3,20 C3,21.1 3.9,22 5,22 L19,22 C20.1,22 21,21.1 21,20 L21,6 C21,5.6 20.8,5.1 20.5,4.8 L16.9,1.5 C16.6,1.2 16.2,1 15.7,1 L15.7,1 Z"/>
    <path fill="#C038CC" fill-rule="nonzero" d="M10.0165045,13.6882189 C10.0133318,13.5025093 9.9365396,13.3256702 9.8030273,13.1966181 C9.669515,13.067566 9.4902236,12.9968765 9.3046094,13.000106 L7.7118951,13.000106 C7.5262809,12.9968765 7.3469895,13.067566 7.2134772,13.1966181 C7.0799649,13.3256702 7.0031727,13.5025093 7,13.6882189 L7,17.0865309 L8.5082522,19.0361842 L10.0165045,17.0865309 L10.0165045,13.6882189 Z"/>
    <polygon fill="#C038CC" fill-rule="nonzero" points="19 6.3 19 20 5 20 5 3 15.6 3" opacity=".149"/>
  </g>
</svg>
