<svg xmlns="http://www.w3.org/2000/svg" width="24" height="24" viewBox="0 0 24 24">
  <g fill="none" fill-rule="evenodd">
    <path fill="#26C0C7" fill-rule="nonzero" d="M4.71133511 11.3385458L1.74729081 8.35272589C1.50854638 8.06908949 1.13278647 7.94260589.772437708 8.02458304.412088951 8.10656019.12698799 8.38338562.0327857527 8.74276536-.0614164842 9.1021451.0509224742 9.48440342.324232439 9.73447761L2.61440508 12.0364002.344052193 14.3143964C-.023794097 14.7017425-.0215914024 15.3122915.349040039 15.6969413.719671481 16.0815912 1.32621557 16.1028135 1.72251612 15.7449979L4.71133511 12.7402362C5.09622163 12.3512782 5.09622163 11.7225191 4.71133511 11.3335611L4.71133511 11.3385458zM18.291389 11.2966944L21.2834045 8.30459378C21.4696423 8.11218472 21.7252082 8.0024867 21.9929262 8 22.2606442 7.99759681 22.5181696 8.10260901 22.7078879 8.29158464 22.894157 8.47839023 22.9991384 8.73122827 23 8.99507853 23.0002665 9.25328018 22.8997668 9.50138911 22.719892 9.68656398L20.4081074 11.9971862 22.6998852 14.2837915C22.8930071 14.4715532 23.0013629 14.729895 23 14.9992938 23 15.5519665 22.5521198 16 21.9996475 16 21.741457 16.000702 21.4932834 15.9001031 21.3084129 15.7197996L18.291389 12.7036821C17.9028703 12.3132542 17.9028703 11.6821188 18.291389 11.2916909L18.291389 11.2966944zM5 9.53507475L3 7.55508662 3 4.00010794C3.0032948 2.89691268 3.89679813 2.00341471 5 2.00005902L14.811 2.00005902C15.2624318 1.99625102 15.6958751 2.17685127 16.011 2.50011693L19.5 5.93409634C19.7804496 6.14234317 19.9615959 6.45789822 20 6.80509112L20 7.52108682 18 9.53507475 18 7.30008815 14.6 4.00010794 5 4.00010794 5 9.53507475zM5 14.4800451L5 20.000012 18 20.000012 18 14.4800451 20 16.4800331 20 20.000012C19.9967052 21.1032072 19.1032019 21.9967052 18 22L5 22C3.89679813 21.9967052 3.0032948 21.1032072 3 20.000012L3 16.4800331 5 14.4800451z"/>
    <path fill="#26C0C7" fill-rule="nonzero" d="M18,9.527 L16.763,10.764 C16.4344633,11.0914201 16.2497991,11.5361678 16.2497991,12 C16.2497991,12.4638322 16.4344633,12.9085799 16.763,13.236 L18,14.473 L18,20 L5,20 L5,14.473 L6.237,13.236 C6.56553674,12.9085799 6.75020091,12.4638322 6.75020091,12 C6.75020091,11.5361678 6.56553674,11.0914201 6.237,10.764 L5,9.527 L5,4 L14.6,4 L18,7.3 L18,9.527 Z" opacity=".149"/>
    <path fill="#26C0C7" fill-rule="nonzero" d="M9.02333695,14.1975391 C8.88659619,14.4060753 8.73956774,14.6072848 8.58282793,14.8003789 C8.51176618,14.8868642 8.44224616,14.9659963 8.37506064,15.037193 C8.20637473,15.263865 7.96462258,15.4213172 7.69319158,15.4812917 C7.63579848,15.4839166 7.5796992,15.46326 7.53698068,15.4237725 C7.52033551,15.4082418 7.50536094,15.3909185 7.49231455,15.3721006 C7.46894777,15.3386118 7.45518335,15.2990592 7.45258413,15.2579335 C7.45140694,15.2364739 7.45288002,15.2149474 7.45696818,15.1938685 C7.46141105,15.1701615 7.46800246,15.1469338 7.4766562,15.1244895 C7.52809807,15.0072423 7.6021249,14.9019298 7.69426567,14.8149126 C7.72121294,14.787465 7.75019636,14.7595954 7.78121593,14.731304 C8.22743898,14.3634784 8.72216523,14.0625812 9.25060959,13.8376048 C9.17469008,13.9636368 9.09893253,14.0836149 9.02333695,14.1975391 Z M14.1422523,12.6102786 C14.3603019,12.606518 14.5782131,12.6238179 14.7931152,12.6619504 C14.9481093,12.6759172 15.0839606,12.774132 15.1491546,12.9193522 C15.1575595,12.9471313 15.1622171,12.9759644 15.1629972,13.0050451 C15.1641901,13.0389267 15.1614428,13.0728335 15.1548137,13.1060454 C15.1209761,13.2853741 14.9405872,13.4013964 14.6938165,13.4013964 C14.6612242,13.3990242 14.6287762,13.3948874 14.5966076,13.3890033 C14.5593119,13.3867486 14.5222068,13.3819093 14.4855451,13.3745183 C14.0015416,13.2483404 13.5506478,13.0137625 13.1651213,12.6875667 C13.2666851,12.6717222 13.3641497,12.6590737 13.4570514,12.6487987 C13.6846293,12.6235247 13.9133504,12.6106666 14.1422523,12.6102786 L14.1422523,12.6102786 Z M12.1757041,12.3972105 C11.914287,12.4536256 11.6443832,12.5190501 11.3703547,12.5933939 C11.1736608,12.6469285 10.9740149,12.7054917 10.7744348,12.7679756 C10.8804374,12.5448991 10.9778912,12.3238807 11.0627955,12.1137193 C11.1746472,11.8360154 11.2798058,11.5583453 11.3762549,11.286714 C11.4611592,11.4235718 11.5489534,11.5565126 11.638472,11.684391 C11.727249,11.8107184 11.8177917,11.9324628 11.9101003,12.0496243 C12.0022651,12.1667157 12.0959047,12.2785305 12.191019,12.385069 L12.1680028,12.3903492 L12.1757041,12.3972105 Z M10.8245153,7.60402922 C10.830933,7.59375078 10.8379595,7.58388776 10.845555,7.574496 C10.8880249,7.50887041 10.9582804,7.46786739 11.0348655,7.4640093 C11.0859011,7.46274479 11.1357692,7.47980867 11.1758857,7.51226367 C11.2836576,7.64480354 11.334104,7.81683499 11.3155431,7.98852069 C11.3135689,8.16109999 11.2988018,8.33327362 11.2713702,8.5035457 C11.2240956,8.80530337 11.1607977,9.10417667 11.0817602,9.39882598 C11.0604708,9.48031274 11.037748,9.56311893 11.0135919,9.64724455 C10.9255783,9.4101594 10.8544126,9.16682304 10.8006551,8.91915146 C10.7580124,8.72388966 10.7310777,8.52535099 10.7201238,8.32554644 C10.7114611,8.17732349 10.7178107,8.02857637 10.7390702,7.88170311 C10.7512726,7.78466085 10.780207,7.69063189 10.8245153,7.60402922 L10.8245153,7.60402922 Z M15.9962767,13.0712319 C15.9895011,13.0016714 15.9738851,12.9333238 15.9498277,12.8679357 C15.9186388,12.7805256 15.8713446,12.7001183 15.8105355,12.6311178 C15.7333646,12.5474926 15.6438322,12.4769178 15.5452459,12.4220005 C15.1156892,12.217283 14.6437303,12.1243559 14.1709861,12.1514133 C13.9745406,12.1514133 13.7649283,12.1611775 13.5437495,12.1809502 C13.3226328,12.2004613 13.0904001,12.2299106 12.8470514,12.2692983 C12.5666851,11.9882637 12.3113277,11.6820203 12.08403,11.3542265 C11.9115787,11.1091903 11.7522219,10.8546924 11.6066658,10.5918608 C11.6772343,10.3639948 11.7389848,10.1470523 11.7919173,9.94103327 C11.8229235,9.81973074 11.8503713,9.70342678 11.8755284,9.58977795 C11.9109028,9.4286296 11.9403928,9.27540535 11.9639985,9.1301052 C11.9801792,9.02964192 11.994084,8.93234076 12.0042952,8.83975276 C12.0214288,8.6914877 12.0303234,8.54233889 12.0309355,8.39303271 C12.0676433,7.92922083 11.8929965,7.47413872 11.5581234,7.1610121 C11.5105048,7.12525361 11.4591412,7.09508808 11.4049923,7.07107923 C11.2903943,7.02261969 11.1674435,6.99849365 11.0435386,7.0000728 C10.9209315,7.00185134 10.8009743,7.03707084 10.6959896,7.10219352 C10.5879528,7.16706771 10.4977902,7.25918576 10.4340209,7.36984398 C10.3079131,7.62723495 10.2495402,7.91407379 10.2647054,8.20184415 C10.2670349,8.33840654 10.2770607,8.47471542 10.2947324,8.61008538 C10.3696793,9.15752086 10.5208748,9.69102041 10.7436698,10.19418 C10.700297,10.3260468 10.6561825,10.4570873 10.6107784,10.5884132 C10.5197254,10.8508098 10.4232544,11.1139987 10.3178035,11.3869256 C10.2650159,11.5232802 10.2100728,11.6619744 10.1523057,11.8043979 C9.95513663,12.292172 9.73204328,12.7684409 9.48403451,13.2310508 C8.88073122,13.4805172 7.72524992,14.0195436 7.23268765,14.6548271 C7.12444606,14.7850525 7.04879328,14.9404896 7.01230892,15.1076198 C7.00145917,15.1675857 6.99776148,15.2286877 7.00129766,15.2895736 C7.00900022,15.408123 7.04666258,15.5225546 7.11056272,15.6215595 C7.14409675,15.6736465 7.18363563,15.7213736 7.22831822,15.7637012 C7.28209352,15.8137667 7.34236679,15.8559198 7.40741383,15.8889545 C7.42353617,15.8973969 7.4402065,15.9053022 7.45841857,15.913493 C7.51150808,15.9377412 7.5666653,15.9568907 7.62318566,15.9706967 C7.7045545,15.9904257 7.78789679,16.0002574 7.87149807,15.9999949 C8.05636413,15.9967166 8.23823283,15.9514143 8.40405015,15.8673342 C8.52695482,15.806862 8.64381026,15.7341763 8.75294721,15.6503153 C8.9989438,15.4572016 9.22242689,15.2355365 9.41895699,14.9897235 C9.63602543,14.7218948 9.83651647,14.4403168 10.0192463,14.1466521 C10.1585347,13.9251079 10.2893949,13.7001837 10.4088748,13.4818316 C10.5902501,13.4182736 10.7731001,13.3578865 10.957425,13.3006702 C11.1413175,13.2434365 11.3260758,13.1896465 11.5102788,13.1398111 C11.5499618,13.1289952 11.5879824,13.1208083 11.6274206,13.1102778 C11.9891812,13.0145127 12.3410959,12.9327818 12.6733811,12.8721306 C12.7361972,12.9285757 12.7987051,12.9820176 12.860905,13.0324564 C12.9847543,13.1337372 13.1063459,13.2240168 13.2256796,13.3032953 C13.2852369,13.3431036 13.3441573,13.3805547 13.4024407,13.4156485 C13.8903798,13.7261966 14.4500003,13.8974966 15.0237197,13.9119223 C15.2563928,13.924477 15.4875509,13.8667321 15.68867,13.745813 C15.723021,13.7226793 15.7553781,13.6965592 15.7853857,13.66774 C15.8608219,13.5954378 15.9186709,13.5059222 15.9542665,13.4064137 C15.9808876,13.3342096 15.996112,13.258096 15.9993638,13.1809525 C16.0008147,13.1443497 15.9997832,13.1076874 15.9962767,13.0712319 Z"/>
  </g>
</svg>
