<svg xmlns="http://www.w3.org/2000/svg" width="24" height="24" viewBox="0 0 24 24">
  <g fill="none" fill-rule="evenodd">
    <path fill="#0D66D0" fill-rule="nonzero" d="M12.5 9L16.5 9C16.7761424 9 17 9.22385763 17 9.5 17 9.77614237 16.7761424 10 16.5 10L12.5 10C12.2238576 10 12 9.77614237 12 9.5 12 9.22385763 12.2238576 9 12.5 9zM12.5 11L16.5 11C16.7761424 11 17 11.2238576 17 11.5 17 11.7761424 16.7761424 12 16.5 12L12.5 12C12.2238576 12 12 11.7761424 12 11.5 12 11.2238576 12.2238576 11 12.5 11zM7.5 13L16.5 13C16.7761424 13 17 13.2238576 17 13.5 17 13.7761424 16.7761424 14 16.5 14L7.5 14C7.22385763 14 7 13.7761424 7 13.5 7 13.2238576 7.22385763 13 7.5 13z"/>
    <polygon fill="#0D66D0" fill-rule="nonzero" points="19 6.3 19 20 5 20 5 3 15.6 3" opacity=".1"/>
    <path fill="#0D66D0" fill-rule="nonzero" d="M11.9314963,6.00010166 L7.08552192,6.00000051 C6.90835123,5.9996933 6.76133227,6.13752669 6.75024436,6.31459551 L6.75,7.8868258 C6.75,7.97324951 6.78541965,8.05589699 6.8480015,8.11549993 C6.89380881,8.16248549 6.95630366,8.19279334 7.02331204,8.20115048 L7.31578027,8.20261506 C7.39646967,8.20698667 7.48177296,8.17596668 7.54568075,8.11648021 L7.58668144,8.05960587 C7.62141811,8.00202436 7.63766486,7.94238159 7.63814078,7.8812195 L7.63726482,6.90768512 L9.0270725,6.90829741 L9.0270725,10.6052974 L8.41444153,10.6052974 C8.22368779,10.6205646 8.08196358,10.7665864 8.07251115,10.9474577 L8.0723408,11.1776653 C8.09410106,11.3687618 8.24425421,11.5012576 8.42187613,11.5000415 L10.5986064,11.5000973 C10.7839105,11.5000973 10.970821,11.3504252 10.970821,11.1651197 L10.970821,10.9085411 C10.9621268,10.8110551 10.9200771,10.7321933 10.8534746,10.6776993 L10.8002533,10.6423348 C10.7627917,10.6224889 10.7217657,10.6102223 10.6795587,10.6062477 L10.0172294,10.6052974 L10.0172294,6.90829741 L11.3542648,6.90768512 L11.355167,7.91314156 C11.3469657,7.98745873 11.3745635,8.07419624 11.4320315,8.14005965 C11.5001584,8.20755218 11.5842426,8.23958488 11.6704895,8.23536006 L11.9406837,8.23550976 C12.0203702,8.23936221 12.1034207,8.20614138 12.162591,8.14428009 C12.2212967,8.08274066 12.2526944,8.00032014 12.2498186,7.91548553 L12.2498903,6.32240761 C12.2443161,6.14496141 12.1049722,6.00561439 11.9314963,6.00010166 Z"/>
    <path fill="#0D66D0" fill-rule="nonzero" d="M19,6.3 L19,20 L5,20 L5,3 L15.6,3 L19,6.3 Z M15.7,1 L5,1 C3.9,1 3,1.9 3,3 L3,20 C3,21.1 3.9,22 5,22 L19,22 C20.1,22 21,21.1 21,20 L21,6 C21,5.6 20.8,5.1 20.5,4.8 L16.9,1.5 C16.6,1.2 16.2,1 15.7,1 L15.7,1 Z"/>
  </g>
</svg>
