<svg xmlns="http://www.w3.org/2000/svg" width="24" height="24" viewBox="0 0 24 24">
  <g fill="none" fill-rule="evenodd">
    <path fill="#D7373F" fill-rule="nonzero" d="M19,6.3 L19,20 L5,20 L5,3 L15.6,3 L19,6.3 Z M15.7,1 L5,1 C3.9,1 3,1.9 3,3 L3,20 C3,21.1 3.9,22 5,22 L19,22 C20.1,22 21,21.1 21,20 L21,6 C21,5.6 20.8,5.1 20.5,4.8 L16.9,1.5 C16.6,1.2 16.2,1 15.7,1 L15.7,1 Z"/>
    <polygon fill="#D7373F" fill-rule="nonzero" points="19 6.3 19 20 5 20 5 3 15.6 3" opacity=".1"/>
    <path fill="#D7373F" fill-rule="nonzero" d="M8.97296739,13.8077833 C8.80583979,14.05573 8.62613835,14.2949653 8.43456747,14.5245514 C8.34771423,14.6273812 8.26274531,14.7214682 8.18062968,14.80612 C7.97445801,15.0756299 7.67898316,15.2628385 7.34723415,15.3341472 C7.27708703,15.3372683 7.20852125,15.3127079 7.15630972,15.2657577 C7.13596562,15.2472919 7.11766337,15.2266948 7.10171779,15.2043206 C7.07315838,15.1645029 7.0563352,15.1174753 7.05315838,15.0685775 C7.05171959,15.0430623 7.05352002,15.0174676 7.05851666,14.9924051 C7.06394683,14.9642177 7.07200301,14.9366004 7.0825798,14.9099144 C7.1454532,14.7705091 7.23593043,14.645294 7.34854693,14.5418318 C7.38148249,14.5091969 7.41690667,14.4760605 7.45481947,14.4424224 C8.0002032,14.0050828 8.60486861,13.6473202 9.25074506,13.3798264 C9.15795454,13.5296767 9.06536199,13.672329 8.97296739,13.8077833 Z M15.2294195,11.9205526 C15.4959245,11.9160813 15.7622604,11.9366507 16.0249186,11.9819898 C16.2143559,11.998596 16.3803963,12.1153721 16.4600778,12.2880368 C16.4703505,12.3210658 16.4760432,12.355348 16.4769966,12.3899245 C16.4784546,12.4302093 16.4750967,12.470524 16.4669945,12.5100125 C16.4256375,12.7232318 16.2051622,12.8611807 15.9035535,12.8611807 C15.8637185,12.8583601 15.8240598,12.8534415 15.7847426,12.8464454 C15.739159,12.8437647 15.6938083,12.8380108 15.6489995,12.829223 C15.0574397,12.6791992 14.5063473,12.4002894 14.0351483,12.0124471 C14.1592818,11.9936083 14.2784052,11.9785694 14.3919517,11.9663525 C14.6701025,11.9363021 14.9496505,11.921014 15.2294195,11.9205526 L15.2294195,11.9205526 Z M12.8258605,11.6672176 C12.5063508,11.7342944 12.1764683,11.8120832 11.8415446,11.9004769 C11.6011409,11.9641288 11.3571294,12.0337597 11.1131981,12.1080522 C11.2427569,11.8428174 11.361867,11.5800295 11.465639,11.3301506 C11.6023465,10.9999645 11.7308738,10.6698186 11.848756,10.3468527 C11.952528,10.5095748 12.059832,10.6676395 12.1692436,10.8196852 C12.2777487,10.9698867 12.3884121,11.1146391 12.5012336,11.2539425 C12.6138796,11.3931625 12.7283279,11.5261088 12.8445788,11.6527815 L12.8164478,11.6590596 L12.8258605,11.6672176 Z M11.1744076,5.96819182 C11.1822514,5.95597089 11.1908394,5.94424389 11.2001228,5.93307722 C11.2520304,5.85504931 11.3378983,5.80629728 11.4315023,5.80171007 C11.4938792,5.8002066 11.554829,5.82049531 11.6038603,5.85908385 C11.7355815,6.01667191 11.7972382,6.2212149 11.7745527,6.42534682 C11.7721397,6.6305412 11.7540911,6.83525325 11.7205636,7.03770439 C11.6627835,7.39649006 11.5854194,7.75184625 11.488818,8.10218018 C11.4627976,8.1990668 11.4350253,8.29752221 11.4055012,8.3975464 C11.297929,8.11565545 11.2109487,7.82633191 11.1452451,7.53185385 C11.0931263,7.29969029 11.0602061,7.06363057 11.046818,6.82606575 C11.0362303,6.64983072 11.0439909,6.47297246 11.0699747,6.2983422 C11.0848888,6.18296031 11.1202529,6.07116118 11.1744076,5.96819182 L11.1744076,5.96819182 Z M17.4954492,12.4686198 C17.487168,12.3859132 17.4680818,12.3046489 17.4386783,12.2269033 C17.4005585,12.1229739 17.3427545,12.0273707 17.2684323,11.9453302 C17.1741123,11.845901 17.0646838,11.7619885 16.9441895,11.6966926 C16.4191757,11.4532864 15.842337,11.3427973 15.2645385,11.3749681 C15.0244385,11.3749681 14.7682458,11.3865777 14.4979161,11.4100872 C14.2276623,11.4332856 13.9438224,11.4683004 13.6463962,11.5151318 C13.3037262,11.1809856 12.9916227,10.8168664 12.7138144,10.4271242 C12.5030407,10.1357796 12.3082712,9.8331851 12.1303693,9.52068196 C12.2166197,9.24975247 12.2920926,8.99181085 12.3567878,8.74685711 C12.3946843,8.60263008 12.4282316,8.46434629 12.4589791,8.32921941 C12.5022145,8.13761627 12.5382579,7.95543477 12.5671092,7.78267491 C12.5868857,7.66322547 12.6038804,7.54753575 12.6163607,7.4374499 C12.6373018,7.2611648 12.648173,7.08382895 12.6489212,6.90630598 C12.6937862,6.35484011 12.4803291,5.81375382 12.0710397,5.44145062 C12.0128392,5.39893427 11.9500614,5.36306788 11.8838795,5.33452169 C11.7438153,5.27690397 11.5935421,5.24821845 11.4421027,5.25009603 C11.2922496,5.25221069 11.1456353,5.29408618 11.0173207,5.37151614 C10.8852756,5.44865066 10.7750769,5.55817773 10.6971367,5.68974883 C10.543005,5.9957831 10.4716603,6.33683049 10.4901955,6.67898544 C10.4930426,6.84135622 10.5052964,7.00342559 10.5268952,7.16437858 C10.618497,7.81527175 10.8032914,8.44959529 11.0755964,9.04784506 C11.0225852,9.20463278 10.9686675,9.36043815 10.9131736,9.51658288 C10.8018866,9.8285687 10.6839776,10.1414967 10.5550932,10.466003 C10.490575,10.6281267 10.4234224,10.7930322 10.3528181,10.9623717 C10.1118337,11.5423284 9.83916401,12.1086055 9.53604218,12.6586422 C8.79867149,12.9552542 7.38641657,13.5961491 6.78439602,14.3514924 C6.65210075,14.5063286 6.55963623,14.6911411 6.51504424,14.8898566 C6.50178343,14.9611552 6.49726403,15.0338046 6.50158603,15.1061971 C6.51100027,15.2471507 6.55703204,15.3832082 6.63513221,15.5009237 C6.67611826,15.5628545 6.72444355,15.6196013 6.7790556,15.6699283 C6.84478097,15.7294555 6.9184483,15.7795748 6.99795024,15.8188527 C7.01765531,15.8288906 7.03803017,15.8382899 7.06028936,15.8480285 C7.12517654,15.8768594 7.19259092,15.8996278 7.26167136,15.916043 C7.36112217,15.9395005 7.46298497,15.9511902 7.56516431,15.9508781 C7.79111171,15.9469803 8.01339568,15.8931165 8.2160613,15.7931464 C8.36627811,15.7212458 8.50910143,15.6348235 8.64249104,15.535114 C8.94315353,15.3055045 9.21629954,15.0419478 9.45650299,14.7496795 C9.72180886,14.431235 9.96685346,14.0964426 10.1901899,13.7472794 C10.3604313,13.4838664 10.5203715,13.2164346 10.6664025,12.9568171 C10.8880834,12.8812475 11.1115668,12.809448 11.3368527,12.7414187 C11.5616102,12.6733685 11.787426,12.609413 12.012563,12.5501594 C12.0610644,12.5372995 12.1075341,12.5275653 12.1557362,12.5150448 C12.5978881,12.4011813 13.0280061,12.3040045 13.4341324,12.231891 C13.5109076,12.2990034 13.5873063,12.3625452 13.6633284,12.4225162 C13.8146997,12.5429376 13.9633116,12.6502788 14.109164,12.7445399 C14.1819562,12.7918714 14.25397,12.8364002 14.3252054,12.8781263 C14.9215753,13.2473636 15.6055559,13.4510369 16.3067685,13.4681889 C16.5911468,13.4831163 16.8736733,13.4144584 17.1194856,13.2706872 C17.1614701,13.2431815 17.2010177,13.2121251 17.2376937,13.1778595 C17.3298935,13.0918932 17.4005978,12.9854605 17.4441035,12.8671463 C17.4766405,12.7812966 17.4952481,12.6907986 17.4992224,12.599076 C17.5009958,12.5555557 17.499735,12.5119648 17.4954492,12.4686198 Z"/>
  </g>
</svg>
