<svg xmlns="http://www.w3.org/2000/svg" width="24" height="24" viewBox="0 0 24 24">
  <g fill="none" fill-rule="evenodd">
    <path fill="#DA7B11" fill-rule="nonzero" d="M9.72174812,7.00284417 C9.32935677,7.0064507 9.01316152,7.32614656 9.01317803,7.71925884 L9.01317803,8.99822938 L7.72929134,8.99822938 C7.33838432,9.00533511 7.0242112,9.32298645 7.02072126,9.71464406 L7.02072126,14.2941045 C7.0242112,14.6857621 7.33838432,15.0034135 7.72929134,15.0105192 L14.2939212,15.0105192 C14.6848282,15.0034135 14.9990013,14.6857621 15.0024913,14.2941045 L14.9917019,13.9966289 L16.2779023,13.9966289 C16.6688093,13.9895231 16.9937718,13.6829947 16.9972618,13.2913371 L16.9972618,7.73240407 C17.0138896,7.54808702 16.9521794,7.36528829 16.8272918,7.22891642 C16.7024042,7.09254455 16.5259134,7.0152382 16.3411784,7.01598939 L9.72174812,7.00284417 Z M14.0363635,13.9966289 L8.00000003,13.9966289 L8.00000003,9.98137753 L14.0363635,9.98137753 L14.0363635,13.9966289 Z M14.9917019,12.9927274 L15.0024913,9.72778928 C14.9990013,9.33613167 14.6848282,9.01848033 14.2939212,9.0113746 L10.0012284,8.99822938 L10.0012284,7.98153773 L16.0059127,7.98153773 L16.0059127,12.9927274 L14.9917019,12.9927274 Z"/>
    <path fill="#DA7B11" d="M10.2249874,13.2355827 C10.1124937,13.2917985 10,13.1731206 10,13.0606888 L10,10.880762 C10.0059903,10.8318364 10.0366586,10.789396 10.0812454,10.7683303 C10.1260393,10.7438899 10.1801935,10.7438899 10.2249874,10.7683303 L12.4186144,11.8551706 C12.4680197,11.8864757 12.4985062,11.9403836 12.4998599,11.9988334 C12.5023748,12.0582801 12.4708696,12.1139893 12.4186144,12.1424962 L10.2249874,13.2355827 Z"/>
    <polygon fill="#DA7B11" fill-rule="nonzero" points="19 6.3 19 20 5 20 5 3 15.6 3" opacity=".1"/>
    <path fill="#DA7B11" fill-rule="nonzero" d="M19,6.3 L19,20 L5,20 L5,3 L15.6,3 L19,6.3 Z M15.7,1 L5,1 C3.9,1 3,1.9 3,3 L3,20 C3,21.1 3.9,22 5,22 L19,22 C20.1,22 21,21.1 21,20 L21,6 C21,5.6 20.8,5.1 20.5,4.8 L16.9,1.5 C16.6,1.2 16.2,1 15.7,1 L15.7,1 Z"/>
  </g>
</svg>
