<svg xmlns="http://www.w3.org/2000/svg" width="24" height="24" viewBox="0 0 24 24">
  <g fill="none" fill-rule="evenodd">
    <path fill="#0D66D0" fill-rule="nonzero" d="M17.6,3 L21,6.3 L21,20 L11.1863646,20.0004209 C11.3899905,19.3702369 11.5,18.6979655 11.5,18 C11.5,15.1080939 9.61143991,12.6572846 7.00036476,11.8136172 L7,3 L17.6,3 Z" opacity=".1"/>
    <path fill="#0D66D0" fill-rule="nonzero" d="M13.9314963 6.00010166L9.08552192 6.00000051C8.90835123 5.9996933 8.76133227 6.13752669 8.75024436 6.31459551L8.75 7.8868258C8.75 7.97324951 8.78541965 8.05589699 8.8480015 8.11549993 8.89380881 8.16248549 8.95630366 8.19279334 9.02331204 8.20115048L9.31578027 8.20261506C9.39646967 8.20698667 9.48177296 8.17596668 9.54568075 8.11648021L9.58668144 8.05960587C9.62141811 8.00202436 9.63766486 7.94238159 9.63814078 7.8812195L9.63726482 6.90768512 11.0270725 6.90829741 11.0270725 10.6052974 10.4144415 10.6052974C10.2236878 10.6205646 10.0819636 10.7665864 10.0725111 10.9474577L10.0723408 11.1776653C10.0941011 11.3687618 10.2442542 11.5012576 10.4218761 11.5000415L12.5986064 11.5000973C12.7839105 11.5000973 12.970821 11.3504252 12.970821 11.1651197L12.970821 10.9085411C12.9621268 10.8110551 12.9200771 10.7321933 12.8534746 10.6776993L12.8002533 10.6423348C12.7627917 10.6224889 12.7217657 10.6102223 12.6795587 10.6062477L12.0172294 10.6052974 12.0172294 6.90829741 13.3542648 6.90768512 13.355167 7.91314156C13.3469657 7.98745873 13.3745635 8.07419624 13.4320315 8.14005965 13.5001584 8.20755218 13.5842426 8.23958488 13.6704895 8.23536006L13.9406837 8.23550976C14.0203702 8.23936221 14.1034207 8.20614138 14.162591 8.14428009 14.2212967 8.08274066 14.2526944 8.00032014 14.2498186 7.91548553L14.2498903 6.32240761C14.2443161 6.14496141 14.1049722 6.00561439 13.9314963 6.00010166zM14.5 9L18.5 9C18.7761424 9 19 9.22385763 19 9.5 19 9.77614237 18.7761424 10 18.5 10L14.5 10C14.2238576 10 14 9.77614237 14 9.5 14 9.22385763 14.2238576 9 14.5 9zM14.5 11L18.5 11C18.7761424 11 19 11.2238576 19 11.5 19 11.7761424 18.7761424 12 18.5 12L14.5 12C14.2238576 12 14 11.7761424 14 11.5 14 11.2238576 14.2238576 11 14.5 11zM10.5 13L18.5 13C18.7761424 13 19 13.2238576 19 13.5 19 13.7761424 18.7761424 14 18.5 14L10.5 14C10.2238576 14 10 13.7761424 10 13.5 10 13.2238576 10.2238576 13 10.5 13z"/>
    <path fill="#0D66D0" fill-rule="nonzero" d="M17.7,1 C18.2,1 18.6,1.2 18.9,1.5 L18.9,1.5 L22.5,4.8 C22.8,5.1 23,5.6 23,6 L23,6 L23,20 C23,21.1 22.1,22 21,22 L21,22 L10.123152,22.0008828 C10.5867964,21.4080231 10.949772,20.7326312 11.1863646,20.0004209 L21,20 L21,6.3 L17.6,3 L7,3 L7.00042094,11.8136354 C6.37023688,11.6100095 5.69796549,11.5 5,11.5 L5,3 C5,1.9 5.9,1 7,1 L7,1 Z"/>
    <path fill="#0D66D0" fill-rule="nonzero" d="M2.27750103,19.0704174 C2.02750103,19.0704174 1.86083437,18.9037507 1.86083437,18.6537507 L1.86083437,17.4037507 C1.86083437,17.1537507 2.02750103,16.987084 2.27750103,16.987084 L4.9441677,16.987084 L4.9441677,15.1537507 C4.9441677,14.8885992 5.1941677,14.987084 5.1941677,14.987084 L7.86083437,17.8204174 C7.9441677,17.9037507 7.9441677,17.987084 7.86083437,18.0704174 L5.1941677,20.8204174 C5.11083437,20.9037507 4.89208437,20.987084 4.86083437,20.737084 C4.86083437,20.737084 4.86083437,20.1815285 4.86083437,19.0704174 L2.27750103,19.0704174 Z M0,17.9180328 C0,20.6229508 2.21311475,22.8360656 5,22.8360656 C7.78688525,22.8360656 10,20.6229508 10,17.9180328 C10,15.2131148 7.78688525,13 5,13 C2.21311475,13 0,15.2131148 0,17.9180328 Z"/>
  </g>
</svg>
