<svg xmlns="http://www.w3.org/2000/svg" width="24" height="24" viewBox="0 0 24 24">
  <g fill="none" fill-rule="evenodd">
    <path fill="#D2B200" d="M12.8158203,16 L12.3135,16 L9,19 L9,16 L3,16 L3,4 L19,4 L19,11.4764307 C19.6973,11.4764307 20.3693,11.5841307 21,11.7848307 L21,4.2998 C21,3.5996 20.7002,3 20.2998,2.5996 C19.9004,2.2002 19.2998,2 18.7998,2 L3.2002,2 C2.6001,2 2.1001,2.2002 1.7002,2.5996 C1.2998,3 1,3.5996 1,4.2002 L1,15.7998 C1,16.4004 1.2002,16.9004 1.7002,17.4004 C2.1001,17.7998 2.7002,18 3.2002,18 L7,18 L7,22.7002 C7,22.9004 7.1001,23 7.2998,23 C7.2998,23 7.3999,23 7.5,22.9004 L12.5,18.4669271 C12.4873,18.2994271 12.4817,18.1276271 12.4817,17.9569271 C12.4817,17.2596271 12.6150203,16.6309 12.8158203,16 Z"/>
    <path fill="#D2B200" d="M19,4 L19,11.4116 C19.053989,11.4116 19.0607669,11.4428885 19.027414,11.5003275 C19.0180823,11.5000185 19.0090433,11.5 19,11.5 C16.0912609,11.5 13.6287685,13.4106097 12.7990485,16.0453036 C12.7332099,16.0626586 12.7044341,16.048907 12.72,16 L12.3135,16 L9,19 L9,16 L3,16 L3,4 L19,4 Z" opacity=".1"/>
    <path fill="#D2B200" fill-rule="nonzero" d="M4.998 8.5C4.998 8.2197 5.2183 8 5.498 8L16.498 8C16.7783 8 16.998 8.2197 16.998 8.5 16.998 8.7798 16.7783 9 16.498 9L5.498 9C5.2183 9 4.998 8.7798 4.998 8.5zM4.998 11.5C4.998 11.2197 5.2183 11 5.498 11L14.498 11C14.7783 11 14.998 11.2197 14.998 11.5 14.998 11.7798 14.7783 12 14.498 12L5.498 12C5.2183 12 4.998 11.7798 4.998 11.5zM19 13C21.7617 13 24 15.2393 24 18 24 20.7607 21.7617 23 19 23 16.2383 23 14 20.7607 14 18 14 15.2393 16.2383 13 19 13zM19.4482 14.9941L18.5566 14.9941C18.249 14.9941 18 15.2441 18 15.5508L18 15.5508 18 17.0176 16.5723 17.0117C16.2656 17.0117 16.0156 17.2607 16.0156 17.5684L16.0156 17.5684 16.0059 18.4443C16.0059 18.751 16.2559 19 16.5625 19L16.5625 19 18 19 18.0068 20.4443C18.0068 20.751 18.2559 21 18.5625 21L18.5625 21 19.4434 21.0059C19.752 21.0059 20.001 20.7568 20.001 20.4492L20.001 20.4492 20.0029 18.999 21.4453 18.999C21.7529 18.999 22.002 18.75 22.002 18.4434L22.002 18.4434 21.9971 17.5557C21.9971 17.249 21.748 17 21.4414 17L21.4414 17 20 17 20.0059 15.5508C20.0059 15.2432 19.7559 14.9941 19.4482 14.9941L19.4482 14.9941z"/>
  </g>
</svg>
