<svg width="12" height="12" viewBox="0 0 12 12" fill="none" xmlns="http://www.w3.org/2000/svg">
<path d="M11.6552 10.0637L7.59174 6.00024L11.6552 1.93674C11.8663 1.72569 11.9848 1.43945 11.9848 1.14099C11.9848 0.842521 11.8663 0.556282 11.6552 0.345235C11.4442 0.134189 11.1579 0.015625 10.8595 0.015625C10.561 0.015625 10.2748 0.134189 10.0637 0.345235L6.00024 4.40874L1.93674 0.345235C1.72569 0.134189 1.43945 0.015625 1.14099 0.015625C0.842521 0.015625 0.556281 0.134189 0.345235 0.345235C0.134189 0.556281 0.015625 0.842521 0.015625 1.14099C0.015625 1.43945 0.134189 1.72569 0.345235 1.93674L4.40874 6.00024L0.345235 10.0637C0.134189 10.2748 0.015625 10.561 0.015625 10.8595C0.015625 11.1579 0.134189 11.4442 0.345235 11.6552C0.556282 11.8663 0.842521 11.9848 1.14099 11.9848C1.43945 11.9848 1.72569 11.8663 1.93674 11.6552L6.00024 7.59174L10.0637 11.6552C10.1682 11.7597 10.2923 11.8426 10.4288 11.8992C10.5654 11.9557 10.7117 11.9848 10.8595 11.9848C11.0073 11.9848 11.1536 11.9557 11.2901 11.8992C11.4267 11.8426 11.5507 11.7597 11.6552 11.6552C11.7597 11.5507 11.8426 11.4267 11.8992 11.2901C11.9557 11.1536 11.9848 11.0073 11.9848 10.8595C11.9848 10.7117 11.9557 10.5654 11.8992 10.4288C11.8426 10.2923 11.7597 10.1682 11.6552 10.0637Z" fill="#707070"/>
</svg>