<svg xmlns="http://www.w3.org/2000/svg" width="24" height="24" viewBox="0 0 24 24">
  <g fill="none" fill-rule="evenodd">
    <path fill="#3DA74E" fill-rule="nonzero" d="M17.6,3 L21,6.3 L21,20 L11.1863646,20.0004209 C11.3899905,19.3702369 11.5,18.6979655 11.5,18 C11.5,15.1080939 9.61143991,12.6572846 7.00036476,11.8136172 L7,3 L17.6,3 Z" opacity=".1"/>
    <path fill="#3DA74E" fill-rule="nonzero" d="M17.7,1 C18.2,1 18.6,1.2 18.9,1.5 L18.9,1.5 L22.5,4.8 C22.8,5.1 23,5.6 23,6 L23,6 L23,20 C23,21.1 22.1,22 21,22 L21,22 L10.123152,22.0008828 C10.5867964,21.4080231 10.949772,20.7326312 11.1863646,20.0004209 L21,20 L21,6.3 L17.6,3 L7,3 L7.00042094,11.8136354 C6.37023688,11.6100095 5.69796549,11.5 5,11.5 L5,3 C5,1.9 5.9,1 7,1 L7,1 Z"/>
    <path fill="#3CA64E" fill-rule="nonzero" d="M2.27750103,19.0704174 C2.02750103,19.0704174 1.86083437,18.9037507 1.86083437,18.6537507 L1.86083437,17.4037507 C1.86083437,17.1537507 2.02750103,16.987084 2.27750103,16.987084 L4.9441677,16.987084 L4.9441677,15.1537507 C4.9441677,14.8885992 5.1941677,14.987084 5.1941677,14.987084 L7.86083437,17.8204174 C7.9441677,17.9037507 7.9441677,17.987084 7.86083437,18.0704174 L5.1941677,20.8204174 C5.11083437,20.9037507 4.89208437,20.987084 4.86083437,20.737084 C4.86083437,20.737084 4.86083437,20.1815285 4.86083437,19.0704174 L2.27750103,19.0704174 Z M0,17.9180328 C0,20.6229508 2.21311475,22.8360656 5,22.8360656 C7.78688525,22.8360656 10,20.6229508 10,17.9180328 C10,15.2131148 7.78688525,13 5,13 C2.21311475,13 0,15.2131148 0,17.9180328 Z"/>
    <path fill="#3DA74E" fill-rule="nonzero" d="M9.93779827,6.00179102 L10.0699333,6.00261587 L17.9481856,6.00261587 C18.4700137,6.03511885 18.9028197,6.41828331 18.9981201,6.93212616 L18.9981201,6.93212616 L18.9981201,12.4271238 C18.9981201,12.8482213 18.9184008,13.2512566 18.6381426,13.5565288 C18.3548984,13.8650365 17.9481856,13.9962971 17.5282118,13.9962971 L17.5282118,13.9962971 L10.459909,13.9962971 C10.3304178,13.9962971 10.2099819,13.9882517 10.0984276,13.9718787 C9.78795432,13.5753099 9.43083404,13.2177357 9.03656816,12.9049563 C9.01190732,12.7619066 9,12.6024066 9,12.4271238 L9,12.4271238 L9,6.93212616 C9.01792768,6.66680512 9.14089926,6.41956383 9.34170168,6.24511564 C9.54250411,6.07066745 9.80458004,5.98339665 10.0699333,6.00261587 Z M18,12 L15,12.0010531 L14.9999376,13 L17.4932726,13.0494792 C17.7693977,13.0494792 17.9932414,12.8257394 17.9932414,12.5497424 L17.9932414,12.5497424 L18,12 Z M14,12.0010531 L13.0000624,12.0042125 L12.9999376,13 L13.9999376,13.0010531 L14,12.0010531 Z M9.96880652,11.9871101 L9.95994013,12.5002633 C9.95994013,12.7762603 10.1837838,13 10.459909,13 L10.459909,13 L12,13 L12.0000624,12.0042125 L9.96880652,11.9871101 Z M18,10 L15,10.0010531 L15,11.0010531 L18,11 L18,10 Z M9.96880652,9.98553045 L9.96880652,10.9844773 L12.0000624,11.0015797 L12.0000624,10.0026328 L9.96880652,9.98553045 Z M14,9.99947343 L13,10.0026328 L13,11.0015797 L14,11.0010531 L14,9.99947343 Z M9.96880652,7.98711015 L9.96880652,8.98605701 L12.0000624,9.0031594 L12.0000624,8.00421253 L9.96880652,7.98711015 Z M14,8.00105313 L13,8.00421253 L13,9.0031594 L14,9 L14,8.00105313 Z M18,8 L15,8.00105313 L15,9.00105313 L18,9 L18,8 Z"/>
  </g>
</svg>
