<?xml version="1.0" encoding="utf-8"?>
<!-- Generator: Adobe Illustrator 26.0.0, SVG Export Plug-In . SVG Version: 6.00 Build 0)  -->
<svg version="1.1" id="Layer_1" xmlns="http://www.w3.org/2000/svg" xmlns:xlink="http://www.w3.org/1999/xlink" x="0px" y="0px"
	 viewBox="0 0 40 40" style="enable-background:new 0 0 40 40;" xml:space="preserve">
<style type="text/css">
	.st0{clip-path:url(#SVGID_00000016072780584544018880000010524694469849932172_);fill:#DB4437;}
	.st1{fill:none;}
	.st2{fill:url(#SVGID_00000168097358407842483300000004389035145034072480_);}
	.st3{clip-path:url(#SVGID_00000078744893501203931570000010700843226643710379_);fill:#3E2723;fill-opacity:0.15;}
	.st4{clip-path:url(#SVGID_00000156567572819177867310000000947302240075890864_);fill:#0F9D58;}
	.st5{fill:url(#SVGID_00000036211397047409910680000012811502009477393071_);}
	.st6{clip-path:url(#SVGID_00000116926960213112460340000011107498641218196916_);fill:#263238;fill-opacity:0.15;}
	.st7{clip-path:url(#SVGID_00000054235526124306948310000008269877751996531903_);}
	.st8{clip-path:url(#SVGID_00000064329915475215562880000010017474105578923151_);fill:#FFCD40;}
	
		.st9{clip-path:url(#SVGID_00000166660817978379798420000001543803163384424105_);fill:url(#SVGID_00000027603655667438877910000014545519914063174310_);}
	.st10{clip-path:url(#SVGID_00000160171330776640248970000011093653142206084487_);fill:#FFCD40;}
	.st11{fill:url(#SVGID_00000051368609543935083070000002450189148993019045_);}
	.st12{clip-path:url(#SVGID_00000092424654173470084640000001454971817641581733_);}
	.st13{clip-path:url(#SVGID_00000019679856082067694790000011699775147377180550_);fill:#DB4437;}
	
		.st14{clip-path:url(#SVGID_00000111171804374995368500000005430626491935017350_);fill:url(#SVGID_00000146493623775468810500000013102728375147917247_);}
	
		.st15{clip-path:url(#SVGID_00000075164594609733318320000003408408755069301419_);fill:url(#SVGID_00000077318907561037433060000000519329288907137716_);}
	.st16{clip-path:url(#SVGID_00000158718727845529642990000011073368134008007351_);}
	.st17{clip-path:url(#SVGID_00000079446263187267655700000012659069711916048054_);}
	.st18{fill:#0F9D58;}
	.st19{fill:url(#SVGID_00000145039577641580872610000003094111570594967948_);}
	
		.st20{clip-path:url(#SVGID_00000083806582394216786870000015861694449818356133_);fill:url(#SVGID_00000083776560412452627710000015308186522902491050_);}
	
		.st21{clip-path:url(#SVGID_00000083057151456297365030000005537502529388674215_);fill:url(#SVGID_00000076592648808002167760000012204151800425097637_);}
	.st22{fill:#F1F1F1;}
	.st23{fill:#4285F4;}
	.st24{fill:#3E2723;fill-opacity:0.2;}
	.st25{fill:#FFFFFF;fill-opacity:0.1;}
	.st26{opacity:0.1;fill:#3E2723;enable-background:new    ;}
	.st27{fill:#FFFFFF;fill-opacity:0.2;}
	.st28{fill:#3E2723;fill-opacity:0.15;}
</style>
<g>
	<defs>
		<circle id="SVGID_1_" cx="20" cy="20" r="20"/>
	</defs>
	<clipPath id="SVGID_00000063628566829429762000000014282341390568575367_">
		<use xlink:href="#SVGID_1_"  style="overflow:visible;"/>
	</clipPath>
	<path style="clip-path:url(#SVGID_00000063628566829429762000000014282341390568575367_);fill:#DB4437;" d="M3.2,0v24.5h9L20,10.9
		h20V0H3.2z"/>
</g>
<g>
	<path class="st1" d="M20,10.9l-7.8,13.6h-9V9.2C1.2,12.3,0,16,0,20c0,11,9,20,20,20s20-9,20-20c0-3.3-0.8-6.4-2.2-9.1H20z"/>
	
		<linearGradient id="SVGID_00000021080936697121864370000006500029030035433090_" gradientUnits="userSpaceOnUse" x1="13.0206" y1="1006.2356" x2="24.9524" y2="999.2651" gradientTransform="matrix(1 0 0 1 -7 -989)">
		<stop  offset="0" style="stop-color:#A52714;stop-opacity:0.6"/>
		<stop  offset="0.66" style="stop-color:#A52714;stop-opacity:0"/>
	</linearGradient>
	<path style="fill:url(#SVGID_00000021080936697121864370000006500029030035433090_);" d="M12.2,24.5L20,10.9h17.8
		C34.5,4.4,27.8,0,20,0C12.9,0,6.8,3.7,3.2,9.2v15.3H12.2z"/>
</g>
<g>
	<defs>
		<circle id="SVGID_00000173865642597135115240000007060952028001047958_" cx="20" cy="20" r="20"/>
	</defs>
	<clipPath id="SVGID_00000106854406621970926340000010028561194604156545_">
		<use xlink:href="#SVGID_00000173865642597135115240000007060952028001047958_"  style="overflow:visible;"/>
	</clipPath>
	<path style="clip-path:url(#SVGID_00000106854406621970926340000010028561194604156545_);fill:#3E2723;fill-opacity:0.15;" d="
		M12.3,24.5l-9-15.6L3.2,9.2l9,15.4L12.3,24.5z"/>
</g>
<g>
	<defs>
		<circle id="SVGID_00000070104865397542226380000012455131289547700889_" cx="20" cy="20" r="20"/>
	</defs>
	<clipPath id="SVGID_00000015357211974078402800000009897460688083869312_">
		<use xlink:href="#SVGID_00000070104865397542226380000012455131289547700889_"  style="overflow:visible;"/>
	</clipPath>
	<path id="B" style="clip-path:url(#SVGID_00000015357211974078402800000009897460688083869312_);fill:#0F9D58;" d="M0,40h19
		l8.8-8.8v-6.6H12.1L0,3.7V40z"/>
</g>
<g>
	<path class="st1" d="M20,0C12.9,0,6.7,3.7,3.2,9.2l8.9,15.4h15.7v6.6L19,40c0.3,0,0.6,0,1,0c11,0,20-9,20-20S31,0,20,0z"/>
	
		<linearGradient id="SVGID_00000016780167776492658000000013773188746885349266_" gradientUnits="userSpaceOnUse" x1="31.4663" y1="1022.7255" x2="18.2026" y2="1014.9527" gradientTransform="matrix(1 0 0 1 -7 -989)">
		<stop  offset="0" style="stop-color:#055524;stop-opacity:0.4"/>
		<stop  offset="0.33" style="stop-color:#055524;stop-opacity:0"/>
	</linearGradient>
	<path style="fill:url(#SVGID_00000016780167776492658000000013773188746885349266_);" d="M27.8,24.6H12.1L3.2,9.2
		C1.2,12.3,0,16,0,20c0,10.7,8.4,19.5,19,20l8.8-8.8V24.6z"/>
</g>
<g>
	<defs>
		<circle id="SVGID_00000060003667134416565450000014797669502880190389_" cx="20" cy="20" r="20"/>
	</defs>
	<clipPath id="SVGID_00000019639293700936947210000014009276483990575031_">
		<use xlink:href="#SVGID_00000060003667134416565450000014797669502880190389_"  style="overflow:visible;"/>
	</clipPath>
	<path style="clip-path:url(#SVGID_00000019639293700936947210000014009276483990575031_);fill:#263238;fill-opacity:0.15;" d="
		M27.7,24.8l-0.2-0.1L18.8,40H19L27.7,24.8L27.7,24.8z"/>
</g>
<g>
	<defs>
		<circle id="SVGID_00000171699354577102443690000015117016831398310841_" cx="20" cy="20" r="20"/>
	</defs>
	<clipPath id="SVGID_00000063598364742350493510000006686846489189989277_">
		<use xlink:href="#SVGID_00000171699354577102443690000015117016831398310841_"  style="overflow:visible;"/>
	</clipPath>
	<g style="clip-path:url(#SVGID_00000063598364742350493510000006686846489189989277_);">
		<g>
			<defs>
				<polygon id="SVGID_00000050654540426598045890000002947846540532304570_" points="0,40 19,40 27.9,31.2 27.9,24.5 12.1,24.5 
					0,3.7 				"/>
			</defs>
			<clipPath id="SVGID_00000089559606560815937060000007040005913704901268_">
				<use xlink:href="#SVGID_00000050654540426598045890000002947846540532304570_"  style="overflow:visible;"/>
			</clipPath>
			<path style="clip-path:url(#SVGID_00000089559606560815937060000007040005913704901268_);fill:#FFCD40;" d="M20,10.9l7.9,13.6
				L19,40h21V10.9H20z"/>
		</g>
		<g>
			<defs>
				<polygon id="SVGID_00000024688361965679896750000006629289733541354399_" points="0,40 19,40 27.9,31.2 27.9,24.5 12.1,24.5 
					0,3.7 				"/>
			</defs>
			<clipPath id="SVGID_00000043428054534357664260000013367301295283953332_">
				<use xlink:href="#SVGID_00000024688361965679896750000006629289733541354399_"  style="overflow:visible;"/>
			</clipPath>
			
				<linearGradient id="SVGID_00000008860379535854377050000010040511655662224519_" gradientUnits="userSpaceOnUse" x1="32.8552" y1="998.5072" x2="36.1961" y2="1013.1208" gradientTransform="matrix(1 0 0 1 -7 -989)">
				<stop  offset="0" style="stop-color:#EA6100;stop-opacity:0.3"/>
				<stop  offset="0.66" style="stop-color:#EA6100;stop-opacity:0"/>
			</linearGradient>
			
				<path style="clip-path:url(#SVGID_00000043428054534357664260000013367301295283953332_);fill:url(#SVGID_00000008860379535854377050000010040511655662224519_);" d="
				M20,10.9l7.9,13.6L19,40h21V10.9H20z"/>
		</g>
	</g>
</g>
<g>
	<defs>
		<circle id="SVGID_00000008135248780634164190000004928310367521532306_" cx="20" cy="20" r="20"/>
	</defs>
	<clipPath id="SVGID_00000150067648366416610600000002003553420888917910_">
		<use xlink:href="#SVGID_00000008135248780634164190000004928310367521532306_"  style="overflow:visible;"/>
	</clipPath>
	<path style="clip-path:url(#SVGID_00000150067648366416610600000002003553420888917910_);fill:#FFCD40;" d="M20,10.9l7.9,13.6
		L19,40h21V10.9H20z"/>
</g>
<path class="st1" d="M20,10.9h17.8C34.5,4.4,27.8,0,20,0C9,0,0,9,0,20c0,10.7,8.4,19.4,19,20l8.9-15.5L20,10.9z"/>
<linearGradient id="SVGID_00000168108954109691125720000009738620765152596639_" gradientUnits="userSpaceOnUse" x1="32.129" y1="998.6732" x2="35.4699" y2="1013.2868" gradientTransform="matrix(1 0 0 1 -7 -989)">
	<stop  offset="0" style="stop-color:#EA6100;stop-opacity:0.3"/>
	<stop  offset="0.66" style="stop-color:#EA6100;stop-opacity:0"/>
</linearGradient>
<path style="fill:url(#SVGID_00000168108954109691125720000009738620765152596639_);" d="M20,10.9l7.9,13.6L19,40c0.3,0,0.6,0,1,0
	c11,0,20-9,20-20c0-3.3-0.8-6.4-2.2-9.1H20z"/>
<g>
	<defs>
		<circle id="SVGID_00000176041774251748963620000012005807950592147329_" cx="20" cy="20" r="20"/>
	</defs>
	<clipPath id="SVGID_00000063606506700933440860000018272981194674530234_">
		<use xlink:href="#SVGID_00000176041774251748963620000012005807950592147329_"  style="overflow:visible;"/>
	</clipPath>
	<g style="clip-path:url(#SVGID_00000063606506700933440860000018272981194674530234_);">
		<g>
			<defs>
				<polygon id="SVGID_00000137845898147353493520000009102428040789579173_" points="20,10.9 27.9,24.5 19,40 40,40 40,10.9 				
					"/>
			</defs>
			<clipPath id="SVGID_00000143616843511526482950000008871093222522856879_">
				<use xlink:href="#SVGID_00000137845898147353493520000009102428040789579173_"  style="overflow:visible;"/>
			</clipPath>
			<path style="clip-path:url(#SVGID_00000143616843511526482950000008871093222522856879_);fill:#DB4437;" d="M3.2,0v24.5h9
				L20,10.9h20V0H3.2z"/>
		</g>
		<g>
			<defs>
				<polygon id="SVGID_00000145060254638462698450000011134956191482198181_" points="20,10.9 27.9,24.5 19,40 40,40 40,10.9 				
					"/>
			</defs>
			<clipPath id="SVGID_00000111159150075043742820000004872550282441843625_">
				<use xlink:href="#SVGID_00000145060254638462698450000011134956191482198181_"  style="overflow:visible;"/>
			</clipPath>
			
				<linearGradient id="SVGID_00000145739772810865258590000001213720271946583974_" gradientUnits="userSpaceOnUse" x1="11.8515" y1="1004.2344" x2="23.7833" y2="997.2639" gradientTransform="matrix(1 0 0 1 -7 -989)">
				<stop  offset="0" style="stop-color:#A52714;stop-opacity:0.6"/>
				<stop  offset="0.66" style="stop-color:#A52714;stop-opacity:0"/>
			</linearGradient>
			
				<path style="clip-path:url(#SVGID_00000111159150075043742820000004872550282441843625_);fill:url(#SVGID_00000145739772810865258590000001213720271946583974_);" d="
				M3.2,0v24.5h9L20,10.9h20V0H3.2z"/>
		</g>
	</g>
</g>
<g>
	<defs>
		<circle id="SVGID_00000093175247576258156540000001310250483542755231_" cx="20" cy="20" r="20"/>
	</defs>
	<clipPath id="SVGID_00000114067097101125182730000017610439243474408334_">
		<use xlink:href="#SVGID_00000093175247576258156540000001310250483542755231_"  style="overflow:visible;"/>
	</clipPath>
	
		<radialGradient id="SVGID_00000016765996129927138530000000412013373053377209_" cx="609.1364" cy="992.8977" r="19.1091" gradientTransform="matrix(1 0 0 1 -590 -982)" gradientUnits="userSpaceOnUse">
		<stop  offset="0" style="stop-color:#3E2723;stop-opacity:0.2"/>
		<stop  offset="1" style="stop-color:#3E2723;stop-opacity:0"/>
	</radialGradient>
	
		<path style="clip-path:url(#SVGID_00000114067097101125182730000017610439243474408334_);fill:url(#SVGID_00000016765996129927138530000000412013373053377209_);" d="
		M20,10.9v4.8l17.8-4.8C37.8,10.9,20,10.9,20,10.9z"/>
</g>
<g>
	<defs>
		<circle id="SVGID_00000088841213667812007540000018038822375634940819_" cx="20" cy="20" r="20"/>
	</defs>
	<clipPath id="SVGID_00000181804731618528433150000017342665749642430118_">
		<use xlink:href="#SVGID_00000088841213667812007540000018038822375634940819_"  style="overflow:visible;"/>
	</clipPath>
	<g style="clip-path:url(#SVGID_00000181804731618528433150000017342665749642430118_);">
		<g>
			<defs>
				<polygon id="SVGID_00000049912263102206954510000018262035173221680558_" points="3.2,0 3.2,9.2 12.1,24.5 20,10.9 40,10.9 
					40,0 				"/>
			</defs>
			<clipPath id="SVGID_00000096057866628024674340000017503941217001588130_">
				<use xlink:href="#SVGID_00000049912263102206954510000018262035173221680558_"  style="overflow:visible;"/>
			</clipPath>
			<g style="clip-path:url(#SVGID_00000096057866628024674340000017503941217001588130_);">
				<g>
					<path id="B_00000119112215789749978910000009255668920357623955_" class="st18" d="M0,40h19l8.8-8.8v-6.6H12.1L0,3.7V40z"/>
				</g>
				
					<linearGradient id="SVGID_00000127762775137014508200000017343582089313345448_" gradientUnits="userSpaceOnUse" x1="37.3922" y1="1017.5583" x2="24.1285" y2="1009.7855" gradientTransform="matrix(1 0 0 1 -14 -982)">
					<stop  offset="0" style="stop-color:#055524;stop-opacity:0.4"/>
					<stop  offset="0.33" style="stop-color:#055524;stop-opacity:0"/>
				</linearGradient>
				<path style="fill:url(#SVGID_00000127762775137014508200000017343582089313345448_);" d="M0,40h19l8.8-8.8v-6.6H12.1L0,3.7V40z"
					/>
			</g>
		</g>
	</g>
</g>
<g>
	<g>
		<defs>
			<circle id="SVGID_00000161605965929490451090000010992569692981572284_" cx="20" cy="20" r="20"/>
		</defs>
		<clipPath id="SVGID_00000052822316459200241780000009829325490977687708_">
			<use xlink:href="#SVGID_00000161605965929490451090000010992569692981572284_"  style="overflow:visible;"/>
		</clipPath>
		
			<radialGradient id="SVGID_00000078044711093736692790000008347786831197906316_" cx="586.1591" cy="998.2091" r="17.7364" gradientTransform="matrix(1 0 0 1 -583 -989)" gradientUnits="userSpaceOnUse">
			<stop  offset="0" style="stop-color:#3E2723;stop-opacity:0.2"/>
			<stop  offset="1" style="stop-color:#3E2723;stop-opacity:0"/>
		</radialGradient>
		
			<path style="clip-path:url(#SVGID_00000052822316459200241780000009829325490977687708_);fill:url(#SVGID_00000078044711093736692790000008347786831197906316_);" d="
			M3.2,9.2l13,13l-4.1,2.3L3.2,9.2z"/>
	</g>
</g>
<g>
	<g>
		<defs>
			<circle id="SVGID_00000153701372617312627110000006420521220202037929_" cx="20" cy="20" r="20"/>
		</defs>
		<clipPath id="SVGID_00000090255359655989154470000000106800737592045244_">
			<use xlink:href="#SVGID_00000153701372617312627110000006420521220202037929_"  style="overflow:visible;"/>
		</clipPath>
		
			<radialGradient id="SVGID_00000167379078756527423630000013880572537893428873_" cx="609.9545" cy="1002.0318" r="19.9705" gradientTransform="matrix(1 0 0 1 -590 -982)" gradientUnits="userSpaceOnUse">
			<stop  offset="0" style="stop-color:#263238;stop-opacity:0.2"/>
			<stop  offset="1" style="stop-color:#263238;stop-opacity:0"/>
		</radialGradient>
		
			<path style="clip-path:url(#SVGID_00000090255359655989154470000000106800737592045244_);fill:url(#SVGID_00000167379078756527423630000013880572537893428873_);" d="
			M19.1,40l4.8-17.8l4.1,2.3L19.1,40z"/>
	</g>
</g>
<path class="st1" d="M19.1,39.8L27,26c-1.7,2-4.2,3.3-7,3.3c-3.4,0-6.3-1.8-7.9-4.5L3.2,9.5C1.2,12.5,0.1,16.1,0,20
	C0.2,30.7,8.6,39.3,19.1,39.8z"/>
<path class="st1" d="M20.2,10.9c5,0,9.1,4.1,9.1,9.1c0,0.9-0.1,1.8-0.4,2.6c0,0,0,0,0,0.1c0,0,0,0,0,0c-0.2,0.7-0.5,1.5-0.9,2.1
	l-8.6,15c0.2,0,0.4,0,0.6,0c11,0,19.8-8.8,20-19.8c0-3.3-0.9-6.4-2.3-9.1H20.2z"/>
<path class="st1" d="M10.9,20v-0.2c0-5,4.1-9.1,9.1-9.1c0,0,13.8,0,17.6,0C34.2,4.4,27.6,0.2,20,0.2c-7,0-13.2,3.6-16.7,9.1l8.7,15
	C11.3,23,10.9,21.5,10.9,20z"/>
<path class="st1" d="M28.9,18c-0.2-0.8-0.5-1.6-0.9-2.4C28.4,16.4,28.7,17.2,28.9,18C28.9,18,28.9,18,28.9,18z"/>
<path class="st1" d="M37.7,10.7C37.7,10.7,37.7,10.7,37.7,10.7C34.3,4.3,27.7,0,20,0C27.6,0,34.3,4.4,37.7,10.7z"/>
<path class="st1" d="M40,19.9C40,19.9,40,19.9,40,19.9c0-3.3-0.8-6.3-2.2-9h0C39.2,13.6,40,16.7,40,19.9z"/>
<path class="st1" d="M27.6,14.9c0.1,0.2,0.2,0.3,0.3,0.5C27.8,15.3,27.7,15.1,27.6,14.9z"/>
<path class="st1" d="M20.1,10.9L20.1,10.9c0,0,0.1,0,0.3,0C20.3,10.9,20.2,10.9,20.1,10.9z"/>
<path class="st1" d="M20,0C12.9,0,6.8,3.7,3.2,9.2l0,0C6.8,3.7,13,0,20,0z"/>
<path class="st1" d="M28.9,21.7C28.9,21.7,28.9,21.7,28.9,21.7c0-0.2,0.1-0.4,0.1-0.7c0,0,0,0,0,0C29,21.3,29,21.5,28.9,21.7z"/>
<path class="st1" d="M28.2,23.9C28.2,23.9,28.2,23.8,28.2,23.9c0.3-0.6,0.5-1.3,0.7-1.9c0,0,0,0,0,0C28.7,22.6,28.5,23.2,28.2,23.9z
	"/>
<path class="st1" d="M29,18.9C29,18.9,29,18.9,29,18.9c0-0.2,0-0.3-0.1-0.5c0,0,0,0,0,0C29,18.6,29,18.8,29,18.9z"/>
<path class="st1" d="M27.1,14.3C27.1,14.3,27.1,14.3,27.1,14.3C27.1,14.3,27.1,14.3,27.1,14.3z"/>
<path class="st1" d="M20,40c11,0,20-8.9,20-19.9c0,0,0,0,0,0C40,31,31,40,20,40z"/>
<path class="st1" d="M19.3,40c0.2,0,0.5,0,0.7,0C19.8,40,19.5,40,19.3,40L19.3,40z"/>
<path class="st1" d="M0,20.1C0,20.1,0,20.1,0,20.1C0,30.7,8.5,39.4,19,40l0,0C8.5,39.4,0,30.7,0,20.1z"/>
<path class="st1" d="M3.1,9.4L3.1,9.4C1.2,12.4,0,16,0,19.9c0,0,0,0,0,0C0,16.1,1.2,12.4,3.1,9.4z"/>
<path class="st22" d="M20,29c3.4,0,6.3-1.8,7.9-4.5c0.1-0.2,0.2-0.4,0.3-0.6c0.3-0.6,0.5-1.3,0.7-1.9c0-0.1,0-0.1,0-0.2
	c0-0.2,0.1-0.4,0.1-0.7c0-0.3,0.1-0.7,0.1-1c0-0.4,0-0.7-0.1-1.1c0-0.2,0-0.3-0.1-0.5c0-0.1,0-0.3-0.1-0.4c-0.2-0.8-0.5-1.6-0.9-2.4
	c0-0.1-0.1-0.2-0.2-0.3c-0.1-0.2-0.2-0.3-0.3-0.5c-0.2-0.2-0.3-0.4-0.5-0.6c0,0,0,0,0,0c-1.6-1.9-4-3.2-6.7-3.3c-0.1,0-0.2,0-0.4,0
	c-5,0-9.1,4.1-9.1,9.1c0,1.5,0.4,3,1.1,4.3l0.1,0.2C13.7,27.2,16.6,29,20,29z M20,12.7c4,0,7.3,3.3,7.3,7.3S24,27.3,20,27.3
	S12.7,24,12.7,20S16,12.7,20,12.7z"/>
<circle class="st23" cx="20" cy="20" r="7.3"/>
<path class="st24" d="M10.9,19.8V20c0-5,4.1-9.1,9.1-9.1h0.1h0.1h17.5c0-0.1-0.1-0.1-0.1-0.2c-3.7,0-17.6,0-17.6,0
	C15,10.7,10.9,14.8,10.9,19.8z"/>
<path class="st24" d="M37.8,10.9L37.8,10.9c0-0.1,0-0.1-0.1-0.2c0,0,0,0,0,0C37.7,10.8,37.7,10.8,37.8,10.9z"/>
<path class="st24" d="M20,10.9c-5,0-9.1,4.1-9.1,9.1C10.9,15,15,10.9,20,10.9z"/>
<path class="st25" d="M27.6,25.1c0.1-0.2,0.2-0.3,0.3-0.5l0,0C27.8,24.7,27.7,24.9,27.6,25.1z"/>
<path class="st25" d="M12.1,24.8c1.6,2.7,4.5,4.5,7.9,4.5c2.9,0,5.4-1.3,7-3.3l0-0.1c-1.7,1.9-4.1,3.2-6.9,3.2h-0.1
	c0.1,0,0.2,0,0.3,0c-0.1,0-0.2,0-0.4,0c-3.5,0-6.5-2-8-4.8l-8.7-15c0,0-0.1,0.1-0.1,0.1L12.1,24.8z"/>
<path class="st25" d="M3.2,9.2L3.2,9.2c0,0-0.1,0.1-0.1,0.1l0,0C3.1,9.3,3.2,9.3,3.2,9.2z"/>
<path class="st25" d="M27.1,25.7C27.1,25.7,27.1,25.7,27.1,25.7C27.1,25.7,27.1,25.7,27.1,25.7z"/>
<path class="st25" d="M27.1,25.7C27.1,25.7,27.1,25.7,27.1,25.7c0.2-0.2,0.4-0.5,0.5-0.7c0.1-0.2,0.2-0.3,0.3-0.5l0.1-0.1
	C26.3,27.2,23.4,29,20,29s-6.3-1.8-7.9-4.5L12,24.3c1.5,2.9,4.6,4.8,8,4.8c0.1,0,0.2,0,0.4,0C23.1,28.9,25.5,27.7,27.1,25.7z"/>
<path class="st26" d="M28.9,22.7C28.9,22.7,28.9,22.7,28.9,22.7C28.9,22.7,28.9,22.7,28.9,22.7z"/>
<path class="st26" d="M20.4,10.9c2.7,0.1,5.1,1.4,6.7,3.3c0,0,0,0,0,0c0.2,0.2,0.3,0.4,0.5,0.6c0.1,0.2,0.2,0.3,0.3,0.5
	c0.1,0.1,0.1,0.2,0.2,0.3c0.4,0.7,0.7,1.5,0.9,2.4c0-0.1,0-0.3-0.1-0.4c0.3,0.8,0.4,1.8,0.4,2.7c0,0.8-0.1,1.6-0.3,2.3
	c0.3-0.8,0.4-1.7,0.4-2.6c0-5-4.1-9.1-9.1-9.1h-0.1C20.2,10.9,20.3,10.9,20.4,10.9z"/>
<path class="st26" d="M29,18.5c0,0.2,0.1,0.3,0.1,0.5C29,18.8,29,18.6,29,18.5z"/>
<path class="st26" d="M29,21c0,0.2-0.1,0.4-0.1,0.6C29,21.5,29,21.3,29,21z"/>
<path class="st26" d="M28.9,21.9c-0.1,0.7-0.4,1.3-0.6,1.9C28.5,23.2,28.8,22.6,28.9,21.9z"/>
<path class="st22" d="M27.1,14.3c-1.6-2-4-3.2-6.7-3.3C23.1,11.1,25.5,12.3,27.1,14.3z"/>
<path class="st26" d="M27.1,14.3c-1.6-2-4-3.2-6.7-3.3C23.1,11.1,25.5,12.3,27.1,14.3z"/>
<path class="st22" d="M27.9,15.4c0.1,0.1,0.1,0.2,0.2,0.3C28,15.6,27.9,15.5,27.9,15.4z"/>
<path class="st26" d="M27.9,15.4c0.1,0.1,0.1,0.2,0.2,0.3C28,15.6,27.9,15.5,27.9,15.4z"/>
<path class="st22" d="M27.1,14.3c0.2,0.2,0.3,0.4,0.5,0.6C27.4,14.7,27.2,14.5,27.1,14.3z"/>
<path class="st26" d="M27.1,14.3c0.2,0.2,0.3,0.4,0.5,0.6C27.4,14.7,27.2,14.5,27.1,14.3z"/>
<path class="st25" d="M27.6,25.1c-0.2,0.2-0.3,0.4-0.5,0.6c0,0,0,0,0,0c-1.6,2-4,3.2-6.7,3.3c-0.1,0-0.2,0-0.3,0h0.1
	c2.7,0,5.2-1.2,6.9-3.2l0.8-1.3C27.8,24.7,27.7,24.9,27.6,25.1z"/>
<path class="st26" d="M27.6,25.1c-0.2,0.2-0.3,0.4-0.5,0.6c0,0,0,0,0,0c-1.6,2-4,3.2-6.7,3.3c-0.1,0-0.2,0-0.3,0h0.1
	c2.7,0,5.2-1.2,6.9-3.2l0.8-1.3C27.8,24.7,27.7,24.9,27.6,25.1z"/>
<path class="st25" d="M27.6,25.1c-0.2,0.2-0.3,0.4-0.5,0.6C27.2,25.5,27.4,25.3,27.6,25.1z"/>
<path class="st26" d="M27.6,25.1c-0.2,0.2-0.3,0.4-0.5,0.6C27.2,25.5,27.4,25.3,27.6,25.1z"/>
<path class="st25" d="M27.1,25.7c-1.6,1.9-4,3.2-6.7,3.3C23.1,29,25.5,27.7,27.1,25.7z"/>
<path class="st26" d="M27.1,25.7c-1.6,1.9-4,3.2-6.7,3.3C23.1,29,25.5,27.7,27.1,25.7z"/>
<path class="st27" d="M29.1,20c0-0.4,0-0.7-0.1-1.1c0,0,0,0,0,0C29.1,19.3,29.1,19.6,29.1,20z"/>
<path class="st27" d="M28,24.3c0.1-0.2,0.2-0.3,0.2-0.5c0,0,0,0,0,0C28.2,24,28.1,24.2,28,24.3z"/>
<path class="st27" d="M29,21c0-0.3,0.1-0.7,0.1-1C29.1,20.3,29.1,20.7,29,21C29,21,29,21,29,21z"/>
<path class="st27" d="M19,40L19,40c0.1,0,0.2,0,0.3,0l0,0C19.2,40,19.1,40,19,40z"/>
<path class="st27" d="M28.9,22.6C28.9,22.6,28.9,22.7,28.9,22.6C28.9,22.7,28.9,22.6,28.9,22.6z"/>
<path class="st27" d="M28.9,21.9C28.9,21.9,28.9,21.9,28.9,21.9c0-0.1,0-0.2,0-0.3c0,0,0,0,0,0C28.9,21.8,28.9,21.8,28.9,21.9z"/>
<path class="st27" d="M28.9,22.7c-0.3,1-0.8,1.9-1.4,2.8c-0.1,0.2-0.3,0.3-0.4,0.5l-7.9,13.8c0.1,0,0.2,0,0.3,0l8.6-15
	C28.4,24.2,28.7,23.4,28.9,22.7z"/>
<path class="st27" d="M29,18.4C29,18.4,29,18.4,29,18.4c0-0.1,0-0.3-0.1-0.4c0,0,0,0,0,0C28.9,18.2,28.9,18.3,29,18.4z"/>
<path class="st27" d="M28.9,21.9c0-0.1,0-0.1,0-0.2C28.9,21.8,28.9,21.8,28.9,21.9z"/>
<path class="st27" d="M27.9,24.5L27.9,24.5c0-0.1,0.1-0.1,0.1-0.2c0.1-0.2,0.2-0.3,0.2-0.5C28.1,24.1,28,24.3,27.9,24.5z"/>
<path class="st27" d="M29,18.4c0-0.1,0-0.3-0.1-0.4C28.9,18.2,28.9,18.3,29,18.4z"/>
<path class="st27" d="M29.1,20c0-0.4,0-0.7-0.1-1.1C29.1,19.3,29.1,19.6,29.1,20z"/>
<path class="st27" d="M29.1,20c0,0.4,0,0.7-0.1,1C29.1,20.7,29.1,20.3,29.1,20z"/>
<polygon class="st27" points="27.8,24.6 27.9,24.6 27.8,24.6 "/>
<path class="st27" d="M27,26c0.1-0.2,0.3-0.3,0.4-0.5C27.3,25.6,27.2,25.8,27,26L27,26z"/>
<path class="st27" d="M27.9,24.5L27.9,24.5C27.8,24.6,27.9,24.6,27.9,24.5C27.9,24.6,27.9,24.5,27.9,24.5L27.9,24.5z"/>
<path class="st27" d="M28.8,17.6c0,0.1,0.1,0.3,0.1,0.4c0,0.1,0.1,0.3,0.1,0.4c0,0.2,0.1,0.3,0.1,0.5c0,0.3,0.1,0.7,0.1,1.1
	c0,0.4,0,0.7-0.1,1c0,0.2-0.1,0.4-0.1,0.6c0,0.1,0,0.2-0.1,0.3c-0.1,0.7-0.4,1.3-0.6,1.9c-0.1,0.2-0.2,0.3-0.2,0.5
	c0,0.1-0.1,0.1-0.1,0.2v0.3c-0.1,0.2-0.3,0.5-0.5,0.7c0.6-0.8,1.1-1.8,1.4-2.8c0,0,0,0,0,0c0,0,0,0,0-0.1c0.2-0.8,0.3-1.5,0.3-2.3
	C29.2,19.4,29.1,18.4,28.8,17.6z"/>
<path class="st27" d="M27.9,24.5c0-0.1,0.1-0.1,0.1-0.2C28,24.4,27.9,24.4,27.9,24.5L27.9,24.5z"/>
<path class="st27" d="M27.9,24.5C27.9,24.5,27.9,24.6,27.9,24.5C27.8,24.6,27.8,24.6,27.9,24.5l-0.8,1.4c0.1-0.1,0.2-0.3,0.4-0.4
	c0.2-0.2,0.3-0.4,0.5-0.7V24.5z"/>
<path class="st27" d="M27.9,24.6C27.9,24.6,27.9,24.5,27.9,24.6L27.9,24.6C27.9,24.5,27.9,24.6,27.9,24.6z"/>
<path class="st27" d="M3.2,9.2l0.1,0.1C6.8,3.8,13,0.2,20,0.2c7.6,0,14.2,4.2,17.6,10.5c0,0,0.1,0,0.1,0C34.3,4.4,27.6,0,20,0
	C13,0,6.8,3.7,3.2,9.2z"/>
<path class="st27" d="M3.1,9.4C1.2,12.4,0,16.1,0,19.9c0,0,0,0,0,0.1c0.1-3.9,1.2-7.5,3.2-10.5L3.1,9.4z"/>
<path class="st27" d="M40,20.1C40,20,40,20,40,20.1C40,20,40,20,40,20.1C40,20.1,40,20.1,40,20.1z"/>
<path class="st27" d="M0,20C0,20,0,20,0,20C0,20.1,0,20.1,0,20C0,20,0,20,0,20z"/>
<path class="st27" d="M37.7,10.9c1.4,2.7,2.3,5.8,2.3,9.1c0,0,0,0,0-0.1c0-3.3-0.8-6.3-2.2-9H37.7z"/>
<path class="st27" d="M37.8,10.9c0-0.1-0.1-0.1-0.1-0.2c0,0-0.1,0-0.1,0c0,0.1,0.1,0.1,0.1,0.2H37.8z"/>
<path class="st27" d="M3.3,9.3L3.2,9.2c0,0-0.1,0.1-0.1,0.1l0.1,0.1C3.2,9.4,3.2,9.4,3.3,9.3z"/>
<path class="st28" d="M0,19.9C0,20,0,20,0,19.9C0,20,0,20,0,19.9C0,19.9,0,19.9,0,19.9z"/>
<path class="st28" d="M0,20C0,20,0,20,0,20c0,10.7,8.5,19.4,19,20l0.1-0.2C8.6,39.3,0.2,30.7,0,20z"/>
<path class="st28" d="M40,20.1C40,20,40,20,40,20.1C39.8,31,31,39.8,20,39.8c-0.2,0-0.4,0-0.6,0L19.3,40c0.2,0,0.5,0,0.7,0
	C31,40,40,31,40,20.1z"/>
<path class="st28" d="M40,19.9C40,20,40,20,40,19.9C40,20,40,20,40,19.9C40,19.9,40,19.9,40,19.9z"/>
<path class="st28" d="M19,40c0.1,0,0.2,0,0.3,0l0.1-0.2c-0.1,0-0.2,0-0.3,0L19,40z"/>
<path class="st28" d="M40,20C40,20,40,20,40,20C40,20,40,20,40,20C40,20,40,20,40,20C40,20,40,20,40,20z"/>
<path class="st28" d="M0,20C0,20,0,20,0,20C0,20,0,20,0,20C0,20,0,20,0,20C0,20,0,20,0,20z"/>
</svg>
