<svg width="18" height="18" viewBox="0 0 18 18" fill="none" xmlns="http://www.w3.org/2000/svg">
<path fill-rule="evenodd" clip-rule="evenodd" d="M8.56381 1.28845L0.199809 16.2555C0.157281 16.3315 0.135372 16.4174 0.136256 16.5045C0.13714 16.5917 0.160785 16.6771 0.204847 16.7523C0.248908 16.8274 0.311857 16.8898 0.387452 16.9332C0.463046 16.9765 0.548661 16.9994 0.635809 16.9995H17.3638C17.451 16.9994 17.5366 16.9765 17.6122 16.9332C17.6878 16.8898 17.7507 16.8274 17.7948 16.7523C17.8388 16.6771 17.8625 16.5917 17.8634 16.5045C17.8642 16.4174 17.8423 16.3315 17.7998 16.2555L9.43581 1.28845C9.39234 1.21102 9.32905 1.14657 9.25242 1.10171C9.17579 1.05685 9.0886 1.0332 8.99981 1.0332C8.91102 1.0332 8.82382 1.05685 8.7472 1.10171C8.67057 1.14657 8.60727 1.21102 8.56381 1.28845ZM9.99981 14.7495C9.99981 14.8158 9.97347 14.8793 9.92659 14.9262C9.8797 14.9731 9.81611 14.9995 9.74981 14.9995H8.24981C8.1835 14.9995 8.11992 14.9731 8.07303 14.9262C8.02615 14.8793 7.99981 14.8158 7.99981 14.7495V13.2495C7.99981 13.1831 8.02615 13.1196 8.07303 13.0727C8.11992 13.0258 8.1835 12.9995 8.24981 12.9995H9.74981C9.81611 12.9995 9.8797 13.0258 9.92659 13.0727C9.97347 13.1196 9.99981 13.1831 9.99981 13.2495V14.7495ZM9.99981 11.7495C9.99981 11.8158 9.97347 11.8793 9.92659 11.9262C9.8797 11.9731 9.81611 11.9995 9.74981 11.9995H8.24981C8.1835 11.9995 8.11992 11.9731 8.07303 11.9262C8.02615 11.8793 7.99981 11.8158 7.99981 11.7495V5.74945C7.99981 5.68315 8.02615 5.61956 8.07303 5.57267C8.11992 5.52579 8.1835 5.49945 8.24981 5.49945H9.74981C9.81611 5.49945 9.8797 5.52579 9.92659 5.57267C9.97347 5.61956 9.99981 5.68315 9.99981 5.74945V11.7495Z" fill="white"/>
</svg>
