<svg width="30" height="48" viewBox="0 0 30 48" fill="none" xmlns="http://www.w3.org/2000/svg">
<path fill-rule="evenodd" clip-rule="evenodd" d="M8.56381 16.2889L0.199809 31.2559C0.157281 31.332 0.135372 31.4179 0.136256 31.505C0.13714 31.5922 0.160785 31.6776 0.204847 31.7527C0.248908 31.8279 0.311857 31.8903 0.387452 31.9337C0.463046 31.977 0.548661 31.9999 0.635809 31.9999H17.3638C17.451 31.9999 17.5366 31.977 17.6122 31.9337C17.6878 31.8903 17.7507 31.8279 17.7948 31.7527C17.8388 31.6776 17.8625 31.5922 17.8634 31.505C17.8642 31.4179 17.8423 31.332 17.7998 31.2559L9.43581 16.2889C9.39234 16.2115 9.32905 16.1471 9.25242 16.1022C9.17579 16.0573 9.0886 16.0337 8.99981 16.0337C8.91102 16.0337 8.82382 16.0573 8.7472 16.1022C8.67057 16.1471 8.60727 16.2115 8.56381 16.2889ZM9.99981 29.7499C9.99981 29.8162 9.97347 29.8798 9.92659 29.9267C9.8797 29.9736 9.81611 29.9999 9.74981 29.9999H8.24981C8.1835 29.9999 8.11992 29.9736 8.07303 29.9267C8.02615 29.8798 7.99981 29.8162 7.99981 29.7499V28.2499C7.99981 28.1836 8.02615 28.12 8.07303 28.0732C8.11992 28.0263 8.1835 27.9999 8.24981 27.9999H9.74981C9.81611 27.9999 9.8797 28.0263 9.92659 28.0732C9.97347 28.12 9.99981 28.1836 9.99981 28.2499V29.7499ZM9.99981 26.7499C9.99981 26.8162 9.97347 26.8798 9.92659 26.9267C9.8797 26.9736 9.81611 26.9999 9.74981 26.9999H8.24981C8.1835 26.9999 8.11992 26.9736 8.07303 26.9267C8.02615 26.8798 7.99981 26.8162 7.99981 26.7499V20.7499C7.99981 20.6836 8.02615 20.62 8.07303 20.5732C8.11992 20.5263 8.1835 20.4999 8.24981 20.4999H9.74981C9.81611 20.4999 9.8797 20.5263 9.92659 20.5732C9.97347 20.62 9.99981 20.6836 9.99981 20.7499V26.7499Z" fill="white"/>
</svg>
