<svg width="41" height="32" viewBox="0 0 41 32" fill="none" xmlns="http://www.w3.org/2000/svg">
<path d="M1 0H0V32H1V0Z" fill="white" fill-opacity="0.2"/>
<g clip-path="url(#clip0_5343_565)">
<g clip-path="url(#clip1_5343_565)">
<path fill-rule="evenodd" clip-rule="evenodd" d="M26.2379 15.9999L28.6941 13.5439C28.8583 13.3798 28.9506 13.1571 28.9507 12.925C28.9507 12.6928 28.8585 12.4701 28.6944 12.3059C28.5303 12.1417 28.3076 12.0494 28.0754 12.0493C27.8432 12.0493 27.6205 12.1415 27.4563 12.3056L24.9999 14.762L22.5432 12.3056C22.379 12.1415 22.1564 12.0494 21.9242 12.0495C21.6921 12.0496 21.4695 12.1419 21.3054 12.3061C21.1413 12.4703 21.0492 12.693 21.0493 12.9251C21.0494 13.1573 21.1417 13.3799 21.3059 13.5439L23.762 15.9999L21.3059 18.456C21.1425 18.6202 21.0508 18.8426 21.051 19.0743C21.0512 19.306 21.1433 19.5282 21.3071 19.6921C21.4709 19.856 21.693 19.9483 21.9247 19.9487C22.1565 19.9491 22.3789 19.8576 22.5432 19.6943L24.9999 17.2379L27.4563 19.6943C27.6205 19.8584 27.8432 19.9506 28.0754 19.9506C28.3076 19.9505 28.5302 19.8582 28.6944 19.694C28.8585 19.5298 28.9507 19.3071 28.9507 19.075C28.9506 18.8428 28.8583 18.6201 28.6941 18.456L26.2379 15.9999Z" fill="white"/>
</g>
</g>
<defs>
<clipPath id="clip0_5343_565">
<rect width="8" height="8" fill="white" transform="translate(21 12)"/>
</clipPath>
<clipPath id="clip1_5343_565">
<rect width="8" height="8" fill="white" transform="translate(21 12)"/>
</clipPath>
</defs>
</svg>
