<svg width="240" height="240" viewBox="0 0 240 240" fill="none" xmlns="http://www.w3.org/2000/svg"><path d="M106.119 160.204L60.023 204.09V160.204H22.5456C18.3289 160.09 14.2984 158.443 11.209 155.571C8.29859 152.383 6.66104 148.237 6.60764 143.921V49.9708C6.65489 45.6534 8.29328 41.5053 11.209 38.321C14.3362 35.4159 18.4123 33.7458 22.6789 33.6214H163.653C165.819 33.5555 167.975 33.9321 169.991 34.7282C172.006 35.5242 173.838 36.723 175.374 38.2512C176.903 39.772 178.102 41.5918 178.897 43.5968C179.691 45.6019 180.063 47.7491 179.991 49.9045V119.935C182.204 119.669 184.43 119.537 186.659 119.538V49.5736C186.73 46.5478 186.184 43.5392 185.054 40.7314C183.924 37.9236 182.234 35.3753 180.087 33.2421C177.93 31.0987 175.363 29.4122 172.539 28.2832C169.715 27.1542 166.693 26.606 163.653 26.6712H22.7456C19.7277 26.6419 16.7343 27.2167 13.9418 28.3618C11.1494 29.5068 8.61422 31.199 6.48564 33.3387C4.36713 35.4684 2.70106 38.0044 1.58755 40.7943C0.474048 43.5842 -0.0638985 46.5705 0.00604132 49.5736V143.921C0.0705659 150.02 2.45496 155.866 6.67464 160.271C10.9869 164.412 16.7017 166.775 22.6792 166.89H53.3544V210.841C53.3459 211.329 53.434 211.813 53.6137 212.266C53.7933 212.719 54.0609 213.133 54.4011 213.482C55.0915 214.19 56.0334 214.598 57.0224 214.616C57.9736 214.634 58.8987 214.304 59.6231 213.687L108.742 166.673H128.748C129.131 164.472 129.704 162.308 130.459 160.205L106.119 160.204Z" fill="#E8C600"/><path opacity="0.1" d="M179.991 50.0222C180.067 47.8237 179.698 45.6325 178.905 43.5807C178.112 41.5288 176.911 39.6589 175.376 38.0837C173.857 36.5254 172.031 35.2992 170.015 34.4828C167.998 33.6664 165.833 33.2775 163.658 33.3406H22.7323C18.4474 33.4764 14.3638 35.1911 11.2665 38.1552C8.34058 41.4464 6.70637 45.6864 6.6665 50.09V143.523C6.71259 147.926 8.34598 152.164 11.2665 155.458C14.3264 158.388 18.3644 160.08 22.5992 160.205H59.9972V204.09L106.119 160.205H130.374C134.002 149.495 140.586 140.03 149.366 132.904C158.146 125.778 168.763 121.282 179.991 119.936L179.991 50.0222Z" fill="#E8C600"/><path fill-rule="evenodd" clip-rule="evenodd" d="M43.3333 80H150C150.884 80 151.732 80.3512 152.357 80.9763C152.982 81.6014 153.333 82.4493 153.333 83.3333C153.333 84.2174 152.982 85.0652 152.357 85.6904C151.732 86.3155 150.884 86.6667 150 86.6667H43.3333C42.4493 86.6667 41.6014 86.3155 40.9763 85.6904C40.3512 85.0652 40 84.2174 40 83.3333C40 82.4493 40.3512 81.6014 40.9763 80.9763C41.6014 80.3512 42.4493 80 43.3333 80Z" fill="#E8C600"/><path fill-rule="evenodd" clip-rule="evenodd" d="M43.3333 106.666H130C130.884 106.666 131.732 107.017 132.357 107.642C132.982 108.267 133.333 109.115 133.333 109.999C133.333 110.883 132.982 111.731 132.357 112.356C131.732 112.981 130.884 113.333 130 113.333H43.3333C42.4493 113.333 41.6014 112.981 40.9763 112.356C40.3512 111.731 40 110.883 40 109.999C40 109.115 40.3512 108.267 40.9763 107.642C41.6014 107.017 42.4493 106.666 43.3333 106.666Z" fill="#E8C600"/><path d="M186.667 130C196.556 130 206.223 132.932 214.445 138.427C222.667 143.921 229.076 151.73 232.86 160.866C236.645 170.002 237.635 180.055 235.706 189.755C233.777 199.454 229.014 208.363 222.022 215.355C215.029 222.348 206.12 227.11 196.421 229.039C186.722 230.969 176.669 229.978 167.532 226.194C158.396 222.41 150.587 216.001 145.093 207.779C139.599 199.556 136.667 189.889 136.667 180C136.667 166.739 141.934 154.021 151.311 144.645C160.688 135.268 173.406 130 186.667 130ZM190 153.333H183.333C182.449 153.333 181.601 153.685 180.976 154.31C180.351 154.935 180 155.783 180 156.667V173.333H163.333C162.449 173.333 161.601 173.685 160.976 174.31C160.351 174.935 160 175.783 160 176.667V183.333C160 184.217 160.351 185.065 160.976 185.69C161.601 186.315 162.449 186.667 163.333 186.667H180V203.333C180 204.217 180.351 205.065 180.976 205.69C181.601 206.315 182.449 206.667 183.333 206.667H190C190.884 206.667 191.732 206.315 192.357 205.69C192.982 205.065 193.333 204.217 193.333 203.333V186.667H210C210.884 186.667 211.732 186.315 212.357 185.69C212.982 185.065 213.333 184.217 213.333 183.333V176.667C213.333 175.783 212.982 174.935 212.357 174.31C211.732 173.685 210.884 173.333 210 173.333L193.333 173.327V156.667C193.333 155.783 192.982 154.935 192.357 154.31C191.732 153.685 190.884 153.333 190 153.333Z" fill="#E8C600"/></svg>