<svg width="240" height="240" viewBox="0 0 240 240" fill="none" xmlns="http://www.w3.org/2000/svg"><path d="M34.2973 126.465C32.7499 126.46 31.2572 125.892 30.0973 124.868C28.8828 123.735 28.3368 122.057 28.6523 120.426C29.4417 116.129 36.2139 111.048 47.2401 106.48C49.1751 102.854 50.9129 99.1267 52.4461 95.3138C54.1496 91.0702 55.6037 87.0647 57.0271 82.7172C53.3168 74.2016 52.2871 65.4875 54.5271 61.4877C55.3506 60.0062 56.8886 59.0628 58.5825 59.0002C63.6404 59.0002 65.4467 64.1568 65.4467 68.9846C65.1597 74.736 64.062 80.4181 62.1862 85.8626C63.3396 87.9727 64.6059 90.019 65.9796 91.9926C67.7837 94.6143 69.829 97.0615 72.0889 99.3022C75.4801 98.7141 78.913 98.3981 82.3546 98.3572C86.6463 97.8614 90.9583 99.0998 94.3328 101.797C95.1421 102.779 95.5791 104.015 95.5667 105.287C95.5722 105.89 95.4712 106.489 95.2685 107.056C94.6959 108.621 93.1153 110.489 88.8179 110.493C82.1334 110.15 75.8255 107.293 71.1586 102.495C68.3136 103.011 65.2246 103.722 61.9712 104.61C59.0359 105.417 56.133 106.332 53.3439 107.325C49.4331 114.528 41.8535 126.452 34.5303 126.456L34.2973 126.465ZM31.4723 120.989C31.4521 121.103 31.4436 121.218 31.447 121.333C31.4486 122.273 32.1969 123.041 33.136 123.067C35.804 123.065 40.199 118.398 44.7746 110.81C37.0286 114.417 31.9673 118.275 31.4723 120.989ZM84.7663 106.948C85.276 107.073 85.7987 107.136 86.3234 107.137C88.1569 107.137 89.4973 106.279 89.7375 104.956C90.1385 102.812 88.4983 101.99 87.055 101.676C83.0184 101.098 78.9164 101.152 74.8962 101.835C77.774 104.239 81.1429 105.984 84.7663 106.948ZM58.1383 97.1625C57.3308 99.1851 56.359 101.365 55.3059 103.516C57.32 102.854 59.2799 102.268 61.2471 101.731C63.7381 101.039 66.2056 100.44 68.5865 99.9525L68.3265 99.6406C66.6409 97.7828 65.078 95.8172 63.6479 93.7562C62.7194 92.4217 61.8343 91.057 60.9618 89.5769C60.1739 91.9002 59.2456 94.3914 58.1383 97.1625ZM57.0021 63.0075C55.6598 68.118 56.1421 73.5367 58.3659 78.3299C59.5915 74.2793 60.3289 70.0968 60.5625 65.8712C60.5625 64.1133 60.2012 61.9924 58.5267 61.9867C57.9662 62.0143 57.4506 62.3016 57.1321 62.7636L57.0021 63.0075Z" fill="#5C5CE0"/><path opacity="0.1" d="M99.7903 136.25C99.7909 125.205 108.745 116.251 119.79 116.25C119.862 116.25 119.928 116.27 120 116.271V63.219C120.012 60.7389 119.038 58.3558 117.293 56.5933L93.7428 32.7292C92.0344 30.9816 89.6928 29.9975 87.2489 30H16.5006C10.099 30.0609 4.9546 35.2918 5.0003 41.6934V163.306C4.9544 169.708 10.0989 174.939 16.5006 175H99.7903V136.25Z" fill="#5C5CE0"/><path d="M143.279 209.502C141.813 208.04 139.439 208.044 137.977 209.511C137.977 209.511 137.978 209.51 137.977 209.511L123.748 223.806V135C123.748 132.929 122.069 131.25 119.998 131.25C117.927 131.25 116.248 132.929 116.248 135V223.772L102.009 209.6C100.541 208.139 98.1672 208.145 96.7067 209.613C95.2476 211.08 95.252 213.451 96.7164 214.912L117.4 235.498C118.866 236.96 121.24 236.956 122.701 235.489C122.701 235.49 122.702 235.489 122.701 235.489L143.289 214.804C144.75 213.338 144.745 210.964 143.279 209.502C143.279 209.502 143.279 209.502 143.279 209.502Z" fill="#5C5CE0"/><path d="M234.941 53.9342L211.393 30.0742C208.978 27.6274 205.684 26.25 202.246 26.25H131.499C123.028 26.3141 116.206 33.2228 116.25 41.6944V50.1947L96.3927 30.0739C93.9781 27.6273 90.6839 26.25 87.2463 26.25H16.4992C8.02776 26.3141 1.20641 33.2228 1.25021 41.6944V163.306C1.20641 171.777 8.02771 178.686 16.4992 178.75H100.497V171.25H16.4992C12.1682 171.19 8.70221 167.637 8.75021 163.306V41.6944C8.70221 37.3631 12.1682 33.8099 16.4992 33.75H87.2463C88.6782 33.75 90.0505 34.3237 91.0563 35.3428L114.602 59.2009C115.658 60.2711 116.25 61.7141 116.25 63.2178V116.607C118.728 116.117 121.279 116.131 123.75 116.65V41.6944C123.702 37.3632 127.168 33.8099 131.499 33.75H196.25V60C196.25 64.8325 200.168 68.75 205 68.75H231.25V163.306C231.298 167.637 227.832 171.19 223.501 171.25H138.54V178.75H223.501C231.973 178.686 238.794 171.777 238.75 163.306V63.2178C238.75 59.7427 237.382 56.4076 234.941 53.9342ZM205 61.25C204.31 61.2487 203.752 60.6898 203.75 60V34.0533C204.623 34.2853 205.423 34.7354 206.074 35.3613L229.629 59.2285C230.183 59.8051 230.606 60.4947 230.869 61.25H205Z" fill="#5C5CE0"/></svg>