<svg width="240" height="240" viewBox="0 0 240 240" fill="none" xmlns="http://www.w3.org/2000/svg"><path d="M40 148.786V206.666C40 210.203 41.4048 213.594 43.9053 216.095C46.4058 218.595 49.7972 220 53.3334 220H186.667C190.203 220 193.594 218.595 196.095 216.095C198.595 213.594 200 210.203 200 206.666V148.806L206.667 155.433V206.666C206.667 211.767 204.718 216.675 201.218 220.387C197.719 224.098 192.934 226.333 187.842 226.632L186.667 226.666H53.3334C48.029 226.666 42.942 224.559 39.1912 220.809C35.4405 217.058 33.3334 211.971 33.3334 206.666V155.413L40 148.786ZM155.867 13.3331C158.047 13.327 160.207 13.754 162.222 14.5895C164.236 15.4249 166.064 16.6521 167.6 18.1997L201.733 52.1997C204.869 55.3288 206.642 59.5698 206.667 63.9997V80.5664L200 87.1931V63.9997C199.998 61.6898 199.196 59.4518 197.731 57.6659L197.067 56.9331L162.933 22.9331C161.06 21.0572 158.518 20.0021 155.867 19.9997H53.3334C49.7972 19.9997 46.4058 21.4045 43.9053 23.905C41.4048 26.4055 40 29.7969 40 33.3331V87.1997L33.3334 80.5731V33.3331C33.3335 28.2322 35.2825 23.324 38.7818 19.6126C42.2811 15.9012 47.0661 13.667 52.1582 13.3671L53.3334 13.3331H155.867Z" fill="#19B3B8"/><path opacity="0.1" d="M155.867 20C158.518 20.0023 161.06 21.0574 162.933 22.9333L197.067 56.9333C198.943 58.8069 199.998 61.3487 200 64V87.1933L180.397 106.682C178.893 108.166 177.701 109.936 176.888 111.886C176.076 113.837 175.661 115.93 175.667 118.043C175.673 120.156 176.099 122.247 176.922 124.193C177.745 126.14 178.947 127.903 180.459 129.379L200 148.807V206.667C200 210.203 198.595 213.594 196.095 216.095C193.594 218.595 190.203 220 186.667 220H53.3333C49.7971 220 46.4057 218.595 43.9052 216.095C41.4048 213.594 40 210.203 40 206.667V148.787L59.5835 129.317L60.5243 128.291L60.9569 127.773C63.3607 124.69 64.5448 120.829 64.283 116.929C64.0212 113.028 62.3319 109.361 59.5377 106.627L40 87.2V33.3333C40 29.7971 41.4048 26.4057 43.9052 23.9052C46.4057 21.4048 49.7971 20 53.3333 20H155.867Z" fill="#19B3B8"/><path d="M16.0666 80C15.2705 80.0001 14.4822 80.157 13.7468 80.4618C13.0113 80.7666 12.3432 81.2133 11.7805 81.7764C11.2165 82.3273 10.7686 82.9854 10.4631 83.7121C10.1576 84.4388 10.0007 85.2193 10.0016 86.0076C10.0025 86.796 10.1613 87.5761 10.4685 88.3021C10.7757 89.0281 11.2251 89.6852 11.7903 90.2347L39.7185 117.991L11.7799 145.765C10.9432 146.608 10.3757 147.681 10.1495 148.848C9.92332 150.014 10.0485 151.222 10.5093 152.317C10.97 153.412 11.7456 154.346 12.7377 155C13.7297 155.654 14.8936 155.999 16.0818 155.99C16.8739 155.996 17.6592 155.843 18.3911 155.54C19.123 155.237 19.7866 154.79 20.3427 154.226L52.5333 122.226L53.0689 121.626C53.9637 120.48 54.404 119.044 54.3051 117.593C54.2063 116.142 53.5753 114.778 52.5333 113.764L20.3399 81.7638C19.2052 80.6333 17.6684 79.999 16.0666 80Z" fill="#19B3B8"/><path d="M223.924 80C222.321 79.9992 220.783 80.6346 219.648 81.7667L187.447 113.774C186.882 114.325 186.434 114.983 186.128 115.71C185.823 116.437 185.666 117.218 185.667 118.007C185.667 118.796 185.826 119.576 186.134 120.302C186.441 121.029 186.891 121.686 187.457 122.235L219.649 154.238C220.788 155.368 222.328 156.002 223.932 156C225.537 155.997 227.075 155.36 228.21 154.226C228.774 153.676 229.222 153.018 229.527 152.293C229.833 151.567 229.99 150.788 229.99 150C229.99 149.213 229.833 148.433 229.527 147.708C229.222 146.982 228.774 146.325 228.21 145.775L200.272 118.001L228.21 90.2249C228.774 89.6738 229.222 89.0153 229.528 88.2882C229.833 87.5611 229.99 86.7802 229.989 85.9915C229.987 85.2029 229.828 84.4224 229.521 83.6963C229.213 82.9701 228.763 82.313 228.197 81.7636C227.062 80.6332 225.525 79.9989 223.924 80Z" fill="#19B3B8"/><path d="M81.3157 140C79.1628 139.994 77.0848 139.209 75.4651 137.791C74.6339 137.023 74.0126 136.055 73.6602 134.979C73.3079 133.904 73.2361 132.756 73.4518 131.645C74.5518 125.701 83.9851 118.672 99.3451 112.352C102.04 107.337 104.461 102.181 106.597 96.9049C108.97 91.0341 110.996 85.4928 112.979 79.4782C107.81 67.6975 106.376 55.6421 109.496 50.1087C110.064 49.0987 110.881 48.2516 111.871 47.6488C112.86 47.0461 113.988 46.708 115.146 46.667C122.192 46.667 124.708 53.8008 124.708 60.4796C124.308 68.4387 122.778 76.3005 120.166 83.8293C121.773 86.7494 123.537 89.5803 125.45 92.3099C127.965 95.9389 130.815 99.3245 133.961 102.422C138.686 101.608 143.467 101.171 148.261 101.115C154.234 100.427 160.236 102.138 164.947 105.874C166.074 107.229 166.683 108.94 166.666 110.701C166.674 111.536 166.533 112.364 166.251 113.149C165.453 115.314 163.251 117.898 157.265 117.903C147.967 117.435 139.185 113.485 132.665 106.839C128.702 107.553 124.399 108.536 119.867 109.765C115.778 110.882 111.734 112.148 107.848 113.52C102.4 123.486 91.8418 139.982 81.6404 139.987L81.3157 140ZM77.3801 132.425C77.352 132.582 77.3401 132.741 77.3449 132.901C77.3481 133.528 77.5956 134.129 78.0349 134.577C78.4742 135.024 79.0706 135.283 79.6977 135.298C83.4144 135.296 89.5367 128.839 95.911 118.343C85.1205 123.332 78.0696 128.669 77.3801 132.425ZM151.621 113C152.331 113.173 153.059 113.26 153.79 113.262C156.344 113.262 158.211 112.075 158.546 110.244C159.104 107.279 156.82 106.141 154.809 105.707C149.185 104.907 143.472 104.981 137.871 105.927C141.886 109.255 146.578 111.669 151.621 113ZM114.527 99.4623C113.402 102.26 112.048 105.276 110.581 108.251C113.387 107.336 116.117 106.525 118.858 105.783C122.328 104.826 125.765 103.997 129.082 103.322L128.719 102.891C126.372 100.322 124.195 97.6024 122.202 94.75C120.908 92.9037 119.675 91.0157 118.46 88.9681C117.363 92.1817 116.069 95.6286 114.527 99.4623ZM112.944 52.2111C111.074 59.2813 111.746 66.7837 114.844 73.4087C116.551 67.8068 117.578 62.02 117.904 56.1729C117.904 53.7409 117.401 50.8069 115.068 50.799C114.684 50.8174 114.308 50.9239 113.972 51.1103C113.635 51.2966 113.345 51.5578 113.125 51.8738L112.944 52.2111Z" fill="#19B3B8"/><path d="M170 160C170.884 160 171.732 160.351 172.357 160.976C172.982 161.601 173.333 162.449 173.333 163.333C173.333 164.217 172.982 165.065 172.357 165.69C171.732 166.315 170.884 166.667 170 166.667H76.6666C75.7826 166.667 74.9347 166.315 74.3096 165.69C73.6845 165.065 73.3333 164.217 73.3333 163.333C73.3333 162.449 73.6845 161.601 74.3096 160.976C74.9347 160.351 75.7826 160 76.6666 160H170Z" fill="#19B3B8"/><path d="M170 180C170.884 180 171.732 180.351 172.357 180.976C172.982 181.601 173.333 182.449 173.333 183.333C173.333 184.217 172.982 185.065 172.357 185.69C171.732 186.315 170.884 186.667 170 186.667H76.6666C75.7826 186.667 74.9347 186.315 74.3096 185.69C73.6845 185.065 73.3333 184.217 73.3333 183.333C73.3333 182.449 73.6845 181.601 74.3096 180.976C74.9347 180.351 75.7826 180 76.6666 180H170Z" fill="#19B3B8"/></svg>