<svg width="240" height="240" viewBox="0 0 240 240" fill="none" xmlns="http://www.w3.org/2000/svg"><g clip-path="url(#clip0_20447_97130)"><path d="M125.68 60C132.663 60 135.157 67.07 135.157 73.6893C134.76 81.5771 133.245 89.3686 130.656 96.83C132.249 99.724 133.997 102.53 135.893 105.235C138.385 108.831 141.209 112.187 144.327 115.257C149.01 114.45 153.749 114.017 158.5 113.961C164.42 113.279 170.368 114.976 175.037 118.678C176.153 120.021 176.757 121.716 176.741 123.462C176.748 124.289 176.609 125.11 176.329 125.888C175.538 128.034 173.356 130.594 167.423 130.6C158.208 130.135 149.505 126.221 143.043 119.634C139.115 120.342 134.851 121.316 130.359 122.534C126.307 123.641 122.299 124.895 118.448 126.256C113.049 136.133 102.585 152.481 92.4745 152.486L92.1524 152.5C90.0186 152.493 87.9592 151.716 86.354 150.31C85.5303 149.549 84.9146 148.59 84.5655 147.524C84.2163 146.458 84.1452 145.321 84.3589 144.22C85.4489 138.329 94.7989 131.363 110.021 125.099C112.692 120.129 115.091 115.019 117.209 109.789C119.56 103.971 121.568 98.4795 123.533 92.5185C118.617 83.642 117.377 73.1915 120.081 63.4114C120.644 62.4103 121.454 61.5708 122.435 60.9733C123.415 60.3759 124.533 60.0407 125.68 60ZM106.617 131.035C95.9231 135.98 88.9352 141.27 88.2519 144.992C88.224 145.147 88.2123 145.305 88.217 145.463C88.2201 146.085 88.4654 146.681 88.9008 147.125C89.3361 147.568 89.9273 147.825 90.5488 147.84C94.2323 147.837 100.3 141.438 106.617 131.035ZM148.203 118.73C152.182 122.028 156.832 124.421 161.829 125.74C162.533 125.911 163.255 125.998 163.979 125.999C166.511 125.999 168.361 124.823 168.693 123.008C169.246 120.069 166.982 118.942 164.989 118.512C159.416 117.719 153.754 117.793 148.203 118.73ZM128.965 101.923C127.877 105.108 126.596 108.524 125.067 112.323C123.952 115.096 122.61 118.084 121.157 121.034C123.937 120.126 126.643 119.323 129.359 118.587C132.798 117.638 136.205 116.817 139.492 116.148L139.133 115.721C136.807 113.175 134.649 110.48 132.674 107.653C131.391 105.823 130.169 103.952 128.965 101.923ZM125.603 64.0949C125.222 64.1132 124.85 64.2187 124.516 64.4034C124.183 64.588 123.896 64.8469 123.678 65.16L123.498 65.4944C121.645 72.5014 122.311 79.9368 125.381 86.5025C127.073 80.9507 128.091 75.2157 128.414 69.4208C128.414 67.0105 127.915 64.1026 125.603 64.0949Z" fill="#D7373F"/><path fill-rule="evenodd" clip-rule="evenodd" d="M50 150C41.0999 150 32.3996 152.639 24.9994 157.584C17.5991 162.529 11.8314 169.557 8.42544 177.779C5.0195 186.002 4.12835 195.05 5.86468 203.779C7.60102 212.508 11.8869 220.526 18.1802 226.82C24.4736 233.113 32.4918 237.399 41.221 239.135C49.9501 240.872 58.9981 239.981 67.2208 236.575C75.4435 233.169 82.4715 227.401 87.4162 220.001C92.3608 212.6 95 203.9 95 195C94.987 183.069 90.2418 171.631 81.8055 163.195C73.3691 154.758 61.9308 150.013 50 150ZM80.1324 198.547L59.7124 218.876C58.7729 219.811 57.5004 220.335 56.1746 220.333C54.8489 220.33 53.5784 219.801 52.6424 218.862L49.1158 215.322C48.6522 214.857 48.2848 214.305 48.0346 213.697C47.7844 213.09 47.6563 212.439 47.6576 211.782C47.659 211.125 47.7898 210.475 48.0425 209.869C48.2952 209.262 48.6649 208.712 49.1305 208.248L54.9078 202.5H23.5C22.1739 202.5 20.9022 201.973 19.9645 201.036C19.0268 200.098 18.5 198.826 18.5 197.5V192.5C18.5 191.174 19.0268 189.902 19.9645 188.964C20.9022 188.027 22.1739 187.5 23.5 187.5H55.0165L49.1913 181.649C48.728 181.184 48.3609 180.632 48.1109 180.025C47.8609 179.417 47.7331 178.767 47.7345 178.11C47.736 177.453 47.8668 176.803 48.1195 176.197C48.3722 175.591 48.7418 175.041 49.2072 174.578L52.7545 171.048C53.6941 170.112 54.9667 169.588 56.2925 169.591C57.6184 169.594 58.8888 170.123 59.8245 171.062L80.1474 191.476C81.083 192.416 81.607 193.689 81.6042 195.015C81.6014 196.341 81.072 197.612 80.1324 198.547Z" fill="#D7373F"/><path d="M211.553 51.3868L178.779 18.4668C176.903 16.5707 174.669 15.0667 172.206 14.0423C169.743 13.018 167.101 12.4937 164.434 12.5001H66.001C59.7531 12.5252 53.7702 15.0274 49.3645 19.4577C44.9589 23.888 42.4902 29.8849 42.5 36.1329V135.52C44.9868 135.191 47.4917 135.017 50 135C52.5084 135.017 55.0133 135.191 57.5 135.52V36.1329C57.486 33.8618 58.3729 31.6778 59.9664 30.0596C61.5599 28.4413 63.73 27.5209 66.001 27.5001H164.434C165.126 27.495 165.812 27.63 166.45 27.8968C167.089 28.1636 167.667 28.5568 168.149 29.0528L200.928 61.9828C201.434 62.4837 201.835 63.0818 202.105 63.7411C202.375 64.4005 202.51 65.1076 202.5 65.8201V203.867C202.514 206.138 201.627 208.322 200.034 209.941C198.44 211.559 196.27 212.479 193.999 212.5H107.381C105.75 217.802 103.387 222.851 100.362 227.5H193.999C200.247 227.475 206.23 224.973 210.636 220.542C215.041 216.112 217.51 210.115 217.5 203.867V65.8201C217.509 63.141 216.989 60.4865 215.968 58.0094C214.947 55.5323 213.447 53.2816 211.553 51.3868Z" fill="#D7373F"/><path opacity="0.1" d="M206.234 56.68L173.469 23.7646C172.287 22.5692 170.88 21.6207 169.329 20.9744C167.777 20.3281 166.113 19.9968 164.432 20H66.0001C61.741 20.022 57.6645 21.7325 54.665 24.7562C51.6654 27.78 49.9878 31.8701 50.0001 36.1292V135C65.9077 135.017 81.1588 141.344 92.4073 152.593C103.656 163.841 109.983 179.092 110 195C109.992 203.635 108.106 212.166 104.473 220H194C198.259 219.978 202.335 218.267 205.335 215.244C208.334 212.22 210.012 208.13 210 203.871V65.8191C210.007 64.1226 209.677 62.4415 209.031 60.8729C208.384 59.3043 207.434 57.8793 206.234 56.68Z" fill="#D7373F"/></g><defs><clipPath id="clip0_20447_97130"><rect width="240" height="240" fill="white"/></clipPath></defs></svg>