<svg width="240" height="240" viewBox="0 0 240 240" fill="none" xmlns="http://www.w3.org/2000/svg"><path d="M153.333 0.003305C157.727 0.248302 161.929 1.88242 165.333 4.66997L201.957 42.0033C204.85 45.3455 206.498 49.5849 206.623 54.0033L206.64 126.67L199.979 126.574L199.974 108.587L199.973 106.354L199.967 86.5648L199.967 84.839L199.96 64.474V63.4846L199.957 53.3366H163.333C160.701 53.2724 158.195 52.1982 156.333 50.3366C154.472 48.4749 153.398 45.9686 153.333 43.3366V6.66997H53.3334C49.8003 6.68031 46.415 8.08839 43.9167 10.5866C41.4185 13.0849 40.0104 16.4703 40 20.0033V193.337C40.0104 196.87 41.4185 200.255 43.9167 202.753C46.415 205.252 49.8003 206.66 53.3334 206.67H126.667V213.337H53.3334C48.2091 213.434 43.2504 211.521 39.5186 208.008C35.7868 204.496 33.5784 199.661 33.3662 194.54L33.3334 193.337V20.0033C33.285 17.3635 33.7692 14.7411 34.7571 12.2927C35.7451 9.84432 37.2165 7.62021 39.0834 5.7533C40.9503 3.88639 43.1744 2.415 45.6228 1.42705C48.0712 0.439105 50.6936 -0.0451234 53.3334 0.003305H153.333ZM160 9.46584V43.3366C159.973 43.7814 160.041 44.2268 160.199 44.6433C160.357 45.0599 160.602 45.4382 160.917 45.7533C161.232 46.0684 161.61 46.313 162.027 46.471C162.443 46.629 162.889 46.6968 163.333 46.67H196.623L160 9.46584Z" fill="#0265DC"/><path opacity="0.1" d="M155.867 6.66602C158.513 6.66608 161.051 7.71491 162.925 9.58275L197.059 43.5961C197.991 44.5251 198.731 45.629 199.235 46.8445C199.74 48.06 200 49.3632 200 50.6793V126.666H166.667V123.333L166.631 122.237C166.353 118.015 164.48 114.058 161.391 111.166C158.303 108.275 154.231 106.666 150 106.666H143.333L142.237 106.701C138.016 106.98 134.058 108.853 131.167 111.941C128.276 115.03 126.667 119.102 126.667 123.333V126.666H123.333L122.237 126.701C118.016 126.98 114.058 128.853 111.167 131.941C108.276 135.03 106.667 139.102 106.667 143.333V149.999L106.702 151.095C106.981 155.317 108.854 159.274 111.942 162.166C115.03 165.057 119.103 166.666 123.333 166.666H126.667V206.666H53.3333C49.7971 206.666 46.4057 205.261 43.9052 202.761C41.4048 200.26 40 196.869 40 193.333V19.9993C40 16.4631 41.4048 13.0717 43.9052 10.5713C46.4057 8.07077 49.7971 6.66602 53.3333 6.66602H155.867ZM193.333 166.666V193.333H166.667V166.666H193.333Z" fill="#0265DC"/><path fill-rule="evenodd" clip-rule="evenodd" d="M153.333 206.667V123.333C153.333 122.449 152.982 121.601 152.357 120.976C151.732 120.351 150.884 120 150 120H143.333C142.449 120 141.601 120.351 140.976 120.976C140.351 121.601 140 122.449 140 123.333V140H123.333C122.449 140 121.601 140.351 120.976 140.976C120.351 141.601 120 142.449 120 143.333V150C120 150.884 120.351 151.732 120.976 152.357C121.601 152.982 122.449 153.333 123.333 153.333H140V216.667C140 217.551 140.351 218.399 140.976 219.024C141.601 219.649 142.449 220 143.333 220H206.667V236.667C206.667 237.551 207.018 238.399 207.643 239.024C208.268 239.649 209.116 240 210 240H216.667C217.551 240 218.399 239.649 219.024 239.024C219.649 238.399 220 237.551 220 236.667V220H236.667C237.551 220 238.399 219.649 239.024 219.024C239.649 218.399 240 217.551 240 216.667V210C240 209.116 239.649 208.268 239.024 207.643C238.399 207.018 237.551 206.667 236.667 206.667H153.333Z" fill="#0265DC"/><path fill-rule="evenodd" clip-rule="evenodd" d="M206.667 200H220V143.333C220 142.449 219.649 141.601 219.024 140.976C218.399 140.351 217.551 140 216.667 140H160V153.333H206.667V200Z" fill="#0265DC"/></svg>