<svg width="240" height="240" viewBox="0 0 240 240" fill="none" xmlns="http://www.w3.org/2000/svg"><path opacity="0.1" d="M127.467 153.733H120V120.399H146.667C147.971 116.445 150.477 112.996 153.835 110.534C157.193 108.073 161.236 106.72 165.4 106.666H186.667V50.666C186.664 48.0147 185.609 45.4729 183.733 43.5993L149.6 9.59935C147.726 7.72345 145.184 6.66835 142.533 6.66602H39.9998C36.4636 6.66602 33.0722 8.07077 30.5717 10.5713C28.0713 13.0717 26.6665 16.4631 26.6665 19.9993V193.333C26.6665 196.869 28.0713 200.26 30.5717 202.761C33.0722 205.261 36.4636 206.666 39.9998 206.666H132.066L127.467 153.733Z" fill="#864CCC"/><path opacity="0.1" d="M166.267 123.125H162.534C161.804 123.123 161.08 123.259 160.4 123.525H165.867L166.267 123.125Z" fill="#864CCC"/><path d="M132.067 206.667H40C36.4638 206.667 33.0724 205.262 30.5719 202.761C28.0714 200.261 26.6667 196.87 26.6667 193.333V20C26.6667 16.4638 28.0714 13.0724 30.5719 10.5719C33.0724 8.07142 36.4638 6.66667 40 6.66667H140V43.3333C140.067 45.9642 141.143 48.4687 143.004 50.3297C144.865 52.1906 147.369 53.2658 150 53.3333H186.667V106.667H193.333V54C193.211 49.581 191.562 45.3408 188.667 42L152.067 4.66667C148.661 1.88108 144.46 0.247217 140.067 0L40 0C34.6957 0 29.6086 2.10714 25.8579 5.85786C22.1071 9.60859 20 14.6957 20 20V193.333C20 198.638 22.1071 203.725 25.8579 207.475C29.6086 211.226 34.6957 213.333 40 213.333H132.667L132.067 206.667ZM146.667 9.46667L183.267 46.6667H149.933C149.488 46.6961 149.041 46.6301 148.624 46.473C148.206 46.3159 147.826 46.0714 147.511 45.7558C147.195 45.4402 146.951 45.0608 146.794 44.643C146.637 44.2252 146.571 43.7787 146.6 43.3333L146.667 9.46667Z" fill="#864CCC"/><path d="M200.251 119.662C201.897 119.658 203.49 120.234 204.752 121.291C206.013 122.347 206.861 123.815 207.145 125.435L207.239 126.253L206.905 132.664L236.262 132.997L235.928 140.646L225.938 140.341L218.087 230.524C218.008 231.381 217.654 232.19 217.078 232.829C216.501 233.468 215.733 233.904 214.889 234.071L214.229 234.146H152.145C151.286 234.119 150.458 233.815 149.785 233.279C149.112 232.743 148.63 232.004 148.411 231.172L148.298 230.521L141.174 140.646L129.984 140.309L130.388 132.797L159.789 133.131L159.789 126.367C159.885 124.728 160.556 123.175 161.684 121.982C162.812 120.788 164.324 120.031 165.956 119.842L166.775 119.796L200.251 119.662ZM147.9 139.647L147.566 140.009L155.084 226.804L211.208 227.109L219.085 140.474L147.9 139.647ZM200.252 126.515H166.377L166.044 133.329L200.252 133.663L200.585 126.848L200.252 126.515Z" fill="#864CCC"/><path d="M186.668 152.994H180.001L179.668 213.327L186.668 213.661L187.001 153.327L186.668 152.994Z" fill="#864CCC"/><path d="M167.274 152.812L159.974 153.446L164.954 214.246L172.621 213.912L167.641 153.113L167.274 152.812Z" fill="#864CCC"/><path d="M198.952 153.113L193.666 213.546L201.272 214.546L206.926 153.812L199.312 152.812L198.952 153.113Z" fill="#864CCC"/></svg>