<svg width="240" height="240" viewBox="0 0 240 240" fill="none" xmlns="http://www.w3.org/2000/svg"><path d="M155.866 19.9997C158.518 20.0021 161.059 21.0572 162.933 22.9331L197.066 56.9331C198.942 58.8066 199.997 61.3485 200 63.9997V206.666C200 210.203 198.595 213.594 196.094 216.094C193.594 218.595 190.203 220 186.666 220H53.333C49.7968 220 46.4054 218.595 43.9049 216.094C41.4044 213.594 39.9997 210.203 39.9997 206.666V33.3331C39.9997 29.7969 41.4044 26.4055 43.9049 23.905C46.4054 21.4045 49.7968 19.9997 53.333 19.9997H155.866ZM155.866 13.3331H53.333C48.0287 13.3331 42.9416 15.4402 39.1909 19.1909C35.4401 22.9417 33.333 28.0287 33.333 33.3331V206.666C33.333 211.971 35.4401 217.058 39.1909 220.809C42.9416 224.559 48.0287 226.666 53.333 226.666H186.666C191.971 226.666 197.058 224.559 200.808 220.809C204.559 217.058 206.666 211.971 206.666 206.666V63.9997C206.642 59.5698 204.869 55.3288 201.733 52.1997L167.6 18.1997C166.064 16.6521 164.235 15.4249 162.221 14.5895C160.207 13.754 158.047 13.327 155.866 13.3331Z" fill="#3DA74E"/><path opacity="0.1" d="M155.867 20C158.518 20.0023 161.06 21.0574 162.933 22.9333L197.067 56.9333C198.943 58.8069 199.998 61.3487 200 64V206.667C200 210.203 198.595 213.594 196.095 216.095C193.594 218.595 190.203 220 186.667 220H53.3333C49.7971 220 46.4057 218.595 43.9052 216.095C41.4048 213.594 40 210.203 40 206.667V33.3333C40 29.7971 41.4048 26.4057 43.9052 23.9052C46.4057 21.4048 49.7971 20 53.3333 20H155.867Z" fill="#3DA74E"/><path d="M172.988 53.3505H67.1329C66.2572 53.2869 65.3776 53.3969 64.5445 53.6743C63.7115 53.9516 62.9415 54.3908 62.2787 54.9666C61.6159 55.5424 61.0734 56.2435 60.6823 57.0296C60.2913 57.8157 60.0594 58.6713 60 59.5473V122.847C60 130.11 63.0667 133.308 69.7327 133.308H170.188C171.558 133.364 172.924 133.131 174.198 132.626C175.473 132.121 176.627 131.355 177.588 130.377C179.318 128.265 180.177 125.571 179.988 122.847V59.5473C179.678 57.882 178.822 56.3677 177.554 55.245C176.285 54.1223 174.678 53.4555 172.988 53.3505ZM126.667 73.3401L173.333 73.3331V86.6664L126.667 86.6731V73.3401ZM126.667 93.3401L173.333 93.3331V106.666L126.667 106.673V93.3401ZM93.3333 126.666H69.7327C69.2951 126.667 68.8617 126.58 68.4574 126.413C68.053 126.246 67.6856 126 67.376 125.691C67.0665 125.382 66.8209 125.014 66.6534 124.61C66.4858 124.206 66.3995 123.772 66.3994 123.335L66.4585 113.247L93.3335 113.361L93.3333 126.666ZM93.3337 106.677L66.4587 106.563V93.2366L93.3337 93.3506V106.677ZM93.3337 86.6875L66.4587 86.5735V73.2468L93.3337 73.3608V86.6875ZM120 126.673L99.9996 126.667L100 113.361L120 113.34L120 126.673ZM120 106.673L100 106.677V93.3503L120 93.3292V106.673ZM120 86.6664L100 86.6875V73.3611L120 73.3401V86.6664ZM173.288 123.665C173.288 124.102 173.202 124.536 173.034 124.94C172.867 125.344 172.621 125.711 172.312 126.021C172.002 126.33 171.635 126.576 171.23 126.743C170.826 126.91 170.393 126.996 169.955 126.996L126.667 126.666V113.34L173.333 113.333L173.288 123.665Z" fill="#3DA74E"/></svg>