<svg width="240" height="240" viewBox="0 0 240 240" fill="none" xmlns="http://www.w3.org/2000/svg"><g clip-path="url(#clip0_16721_72947)"><path d="M142.533 13.334C146.483 13.3231 150.306 14.7323 153.303 17.3046L154.267 18.2007L188.4 52.2007C191.212 55.007 192.939 58.7193 193.274 62.6783L193.333 64.0007V127.587L193.274 127.589C191.074 127.74 188.873 127.97 186.672 128.279L186.667 66.7874L153.333 66.7902C149.969 66.7901 146.73 65.5186 144.264 63.2304C141.798 60.9422 140.288 57.8066 140.037 54.452L140 53.457V20.0007H40C36.636 20.0008 33.3962 21.2724 30.9303 23.5606C28.4644 25.8489 26.9545 28.9846 26.7033 32.3392L26.6667 33.334V206.667C26.6668 210.031 27.9383 213.271 30.2265 215.737C32.5147 218.203 35.6503 219.713 39.0049 219.964L40 220.001H173.333C176.697 220.001 179.937 218.729 182.403 216.441C184.869 214.153 186.379 211.017 186.63 207.662L186.667 206.667L186.663 186.657C188.53 188.624 190.807 190.156 193.333 191.144V206.667C193.333 211.768 191.384 216.677 187.885 220.388C184.386 224.099 179.601 226.334 174.508 226.634L173.333 226.667H40C34.8991 226.667 29.9909 224.718 26.2795 221.219C22.5681 217.72 20.3339 212.935 20.0339 207.843L20 206.667V33.334C20.0001 28.2332 21.9492 23.325 25.4485 19.6137C28.9477 15.9023 33.7328 13.6681 38.8249 13.3682L40 13.334H142.533ZM146.677 20.9036L146.667 53.457C146.667 55.0905 147.266 56.6672 148.352 57.8878C149.438 59.1084 150.934 59.8881 152.556 60.0788L153.333 60.1237L185.88 60.1215C185.505 59.2318 185.002 58.4012 184.389 57.6556L183.733 56.9341L149.6 22.934C148.755 22.0878 147.765 21.4001 146.677 20.9036Z" fill="#0265DC"/><path opacity="0.1" d="M142.534 20C145.185 20.0023 147.727 21.0574 149.6 22.9333L183.734 56.9333C185.61 58.8069 186.665 61.3487 186.667 64L186.672 128.279C179.06 129.37 171.597 131.324 164.427 134.104C152.474 138.522 141.545 145.326 132.304 154.1C123.063 162.875 115.703 173.437 110.672 185.145L110.335 185.975L109.782 187.482L109.439 189.034L109.276 189.911C108.605 194.348 109.565 198.878 111.979 202.661C114.393 206.444 118.097 209.223 122.404 210.483C126.711 211.742 131.329 211.398 135.401 209.512C139.473 207.626 142.724 204.328 144.549 200.229C147.599 192.97 152.121 186.422 157.83 181C163.539 175.577 170.31 171.397 177.716 168.724L180.032 167.88C180.802 167.614 181.57 167.363 182.337 167.128L182.9 166.967L182.842 167.11C181.557 170.395 181.234 173.977 181.911 177.439C182.587 180.9 184.236 184.098 186.663 186.656L186.667 206.667C186.667 210.203 185.262 213.594 182.762 216.095C180.261 218.595 176.87 220 173.334 220H40.0003C36.4641 220 33.0727 218.595 30.5722 216.095C28.0717 213.594 26.667 210.203 26.667 206.667V33.3333C26.667 29.7971 28.0717 26.4057 30.5722 23.9052C33.0727 21.4048 36.4641 20 40.0003 20H142.534Z" fill="#0265DC"/><path d="M125.018 188.934C129.337 178.826 135.677 169.707 143.648 162.137C151.619 154.568 161.053 148.708 171.371 144.917C187.858 138.285 206.075 137.282 223.19 142.065L208.583 120.556L208.305 120.1C207.672 118.924 207.515 117.551 207.866 116.263C208.216 114.974 209.048 113.87 210.19 113.177C211.331 112.485 212.695 112.257 213.999 112.541C215.304 112.825 216.45 113.599 217.2 114.704L239.2 147.101L239.477 147.557C240.078 148.743 240.234 150.105 239.917 151.397C239.601 152.688 238.832 153.824 237.751 154.598L236.518 155.441C236.381 155.544 236.239 155.64 236.093 155.729L205.183 176.565L204.727 176.841C203.549 177.47 202.175 177.624 200.888 177.269C199.6 176.915 198.498 176.079 197.809 174.935C197.12 173.792 196.897 172.427 197.185 171.123C197.473 169.819 198.251 168.676 199.358 167.929L222.094 152.597C206.661 147.856 190.066 148.578 175.104 154.642C166.063 157.943 157.796 163.066 150.818 169.693C143.839 176.321 138.296 184.312 134.534 193.171C133.972 194.433 132.932 195.42 131.642 195.915C130.353 196.41 128.919 196.372 127.657 195.811C126.395 195.249 125.408 194.209 124.913 192.919C124.418 191.629 124.456 190.196 125.018 188.934Z" fill="#0265DC"/><path d="M56.6663 113.673H163.333C164.217 113.673 165.065 114.024 165.69 114.649C166.315 115.274 166.666 116.122 166.666 117.006C166.666 117.89 166.315 118.738 165.69 119.363C165.065 119.988 164.217 120.339 163.333 120.339H56.6663C55.7823 120.339 54.9344 119.988 54.3093 119.363C53.6842 118.738 53.333 117.89 53.333 117.006C53.333 116.122 53.6842 115.274 54.3093 114.649C54.9344 114.024 55.7823 113.673 56.6663 113.673ZM56.6663 140.339H136.666C137.55 140.339 138.398 140.69 139.023 141.316C139.648 141.941 140 142.788 140 143.673C140 144.557 139.648 145.404 139.023 146.03C138.398 146.655 137.55 147.006 136.666 147.006H56.6663C55.7823 147.006 54.9344 146.655 54.3093 146.03C53.6842 145.404 53.333 144.557 53.333 143.673C53.333 142.788 53.6842 141.941 54.3093 141.316C54.9344 140.69 55.7823 140.339 56.6663 140.339ZM56.6663 87.0059H123.333C124.217 87.0059 125.065 87.357 125.69 87.9822C126.315 88.6073 126.666 89.4551 126.666 90.3392C126.666 91.2232 126.315 92.0711 125.69 92.6962C125.065 93.3213 124.217 93.6725 123.333 93.6725H56.6663C55.7823 93.6725 54.9344 93.3213 54.3093 92.6962C53.6842 92.0711 53.333 91.2232 53.333 90.3392C53.333 89.4551 53.6842 88.6073 54.3093 87.9822C54.9344 87.357 55.7823 87.0059 56.6663 87.0059Z" fill="#0265DC"/></g><defs><clipPath id="clip0_16721_72947"><rect width="240" height="240" fill="white"/></clipPath></defs></svg>