<svg width="240" height="240" viewBox="0 0 240 240" fill="none" xmlns="http://www.w3.org/2000/svg"><path d="M124.081 219.093C131.526 218.865 146.339 208.496 149.338 204.648C149.454 205.761 146.215 211.003 147.55 213.968C148.114 215.056 148.989 215.951 150.064 216.54C151.138 217.128 152.364 217.384 153.584 217.274C163.981 215.025 173.828 210.733 182.554 204.648C182.358 205.789 176.957 211.487 177.618 214.592C177.78 215.559 178.172 216.473 178.762 217.256C179.352 218.04 180.121 218.67 181.006 219.093C190.653 223.904 208.999 208.27 212.625 202.77C213.249 201.825 213.474 200.671 213.251 199.561C213.028 198.45 212.374 197.473 211.433 196.843C210.97 196.533 210.451 196.318 209.905 196.209C209.358 196.1 208.796 196.1 208.25 196.208C207.703 196.317 207.184 196.532 206.72 196.841C206.257 197.151 205.86 197.549 205.55 198.012C200.836 203.604 194.567 207.67 187.538 209.695C187.991 208.755 191.948 202.174 192.432 201.403C193.215 200.323 193.922 199.19 194.548 198.012C195.05 197.093 195.313 196.064 195.313 195.017C195.313 193.97 195.05 192.94 194.548 192.022C193.756 190.686 192.31 189.648 188.576 189.648C182.474 191.324 176.753 194.164 171.728 198.012C167.572 200.965 163.177 203.566 158.588 205.789C159.321 203.028 160.199 200.307 161.22 197.639C163.397 193.082 165.097 189.496 163.198 186.388C162.709 185.61 162.028 184.971 161.221 184.532C160.414 184.093 159.507 183.869 158.588 183.881C155.711 184.167 152.982 185.295 150.742 187.124C148.502 188.953 146.851 191.402 145.995 194.164C140.799 200.951 133.618 205.951 125.45 208.47C124.17 208.799 122.828 208.799 121.548 208.47C125.515 204.752 129.28 200.823 132.825 196.701C136.194 192.398 143.694 181.63 140.325 174.449C139.573 172.934 138.383 171.679 136.91 170.846C135.437 170.013 133.749 169.641 132.062 169.777C125.3 169.975 117.489 178.124 113.273 186.073C109.293 193.458 106.522 201.433 105.065 209.695C104.15 211.487 104.657 210.518 96.2803 211.002H30.0585L54.5536 155.702L178.614 24.1176C179.251 23.4308 180.021 22.8797 180.877 22.4973C181.732 22.1149 182.657 21.909 183.594 21.892C184.519 21.8198 185.449 21.9597 186.312 22.3011C187.176 22.6424 187.95 23.1762 188.576 23.8618L202.235 37.6442C203.615 39.0764 204.401 40.979 204.432 42.9677C204.464 44.9563 203.74 46.883 202.407 48.3588L80.098 178.067C79.3247 178.893 78.9087 179.991 78.9405 181.121C78.9723 182.252 79.4493 183.324 80.2678 184.105C80.672 184.491 81.1493 184.793 81.6716 184.992C82.1939 185.191 82.7507 185.284 83.3094 185.266C83.8681 185.247 84.4175 185.117 84.9254 184.884C85.4332 184.65 85.8894 184.317 86.267 183.905L208.603 54.1959C211.424 51.0884 212.955 47.0233 212.887 42.8268C212.818 38.6304 211.154 34.6176 208.232 31.6042L194.548 17.7882C193.113 16.3046 191.381 15.1415 189.464 14.3757C187.547 13.6098 185.49 13.2585 183.428 13.3449C181.361 13.3753 179.322 13.8253 177.434 14.6674C175.546 15.5096 173.849 16.7264 172.445 18.2441L47.761 150.519C47.3392 150.939 47.0283 151.457 46.856 152.026L20.2395 213.968C20.0165 214.61 19.949 215.296 20.0424 215.97C20.1359 216.643 20.3877 217.284 20.7772 217.842C21.2031 218.392 21.7533 218.834 22.3828 219.131C23.0123 219.428 23.7032 219.571 24.3988 219.55H101.727C105.33 220.014 108.982 219.209 112.056 217.274C115.845 218.89 119.983 219.516 124.081 219.093Z" fill="#864CCC"/><path d="M132.062 178.715C136.11 183.257 119.178 204.648 114.642 204.648C117.711 189.058 128.014 174.172 132.062 178.715Z" fill="#864CCC"/><path opacity="0.1" d="M54.5532 155.702L178.613 24.1177C179.251 23.4309 180.021 22.8798 180.876 22.4974C181.732 22.1149 182.656 21.9091 183.593 21.8921C184.519 21.8199 185.449 21.9598 186.312 22.3011C187.175 22.6425 187.95 23.1763 188.576 23.8619L202.235 37.6443C203.615 39.0765 204.4 40.979 204.432 42.9677C204.464 44.9564 203.74 46.8831 202.407 48.3589L80.0976 178.068L54.5532 155.702Z" fill="#864CCC"/></svg> 