<svg width="240" height="240" viewBox="0 0 240 240" fill="none" xmlns="http://www.w3.org/2000/svg"><g clip-path="url(#clip0_16721_72733)"><path d="M186.608 140C196.497 140 206.164 142.932 214.386 148.427C222.609 153.921 229.018 161.73 232.802 170.866C236.586 180.002 237.576 190.055 235.647 199.755C233.718 209.454 228.956 218.363 221.963 225.355C214.971 232.348 206.061 237.11 196.362 239.039C186.663 240.969 176.61 239.978 167.474 236.194C158.337 232.41 150.529 226.001 145.034 217.779C139.54 209.556 136.608 199.889 136.608 190C136.608 176.739 141.876 164.021 151.253 154.645C160.629 145.268 173.347 140 186.608 140ZM190 163.333H183.333C182.449 163.333 181.601 163.685 180.976 164.31C180.351 164.935 180 165.783 180 166.667V183.333H163.333C162.449 183.333 161.601 183.685 160.976 184.31C160.351 184.935 160 185.783 160 186.667V193.333C160 194.217 160.351 195.065 160.976 195.69C161.601 196.315 162.449 196.667 163.333 196.667H180V213.333C180 214.217 180.351 215.065 180.976 215.69C181.601 216.315 182.449 216.667 183.333 216.667H190C190.884 216.667 191.732 216.315 192.357 215.69C192.982 215.065 193.333 214.217 193.333 213.333V196.667H210C210.884 196.667 211.732 196.315 212.357 195.69C212.982 195.065 213.333 194.217 213.333 193.333V186.667C213.333 185.783 212.982 184.935 212.357 184.31C211.732 183.685 210.884 183.333 210 183.333L193.333 183.327V166.667C193.333 165.783 192.982 164.935 192.357 164.31C191.732 163.685 190.884 163.333 190 163.333Z" fill="#DA7B11"/><path d="M135.867 6.30045e-05C138.047 -0.00596858 140.207 0.421122 142.222 1.25655C144.236 2.09198 146.064 3.31911 147.6 4.86673L181.733 38.8667C184.869 41.9958 186.642 46.2368 186.667 50.6667V130.267C184.439 130.265 182.212 130.399 180 130.667V53.4534L146.667 53.4563C143.303 53.4562 140.063 52.1846 137.597 49.8965C135.131 47.6083 133.621 44.4727 133.37 41.1181L133.333 40.1231V6.66673H33.3335C29.9695 6.66685 26.7298 7.93846 24.2639 10.2267C21.798 12.5149 20.288 15.6506 20.0368 19.0052L20.0002 20.0001V193.333C20.0002 196.87 21.4049 200.261 23.9054 202.761C26.4059 205.262 29.7973 206.667 33.3335 206.667H129.067C129.704 208.936 130.483 211.162 131.4 213.333H33.3335C28.0292 213.333 22.9421 211.226 19.1914 207.476C15.4406 203.725 13.3335 198.638 13.3335 193.333V20.0001C13.3335 14.6957 15.4406 9.60865 19.1914 5.85793C22.9421 2.1072 28.0292 6.30045e-05 33.3335 6.30045e-05H135.867ZM142.934 9.60006C142.088 8.75377 141.098 8.066 140.01 7.56946L140 40.1231C140 41.7566 140.6 43.3333 141.686 44.5539C142.771 45.7745 144.267 46.5542 145.889 46.7449L146.667 46.7897L179.213 46.7875C178.711 45.5963 177.982 44.514 177.067 43.6004L142.934 9.60006Z" fill="#DA7B11"/><path opacity="0.1" d="M126.667 190.266C126.674 175.512 132.116 161.278 141.955 150.284C151.793 139.289 165.338 132.305 180 130.666V50.666C179.998 48.0147 178.943 45.4729 177.067 43.5993L142.933 9.59935C141.06 7.72345 138.518 6.66835 135.867 6.66602H33.3333C29.7971 6.66602 26.4057 8.07077 23.9052 10.5713C21.4048 13.0717 20 16.4631 20 19.9993V193.333C20 196.869 21.4048 200.26 23.9052 202.761C26.4057 205.261 29.7971 206.666 33.3333 206.666H129.067C127.507 201.338 126.699 195.818 126.667 190.266Z" fill="#DA7B11"/><path d="M49.9998 100.001H156.667C157.551 100.001 158.398 100.352 159.024 100.977C159.649 101.602 160 102.45 160 103.334C160 104.218 159.649 105.066 159.024 105.691C158.398 106.316 157.551 106.667 156.667 106.667H49.9998C49.1158 106.667 48.2679 106.316 47.6428 105.691C47.0177 105.066 46.6665 104.218 46.6665 103.334C46.6665 102.45 47.0177 101.602 47.6428 100.977C48.2679 100.352 49.1158 100.001 49.9998 100.001ZM49.9998 126.667H136.667C137.551 126.667 138.398 127.019 139.024 127.644C139.649 128.269 140 129.117 140 130.001C140 130.885 139.649 131.733 139.024 132.358C138.398 132.983 137.551 133.334 136.667 133.334H49.9998C49.1158 133.334 48.2679 132.983 47.6428 132.358C47.0177 131.733 46.6665 130.885 46.6665 130.001C46.6665 129.117 47.0177 128.269 47.6428 127.644C48.2679 127.019 49.1158 126.667 49.9998 126.667ZM49.9998 73.334H116.667C117.551 73.334 118.398 73.6852 119.024 74.3103C119.649 74.9354 120 75.7833 120 76.6673C120 77.5514 119.649 78.3992 119.024 79.0243C118.398 79.6495 117.551 80.0007 116.667 80.0007H49.9998C49.1158 80.0007 48.2679 79.6495 47.6428 79.0243C47.0177 78.3992 46.6665 77.5514 46.6665 76.6673C46.6665 75.7833 47.0177 74.9354 47.6428 74.3103C48.2679 73.6852 49.1158 73.334 49.9998 73.334Z" fill="#DA7B11"/></g><defs><clipPath id="clip0_16721_72733"><rect width="240" height="240" fill="white"/></clipPath></defs></svg>