<svg width="240" height="240" viewBox="0 0 240 240" fill="none" xmlns="http://www.w3.org/2000/svg"><path opacity="0.1" d="M226.667 53.333H40V186.666H226.667V53.333Z" fill="#CE2783"/><path d="M189.966 109.835C184.675 109.777 179.623 107.626 175.915 103.852C172.207 100.077 170.146 94.9878 170.183 89.6972C170.22 84.4065 172.352 79.346 176.112 75.6237C179.871 71.9014 184.953 69.8206 190.244 69.837C195.581 69.9111 200.68 72.0628 204.457 75.8351C207.228 78.6599 209.099 82.2434 209.833 86.1319C210.566 90.0205 210.13 94.0393 208.578 97.6796C207.026 101.32 204.43 104.418 201.116 106.582C197.803 108.745 193.923 109.877 189.966 109.835ZM189.999 109.836V106.503L190.032 103.169C192.667 103.199 195.252 102.447 197.46 101.008C199.667 99.5694 201.399 97.5087 202.437 95.0863C203.474 92.6639 203.77 89.9884 203.287 87.3978C202.805 84.8072 201.565 82.4178 199.726 80.5312C197.192 78.0044 193.777 76.5602 190.199 76.5032C188.446 76.4993 186.709 76.8413 185.087 77.5095C183.466 78.1778 181.993 79.1593 180.752 80.3978C179.511 81.6362 178.526 83.1074 177.854 84.7269C177.182 86.3465 176.836 88.0827 176.836 89.8361C176.836 91.5895 177.182 93.3257 177.854 94.9453C178.526 96.5649 179.511 98.036 180.752 99.2744C181.993 100.513 183.466 101.494 185.087 102.163C186.709 102.831 188.446 103.173 190.199 103.169V109.836L189.999 109.836Z" fill="#CE2783"/><path fill-rule="evenodd" clip-rule="evenodd" d="M13.3357 166.665H11.3357C10.7178 166.683 10.1028 166.575 9.52822 166.347C8.95369 166.119 8.43185 165.776 7.99478 165.339C7.5577 164.902 7.21463 164.38 6.98664 163.806C6.75865 163.231 6.65056 162.616 6.66901 161.998V24.6687C6.65056 24.0508 6.75865 23.4358 6.98664 22.8612C7.21463 22.2867 7.5577 21.7649 7.99478 21.3278C8.43185 20.8907 8.95369 20.5476 9.52822 20.3196C10.1028 20.0917 10.7178 19.9836 11.3357 20.002H201.999C202.616 19.9836 203.231 20.0917 203.806 20.3196C204.381 20.5476 204.902 20.8907 205.339 21.3278C205.777 21.7649 206.12 22.2867 206.348 22.8612C206.576 23.4358 206.684 24.0508 206.665 24.6687V33.3354H199.999V26.6687H13.3357V166.665Z" fill="#CE2783"/><path d="M228.664 46.6691C229.282 46.6507 229.897 46.7588 230.472 46.9868C231.046 47.2148 231.568 47.5578 232.005 47.9949C232.442 48.432 232.786 48.9538 233.014 49.5284C233.242 50.1029 233.35 50.718 233.331 51.3358V188.665C233.35 189.283 233.242 189.898 233.014 190.473C232.786 191.047 232.442 191.569 232.005 192.006C231.568 192.443 231.046 192.786 230.472 193.014C229.897 193.242 229.282 193.35 228.664 193.332H38.0017C37.3839 193.35 36.7688 193.242 36.1942 193.014C35.6197 192.786 35.0979 192.443 34.6608 192.006C34.2237 191.569 33.8806 191.047 33.6527 190.473C33.4247 189.898 33.3166 189.283 33.335 188.665V51.3357C33.3166 50.7178 33.4247 50.1028 33.6527 49.5282C33.8806 48.9537 34.2237 48.4319 34.6608 47.9948C35.0979 47.5577 35.6197 47.2146 36.1942 46.9866C36.7688 46.7586 37.3839 46.6506 38.0017 46.669L228.664 46.6691ZM101.526 122.94L39.9998 182.234L40.0016 186.665L181.284 186.667L115.528 122.94C113.653 121.117 111.142 120.097 108.527 120.097C105.912 120.097 103.4 121.117 101.526 122.94ZM180.96 140.959C178.391 141.098 175.976 142.231 174.228 144.119L161.438 157.566L191.46 186.66L226.665 186.665L226.66 184.547L188.096 143.648C187.152 142.738 186.032 142.03 184.805 141.568C183.578 141.105 182.27 140.898 180.96 140.959ZM226.665 53.3357H40.0016L39.9968 172.92L96.8134 118.1C99.9468 115.044 104.15 113.334 108.527 113.334C112.903 113.334 117.107 115.044 120.24 118.1L156.255 152.994L168.978 139.547C170.482 137.932 172.292 136.631 174.303 135.719C176.313 134.807 178.484 134.303 180.691 134.236C185.154 134.109 189.485 135.753 192.741 138.808L226.66 174.814L226.665 53.3357Z" fill="#CE2783"/></svg>