<svg width="240" height="240" viewBox="0 0 240 240" fill="none" xmlns="http://www.w3.org/2000/svg"><path d="M160 22.8007L196.6 60.0006H163.267C162.366 60.0602 161.483 59.7282 160.844 59.0898C160.206 58.4512 159.874 57.5683 159.933 56.6673L160 22.8007ZM200 206.667C200 214.031 194.031 220.001 186.667 220.001H53.3335C45.9697 220.001 40.0002 214.031 40.0002 206.667V33.334C40.0002 25.9702 45.9697 20.0007 53.3335 20.0007H153.333V56.6673C153.474 62.131 157.87 66.5272 163.333 66.6673H200V206.667ZM201.933 55.334L165.333 18.0007C161.928 15.2151 157.726 13.5812 153.333 13.334H53.3335C42.2878 13.334 33.3335 22.2883 33.3335 33.334V206.667C33.3335 217.713 42.2878 226.667 53.3335 226.667H186.667C197.712 226.667 206.667 217.713 206.667 206.667V67.334C206.526 62.9067 204.853 58.6655 201.933 55.334Z" fill="#DA7B11"/><path opacity="0.1" d="M155.867 20C158.518 20.0023 161.06 21.0575 162.933 22.9333L197.067 56.9333C198.943 58.8069 199.998 61.3487 200 64V206.667C200 214.03 194.03 220 186.667 220H53.3333C45.9695 220 40 214.03 40 206.667V33.3333C40 25.9695 45.9695 20 53.3333 20H155.867Z" fill="#DA7B11"/><path d="M125.599 136.191H109.173L113.279 117.858H129.706L125.599 136.191ZM100.813 170.805C101.106 170.805 101.277 170.731 101.326 170.585C101.375 170.438 101.448 170.267 101.546 170.071L107.413 145.285H123.693L118.119 169.925C117.924 170.511 118.168 170.805 118.853 170.805H125.453C125.844 170.805 126.064 170.731 126.113 170.585C126.162 170.438 126.284 170.267 126.479 170.071L132.053 145.285H144.373C144.862 145.285 145.106 145.04 145.106 144.551V136.925C145.106 136.436 144.862 136.191 144.373 136.191H133.813L137.919 117.858H151.999C152.488 117.858 152.733 117.663 152.733 117.271V109.645C152.733 109.156 152.439 108.911 151.853 108.911H139.826L144.959 86.7648C145.057 86.1781 144.813 85.8848 144.226 85.8848H137.333C136.942 85.8848 136.746 86.1292 136.746 86.6181L131.759 108.911H115.479L120.466 86.9114C120.564 86.227 120.368 85.8848 119.879 85.8848H113.133C112.742 85.8848 112.399 86.1781 112.106 86.7648L107.119 108.911H94.2127C93.7238 108.911 93.4793 109.107 93.4793 109.498V117.271C93.4793 117.663 93.6749 117.858 94.066 117.858H105.066L100.959 136.191H86.8793C86.3905 136.191 86.146 136.436 86.146 136.925V144.405C86.146 144.991 86.3905 145.285 86.8793 145.285H99.0527L93.4793 169.925C93.2838 170.511 93.4793 170.805 94.066 170.805H100.813Z" fill="#DA7B11"/></svg>