<svg width="240" height="240" viewBox="0 0 240 240" fill="none" xmlns="http://www.w3.org/2000/svg"><path d="M110.247 151.982L101.248 177.226C101.141 177.687 100.719 178.004 100.247 177.978H91.746C91.082 177.978 90.8281 177.646 90.999 176.982L118.25 101.103C118.416 100.605 118.582 100.039 118.748 99.4139C118.976 98.2816 119.101 97.1311 119.124 95.9764C119.082 95.6735 119.293 95.3937 119.596 95.3514C119.647 95.3443 119.698 95.3443 119.749 95.3514H132C132.377 95.323 132.708 95.6001 132.747 95.9764L162.122 177.109C162.371 177.685 162.205 177.978 161.624 177.978H152.122C151.698 177.974 151.311 177.733 151.121 177.353L142 151.982H110.247ZM139.124 142.353C138.455 140.351 137.518 137.607 136.311 134.101C135.1 130.605 133.829 126.982 132.498 123.232C131.165 119.482 129.915 115.856 128.748 112.353C127.581 108.857 126.705 106.025 126.121 103.857H125.999C125.496 105.859 124.767 108.336 123.811 111.289C122.85 114.248 121.766 117.458 120.559 120.918C119.353 124.375 118.103 127.959 116.809 131.67C115.516 135.381 114.287 138.942 113.123 142.353H139.124Z" fill="#3DA74E"/><path opacity="0.1" d="M61.0001 220C52.1321 219.954 44.9747 212.739 45.0001 203.871V36.1292C44.9747 27.2612 52.1321 20.0459 61.0001 20H159.432C162.827 19.9939 166.082 21.3501 168.469 23.7647L201.234 56.6809C203.658 59.1028 205.014 62.3927 205 65.8191V203.871C205.025 212.739 197.868 219.954 189 220H61.0001Z" fill="#3DA74E"/><path d="M203.892 54.0332L171.128 21.1232C168.042 17.9953 163.828 16.2392 159.434 16.25H61.001C50.0631 16.2978 41.2278 25.19 41.25 36.128V203.872C41.2278 214.81 50.0631 223.702 61.001 223.75H188.999C199.937 223.702 208.772 214.81 208.75 203.872V65.8203C208.766 61.4008 207.017 57.1578 203.892 54.0332ZM198.579 59.3311C199.136 59.9051 199.615 60.5504 200.002 61.25H165C164.31 61.2487 163.751 60.6898 163.75 60V24.9024C164.505 25.3051 165.199 25.8132 165.811 26.4112L198.579 59.3311ZM188.999 216.25H61.001C54.2035 216.207 48.7235 210.67 48.75 203.872V36.128C48.7235 29.3303 54.2035 23.7935 61.001 23.75H156.25V60C156.256 64.8301 160.17 68.7442 165 68.75H201.25V203.872C201.277 210.67 195.797 216.207 188.999 216.25Z" fill="#3DA74E"/></svg>