<svg width="240" height="240" viewBox="0 0 240 240" fill="none" xmlns="http://www.w3.org/2000/svg"><g clip-path="url(#clip0_20447_96392)"><path d="M208.4 38.8667L174.267 4.86673C172.731 3.31906 170.902 2.09189 168.888 1.25646C166.874 0.421027 164.714 -0.00603365 162.533 6.43952e-05H60C54.6957 6.43952e-05 49.6086 2.1072 45.8579 5.85793C42.1071 9.60866 40 14.6957 40 20.0001V131.533C42.2 131.067 44.4 130.667 46.6667 130.4V20.0001C46.6667 16.4638 48.0714 13.0725 50.5719 10.572C53.0724 8.07149 56.4638 6.66673 60 6.66673H162.533C165.185 6.66906 167.726 7.72416 169.6 9.60006L203.733 43.6001C205.609 45.4736 206.664 48.0155 206.667 50.6667V193.333C206.667 196.87 205.262 200.261 202.761 202.761C200.261 205.262 196.87 206.667 193.333 206.667H110.933C110.296 208.936 109.517 211.162 108.6 213.333H193.333C198.638 213.333 203.725 211.226 207.475 207.476C211.226 203.725 213.333 198.638 213.333 193.333V50.6667C213.309 46.2368 211.536 41.9958 208.4 38.8667Z" fill="#0265DC"/><path opacity="0.1" d="M203.733 43.6003L169.6 9.60033C167.726 7.72443 165.184 6.66933 162.533 6.66699H59.9998C56.4636 6.66699 53.0722 8.07175 50.5717 10.5722C48.0713 13.0727 46.6665 16.4641 46.6665 20.0003V130.4C48.8786 130.132 51.1049 129.999 53.3332 130C62.6329 130.006 71.8039 132.174 80.1222 136.332C88.4405 140.49 95.6784 146.525 101.264 153.96C106.85 161.395 110.632 170.027 112.31 179.174C113.988 188.321 113.516 197.733 110.933 206.667H193.333C196.869 206.667 200.261 205.262 202.761 202.762C205.262 200.261 206.667 196.87 206.667 193.334V50.667C206.664 48.0157 205.609 45.4739 203.733 43.6003Z" fill="#0265DC"/><path d="M53.3673 199.985H29.9772C29.1214 199.985 28.3007 199.645 27.6956 199.04C27.0905 198.435 26.7505 197.614 26.7505 196.758V183.25C26.7505 182.394 27.0905 181.573 27.6956 180.968C28.3007 180.363 29.1214 180.023 29.9772 180.023H53.3673V164.414C53.4081 164.045 53.5901 163.707 53.8751 163.469C54.16 163.232 54.5258 163.114 54.8957 163.141C55.2662 163.12 55.6304 163.242 55.9146 163.48L83.6973 189.225C83.942 189.475 84.079 189.81 84.079 190.159C84.079 190.509 83.942 190.844 83.6973 191.093L55.9146 216.652C55.6134 216.893 55.2391 217.024 54.8532 217.024C54.4674 217.024 54.093 216.893 53.7919 216.652C53.5359 216.406 53.384 216.072 53.3673 215.718V199.985ZM53.3335 140C43.4445 140 33.7775 142.932 25.555 148.427C17.3325 153.921 10.9239 161.73 7.13954 170.866C3.35516 180.002 2.36499 190.055 4.29425 199.755C6.22352 209.454 10.9856 218.363 17.9782 225.355C24.9708 232.348 33.88 237.11 43.579 239.039C53.2781 240.969 63.3314 239.978 72.4677 236.194C81.604 232.41 89.4129 226.001 94.907 217.779C100.401 209.556 103.334 199.889 103.334 190C103.334 176.739 98.0657 164.021 88.6889 154.645C79.312 145.268 66.5943 140 53.3335 140Z" fill="#0265DC"/><path fill-rule="evenodd" clip-rule="evenodd" d="M75.4722 46.667C74.9274 46.6659 74.4027 46.8728 74.0053 47.2454C73.6078 47.618 73.3675 48.1283 73.3335 48.672V64.3779C73.3335 64.6404 73.3868 64.9002 73.4902 65.1414C73.5936 65.3827 73.7449 65.6004 73.935 65.7815C74.1242 65.9752 74.3546 66.1239 74.6092 66.2164C74.8637 66.309 75.1358 66.343 75.4053 66.3161H77.8113C78.0797 66.3301 78.3481 66.2899 78.6007 66.1981C78.8533 66.1063 79.0848 65.9646 79.2816 65.7815C79.6233 65.3672 79.8121 64.848 79.8162 64.3111V52.8825H96.5912V93.4506H88.9723C88.3919 93.4983 87.8486 93.7549 87.443 94.1728C87.0374 94.5906 86.7972 95.1414 86.7668 95.7229V97.9953C86.8326 98.5505 87.1007 99.062 87.5199 99.4319C87.9391 99.8018 88.48 100.004 89.0391 100H111.161C111.441 100 111.72 99.945 111.979 99.8375C112.239 99.73 112.474 99.5725 112.673 99.3739C112.871 99.1753 113.029 98.9395 113.136 98.68C113.244 98.4206 113.299 98.1424 113.299 97.8616V95.2549C113.274 94.9911 113.197 94.7349 113.072 94.5011C112.948 94.2673 112.778 94.0605 112.573 93.8927C112.368 93.7249 112.131 93.5994 111.878 93.5235C111.624 93.4476 111.357 93.4228 111.094 93.4505H103.14V53.3505H120.116V64.6453C120.089 64.9093 120.117 65.1761 120.197 65.429C120.278 65.6819 120.409 65.9156 120.584 66.1156C120.768 66.2968 120.988 66.4379 121.23 66.5299C121.471 66.6219 121.729 66.6629 121.987 66.6503H124.794C125.042 66.6618 125.29 66.6201 125.521 66.5279C125.751 66.4356 125.959 66.295 126.131 66.1156C126.309 65.929 126.448 65.7087 126.54 65.4677C126.632 65.2267 126.674 64.9698 126.666 64.7121V48.6721C126.649 48.1456 126.432 47.6453 126.06 47.2728C125.688 46.9004 125.187 46.6837 124.661 46.667H75.4722Z" fill="#0265DC"/><path d="M176.867 80H129.8C128.069 80 126.667 81.4028 126.667 83.1333V83.5333C126.667 85.2638 128.069 86.6667 129.8 86.6667H176.867C178.597 86.6667 180 85.2638 180 83.5333V83.1333C180 81.4028 178.597 80 176.867 80Z" fill="#0265DC"/><path d="M176.867 93.333H129.8C128.069 93.333 126.667 94.7359 126.667 96.4663V96.8663C126.667 98.5968 128.069 99.9997 129.8 99.9997H176.867C178.597 99.9997 180 98.5968 180 96.8663V96.4663C180 94.7359 178.597 93.333 176.867 93.333Z" fill="#0265DC"/><path d="M176.867 106.667H89.7998C88.0693 106.667 86.6665 108.07 86.6665 109.8V110.2C86.6665 111.931 88.0693 113.334 89.7998 113.334H176.867C178.597 113.334 180 111.931 180 110.2V109.8C180 108.07 178.597 106.667 176.867 106.667Z" fill="#0265DC"/></g><defs><clipPath id="clip0_20447_96392"><rect width="240" height="240" fill="white"/></clipPath></defs></svg>