<svg width="200" height="200" viewBox="0 0 200 200" fill="none" xmlns="http://www.w3.org/2000/svg">
<g clip-path="url(#clip0_2565_13142)">
<path opacity="0.2" d="M55.5552 44.4443H33.333V66.6666H55.5552V44.4443Z" fill="#B130BD"/>
<path opacity="0.2" d="M99.9996 44.4443H77.7773V66.6666H99.9996V44.4443Z" fill="#B130BD"/>
<path opacity="0.2" d="M144.062 66.6666C144.195 66.4346 144.302 66.1878 144.445 65.9626V44.4443H122.223V66.6666H144.062Z" fill="#B130BD"/>
<path opacity="0.2" d="M166.667 60.4206C169.282 61.9058 171.434 64.0529 172.922 66.6666H188.889V44.4443H166.667V60.4206Z" fill="#B130BD"/>
<path opacity="0.2" d="M144.445 88.8887H122.223V111.111H144.445V88.8887Z" fill="#B130BD"/>
<path opacity="0.2" d="M166.667 89.3023V111.111H188.889V88.8887H167.429C167.186 89.0433 166.919 89.1599 166.667 89.3023Z" fill="#B130BD"/>
<path opacity="0.2" d="M77.7773 101.166C78.7213 100.278 79.6667 99.3325 80.6663 98.3885C86.0551 93.1666 94.5552 93.111 99.9996 98.166V88.8887H77.7773V101.166Z" fill="#B130BD"/>
<path opacity="0.2" d="M188.889 145.666V133.333H177.277L188.889 145.666Z" fill="#B130BD"/>
<path opacity="0.2" d="M113.333 111.111L122.222 119.723V111.111H113.333Z" fill="#B130BD"/>
<path opacity="0.2" d="M160.611 115.667L166.667 122.111V111.111H144.444V113.5C146.334 112.5 148.389 111.944 150.556 111.89C154.278 111.779 157.888 113.111 160.611 115.667Z" fill="#B130BD"/>
<path opacity="0.2" d="M77.7779 66.667H55.5557V88.8892H77.7779V66.667Z" fill="#B130BD"/>
<path opacity="0.2" d="M122.222 66.667H100V88.8892H122.222V66.667Z" fill="#B130BD"/>
<path d="M144.444 65.963C144.302 66.1882 144.195 66.435 144.062 66.667C142.678 69.0962 141.825 71.8672 141.825 74.862C141.825 78.1443 142.807 81.1839 144.446 83.7636C145.755 85.8266 147.493 87.5722 149.552 88.8878C152.139 90.5398 155.195 91.5286 158.492 91.5286C161.479 91.5286 164.241 90.6795 166.667 89.3029C166.919 89.1605 167.186 89.0438 167.429 88.8892C172.065 85.9297 175.159 80.7701 175.159 74.862C175.159 71.8672 174.305 69.0962 172.922 66.667C171.434 64.0533 169.282 61.9063 166.667 60.421C164.241 59.0444 161.479 58.1953 158.492 58.1953C152.569 58.1953 147.401 61.3068 144.444 65.963ZM169.603 74.862C169.603 80.9885 164.618 85.9731 158.492 85.9731C152.365 85.9731 147.381 80.9885 147.381 74.862C147.381 68.7354 152.365 63.7509 158.492 63.7509C164.618 63.7509 169.603 68.7354 169.603 74.862Z" fill="#B130BD"/>
<path opacity="0.2" d="M144.444 88.8886H149.554C147.495 87.5729 145.756 85.826 144.446 83.7631C144.446 83.7631 144.444 88.8887 144.444 88.8886Z" fill="#B130BD"/>
<path opacity="0.2" d="M44.4441 105.555C48.2581 105.555 51.9691 105.984 55.5552 106.756V88.8887H33.333V106.756C36.9192 105.984 40.6301 105.555 44.4441 105.555Z" fill="#B130BD"/>
<path d="M44.4722 166.654H24.9804C23.4953 166.654 22.2915 165.451 22.2915 163.965V152.708C22.2915 151.223 23.4953 150.019 24.9804 150.019H44.4722V137.012C44.5429 136.374 45.1052 135.905 45.7458 135.951C46.0545 135.934 46.3581 136.035 46.5949 136.234L69.7471 157.688C70.1713 158.12 70.1713 158.813 69.7471 159.245L46.5949 180.543C46.0779 180.957 45.343 180.957 44.826 180.543C44.6127 180.339 44.4861 180.06 44.4722 179.765V166.654ZM44.444 116.667C21.4321 116.667 2.77734 135.322 2.77734 158.334C2.77734 181.346 21.4321 200 44.444 200C67.4559 200 86.1107 181.346 86.1107 158.334C86.1107 135.322 67.4559 116.667 44.444 116.667Z" fill="#B130BD"/>
<path d="M11.1129 117.457V22.2233H166.666V27.7788H172.221V20.5563C172.252 19.516 171.852 18.5083 171.116 17.7731C170.381 17.0366 169.373 16.6365 168.333 16.6677H9.44597C8.40564 16.6365 7.39792 17.0367 6.66275 17.7731C5.92625 18.5082 5.52614 19.516 5.55736 20.5563V122.775C7.29075 120.882 9.12314 119.083 11.1129 117.457Z" fill="#B130BD"/>
<path d="M193.334 39.9993C192.611 39.2777 191.611 38.8329 190.556 38.8885H31.6667C30.6115 38.8329 29.6119 39.2777 28.8889 39.9993C28.1674 40.7222 27.7225 41.7219 27.7781 42.7771V108.295C29.5916 107.689 31.4389 107.162 33.3337 106.755V44.444H188.889V145.666L177.278 133.333L166.667 122.111L160.611 115.667C157.889 113.11 154.278 111.778 150.556 111.889C148.389 111.944 146.334 112.5 144.445 113.499C143.111 114.222 141.889 115.111 140.834 116.277L130.222 127.499L122.223 119.722L113.333 111.111L100.223 98.3882C100.167 98.3326 100.056 98.277 100 98.1658C94.556 93.1107 86.0558 93.1664 80.6671 98.3882C79.6675 99.3322 78.7221 100.278 77.7781 101.166C74.2584 104.576 70.9069 107.818 67.6612 111.008C69.4149 111.872 71.1158 112.818 72.7543 113.864L75.6107 111.111L77.7782 109L84.6114 102.444C87.8341 99.278 93.0003 99.278 96.2786 102.444C97.5563 103.666 98.7783 104.888 100 106.054C101.779 107.777 103.5 109.444 105.222 111.111C111.278 117 116.945 122.5 122.223 127.61C133.723 138.777 143.334 148.055 151.056 155.555H97.0816C97.1304 156.48 97.2226 157.396 97.2226 158.333C97.2226 159.27 97.1304 160.186 97.0816 161.111H190.556C191.611 161.166 192.611 160.721 193.334 160C194.056 159.277 194.5 158.277 194.445 157.222V42.7771C194.5 41.7219 194.055 40.7222 193.334 39.9993ZM188.889 155.555H159.556L134.556 131.277L144.445 120.889L145.166 120.111C146.666 118.5 148.667 117.555 150.779 117.445C153 117.388 155.167 118.166 156.722 119.722L166.667 130.277L169.556 133.333L188.889 153.777L188.889 155.555Z" fill="#B130BD"/>
</g>
<defs>
<clipPath id="clip0_2565_13142">
<rect width="200" height="200" fill="white"/>
</clipPath>
</defs>
</svg>
