<svg width="240" height="240" viewBox="0 0 240 240" fill="none" xmlns="http://www.w3.org/2000/svg"><g clip-path="url(#clip0_20447_96556)"><path d="M208.4 38.8667L174.267 4.86673C172.731 3.31906 170.902 2.09189 168.888 1.25646C166.874 0.421027 164.714 -0.00603365 162.533 6.43952e-05H60C54.6957 6.43952e-05 49.6086 2.1072 45.8579 5.85793C42.1071 9.60866 40 14.6957 40 20.0001V131.533C42.2 131.067 44.4 130.667 46.6667 130.4V20.0001C46.6667 16.4638 48.0714 13.0725 50.5719 10.572C53.0724 8.07149 56.4638 6.66673 60 6.66673H162.533C165.185 6.66906 167.726 7.72416 169.6 9.60006L203.733 43.6001C205.609 45.4736 206.664 48.0155 206.667 50.6667V193.333C206.667 196.87 205.262 200.261 202.761 202.761C200.261 205.262 196.87 206.667 193.333 206.667H110.933C110.296 208.936 109.517 211.162 108.6 213.333H193.333C198.638 213.333 203.725 211.226 207.475 207.476C211.226 203.725 213.333 198.638 213.333 193.333V50.6667C213.309 46.2368 211.536 41.9958 208.4 38.8667Z" fill="#DA7B11"/><path opacity="0.1" d="M203.733 43.6003L169.6 9.60033C167.726 7.72443 165.184 6.66933 162.533 6.66699H59.9998C56.4636 6.66699 53.0722 8.07175 50.5717 10.5722C48.0713 13.0727 46.6665 16.4641 46.6665 20.0003V130.4C48.8786 130.132 51.1049 129.999 53.3332 130C62.6329 130.006 71.8039 132.174 80.1222 136.332C88.4405 140.49 95.6784 146.525 101.264 153.96C106.85 161.395 110.632 170.027 112.31 179.174C113.988 188.321 113.516 197.733 110.933 206.667H193.333C196.869 206.667 200.261 205.262 202.761 202.762C205.262 200.261 206.667 196.87 206.667 193.334V50.667C206.664 48.0157 205.609 45.4739 203.733 43.6003Z" fill="#DA7B11"/><path d="M93.9949 46.667C92.078 46.6863 90.2463 47.4618 88.8983 48.8248C87.5503 50.1877 86.795 52.0279 86.7968 53.9449V60.2212H80.5317C78.6203 60.2576 76.7985 61.0386 75.4541 62.3978C74.1097 63.7571 73.3489 65.5873 73.3335 67.4991V126.056C73.3489 127.968 74.1097 129.798 75.4541 131.157C76.7985 132.516 78.6203 133.297 80.5317 133.334H159.578C161.49 133.297 163.312 132.516 164.656 131.157C166 129.798 166.761 127.968 166.776 126.056L166.667 120H172.665C174.577 119.993 176.41 119.241 177.775 117.903C179.14 116.564 179.928 114.746 179.973 112.835V54.0784C180.057 53.1532 179.948 52.2206 179.651 51.3403C179.354 50.46 178.877 49.6514 178.249 48.9663C177.622 48.2812 176.858 47.7346 176.007 47.3617C175.156 46.9887 174.237 46.7975 173.308 46.8003L93.9949 46.667ZM160.111 126.79H80.1315V66.6978H160.111V126.79ZM166.667 113.334L166.776 67.6326C166.761 65.7209 166 63.8906 164.656 62.5314C163.311 61.1721 161.49 60.3912 159.578 60.3547L93.3335 60.2212V53.3337H173.333V113.334H166.667Z" fill="#DA7B11"/><path fill-rule="evenodd" clip-rule="evenodd" d="M109.067 106.513C107.867 107.113 106.667 105.847 106.667 104.647V81.3948C106.698 81.138 106.794 80.8934 106.945 80.6837C107.097 80.474 107.299 80.306 107.533 80.1956C107.768 80.0672 108.032 80 108.3 80C108.568 80 108.831 80.0672 109.067 80.1956L132.465 91.7885C132.725 91.9528 132.939 92.1787 133.091 92.446C133.242 92.7133 133.325 93.0139 133.332 93.3209C133.345 93.6318 133.271 93.9401 133.118 94.211C132.964 94.4818 132.738 94.7043 132.465 94.8533L109.067 106.513Z" fill="#DA7B11"/><path d="M53.3673 199.985H29.9772C29.1214 199.985 28.3007 199.645 27.6956 199.04C27.0905 198.435 26.7505 197.614 26.7505 196.758V183.25C26.7505 182.394 27.0905 181.573 27.6956 180.968C28.3007 180.363 29.1214 180.023 29.9772 180.023H53.3673V164.414C53.4081 164.045 53.5901 163.707 53.8751 163.469C54.16 163.232 54.5258 163.114 54.8957 163.141C55.2662 163.12 55.6304 163.242 55.9146 163.48L83.6973 189.225C83.942 189.475 84.079 189.81 84.079 190.159C84.079 190.509 83.942 190.844 83.6973 191.093L55.9146 216.652C55.6134 216.893 55.2391 217.024 54.8532 217.024C54.4674 217.024 54.093 216.893 53.7919 216.652C53.5359 216.406 53.384 216.072 53.3673 215.718V199.985ZM53.3335 140C43.4445 140 33.7775 142.932 25.555 148.427C17.3325 153.921 10.9239 161.73 7.13954 170.866C3.35516 180.002 2.36499 190.055 4.29425 199.755C6.22352 209.454 10.9856 218.363 17.9782 225.355C24.9708 232.348 33.88 237.11 43.579 239.039C53.2781 240.969 63.3314 239.978 72.4677 236.194C81.604 232.41 89.4129 226.001 94.907 217.779C100.401 209.556 103.334 199.889 103.334 190C103.334 176.739 98.0657 164.021 88.6889 154.645C79.312 145.268 66.5943 140 53.3335 140Z" fill="#DA7B11"/></g><defs><clipPath id="clip0_20447_96556"><rect width="240" height="240" fill="white"/></clipPath></defs></svg>