<svg width="240" height="240" viewBox="0 0 240 240" fill="none" xmlns="http://www.w3.org/2000/svg"><g clip-path="url(#clip0_20447_96474)"><path d="M208.4 38.8667L174.267 4.86673C172.731 3.31906 170.902 2.09189 168.888 1.25646C166.874 0.421027 164.714 -0.00603364 162.533 6.43952e-05H60C54.6957 6.43952e-05 49.6086 2.1072 45.8579 5.85793C42.1071 9.60866 40 14.6957 40 20.0001V131.533C42.2 131.067 44.4 130.667 46.6667 130.4V20.0001C46.6667 16.4638 48.0714 13.0725 50.5719 10.572C53.0724 8.07149 56.4638 6.66673 60 6.66673H162.533C165.185 6.66906 167.726 7.72416 169.6 9.60006L203.733 43.6001C205.609 45.4736 206.664 48.0155 206.667 50.6667V193.333C206.667 196.87 205.262 200.261 202.761 202.761C200.261 205.262 196.87 206.667 193.333 206.667H110.933C110.296 208.936 109.517 211.162 108.6 213.333H193.333C198.638 213.333 203.725 211.226 207.475 207.476C211.226 203.725 213.333 198.638 213.333 193.333V50.6667C213.309 46.2368 211.536 41.9958 208.4 38.8667Z" fill="#3DA74E"/><path opacity="0.1" d="M203.733 43.6003L169.6 9.60033C167.726 7.72443 165.184 6.66933 162.533 6.66699H59.9998C56.4636 6.66699 53.0722 8.07175 50.5717 10.5722C48.0713 13.0727 46.6665 16.4641 46.6665 20.0003V130.4C48.8786 130.132 51.1049 129.999 53.3332 130C62.6329 130.006 71.8039 132.174 80.1222 136.332C88.4405 140.49 95.6784 146.525 101.264 153.96C106.85 161.395 110.632 170.027 112.31 179.174C113.988 188.321 113.516 197.733 110.933 206.667H193.333C196.869 206.667 200.261 205.262 202.761 202.762C205.262 200.261 206.667 196.87 206.667 193.334V50.667C206.664 48.0157 205.609 45.4739 203.733 43.6003Z" fill="#3DA74E"/><path d="M179.654 40.0175H73.7994C72.9237 39.9539 72.0441 40.0639 71.211 40.3413C70.378 40.6186 69.608 41.0578 68.9452 41.6336C68.2824 42.2094 67.7399 42.9105 67.3488 43.6966C66.9578 44.4827 66.7259 45.3383 66.6665 46.2143V109.514C66.6665 116.777 69.7332 119.975 76.3992 119.975H176.855C178.224 120.031 179.59 119.798 180.865 119.293C182.139 118.788 183.294 118.022 184.254 117.044C185.985 114.932 186.843 112.238 186.654 109.514V46.2143C186.345 44.549 185.488 43.0347 184.22 41.912C182.952 40.7893 181.345 40.1225 179.654 40.0175ZM133.333 60.0071L180 60.0001V73.3334L133.333 73.3401V60.0071ZM133.333 80.007L180 80V93.3334L133.333 93.3401V80.007ZM99.9998 113.333H76.3992C75.9616 113.334 75.5282 113.247 75.1239 113.08C74.7195 112.913 74.3521 112.667 74.0425 112.358C73.733 112.049 73.4874 111.681 73.3199 111.277C73.1523 110.873 73.066 110.439 73.0659 110.002L73.125 99.9141L100 100.028L99.9998 113.333ZM100 93.3439L73.1252 93.2299V79.9036L100 80.0176V93.3439ZM100 73.3545L73.1252 73.2405V59.9138L100 60.0278V73.3545ZM126.666 113.34L106.666 113.334L106.667 100.028L126.667 100.007L126.666 113.34ZM126.667 93.3404L106.667 93.3439V80.0172L126.667 79.9962V93.3404ZM126.667 73.3334L106.667 73.3545V60.0281L126.667 60.0071V73.3334ZM179.955 110.332C179.955 110.769 179.868 111.203 179.701 111.607C179.533 112.011 179.288 112.378 178.978 112.688C178.669 112.997 178.301 113.243 177.897 113.41C177.492 113.577 177.059 113.663 176.621 113.663L133.333 113.333V100.007L180 100L179.955 110.332Z" fill="#3DA74E"/><path d="M53.3673 199.985H29.9772C29.1214 199.985 28.3007 199.645 27.6956 199.04C27.0905 198.435 26.7505 197.614 26.7505 196.758V183.25C26.7505 182.394 27.0905 181.573 27.6956 180.968C28.3007 180.363 29.1214 180.023 29.9772 180.023H53.3673V164.414C53.4081 164.045 53.5901 163.707 53.8751 163.469C54.16 163.232 54.5258 163.114 54.8957 163.141C55.2662 163.12 55.6304 163.242 55.9146 163.48L83.6973 189.225C83.942 189.475 84.0791 189.81 84.0791 190.159C84.0791 190.509 83.942 190.844 83.6973 191.093L55.9146 216.652C55.6134 216.893 55.2391 217.024 54.8532 217.024C54.4674 217.024 54.093 216.893 53.7919 216.652C53.5359 216.406 53.384 216.072 53.3673 215.718V199.985ZM53.3335 140C43.4445 140 33.7775 142.932 25.555 148.427C17.3325 153.921 10.9239 161.73 7.13954 170.866C3.35516 180.002 2.36499 190.055 4.29425 199.755C6.22352 209.454 10.9856 218.363 17.9782 225.355C24.9708 232.348 33.88 237.11 43.579 239.039C53.2781 240.969 63.3314 239.978 72.4677 236.194C81.604 232.41 89.4129 226.001 94.907 217.779C100.401 209.556 103.334 199.889 103.334 190C103.334 176.739 98.0657 164.021 88.6889 154.645C79.312 145.268 66.5943 140 53.3335 140Z" fill="#3DA74E"/></g><defs><clipPath id="clip0_20447_96474"><rect width="240" height="240" fill="white"/></clipPath></defs></svg>