<svg width="240" height="240" viewBox="0 0 240 240" fill="none" xmlns="http://www.w3.org/2000/svg"><g clip-path="url(#clip0_20447_96638)"><path opacity="0.1" d="M46.667 53.333V130.4C48.8791 130.132 51.1054 129.998 53.3337 130C68.6856 129.976 83.4627 135.838 94.6237 146.379C105.785 156.92 112.481 171.338 113.334 186.666H233.334V53.333H46.667Z" fill="#CE2783"/><path d="M184.976 190.802L118.977 122.82C117.116 120.969 114.598 119.93 111.974 119.93C109.349 119.93 106.831 120.969 104.971 122.82L87.5239 140.586L81.6338 137.096L100.302 118.065C103.416 115.031 107.593 113.333 111.941 113.333C116.289 113.333 120.466 115.031 123.581 118.065L158.104 153.623L171.256 140.23C174.371 137.196 178.547 135.498 182.896 135.498C187.244 135.498 191.42 137.196 194.535 140.23L233.333 179.739L235.908 182.043L232.81 188.712L189.866 144.985C188.963 144.047 187.881 143.301 186.683 142.791C185.485 142.282 184.197 142.019 182.896 142.019C181.594 142.019 180.306 142.282 179.108 142.791C177.91 143.301 176.828 144.047 175.925 144.985L162.773 158.378L192.233 188.712C187.941 190.668 185.522 191.365 184.976 190.802Z" fill="#CE2783"/><path fill-rule="evenodd" clip-rule="evenodd" d="M208.665 20.0019H18.0017C17.3828 19.9838 16.7667 20.0933 16.1919 20.3237C15.6171 20.5541 15.0959 20.9004 14.6609 21.3411C14.223 21.7846 13.8797 22.3123 13.6518 22.8924C13.4239 23.4724 13.3162 24.0927 13.3351 24.7157V146.667C15.4165 144.724 17.6454 142.945 20.0018 141.347V26.7358H206.665V33.4697H213.331V24.7157C213.35 24.0927 213.242 23.4724 213.015 22.8924C212.787 22.3123 212.443 21.7846 212.006 21.3411C211.57 20.9004 211.049 20.5541 210.474 20.3237C209.9 20.0933 209.284 19.9838 208.665 20.0019Z" fill="#CE2783"/><path d="M235.331 46.6691H44.6687C44.0508 46.6507 43.4358 46.7588 42.8612 46.9868C42.2867 47.2148 41.7649 47.5578 41.3278 47.9949C40.8907 48.432 40.5476 48.9538 40.3196 49.5284C40.0917 50.1029 39.9836 50.718 40.002 51.3358V131.334C42.202 130.867 44.402 130.467 46.6687 130.2V53.3357H233.332V186.665H113.334V193.332H235.331C235.949 193.35 236.564 193.242 237.139 193.014C237.713 192.786 238.235 192.443 238.672 192.006C239.109 191.569 239.453 191.047 239.681 190.473C239.909 189.898 240.017 189.283 239.998 188.665V51.3357C240.017 50.7178 239.909 50.1028 239.681 49.5282C239.453 48.9537 239.109 48.4319 238.672 47.9948C238.235 47.5577 237.713 47.2146 237.139 46.9866C236.564 46.7586 235.949 46.6507 235.331 46.6691Z" fill="#CE2783"/><path d="M196.632 109.835C191.341 109.777 186.289 107.626 182.581 103.852C178.873 100.077 176.812 94.9878 176.849 89.6972C176.886 84.4065 179.018 79.346 182.778 75.6237C186.537 71.9014 191.619 69.8206 196.91 69.837C202.247 69.9111 207.346 72.0628 211.123 75.8351C213.894 78.6599 215.765 82.2434 216.499 86.1319C217.232 90.0205 216.796 94.0393 215.244 97.6796C213.692 101.32 211.096 104.418 207.782 106.582C204.469 108.745 200.589 109.877 196.632 109.835ZM196.665 109.836V106.503L196.698 103.169C199.333 103.199 201.918 102.447 204.126 101.008C206.333 99.5694 208.065 97.5087 209.103 95.0863C210.14 92.6639 210.436 89.9884 209.953 87.3978C209.471 84.8072 208.231 82.4178 206.392 80.5312C203.858 78.0044 200.443 76.5602 196.865 76.5032C195.112 76.4993 193.375 76.8413 191.754 77.5095C190.132 78.1778 188.659 79.1593 187.418 80.3978C186.177 81.6362 185.192 83.1074 184.52 84.7269C183.848 86.3465 183.502 88.0827 183.502 89.8361C183.502 91.5895 183.848 93.3257 184.52 94.9453C185.192 96.5649 186.177 98.036 187.418 99.2744C188.659 100.513 190.132 101.494 191.754 102.163C193.375 102.831 195.112 103.173 196.865 103.169V109.836L196.665 109.836Z" fill="#CE2783"/><path d="M53.3668 199.985H29.9767C29.1209 199.985 28.3002 199.645 27.6951 199.04C27.09 198.435 26.75 197.614 26.75 196.758V183.25C26.75 182.394 27.09 181.573 27.6951 180.968C28.3002 180.363 29.1209 180.023 29.9767 180.023H53.3668V164.414C53.4077 164.045 53.5896 163.707 53.8746 163.469C54.1595 163.232 54.5253 163.114 54.8952 163.141C55.2657 163.12 55.63 163.242 55.9141 163.48L83.6968 189.225C83.9415 189.475 84.0786 189.81 84.0786 190.159C84.0786 190.509 83.9415 190.844 83.6968 191.093L55.9141 216.652C55.6129 216.893 55.2386 217.024 54.8527 217.024C54.4669 217.024 54.0926 216.893 53.7914 216.652C53.5354 216.406 53.3835 216.072 53.3668 215.718V199.985ZM53.333 140C43.444 140 33.777 142.932 25.5545 148.427C17.3321 153.921 10.9234 161.73 7.13905 170.866C3.35467 180.002 2.36451 190.055 4.29377 199.755C6.22303 209.454 10.9851 218.363 17.9777 225.355C24.9703 232.348 33.8795 237.11 43.5785 239.039C53.2776 240.969 63.3309 239.978 72.4672 236.194C81.6035 232.41 89.4124 226.001 94.9065 217.779C100.401 209.556 103.333 199.889 103.333 190C103.333 176.739 98.0652 164.021 88.6884 154.645C79.3116 145.268 66.5939 140 53.333 140Z" fill="#CE2783"/></g><defs><clipPath id="clip0_20447_96638"><rect width="240" height="240" fill="white"/></clipPath></defs></svg>