<svg width="200" height="212" viewBox="0 0 200 212" fill="none" xmlns="http://www.w3.org/2000/svg">
<path d="M114.74 72.383C95.7401 72.383 76.7154 69.0991 59.1598 62.7534C58.5796 62.5436 58.2833 61.9139 58.4932 61.3337C58.7031 60.7534 59.3327 60.4571 59.9129 60.667C80.1228 67.9756 102.333 71.1608 124.148 69.8892C124.789 69.8522 125.283 70.3213 125.32 70.9386C125.357 71.5559 124.888 72.0744 124.271 72.1115C121.098 72.2966 117.913 72.3954 114.728 72.3954L114.74 72.383Z" fill="url(#paint0_linear_3631_9693)"/>
<path d="M126.839 116.656C126.296 116.656 125.814 116.248 125.74 115.693C115.419 37.5075 143.407 13.1865 155.913 6.35939C168.357 -0.430737 182.864 0.198893 191.999 7.93963C199.493 14.2977 201.728 23.9026 198.111 34.31C191.123 54.4335 163.172 69.1989 126.925 71.9273C126.629 71.952 126.333 71.8532 126.123 71.668C125.271 83.8903 125.691 98.3347 127.95 115.396C128.036 116.001 127.604 116.569 126.999 116.643C126.95 116.643 126.901 116.643 126.851 116.643L126.839 116.656ZM173.753 3.89025C168.222 3.89025 162.407 5.35939 156.987 8.31C147.703 13.3717 129.617 28.4705 126.259 69.8779C126.407 69.7915 126.58 69.7298 126.765 69.7174C162.135 67.0631 189.32 52.8779 196.012 33.5816C199.308 24.1001 197.333 15.3717 190.567 9.64334C186.061 5.81618 180.098 3.89025 173.753 3.89025Z" fill="url(#paint1_linear_3631_9693)"/>
<path d="M74.4566 92.5177H22.6295C21.0369 92.5177 19.7529 91.2338 19.7529 89.6412C19.7529 88.0486 21.0369 86.7646 22.6295 86.7646H74.4566C76.0492 86.7646 77.3332 88.0486 77.3332 89.6412C77.3332 91.2338 76.0492 92.5177 74.4566 92.5177Z" fill="url(#paint2_linear_3631_9693)"/>
<path d="M170.296 163.433H108.197C106.604 163.433 105.32 162.136 105.32 160.556C105.32 158.976 106.617 157.68 108.197 157.68H170.296C171.888 157.68 173.172 158.976 173.172 160.556C173.172 162.136 171.876 163.433 170.296 163.433Z" fill="url(#paint3_linear_3631_9693)"/>
<path d="M54.0739 110.137H22.6295C21.0369 110.137 19.7529 108.841 19.7529 107.26C19.7529 105.68 21.0369 104.384 22.6295 104.384H54.0739C55.6665 104.384 56.9505 105.668 56.9505 107.26C56.9505 108.853 55.6665 110.137 54.0739 110.137Z" fill="url(#paint4_linear_3631_9693)"/>
<path d="M139.655 181.05H108.211C106.618 181.05 105.334 179.754 105.334 178.173C105.334 176.593 106.63 175.297 108.211 175.297H139.655C141.248 175.297 142.532 176.593 142.532 178.173C142.532 179.754 141.235 181.05 139.655 181.05Z" fill="url(#paint5_linear_3631_9693)"/>
<path d="M77.235 130.939H15.1979C7.01274 130.815 0.42015 124.087 0.457187 115.939L0.481878 15.1364C0.444841 6.98829 7.04978 0.272244 15.1856 0.161133H73.951C77.3584 0.161133 80.6671 1.54385 83.0374 3.95126L103.346 24.5562C105.778 27.013 107.112 30.2722 107.099 33.729V62.0624C107.099 63.655 105.803 64.9389 104.223 64.9389C102.642 64.9389 101.346 63.655 101.346 62.0624V33.7167C101.346 31.7784 100.618 29.9759 99.2597 28.6056L78.9387 7.98829C77.6424 6.66731 75.8276 5.91422 73.951 5.91422H15.2226C10.2597 5.97595 6.22262 10.0994 6.23496 15.1118L6.21027 115.939C6.18558 120.951 10.235 125.087 15.235 125.161H77.235C78.8276 125.161 80.1115 126.445 80.1115 128.038C80.1115 129.63 78.8276 130.914 77.235 130.914V130.939Z" fill="url(#paint6_linear_3631_9693)"/>
<path d="M178.086 210.678L100.765 210.654C92.5801 210.53 85.9875 203.802 86.0246 195.654L86.0493 94.8513C86.0122 86.7031 92.6172 79.9871 100.753 79.876H118.346C119.938 79.876 121.222 81.1599 121.222 82.7525C121.222 84.3451 119.926 85.6291 118.346 85.6291H100.79C95.827 85.6908 91.79 89.8142 91.8023 94.8266L91.7777 195.654C91.753 200.666 95.8023 204.802 100.802 204.876L178.086 204.901C182.938 204.901 186.901 200.95 186.913 196.098V160.271C186.913 160.172 186.901 160.086 186.901 159.987V113.432C186.901 111.493 186.173 109.691 184.815 108.32L164.494 87.7031C163.197 86.3822 161.383 85.6291 159.506 85.6291H130.568C128.975 85.6291 127.691 84.3451 127.691 82.7525C127.691 81.1599 128.988 79.876 130.568 79.876H159.506C162.913 79.876 166.222 81.2587 168.592 83.6661L188.901 104.271C191.333 106.728 192.667 109.987 192.654 113.444V154.962C192.654 155.061 192.667 155.148 192.667 155.246V196.111C192.654 204.148 186.099 210.666 178.074 210.666L178.086 210.678Z" fill="url(#paint7_linear_3631_9693)"/>
<path d="M28.3215 68.308C27.2844 68.308 26.2351 68.0364 25.2968 67.4932C23.0128 66.1722 21.8647 63.5672 22.4202 60.987L25.8647 45.0117L14.8894 32.9006C13.1239 30.95 12.8153 28.1105 14.1363 25.8265C15.4573 23.5426 18.0869 22.3944 20.6425 22.95L36.6178 26.3944L48.7289 15.4191C50.6795 13.6413 53.5313 13.3574 55.803 14.666C58.0869 15.987 59.2351 18.5919 58.6795 21.1722L55.2351 37.1475L66.2104 49.2586C67.9758 51.2092 68.2721 54.0487 66.9634 56.3203C65.6425 58.5919 63.0375 59.7524 60.4696 59.1969L44.4943 55.7401L32.3709 66.7277C31.2227 67.7648 29.7783 68.2956 28.3215 68.2956V68.308Z" fill="#5D4ADA"/>
<path d="M126.79 141.667C126.247 141.667 125.691 141.532 125.197 141.235C124 140.544 123.383 139.161 123.679 137.803L124.975 131.791L120.839 127.235C119.914 126.211 119.753 124.704 120.444 123.507C121.136 122.309 122.531 121.717 123.876 121.988L129.889 123.285L134.444 119.149C135.469 118.211 136.975 118.062 138.173 118.754C139.37 119.445 139.988 120.828 139.691 122.186L138.395 128.198L142.531 132.754C143.457 133.778 143.617 135.285 142.926 136.482C142.234 137.68 140.839 138.272 139.494 138.001L133.481 136.704L128.926 140.84C128.321 141.383 127.555 141.667 126.79 141.667Z" fill="#D73220"/>
<defs>
<linearGradient id="paint0_linear_3631_9693" x1="113.567" y1="84.5065" x2="70.1969" y2="48.1855" gradientUnits="userSpaceOnUse">
<stop offset="0.43" stop-color="#5D4ADA"/>
<stop offset="0.61" stop-color="#9254AC"/>
<stop offset="0.88" stop-color="#DB6370"/>
<stop offset="1" stop-color="#F86958"/>
</linearGradient>
<linearGradient id="paint1_linear_3631_9693" x1="169.555" y1="70.952" x2="125.024" y2="33.668" gradientUnits="userSpaceOnUse">
<stop offset="0.43" stop-color="#5D4ADA"/>
<stop offset="0.61" stop-color="#9254AC"/>
<stop offset="0.88" stop-color="#DB6370"/>
<stop offset="1" stop-color="#F86958"/>
</linearGradient>
<linearGradient id="paint2_linear_3631_9693" x1="22.6295" y1="89.6412" x2="84.7282" y2="89.6412" gradientUnits="userSpaceOnUse">
<stop stop-color="#D73220"/>
<stop offset="0.33" stop-color="#D92361"/>
<stop offset="1" stop-color="#7155FA"/>
</linearGradient>
<linearGradient id="paint3_linear_3631_9693" x1="105.32" y1="160.556" x2="173.185" y2="160.556" gradientUnits="userSpaceOnUse">
<stop stop-color="#D73220"/>
<stop offset="0.33" stop-color="#D92361"/>
<stop offset="1" stop-color="#7155FA"/>
</linearGradient>
<linearGradient id="paint4_linear_3631_9693" x1="19.7406" y1="107.26" x2="56.9505" y2="107.26" gradientUnits="userSpaceOnUse">
<stop stop-color="#D73220"/>
<stop offset="0.33" stop-color="#D92361"/>
<stop offset="1" stop-color="#7155FA"/>
</linearGradient>
<linearGradient id="paint5_linear_3631_9693" x1="105.322" y1="178.173" x2="142.532" y2="178.173" gradientUnits="userSpaceOnUse">
<stop stop-color="#D73220"/>
<stop offset="0.33" stop-color="#D92361"/>
<stop offset="1" stop-color="#7155FA"/>
</linearGradient>
<linearGradient id="paint6_linear_3631_9693" x1="0.827557" y1="65.5562" x2="106.729" y2="65.5562" gradientUnits="userSpaceOnUse">
<stop stop-color="#D73220"/>
<stop offset="0.33" stop-color="#D92361"/>
<stop offset="1" stop-color="#7155FA"/>
</linearGradient>
<linearGradient id="paint7_linear_3631_9693" x1="86.4073" y1="145.283" x2="192.309" y2="145.283" gradientUnits="userSpaceOnUse">
<stop stop-color="#D73220"/>
<stop offset="0.33" stop-color="#D92361"/>
<stop offset="1" stop-color="#7155FA"/>
</linearGradient>
</defs>
</svg>
