<svg width="240" height="240" viewBox="0 0 240 240" fill="none" xmlns="http://www.w3.org/2000/svg"><path d="M155.866 19.9997C158.518 20.0021 161.059 21.0572 162.933 22.9331L197.066 56.9331C198.942 58.8066 199.997 61.3485 200 63.9997V206.666C200 210.203 198.595 213.594 196.094 216.094C193.594 218.595 190.203 220 186.666 220H53.333C49.7968 220 46.4054 218.595 43.9049 216.094C41.4044 213.594 39.9997 210.203 39.9997 206.666V33.3331C39.9997 29.7969 41.4044 26.4055 43.9049 23.905C46.4054 21.4045 49.7968 19.9997 53.333 19.9997H155.866ZM155.866 13.3331H53.333C48.0287 13.3331 42.9416 15.4402 39.1909 19.1909C35.4401 22.9417 33.333 28.0287 33.333 33.3331V206.666C33.333 211.971 35.4401 217.058 39.1909 220.809C42.9416 224.559 48.0287 226.666 53.333 226.666H186.666C191.971 226.666 197.058 224.559 200.808 220.809C204.559 217.058 206.666 211.971 206.666 206.666V63.9997C206.642 59.5698 204.869 55.3288 201.733 52.1997L167.6 18.1997C166.064 16.6521 164.235 15.4249 162.221 14.5895C160.207 13.754 158.047 13.327 155.866 13.3331Z" fill="#DA7B11"/><path opacity="0.1" d="M155.867 20C158.518 20.0023 161.06 21.0574 162.933 22.9333L197.067 56.9333C198.943 58.8069 199.998 61.3487 200 64V206.667C200 210.203 198.595 213.594 196.095 216.095C193.594 218.595 190.203 220 186.667 220H53.3333C49.7971 220 46.4057 218.595 43.9052 216.095C41.4048 213.594 40 210.203 40 206.667V33.3333C40 29.7971 41.4048 26.4057 43.9052 23.9052C46.4057 21.4048 49.7971 20 53.3333 20H155.867Z" fill="#DA7B11"/><path d="M87.3284 60C85.4115 60.0193 83.5798 60.7948 82.2318 62.1578C80.8838 63.5207 80.1285 65.3609 80.1303 67.2779V73.5542H73.8652C71.9537 73.5906 70.132 74.3716 68.7876 75.7308C67.4432 77.0901 66.6824 78.9203 66.667 80.8321V139.389C66.6824 141.301 67.4432 143.131 68.7876 144.49C70.132 145.849 71.9537 146.63 73.8652 146.667H152.912C154.823 146.63 156.645 145.849 157.989 144.49C159.334 143.131 160.095 141.301 160.11 139.389L160 133.333H165.999C167.91 133.326 169.744 132.574 171.108 131.236C172.473 129.897 173.262 128.079 173.307 126.168V67.4114C173.391 66.4862 173.281 65.5536 172.984 64.6733C172.687 63.7931 172.21 62.9844 171.583 62.2993C170.955 61.6142 170.192 61.0676 169.341 60.6947C168.49 60.3217 167.571 60.1305 166.642 60.1333L87.3284 60ZM153.445 140.123H73.465V80.0308H153.445V140.123ZM160 126.667L160.11 80.9656C160.095 79.0539 159.334 77.2236 157.989 75.8644C156.645 74.5051 154.823 73.7242 152.912 73.6877L86.667 73.5542V66.6667H166.667V126.667H160Z" fill="#DA7B11"/><path fill-rule="evenodd" clip-rule="evenodd" d="M102.4 119.846C101.2 120.446 100 119.18 100 117.98V94.7278C100.031 94.471 100.127 94.2264 100.279 94.0167C100.431 93.807 100.633 93.639 100.867 93.5286C101.102 93.4003 101.365 93.333 101.633 93.333C101.901 93.333 102.165 93.4003 102.4 93.5286L125.799 105.122C126.058 105.286 126.273 105.512 126.424 105.779C126.575 106.046 126.658 106.347 126.665 106.654C126.678 106.965 126.604 107.273 126.451 107.544C126.298 107.815 126.072 108.037 125.799 108.186L102.4 119.846Z" fill="#DA7B11"/></svg>