<svg width="240" height="240" viewBox="0 0 240 240" fill="none" xmlns="http://www.w3.org/2000/svg"><path d="M131.267 212.297C124.276 215.828 117.913 218.536 113.623 220.197V24.7375L189.482 59.7217C190.498 60.1364 191.185 61.0973 191.25 62.1924V115.022L192.368 115C194.5 115.012 196.635 115.153 198.75 115.421V62.1924C198.679 58.18 196.3 54.5685 192.642 52.9199L110 14.8047L27.3535 52.92C23.6714 54.5402 21.2823 58.1697 21.25 62.1924V137.93C21.25 172.07 45.6738 191.797 68.5694 207.607C81.0929 216.351 94.6227 223.556 108.867 229.067L110 229.429L111.133 229.067C118.016 226.703 124.742 223.906 131.272 220.693L131.267 212.297ZM106.123 219.948C94.467 214.838 83.319 208.64 72.8271 201.436C51.5039 186.709 28.75 168.437 28.75 137.93V62.1924C28.8024 61.0985 29.4871 60.1354 30.503 59.7265L106.123 24.8541L106.123 219.948Z" fill="#5C5CE0"/><path d="M225 166.25H224.763C222.412 133.707 201.709 130 192.5 130C183.291 130 162.588 133.707 160.237 166.25H160C152.409 166.258 146.258 172.409 146.25 180V225C146.258 232.591 152.409 238.742 160 238.75H225C232.591 238.742 238.742 232.591 238.75 225V180C238.742 172.409 232.591 166.258 225 166.25ZM198.892 207.166V216.721C198.891 218.532 197.423 220 195.613 220H189.056C187.246 219.999 185.779 218.531 185.779 216.721V207.166C181.731 203.545 181.385 197.328 185.006 193.28C188.627 189.233 194.844 188.887 198.892 192.508C202.939 196.129 203.285 202.346 199.664 206.393C199.421 206.665 199.163 206.923 198.892 207.166ZM170.262 166.25C171.368 153.131 176.47 140 192.5 140C208.53 140 213.632 153.131 214.738 166.25H170.262Z" fill="#5C5CE0"/><path opacity="0.1" fill-rule="evenodd" clip-rule="evenodd" d="M107.623 223.614C99.1445 220.004 25 181.421 25 149.955V57.1454C25.028 56.017 25.8298 55.0567 26.935 54.8275C46.6658 51.3198 96.3565 24.567 107.623 19.5123V223.614Z" fill="#5C5CE0"/></svg>