<svg width="240" height="240" viewBox="0 0 240 240" fill="none" xmlns="http://www.w3.org/2000/svg"><path fill-rule="evenodd" clip-rule="evenodd" d="M171.196 45.0067L189.532 25.0119C189.851 24.6998 190.256 24.489 190.695 24.406C191.134 24.3229 191.588 24.3714 191.999 24.5452C192.402 24.7176 192.744 25.0064 192.982 25.3745C193.219 25.7426 193.342 26.1733 193.333 26.6114V77.7981C193.315 78.3876 193.069 78.9471 192.645 79.3578C192.222 79.7685 191.655 79.9982 191.066 79.9981H141.392C140.954 80.0067 140.523 79.8845 140.155 79.6469C139.787 79.4094 139.498 79.0674 139.326 78.6647C139.133 78.2572 139.074 77.7989 139.158 77.3558C139.241 76.9127 139.464 76.5076 139.792 76.1987L161.328 55.2041C156.062 46.8235 148.837 39.8484 140.277 34.8791C131.717 29.9099 122.077 27.0955 112.188 26.6781C98.0785 26.3533 84.3361 31.1929 73.5436 40.2874C62.7512 49.3818 55.6519 62.1049 53.58 76.0653C53.3952 77.1438 52.8425 78.1249 52.016 78.8419C51.1894 79.5589 50.14 79.9675 49.0463 79.9981H44.5123C43.8535 79.995 43.2031 79.8506 42.605 79.5745C42.0068 79.2985 41.4749 78.8973 41.0451 78.3981C40.6412 77.9117 40.3435 77.3461 40.1713 76.7377C39.9991 76.1293 39.9561 75.4917 40.0451 74.8657C42.16 60.4959 48.5703 47.1015 58.4347 36.4406C68.2991 25.7796 81.1565 18.3505 95.3192 15.1284C109.482 11.9063 124.288 13.0419 137.793 18.386C151.299 23.7301 162.873 33.0329 170.996 45.0734L171.196 45.0067Z" fill="#B130BD"/><path d="M68.6 128.666L52 111.333C48.5942 108.547 44.3929 106.913 40 106.666H20C14.6957 106.666 9.60859 108.773 5.85786 112.524C2.10714 116.275 0 121.362 0 126.666L0 186.666C0 191.97 2.10714 197.057 5.85786 200.808C9.60859 204.559 14.6957 206.666 20 206.666H53.3333C58.6377 206.666 63.7247 204.559 67.4755 200.808C71.2262 197.057 73.3333 191.97 73.3333 186.666V140.666C73.1922 136.239 71.5193 131.998 68.6 128.666ZM66.6667 186.666C66.6667 190.202 65.2619 193.594 62.7614 196.094C60.2609 198.595 56.8695 199.999 53.3333 199.999H20C16.4638 199.999 13.0724 198.595 10.5719 196.094C8.07142 193.594 6.66667 190.202 6.66667 186.666V126.666C6.66667 123.13 8.07142 119.738 10.5719 117.238C13.0724 114.737 16.4638 113.333 20 113.333H40V129.999C40.0675 132.63 41.1427 135.135 43.0037 136.996C44.8646 138.857 47.3691 139.932 50 139.999H66.6667V186.666ZM46.6667 116.133L63.2667 133.333H49.9333C49.488 133.362 49.0414 133.296 48.6237 133.139C48.2059 132.982 47.8265 132.737 47.5109 132.422C47.1953 132.106 46.9507 131.727 46.7937 131.309C46.6366 130.891 46.5705 130.445 46.6 129.999L46.6667 116.133Z" fill="#B130BD"/><path opacity="0.1" d="M66.6665 186.667C66.6665 190.204 65.2617 193.595 62.7613 196.095C60.2608 198.596 56.8694 200.001 53.3332 200.001H19.9998C16.4636 200.001 13.0722 198.596 10.5717 196.095C8.07126 193.595 6.6665 190.204 6.6665 186.667V126.667C6.6665 123.131 8.07126 119.74 10.5717 117.239C13.0722 114.739 16.4636 113.334 19.9998 113.334H39.9998V130.001C40.0673 132.632 41.1426 135.136 43.0035 136.997C44.8644 138.858 47.3689 139.933 49.9998 140.001H66.6665V186.667ZM146.667 186.667C146.667 190.204 145.262 193.595 142.761 196.095C140.261 198.596 136.869 200.001 133.333 200.001H99.9998C96.4636 200.001 93.0722 198.596 90.5717 196.095C88.0713 193.595 86.6665 190.204 86.6665 186.667V126.667C86.6665 123.131 88.0713 119.74 90.5717 117.239C93.0722 114.739 96.4636 113.334 99.9998 113.334H120V130.001C120.067 132.632 121.143 135.136 123.003 136.997C124.864 138.858 127.369 139.933 130 140.001H146.667V186.667Z" fill="#B130BD"/><path opacity="0.1" d="M46.6665 113.334L66.6665 133.341L49.3332 133.334C47.7332 133.334 46.6665 131.801 46.6665 129.467V113.334Z" fill="#B130BD"/><path opacity="0.1" d="M126.667 113.334L146.667 133.341L129.333 133.334C127.733 133.334 126.667 131.801 126.667 129.467V113.334Z" fill="#B130BD"/><path d="M148.6 128.666L132 111.333C128.594 108.547 124.393 106.913 120 106.666H100C94.6957 106.666 89.6086 108.773 85.8579 112.524C82.1071 116.275 80 121.362 80 126.666V186.666C80 191.97 82.1071 197.057 85.8579 200.808C89.6086 204.559 94.6957 206.666 100 206.666H133.333C138.638 206.666 143.725 204.559 147.475 200.808C151.226 197.057 153.333 191.97 153.333 186.666V140.666C153.192 136.239 151.519 131.998 148.6 128.666ZM146.667 186.666C146.667 190.202 145.262 193.594 142.761 196.094C140.261 198.595 136.87 199.999 133.333 199.999H100C96.4638 199.999 93.0724 198.595 90.5719 196.094C88.0714 193.594 86.6667 190.202 86.6667 186.666V126.666C86.6667 123.13 88.0714 119.738 90.5719 117.238C93.0724 114.737 96.4638 113.333 100 113.333H120V129.999C120.067 132.63 121.143 135.135 123.004 136.996C124.865 138.857 127.369 139.932 130 139.999H146.667V186.666ZM126.667 116.133L143.267 133.333H129.933C129.488 133.362 129.041 133.296 128.624 133.139C128.206 132.982 127.827 132.737 127.511 132.422C127.195 132.106 126.951 131.727 126.794 131.309C126.637 130.891 126.571 130.445 126.6 129.999L126.667 116.133ZM233.333 193.333C233.333 196.869 231.929 200.26 229.428 202.761C226.928 205.261 223.536 206.666 220 206.666H173.333C169.797 206.666 166.406 205.261 163.905 202.761C161.405 200.26 160 196.869 160 193.333V119.999C160 116.463 161.405 113.072 163.905 110.571C166.406 108.071 169.797 106.666 173.333 106.666H200V129.999C200.067 132.63 201.143 135.135 203.004 136.996C204.865 138.857 207.369 139.932 210 139.999H233.333V193.333ZM206.667 106.666L233.333 133.333L210 132.866C209.555 132.895 209.108 132.829 208.69 132.672C208.273 132.515 207.893 132.271 207.578 131.955C207.262 131.64 207.017 131.26 206.86 130.842C206.703 130.425 206.637 129.978 206.667 129.533V106.666Z" fill="#B130BD"/></svg>