<svg width="240" height="240" viewBox="0 0 240 240" fill="none" xmlns="http://www.w3.org/2000/svg"><path fill-rule="evenodd" clip-rule="evenodd" d="M164.964 0H175.357C181.563 0.0306317 187.696 1.32994 193.381 3.81809C199.066 6.30624 204.182 9.93065 208.415 14.4686C217.165 23.986 221.961 36.4791 221.826 49.4067V60.4081H237.383C237.734 60.4052 238.082 60.4748 238.405 60.6125C238.728 60.7501 239.02 60.9529 239.261 61.2081C239.734 61.7411 239.996 62.4286 239.998 63.1414C240.015 63.7735 239.801 64.3899 239.395 64.8747L215.926 92.4784C215.692 92.7467 215.403 92.9617 215.079 93.1091C214.756 93.2565 214.404 93.3327 214.048 93.3327C213.692 93.3327 213.34 93.2565 213.017 93.1091C212.693 92.9617 212.404 92.7467 212.17 92.4784L188.701 64.8753C188.295 64.3905 188.081 63.7741 188.098 63.142C188.1 62.4292 188.362 61.7417 188.835 61.2087C189.071 60.9466 189.361 60.7393 189.686 60.6011C190.01 60.4629 190.36 60.3973 190.713 60.4087H206.739V49.4067C206.969 40.9049 203.814 32.6596 197.967 26.4833C192.12 20.3069 184.06 16.7049 175.558 16.4689H165.165C163.758 16.421 162.426 15.82 161.46 14.7964C160.493 13.7727 159.969 12.4091 160.002 11.0015V5.4674C159.967 4.09281 160.463 2.75764 161.387 1.73941C162.311 0.721181 163.592 0.098216 164.964 0Z" fill="#7CC33F"/><path d="M168.6 55.3334L132 18C128.594 15.2145 124.393 13.5806 120 13.3334H20C14.6957 13.3334 9.60859 15.4405 5.85786 19.1912C2.10714 22.942 0 28.029 0 33.3334L0 206.667C0 211.971 2.10714 217.058 5.85786 220.809C9.60859 224.56 14.6957 226.667 20 226.667H153.333C158.638 226.667 163.725 224.56 167.475 220.809C171.226 217.058 173.333 211.971 173.333 206.667V67.3334C173.192 62.9061 171.519 58.6649 168.6 55.3334ZM166.667 206.667C166.667 210.203 165.262 213.594 162.761 216.095C160.261 218.595 156.87 220 153.333 220H20C16.4638 220 13.0724 218.595 10.5719 216.095C8.07142 213.594 6.66667 210.203 6.66667 206.667V33.3334C6.66667 29.7972 8.07142 26.4058 10.5719 23.9053C13.0724 21.4048 16.4638 20 20 20H120V56.6667C120.067 59.2976 121.143 61.8021 123.004 63.663C124.865 65.524 127.369 66.5992 130 66.6667H166.667V206.667ZM126.667 22.8L163.267 60H129.933C129.488 60.0295 129.041 59.9635 128.624 59.8064C128.206 59.6493 127.826 59.4047 127.511 59.0891C127.195 58.7735 126.951 58.3941 126.794 57.9764C126.637 57.5586 126.571 57.1121 126.6 56.6667L126.667 22.8Z" fill="#7CC33F"/><path opacity="0.1" d="M122.533 20C125.184 20.0023 127.726 21.0574 129.599 22.9333L163.733 56.9333C165.609 58.8069 166.664 61.3487 166.666 64V206.667C166.666 210.203 165.261 213.594 162.761 216.095C160.26 218.595 156.869 220 153.333 220H19.9993C16.4631 220 13.0717 218.595 10.5713 216.095C8.07077 213.594 6.66602 210.203 6.66602 206.667V33.3333C6.66602 29.7971 8.07077 26.4057 10.5713 23.9052C13.0717 21.4048 16.4631 20 19.9993 20H122.533Z" fill="#7CC33F"/></svg>