<svg width="240" height="240" viewBox="0 0 240 240" fill="none" xmlns="http://www.w3.org/2000/svg"><path fill-rule="evenodd" clip-rule="evenodd" d="M100.046 136.854C99.9814 133.005 96.8082 129.936 92.9586 130.001L77.0917 130.001C73.2421 129.935 70.0676 133.001 70.0011 136.851C70.0011 136.852 70.0012 136.85 70.0011 136.851L69.9561 170L84.0006 188.671C84.4161 189.222 85.1993 189.332 85.7509 188.917C85.8453 188.846 85.929 188.763 85.9995 188.668L100.001 170L100.046 136.854Z" fill="#B130BD"/><path opacity="0.1" d="M61.0001 220C52.1321 219.954 44.9745 212.739 45.0001 203.871V36.1292C44.9745 27.2611 52.1321 20.0457 61.0001 20H159.432C162.827 19.9942 166.082 21.3504 168.469 23.7647L201.234 56.6809C203.658 59.1027 205.014 62.3926 205 65.8191V203.871C205.026 212.739 197.868 219.954 189 220H61.0001Z" fill="#B130BD"/><path d="M188.999 223.75H61.001C50.0631 223.702 41.2278 214.81 41.25 203.872V36.128C41.2278 25.19 50.0631 16.2978 61.001 16.25H159.434C163.828 16.2392 168.042 17.9952 171.128 21.1231L203.892 54.0331C207.017 57.1577 208.766 61.4008 208.75 65.8203V203.872C208.772 214.81 199.937 223.702 188.999 223.75ZM61.001 23.75C54.2035 23.7935 48.7234 29.3303 48.75 36.128V203.872C48.7235 210.67 54.2035 216.207 61.001 216.25H188.999C195.797 216.207 201.277 210.67 201.25 203.872V65.8203C201.262 63.3873 200.3 61.0506 198.579 59.3311L165.811 26.4111C164.128 24.704 161.83 23.7451 159.434 23.75H61.001Z" fill="#B130BD"/><path d="M180 188.75H140C137.929 188.75 136.25 187.071 136.25 185C136.25 182.929 137.929 181.25 140 181.25H180C182.071 181.25 183.75 182.929 183.75 185C183.75 187.071 182.071 188.75 180 188.75Z" fill="#B130BD"/><path d="M125 188.75H102.5C100.429 188.75 98.75 187.071 98.75 185C98.75 182.929 100.429 181.25 102.5 181.25H125C127.071 181.25 128.75 182.929 128.75 185C128.75 187.071 127.071 188.75 125 188.75Z" fill="#B130BD"/><path d="M110 68.75H75C72.929 68.75 71.25 67.0711 71.25 65C71.25 62.929 72.929 61.25 75 61.25H110C112.071 61.25 113.75 62.929 113.75 65C113.75 67.0711 112.071 68.75 110 68.75Z" fill="#B130BD"/><path d="M170 88.75H75C72.929 88.75 71.25 87.0711 71.25 85C71.25 82.929 72.929 81.25 75 81.25H170C172.071 81.25 173.75 82.929 173.75 85C173.75 87.0711 172.071 88.75 170 88.75Z" fill="#B130BD"/><path d="M170 108.75H75C72.929 108.75 71.25 107.071 71.25 105C71.25 102.929 72.929 101.25 75 101.25H170C172.071 101.25 173.75 102.929 173.75 105C173.75 107.071 172.071 108.75 170 108.75Z" fill="#B130BD"/><path d="M155.488 157.695L163.442 149.741C164.906 148.277 164.906 145.902 163.442 144.438C161.978 142.974 159.604 142.974 158.139 144.438L150.185 152.392L142.231 144.438C140.767 142.974 138.393 142.974 136.928 144.438C135.464 145.902 135.464 148.277 136.928 149.741L144.882 157.695L136.928 165.649C135.464 167.113 135.464 169.487 136.928 170.952C138.393 172.416 140.767 172.416 142.231 170.952L150.185 162.998L158.139 170.952C159.604 172.416 161.978 172.416 163.442 170.952C164.906 169.487 164.906 167.113 163.442 165.649L155.488 157.695Z" fill="#B130BD"/></svg>