<svg width="240" height="240" viewBox="0 0 240 240" fill="none" xmlns="http://www.w3.org/2000/svg"><g clip-path="url(#clip0_17182_28568)"><path d="M153.337 -0.00353093C157.731 0.241466 161.933 1.87558 165.337 4.66314L201.961 41.9965C204.853 45.3387 206.502 49.578 206.627 53.9965L206.644 121.776L206.049 122.595L204.731 124.492L199.984 130.518L199.984 128.093L199.978 108.58L199.977 106.348L199.971 86.5581L199.971 84.8323L199.964 64.4672V63.4777L199.961 53.3298H163.337C160.705 53.2655 158.199 52.1913 156.337 50.3297C154.476 48.4681 153.402 45.9617 153.337 43.3298V6.66314H53.3373C49.8042 6.67348 46.4189 8.08156 43.9206 10.5798C41.4224 13.0781 40.0143 16.4634 40.004 19.9965V193.33C40.0143 196.863 41.4224 200.248 43.9206 202.746C46.4189 205.245 49.8042 206.653 53.3373 206.663L121.721 206.667C121.023 208.838 120.535 211.071 120.263 213.335L53.3373 213.33C50.6975 213.378 48.0751 212.894 45.6267 211.906C43.1783 210.918 40.9542 209.447 39.0873 207.58C37.2204 205.713 35.749 203.489 34.761 201.04C33.7731 198.592 33.2889 195.97 33.3373 193.33V19.9965C33.2889 17.3567 33.7731 14.7343 34.761 12.2859C35.749 9.83748 37.2204 7.61337 39.0873 5.74647C40.9542 3.87956 43.1783 2.40817 45.6267 1.42022C48.0751 0.432269 50.6975 -0.0519593 53.3373 -0.00353093H153.337ZM160.004 9.459V43.3298C159.977 43.7745 160.045 44.2199 160.203 44.6365C160.361 45.0531 160.606 45.4314 160.921 45.7465C161.236 46.0615 161.614 46.3061 162.031 46.4641C162.447 46.6222 162.893 46.69 163.337 46.6631H196.627L160.004 9.459Z" fill="#D31510"/><path opacity="0.1" d="M155.867 6.66699C158.513 6.66706 161.051 7.71589 162.925 9.58373L197.059 43.5971C197.991 44.5261 198.731 45.63 199.235 46.8455C199.74 48.061 200 49.3642 200 50.6803V130.494L186.733 147.357L169.091 124.116L167.806 122.351C166.54 120.213 164.861 118.349 162.868 116.866C160.875 115.383 158.607 114.312 156.196 113.714C153.784 113.116 151.278 113.004 148.823 113.384C146.368 113.764 144.014 114.629 141.896 115.928L141.014 116.419L140.216 117.038L139.133 117.924C135.582 120.762 133.196 124.806 132.431 129.287C131.665 133.768 132.572 138.375 134.979 142.231L135.742 143.584L137.797 146.995C139.405 149.618 141.286 152.471 143.485 155.645L146.278 159.615L159.603 177.889L158.468 179.984L157.316 182.027C156.694 181.994 156.07 181.977 155.444 181.977C147.932 181.99 140.617 184.389 134.556 188.827C128.494 193.265 123.998 199.513 121.717 206.671L53.3333 206.667C49.7971 206.667 46.4057 205.262 43.9052 202.762C41.4048 200.261 40 196.87 40 193.334V20.0003C40 16.4641 41.4048 13.0727 43.9052 10.5722C46.4057 8.07175 49.7971 6.66699 53.3333 6.66699H155.867Z" fill="#D31510"/><path d="M179.95 160.458L158.839 132.689C156.784 129.934 153.839 124.538 148.395 127.573C143.395 131.452 146.173 134.993 148.339 138.648C154.728 149.441 166.395 164.168 172.006 172.319C173.028 173.972 173.556 175.882 173.527 177.825C173.497 179.767 172.911 181.661 171.839 183.281C169.404 188 166.677 192.562 163.672 196.941C161.067 195.857 158.272 195.303 155.45 195.311C150.532 195.267 145.737 196.853 141.815 199.822C137.894 202.792 135.066 206.976 133.775 211.723C132.483 216.469 132.801 221.51 134.677 226.056C136.554 230.603 139.884 234.4 144.147 236.854C148.41 239.308 153.366 240.281 158.24 239.62C163.114 238.959 167.632 236.703 171.088 233.202C174.544 229.702 176.743 225.155 177.341 220.273C177.939 215.39 176.903 210.447 174.395 206.216C175.706 201.239 177.628 196.443 180.117 191.938C183.545 184.237 189.784 184.237 193.228 191.938C195.506 196.491 196.561 200.033 198.95 206.216C196.495 210.411 195.495 215.299 196.107 220.121C196.718 224.943 198.906 229.427 202.33 232.876C205.754 236.325 210.223 238.546 215.04 239.192C219.857 239.838 224.753 238.874 228.965 236.449C233.177 234.024 236.47 230.275 238.33 225.785C240.19 221.295 240.514 216.316 239.251 211.622C237.988 206.929 235.209 202.785 231.347 199.835C227.484 196.885 222.755 195.294 217.895 195.311C215.073 195.303 212.278 195.857 209.673 196.941C207.173 192.107 204.728 188.453 202.45 183.674C200.839 180.302 199.228 175.411 201.339 172.319C206.95 164.168 219.45 149.328 225.839 138.535C228.006 134.881 230.228 131.452 225.228 127.573C219.784 124.538 217.395 129.878 215.339 132.576L193.395 160.458C186.839 169.621 186.173 169.284 179.95 160.458ZM155.45 205.598C156.949 205.539 158.444 205.79 159.84 206.338C161.237 206.885 162.505 207.715 163.564 208.777C164.624 209.838 165.452 211.108 165.997 212.505C166.541 213.903 166.79 215.398 166.728 216.897C166.905 220.091 165.823 223.227 163.715 225.634C161.607 228.04 158.64 229.525 155.45 229.77C152.268 229.734 149.229 228.445 146.992 226.182C144.755 223.919 143.5 220.866 143.5 217.684C143.5 214.502 144.755 211.448 146.992 209.185C149.229 206.923 152.268 205.634 155.45 205.598ZM217.895 205.598C221.077 205.634 224.116 206.923 226.353 209.185C228.59 211.448 229.845 214.502 229.845 217.684C229.845 220.866 228.59 223.919 226.353 226.182C224.116 228.445 221.077 229.734 217.895 229.77C214.705 229.525 211.738 228.04 209.63 225.634C207.522 223.227 206.44 220.091 206.617 216.897C206.555 215.398 206.804 213.903 207.348 212.505C207.893 211.108 208.721 209.838 209.781 208.777C210.84 207.715 212.108 206.885 213.505 206.338C214.901 205.79 216.396 205.539 217.895 205.598Z" fill="#D31510"/></g><defs><clipPath id="clip0_17182_28568"><rect width="240" height="240" fill="white"/></clipPath></defs></svg>