<svg width="240" height="200" viewBox="0 0 240 200" fill="none" xmlns="http://www.w3.org/2000/svg">
<path d="M129.325 110.368C128.044 110.368 126.741 110.161 125.471 109.721L75.8795 91.8464C69.9375 89.6114 66.9337 83.0818 69.1743 77.2953L75.5361 60.5305L94.6379 10.2945C96.813 4.48682 103.453 1.43964 109.439 3.50472L144.061 15.9854C146.492 16.8454 148.503 18.6663 149.577 20.9703L159.897 43.2242C160.982 45.5388 161.08 48.2303 160.153 50.6139L140.266 102.936C138.56 107.512 134.073 110.374 129.32 110.374L129.325 110.368ZM77.7875 61.3427L71.4203 78.1128C69.6431 82.7101 72.0254 87.8861 76.7245 89.6592L126.283 107.523C131.021 109.158 136.292 106.737 138.009 102.124L157.902 49.7911C158.599 47.9861 158.529 45.9423 157.705 44.1904L147.386 21.9364C146.579 20.2005 145.064 18.8309 143.232 18.1832L108.621 5.70782C103.889 4.07805 98.6174 6.4935 96.8948 11.1067L77.7875 61.348V61.3427Z" fill="#E43623"/>
<path d="M139.356 74.2534C138.958 74.2534 138.554 74.1844 138.162 74.0464L90.2165 56.8197C88.4284 56.1774 87.518 54.245 88.1777 52.5091C88.8373 50.7678 90.8216 49.8813 92.6042 50.5237L140.549 67.7503C142.338 68.3927 143.248 70.325 142.588 72.0609C142.076 73.42 140.757 74.2587 139.356 74.2587V74.2534Z" fill="#E43623"/>
<path d="M107.198 84.6372C106.8 84.6372 106.396 84.5682 106.004 84.4302L83.2878 76.2654C81.4997 75.6231 80.5893 73.6907 81.2489 71.9548C81.9086 70.2135 83.8929 69.327 85.6755 69.9693L108.392 78.1341C110.18 78.7764 111.09 80.7088 110.43 82.4447C109.918 83.8037 108.599 84.6425 107.198 84.6425V84.6372Z" fill="#E43623"/>
<path d="M146.214 55.1422C145.816 55.1422 145.412 55.0732 145.02 54.9352L97.0744 37.7085C95.2863 37.0662 94.3759 35.1338 95.0356 33.3979C95.6952 31.6566 97.6795 30.7701 99.4621 31.4124L147.407 48.6391C149.195 49.2814 150.106 51.2138 149.446 52.9497C148.934 54.3088 147.615 55.1475 146.214 55.1475V55.1422Z" fill="#E43623"/>
<path d="M78.3981 96.6773H35.3373C28.97 96.5977 23.8184 91.496 23.8457 85.3114L23.813 67.4318C23.813 67.3946 23.813 67.3575 23.813 67.3256V34.5021C23.813 33.8544 24.3527 33.3289 25.0178 33.3289C25.6828 33.3289 26.2225 33.8544 26.2225 34.5021V67.4371C26.2225 67.4743 26.2225 67.5061 26.2171 67.538L26.2498 85.3114C26.228 90.2272 30.3111 94.2725 35.3537 94.3362H78.4036C79.0686 94.3362 79.6083 94.8617 79.6083 95.5094C79.6083 96.157 79.0686 96.6826 78.4036 96.6826L78.3981 96.6773ZM87.0332 15.9058C86.7224 15.9058 86.4117 15.789 86.1773 15.5607L77.3623 6.88104C75.9831 5.53264 74.086 4.74165 72.1235 4.7735L44.185 4.81066C44.125 4.81066 40.8596 4.74165 35.2337 4.82128C35.2283 4.82128 35.2228 4.82128 35.2174 4.82128C34.5632 4.82128 34.0235 4.30634 34.0181 3.66929C34.0072 3.02164 34.5359 2.49077 35.201 2.48015C40.8759 2.39521 44.1795 2.46953 44.2122 2.46953L72.1181 2.43237C74.7184 2.43237 77.2424 3.43571 79.0741 5.23005L87.889 13.9097C88.3579 14.3716 88.3524 15.1095 87.8781 15.566C87.6437 15.789 87.3384 15.9058 87.0332 15.9058Z" fill="url(#paint0_linear_840_15444)"/>
<path d="M62.8562 114.137C62.5509 114.137 62.2457 114.063 61.9622 113.915C61.2917 113.554 60.9482 112.826 61.1118 112.12L61.8422 108.972L59.5254 106.589C59.0075 106.052 58.9148 105.261 59.3019 104.635C59.6889 104.009 60.4685 103.695 61.2208 103.839L64.5952 104.518L67.1519 102.352C67.7298 101.864 68.5693 101.784 69.2398 102.145C69.9104 102.506 70.2538 103.233 70.0903 103.94L69.3598 107.088L71.6766 109.471C72.2 110.007 72.2872 110.793 71.9001 111.425C71.5131 112.051 70.7281 112.359 69.9812 112.221L66.6068 111.542L64.0501 113.702C63.7121 113.989 63.2814 114.132 62.8508 114.132L62.8562 114.137Z" fill="#D73220"/>
<path d="M11.509 38.9666C10.7949 38.9932 10.0589 38.8392 9.38839 38.4942C7.76932 37.666 6.90254 35.9354 7.21873 34.1729L9.15943 23.2848L1.20581 15.3961C-0.0698275 14.1274 -0.369656 12.2162 0.480766 10.6449C1.33119 9.06819 3.13016 8.21349 4.91277 8.53201L16.0936 10.4219L24.189 2.67654C25.5028 1.42369 27.4599 1.15295 29.068 1.97049C30.6871 2.79864 31.5648 4.52927 31.2486 6.28644L29.3079 17.1745L37.2615 25.0579C38.5372 26.3267 38.8261 28.2378 37.9866 29.8092C37.1361 31.3859 35.359 32.2405 33.56 31.9326L22.3791 30.0321L14.2729 37.7881C13.5042 38.5154 12.5175 38.9136 11.5144 38.9507H11.5035L11.509 38.9666Z" fill="#7155FA"/>
<path d="M166.28 3.35073C166.248 3.48345 166.226 3.62147 166.231 3.7595C166.373 8.26126 167.845 13.5805 170.385 18.6556C173.776 25.4454 179.097 31.784 185.742 35.1391C191.335 37.958 200.275 39.8638 211.167 32.8988C211.925 32.4104 212.143 31.423 211.642 30.6745C211.146 29.9366 210.121 29.7242 209.358 30.2126C201.682 35.1125 194.252 35.8133 187.257 32.2777C177.216 27.2026 170.091 13.7876 169.551 4.15765C168.385 3.62678 167.496 3.27641 167.054 3.2074C166.787 3.24456 166.531 3.29765 166.28 3.34542V3.35073Z" fill="url(#paint1_linear_840_15444)"/>
<path d="M169.556 4.16299C173.411 5.91485 180.268 9.65216 183.757 11.7703C190.408 15.7996 212.454 27.5689 240 42.0563V38.4199C213.25 24.3413 191.967 12.9754 185.491 9.05228C183.534 7.86844 179.494 5.58571 175.853 3.69052C168.379 -0.206051 167.365 -0.0627159 166.694 0.0328402C159.847 1.00964 155.132 4.7204 153.06 10.7723C150.526 18.1726 152.254 28.0626 157.334 38.2075C161.03 45.5866 166.498 53.1037 173.378 59.8988C184.499 70.8824 207.951 89.1973 234.581 107.703C236.391 108.962 238.195 110.209 240 111.441V107.528C238.833 106.721 237.661 105.914 236.489 105.102C209.995 86.697 186.712 68.5201 175.717 57.6585C160.458 42.5819 152.237 23.2955 156.179 11.7969C157.765 7.16239 161.167 4.33287 166.286 3.36138L167.06 3.22335L169.556 4.17361V4.16299Z" fill="url(#paint2_linear_840_15444)"/>
<path d="M77.5799 139.879C77.4709 139.656 77.3619 139.428 77.2583 139.205C77.3455 139.428 77.52 139.837 77.5745 139.879H77.5799Z" fill="url(#paint3_linear_840_15444)"/>
<path d="M80.8782 137.761C80.8237 137.512 80.7583 137.257 80.6929 136.991C80.7474 137.241 80.8019 137.485 80.8673 137.74C80.8673 137.745 80.8728 137.756 80.8782 137.761Z" fill="url(#paint4_linear_840_15444)"/>
<path d="M77.5854 139.885C77.7163 140.15 77.8471 140.415 77.9889 140.681C83.2331 150.72 98.1155 175.208 113.412 200H117.97C102.291 174.614 86.8038 149.169 81.4669 138.956C81.2597 138.557 81.0689 138.159 80.8781 137.761C81.6086 140.968 81.3796 142.73 77.5854 139.879V139.885Z" fill="url(#paint5_linear_840_15444)"/>
<path d="M193.526 187.891C180.879 166.646 157.471 133.599 143.477 121.936C128.039 109.073 113.102 103.228 99.0751 104.555C88.8428 105.527 81.0527 109.891 77.1386 116.856C73.6061 123.136 73.6061 131.03 77.0732 138.78H77.0623C77.1222 138.924 77.1931 139.062 77.2585 139.2C77.2204 139.099 77.1931 139.035 77.204 139.062C77.5801 139.895 78.5341 140.368 79.4772 140.118C80.5185 139.853 81.1508 138.818 80.8837 137.809C80.8783 137.782 80.8728 137.75 80.8619 137.724C79.1774 134.125 78.3652 130.515 78.4033 127.117C78.387 126.767 78.3924 126.432 78.4306 126.13C78.5941 123.46 79.2974 120.933 80.5621 118.682C83.8438 112.858 90.5491 109.185 99.4513 108.335C112.382 107.104 126.343 112.646 140.937 124.819C154.598 136.206 177.717 168.912 190.147 189.786C190.686 190.694 191.88 191.002 192.812 190.476C193.745 189.951 194.061 188.788 193.521 187.88L193.526 187.891Z" fill="url(#paint6_linear_840_15444)"/>
<path d="M80.889 137.825C81.1562 138.833 80.5238 139.869 79.4826 140.134C78.5395 140.378 77.5855 139.911 77.2093 139.078C77.1984 139.051 77.2202 139.115 77.2638 139.216C77.3674 139.439 77.4764 139.667 77.5855 139.89C81.3851 142.741 81.6141 140.978 80.8781 137.772C80.8781 137.766 80.8727 137.756 80.8672 137.75C80.8727 137.777 80.8781 137.809 80.889 137.835V137.825Z" fill="url(#paint7_linear_840_15444)"/>
<path d="M80.6928 136.991C79.2318 130.069 82.6881 124.118 90.0802 120.975C96.6764 118.167 105.148 118.215 113.331 121.092C120.15 123.491 130.045 129.05 138.494 141.838C144.534 150.985 143.461 157.228 142.986 158.932L146.748 159.893C148.972 151.909 144.011 143.176 141.776 139.794C132.743 126.119 122.058 120.152 114.682 117.551C105.568 114.339 96.0386 114.329 88.532 117.524C83.8547 119.515 80.4203 122.515 78.4359 126.14C78.4141 126.47 78.4141 126.799 78.4087 127.128C78.5123 129.846 79.9133 133.907 80.6928 136.991Z" fill="url(#paint8_linear_840_15444)"/>
<path d="M80.8676 137.74C80.8022 137.49 80.7476 137.241 80.6931 136.991C79.9136 133.907 78.5126 129.846 78.409 127.128C78.3708 130.525 79.1831 134.141 80.8676 137.735V137.74Z" fill="url(#paint9_linear_840_15444)"/>
<path d="M80.8676 137.74C80.8022 137.49 80.7476 137.241 80.6931 136.991C79.9136 133.907 78.5126 129.846 78.409 127.128C78.3708 130.525 79.1831 134.141 80.8676 137.735V137.74Z" fill="url(#paint10_linear_840_15444)"/>
<path d="M34.1108 62.2823C34.1108 64.1138 35.6372 65.6003 37.518 65.6003H57.0504C59.1819 63.3919 61.4824 61.3321 63.9465 59.4369C63.4341 59.1396 62.8398 58.9644 62.1966 58.9644H37.518C35.6372 58.9644 34.1108 60.4508 34.1108 62.2823Z" fill="url(#paint11_radial_840_15444)"/>
<path style="mix-blend-mode:overlay" d="M34.1108 62.2823C34.1108 64.1138 35.6372 65.6003 37.518 65.6003H57.0504C59.1819 63.3919 61.4824 61.3321 63.9465 59.4369C63.4341 59.1396 62.8398 58.9644 62.1966 58.9644H37.518C35.6372 58.9644 34.1108 60.4508 34.1108 62.2823Z" fill="url(#paint12_radial_840_15444)"/>
<path d="M57.0503 65.6003H62.1964C64.0772 65.6003 65.6036 64.1138 65.6036 62.2823C65.6036 61.072 64.9385 60.0208 63.9463 59.4369C61.4878 61.3321 59.1818 63.3919 57.0503 65.6003Z" fill="#FF7C65"/>
<path d="M57.0503 65.6003H62.1964C64.0772 65.6003 65.6036 64.1138 65.6036 62.2823C65.6036 61.072 64.9385 60.0208 63.9463 59.4369C61.4878 61.3321 59.1818 63.3919 57.0503 65.6003Z" fill="url(#paint13_radial_840_15444)"/>
<path style="mix-blend-mode:overlay" d="M57.0503 65.6003H62.1964C64.0772 65.6003 65.6036 64.1138 65.6036 62.2823C65.6036 61.072 64.9385 60.0208 63.9463 59.4369C61.4878 61.3321 59.1818 63.3919 57.0503 65.6003Z" fill="url(#paint14_radial_840_15444)"/>
<path d="M64.3006 38.027H36.7382C34.8575 38.027 33.3311 39.5135 33.3311 41.345C33.3311 43.1765 34.8575 44.6629 36.7382 44.6629H56.7504C59.0727 42.2687 61.5967 40.0496 64.3006 38.027Z" fill="url(#paint15_radial_840_15444)"/>
<path style="mix-blend-mode:overlay" d="M64.3006 38.027H36.7382C34.8575 38.027 33.3311 39.5135 33.3311 41.345C33.3311 43.1765 34.8575 44.6629 36.7382 44.6629H56.7504C59.0727 42.2687 61.5967 40.0496 64.3006 38.027Z" fill="url(#paint16_radial_840_15444)"/>
<path d="M64.3007 38.027C61.5914 40.0496 59.0728 42.2687 56.7505 44.6629H77.3078L79.8645 38.027H64.3007Z" fill="#FF7C65"/>
<path d="M64.3007 38.027C61.5914 40.0496 59.0728 42.2687 56.7505 44.6629H77.3078L79.8645 38.027H64.3007Z" fill="url(#paint17_radial_840_15444)"/>
<path style="mix-blend-mode:overlay" d="M64.3007 38.027C61.5914 40.0496 59.0728 42.2687 56.7505 44.6629H77.3078L79.8645 38.027H64.3007Z" fill="url(#paint18_radial_840_15444)"/>
<defs>
<linearGradient id="paint0_linear_840_15444" x1="105.35" y1="34.5817" x2="16.6178" y2="63.4913" gradientUnits="userSpaceOnUse">
<stop stop-color="#F26A56"/>
<stop offset="0.5" stop-color="#D92361"/>
<stop offset="1" stop-color="#6338EE"/>
</linearGradient>
<linearGradient id="paint1_linear_840_15444" x1="162.012" y1="11.7437" x2="209.468" y2="37.0505" gradientUnits="userSpaceOnUse">
<stop stop-color="#FF7C65"/>
<stop offset="0.84" stop-color="white" stop-opacity="0"/>
</linearGradient>
<linearGradient id="paint2_linear_840_15444" x1="149.381" y1="-11.8904" x2="327.385" y2="188.221" gradientUnits="userSpaceOnUse">
<stop stop-color="#FF7C65"/>
<stop offset="0.41" stop-color="white" stop-opacity="0"/>
</linearGradient>
<linearGradient id="paint3_linear_840_15444" x1="65.5269" y1="120.306" x2="146.552" y2="258.575" gradientUnits="userSpaceOnUse">
<stop offset="0.14" stop-color="#FF7C65"/>
<stop offset="0.64" stop-color="white" stop-opacity="0"/>
</linearGradient>
<linearGradient id="paint4_linear_840_15444" x1="68.9827" y1="118.284" x2="150.007" y2="256.55" gradientUnits="userSpaceOnUse">
<stop offset="0.14" stop-color="#FF7C65"/>
<stop offset="0.64" stop-color="white" stop-opacity="0"/>
</linearGradient>
<linearGradient id="paint5_linear_840_15444" x1="66.699" y1="119.616" x2="147.73" y2="257.885" gradientUnits="userSpaceOnUse">
<stop offset="0.14" stop-color="#FF7C65"/>
<stop offset="0.64" stop-color="white" stop-opacity="0"/>
</linearGradient>
<linearGradient id="paint6_linear_840_15444" x1="97.2216" y1="101.736" x2="178.248" y2="240" gradientUnits="userSpaceOnUse">
<stop offset="0.14" stop-color="#FF7C65"/>
<stop offset="0.64" stop-color="white" stop-opacity="0"/>
</linearGradient>
<linearGradient id="paint7_linear_840_15444" x1="67.1896" y1="119.335" x2="148.215" y2="257.604" gradientUnits="userSpaceOnUse">
<stop offset="0.14" stop-color="#FF7C65"/>
<stop offset="0.64" stop-color="white" stop-opacity="0"/>
</linearGradient>
<linearGradient id="paint8_linear_840_15444" x1="93.7817" y1="113.511" x2="131.448" y2="170.083" gradientUnits="userSpaceOnUse">
<stop offset="0.14" stop-color="#FF7C65"/>
<stop offset="0.95" stop-color="white" stop-opacity="0"/>
</linearGradient>
<linearGradient id="paint9_linear_840_15444" x1="70.3845" y1="117.461" x2="151.411" y2="255.73" gradientUnits="userSpaceOnUse">
<stop offset="0.14" stop-color="#FF7C65"/>
<stop offset="0.64" stop-color="white" stop-opacity="0"/>
</linearGradient>
<linearGradient id="paint10_linear_840_15444" x1="75.0891" y1="125.955" x2="112.755" y2="182.531" gradientUnits="userSpaceOnUse">
<stop offset="0.14" stop-color="#FF7C65"/>
<stop offset="0.95" stop-color="white" stop-opacity="0"/>
</linearGradient>
<radialGradient id="paint11_radial_840_15444" cx="0" cy="0" r="1" gradientUnits="userSpaceOnUse" gradientTransform="translate(37.7754 67.0401) rotate(-10.426) scale(75.9251 74.069)">
<stop stop-color="#E43623"/>
<stop offset="0.1" stop-color="#E43C2A" stop-opacity="0.94"/>
<stop offset="0.24" stop-color="#E74E3D" stop-opacity="0.77"/>
<stop offset="0.4" stop-color="#EB6B5D" stop-opacity="0.55"/>
<stop offset="0.59" stop-color="#F09389" stop-opacity="0.28"/>
<stop offset="0.79" stop-color="#F7C6C1" stop-opacity="0.08"/>
<stop offset="0.99" stop-color="white" stop-opacity="0"/>
</radialGradient>
<radialGradient id="paint12_radial_840_15444" cx="0" cy="0" r="1" gradientUnits="userSpaceOnUse" gradientTransform="translate(87.9041 47.0842) rotate(-10.426) scale(0.272328 0.265671)">
<stop offset="0.29" stop-color="#FA0F00"/>
<stop offset="0.99" stop-color="#FF7C65"/>
</radialGradient>
<radialGradient id="paint13_radial_840_15444" cx="0" cy="0" r="1" gradientUnits="userSpaceOnUse" gradientTransform="translate(37.7752 67.0401) rotate(-10.426) scale(75.9252 74.069)">
<stop stop-color="#E43623"/>
<stop offset="0.1" stop-color="#E43C2A" stop-opacity="0.94"/>
<stop offset="0.24" stop-color="#E74E3D" stop-opacity="0.77"/>
<stop offset="0.4" stop-color="#EB6B5D" stop-opacity="0.55"/>
<stop offset="0.59" stop-color="#F09389" stop-opacity="0.28"/>
<stop offset="0.79" stop-color="#F7C6C1" stop-opacity="0.08"/>
<stop offset="0.99" stop-color="white" stop-opacity="0"/>
</radialGradient>
<radialGradient id="paint14_radial_840_15444" cx="0" cy="0" r="1" gradientUnits="userSpaceOnUse" gradientTransform="translate(87.904 47.0842) rotate(-10.426) scale(0.272328 0.265671)">
<stop offset="0.29" stop-color="#FA0F00"/>
<stop offset="0.99" stop-color="#FF7C65"/>
</radialGradient>
<radialGradient id="paint15_radial_840_15444" cx="0" cy="0" r="1" gradientUnits="userSpaceOnUse" gradientTransform="translate(37.3663 46.2089) rotate(-10.426) scale(75.9251 74.0689)">
<stop stop-color="#E43623"/>
<stop offset="0.1" stop-color="#E43C2A" stop-opacity="0.94"/>
<stop offset="0.24" stop-color="#E74E3D" stop-opacity="0.77"/>
<stop offset="0.4" stop-color="#EB6B5D" stop-opacity="0.55"/>
<stop offset="0.59" stop-color="#F09389" stop-opacity="0.28"/>
<stop offset="0.79" stop-color="#F7C6C1" stop-opacity="0.08"/>
<stop offset="0.99" stop-color="white" stop-opacity="0"/>
</radialGradient>
<radialGradient id="paint16_radial_840_15444" cx="0" cy="0" r="1" gradientUnits="userSpaceOnUse" gradientTransform="translate(88.6958 23.228) rotate(-10.426) scale(57.3687 55.9662)">
<stop offset="0.29" stop-color="#E46750"/>
<stop offset="0.39" stop-color="#DE6654"/>
<stop offset="0.51" stop-color="#CF6360"/>
<stop offset="0.65" stop-color="#B75E74"/>
<stop offset="0.79" stop-color="#945790"/>
<stop offset="0.93" stop-color="#684FB4"/>
<stop offset="0.99" stop-color="#564CC4"/>
</radialGradient>
<radialGradient id="paint17_radial_840_15444" cx="0" cy="0" r="1" gradientUnits="userSpaceOnUse" gradientTransform="translate(38.7187 45.2069) rotate(-10.426) scale(71.3696 69.6248)">
<stop stop-color="#E43623"/>
<stop offset="0.1" stop-color="#E43C2A" stop-opacity="0.94"/>
<stop offset="0.24" stop-color="#E74E3D" stop-opacity="0.77"/>
<stop offset="0.4" stop-color="#EB6B5D" stop-opacity="0.55"/>
<stop offset="0.59" stop-color="#F09389" stop-opacity="0.28"/>
<stop offset="0.79" stop-color="#F7C6C1" stop-opacity="0.08"/>
<stop offset="0.99" stop-color="white" stop-opacity="0"/>
</radialGradient>
<radialGradient id="paint18_radial_840_15444" cx="0" cy="0" r="1" gradientUnits="userSpaceOnUse" gradientTransform="translate(86.5457 24.1927) rotate(-10.426) scale(54.5002 53.1678)">
<stop offset="0.29" stop-color="#E46750"/>
<stop offset="0.39" stop-color="#DE6654"/>
<stop offset="0.51" stop-color="#CF6360"/>
<stop offset="0.65" stop-color="#B75E74"/>
<stop offset="0.79" stop-color="#945790"/>
<stop offset="0.93" stop-color="#684FB4"/>
<stop offset="0.99" stop-color="#564CC4"/>
</radialGradient>
</defs>
</svg>
