<svg width="240" height="240" viewBox="0 0 240 240" fill="none" xmlns="http://www.w3.org/2000/svg"><path d="M155.866 19.9997C158.518 20.0021 161.059 21.0572 162.933 22.9331L197.066 56.9331C198.942 58.8066 199.997 61.3485 200 63.9997V206.666C200 210.203 198.595 213.594 196.094 216.094C193.594 218.595 190.203 220 186.666 220H53.333C49.7968 220 46.4054 218.595 43.9049 216.094C41.4044 213.594 39.9997 210.203 39.9997 206.666V33.3331C39.9997 29.7969 41.4044 26.4055 43.9049 23.905C46.4054 21.4045 49.7968 19.9997 53.333 19.9997H155.866ZM155.866 13.3331H53.333C48.0287 13.3331 42.9416 15.4402 39.1909 19.1909C35.4401 22.9417 33.333 28.0287 33.333 33.3331V206.666C33.333 211.971 35.4401 217.058 39.1909 220.809C42.9416 224.559 48.0287 226.666 53.333 226.666H186.666C191.971 226.666 197.058 224.559 200.808 220.809C204.559 217.058 206.666 211.971 206.666 206.666V63.9997C206.642 59.5698 204.869 55.3288 201.733 52.1997L167.6 18.1997C166.064 16.6521 164.235 15.4249 162.221 14.5895C160.207 13.754 158.047 13.327 155.866 13.3331Z" fill="#0265DC"/><path opacity="0.1" d="M155.867 20C158.518 20.0023 161.06 21.0574 162.933 22.9333L197.067 56.9333C198.943 58.8069 199.998 61.3487 200 64V206.667C200 210.203 198.595 213.594 196.095 216.095C193.594 218.595 190.203 220 186.667 220H53.3333C49.7971 220 46.4057 218.595 43.9052 216.095C41.4048 213.594 40 210.203 40 206.667V33.3333C40 29.7971 41.4048 26.4057 43.9052 23.9052C46.4057 21.4048 49.7971 20 53.3333 20H155.867Z" fill="#0265DC"/><path fill-rule="evenodd" clip-rule="evenodd" d="M68.8057 60C68.2609 59.9989 67.7362 60.2058 67.3388 60.5784C66.9413 60.951 66.701 61.4613 66.667 62.005V77.7109C66.667 77.9734 66.7203 78.2332 66.8237 78.4744C66.9271 78.7157 67.0784 78.9334 67.2685 79.1145C67.4577 79.3082 67.6881 79.4569 67.9427 79.5494C68.1972 79.642 68.4693 79.6761 68.7388 79.6491H71.1448C71.4132 79.6631 71.6816 79.623 71.9342 79.5311C72.1868 79.4393 72.4183 79.2976 72.6151 79.1145C72.9568 78.7002 73.1456 78.181 73.1497 77.6441V66.2155H89.9247V106.784H82.3058C81.7254 106.831 81.1821 107.088 80.7765 107.506C80.3709 107.924 80.1307 108.474 80.1003 109.056V111.328C80.1661 111.883 80.4342 112.395 80.8534 112.765C81.2726 113.135 81.8135 113.337 82.3726 113.333H104.494C104.775 113.333 105.053 113.278 105.313 113.171C105.572 113.063 105.808 112.905 106.006 112.707C106.205 112.508 106.362 112.273 106.47 112.013C106.577 111.754 106.633 111.475 106.633 111.195V108.588C106.608 108.324 106.531 108.068 106.406 107.834C106.281 107.6 106.111 107.393 105.906 107.226C105.701 107.058 105.465 106.932 105.211 106.856C104.957 106.781 104.691 106.756 104.427 106.783H96.4739V66.6835H113.45V77.9783C113.423 78.2424 113.45 78.5091 113.531 78.7621C113.611 79.015 113.743 79.2487 113.917 79.4487C114.102 79.6299 114.322 79.771 114.563 79.863C114.805 79.955 115.063 79.996 115.321 79.9833H118.128C118.376 79.9949 118.624 79.9532 118.854 79.8609C119.085 79.7687 119.293 79.6281 119.465 79.4487C119.643 79.2621 119.782 79.0418 119.873 78.8008C119.965 78.5598 120.008 78.3029 119.999 78.0451V62.0051C119.983 61.4787 119.766 60.9783 119.393 60.6058C119.021 60.2334 118.521 60.0167 117.994 60H68.8057Z" fill="#0265DC"/><path d="M170.2 93.333H123.133C121.403 93.333 120 94.7359 120 96.4663V96.8663C120 98.5968 121.403 99.9997 123.133 99.9997H170.2C171.93 99.9997 173.333 98.5968 173.333 96.8663V96.4663C173.333 94.7359 171.93 93.333 170.2 93.333Z" fill="#0265DC"/><path d="M170.2 106.667H123.133C121.403 106.667 120 108.07 120 109.8V110.2C120 111.931 121.403 113.334 123.133 113.334H170.2C171.93 113.334 173.333 111.931 173.333 110.2V109.8C173.333 108.07 171.93 106.667 170.2 106.667Z" fill="#0265DC"/><path d="M170.2 120H83.1333C81.4028 120 80 121.403 80 123.133V123.533C80 125.264 81.4028 126.667 83.1333 126.667H170.2C171.93 126.667 173.333 125.264 173.333 123.533V123.133C173.333 121.403 171.93 120 170.2 120Z" fill="#0265DC"/></svg>