<svg xmlns="http://www.w3.org/2000/svg" width="24" height="24" viewBox="0 0 24 24">
  <g fill="none" fill-rule="evenodd">
    <path fill="#DA7B11" fill-rule="nonzero" d="M17.6,3 L21,6.3 L21,20 L11.1863646,20.0004209 C11.3899905,19.3702369 11.5,18.6979655 11.5,18 C11.5,15.1080939 9.61143991,12.6572846 7.00036476,11.8136172 L7,3 L17.6,3 Z" opacity=".1"/>
    <path fill="#DA7B11" fill-rule="nonzero" d="M17.7,1 C18.2,1 18.6,1.2 18.9,1.5 L18.9,1.5 L22.5,4.8 C22.8,5.1 23,5.6 23,6 L23,6 L23,20 C23,21.1 22.1,22 21,22 L21,22 L10.123152,22.0008828 C10.5867964,21.4080231 10.949772,20.7326312 11.1863646,20.0004209 L21,20 L21,6.3 L17.6,3 L7,3 L7.00042094,11.8136354 C6.37023688,11.6100095 5.69796549,11.5 5,11.5 L5,3 C5,1.9 5.9,1 7,1 L7,1 Z"/>
    <path fill="#DA7B11" fill-rule="nonzero" d="M2.27750103 19.0704174C2.02750103 19.0704174 1.86083437 18.9037507 1.86083437 18.6537507L1.86083437 17.4037507C1.86083437 17.1537507 2.02750103 16.987084 2.27750103 16.987084L4.9441677 16.987084 4.9441677 15.1537507C4.9441677 14.8885992 5.1941677 14.987084 5.1941677 14.987084L7.86083437 17.8204174C7.9441677 17.9037507 7.9441677 17.987084 7.86083437 18.0704174L5.1941677 20.8204174C5.11083437 20.9037507 4.89208437 20.987084 4.86083437 20.737084 4.86083437 20.737084 4.86083437 20.1815285 4.86083437 19.0704174L2.27750103 19.0704174zM0 17.9180328C0 20.6229508 2.21311475 22.8360656 5 22.8360656 7.78688525 22.8360656 10 20.6229508 10 17.9180328 10 15.2131148 7.78688525 13 5 13 2.21311475 13 0 15.2131148 0 17.9180328zM11.7066551 7.00284417L18.3398785 7.01597679C18.5249985 7.01522632 18.7018571 7.09245858 18.8270049 7.22869974 18.9521528 7.3649409 19.0139915 7.54756443 18.997329 7.73170481L18.997329 7.73170481 18.997329 13.2853098C18.9938318 13.676592 18.6681921 13.9828267 18.2764706 13.9899256L18.2764706 13.9899256 16.9875901 13.9899256 16.9984019 14.2871161C16.9949047 14.6783984 16.680077 14.9957453 16.2883554 15.0028442L16.2883554 15.0028442 10.7692284 15.0032039C10.5836945 14.6468074 10.366105 14.3097625 10.1202821 13.9958917L16.0363635 13.9966289 16.0363635 9.98137753 10 9.98137753 10.00113 13.8482266C9.70324456 13.4898353 9.36756585 13.1639756 9.00020953 12.876763L9 9.7120449C9.00349721 9.32076268 9.31832499 9.0034158 9.71004655 8.99631688L9.71004655 8.99631688 10.9966085 8.99631688 10.9966085 7.71857219C10.996592 7.32583669 11.3134461 7.00644725 11.7066551 7.00284417L11.7066551 7.00284417zM18.0059127 7.98153773L12.0012284 7.98153773 12.0012284 8.99822938 16.2939212 9.0113746C16.6848282 9.01848033 16.9990013 9.33613167 17.0024913 9.72778928L17.0024913 9.72778928 16.9917019 12.9927274 18.0059127 12.9927274 18.0059127 7.98153773z"/>
    <path fill="#DA7B11" d="M12.2249874,13.2355827 C12.1124937,13.2917985 12,13.1731206 12,13.0606888 L12,10.880762 C12.0059903,10.8318364 12.0366586,10.789396 12.0812454,10.7683303 C12.1260393,10.7438899 12.1801935,10.7438899 12.2249874,10.7683303 L14.4186144,11.8551706 C14.4680197,11.8864757 14.4985062,11.9403836 14.4998599,11.9988334 C14.5023748,12.0582801 14.4708696,12.1139893 14.4186144,12.1424962 L12.2249874,13.2355827 Z"/>
  </g>
</svg>
