<svg xmlns="http://www.w3.org/2000/svg" width="24" height="24" viewBox="0 0 24 24">
  <g fill="#CE2783" fill-rule="evenodd" transform="translate(2 3)">
    <path d="M15.4364146 9.73148537C14.7464146 9.73148537 14.1864146 9.17148537 14.1864146 8.48148537 14.1864146 7.79148537 14.7464146 7.23148537 15.4364146 7.23148537 16.1264146 7.23148537 16.6864146 7.79148537 16.6864146 8.48148537 16.6864146 9.17148537 16.1264146 9.73148537 15.4364146 9.73148537zM1.97236763 1.95867592L15.9805987 1.95867592C16.5376417 1.95867592 16.9917158 1.50439318 16.9947335.956386597L16.9944807 1.00228933C16.9975289.448740217 16.5452911 0 16.0000398 0L.999960201 0C.447697432 0 0 .447489426 0 .998502329L0 12.0014977C0 12.5529553.443864822 13 1 13L1 13C1.55228475 13 1.99888255 12.5534919 1.99749908 12.0006824L1.97236763 1.95867592z"/>
    <path d="M4.9999602,4 C4.44769743,4 4,4.44748943 4,4.99850233 L4,16.0014977 C4,16.5529553 4.45470893,17 4.9999602,17 L20.0000398,17 C20.5523026,17 21,16.5525106 21,16.0014977 L21,4.99850233 C21,4.44704472 20.5452911,4 20.0000398,4 L4.9999602,4 Z M19,14.05 C18.1,13.52 17.9301135,11.9646157 16.5501135,12.0146157 C15.0801135,12.0646157 15.06,14.05 13.59,14.05 C12.13,14.05 10.86,11.01 9.39,11.05 C7.87,11.09 6.81,12.89 6,13.9 L6,6 L19,6 L19,14.05 Z"/>
    <path d="M19,14.05 C18.1,13.52 17.9301135,11.9646157 16.5501135,12.0146157 C15.0801135,12.0646157 15.06,14.05 13.59,14.05 C12.13,14.05 10.86,11.01 9.39,11.05 C7.87,11.09 6.81,12.89 6,13.9 L6,6 L19,6 L19,14.05 Z" opacity=".1"/>
  </g>
</svg>
