<svg xmlns="http://www.w3.org/2000/svg" width="24" height="24" viewBox="0 0 24 24">
  <g fill="#DA7B11" fill-rule="evenodd" transform="translate(3 1)">
    <path d="M11,0 C12.1,0 12.2178049,0.0858536585 12.9878049,0.865853659 L12.9878049,0.865853659 L15.58,3.24 C16.36,4.02 16.99,4.55 17,5.65 L17,5.65 L17.0009089,11.5765886 C16.6746509,11.5261633 16.3403809,11.5 16,11.5 C15.6599675,11.5 15.3260333,11.5261098 15.0000929,11.5764338 L15,7 L12,7 C10.9,7 10,6.1 10,5 L10,5 L10,2 L2,2 L2,19 L9.57658859,19.0009089 C9.6865375,19.7122923 9.91183472,20.3855838 10.2327703,21.0010736 L2,21 C0.9,21 0,20.1 0,19 L0,19 L0,2 C0,0.9 0.9,0 2,0 L2,0 Z M12,2.42 L12,5 L14.58,5 L12,2.42 Z"/>
    <path d="M10,2 L10,5 C10,6.1 10.9,7 12,7 L15,7 L15.0000929,11.5764338 C11.8849574,12.0573998 9.5,14.7501816 9.5,18 C9.5,18.3403809 9.52616331,18.6746509 9.57658859,19.0009089 L2,19 L2,2 L10,2 Z" opacity=".1"/>
    <path fill-rule="nonzero" d="M16 13C18.7617 13 21 15.2393 21 18 21 20.7607 18.7617 23 16 23 13.2383 23 11 20.7607 11 18 11 15.2393 13.2383 13 16 13zM16.4482 14.9941L15.5566 14.9941C15.249 14.9941 15 15.2441 15 15.5508L15 15.5508 15 17.0176 13.5723 17.0117C13.2656 17.0117 13.0156 17.2607 13.0156 17.5684L13.0156 17.5684 13.0059 18.4443C13.0059 18.751 13.2559 19 13.5625 19L13.5625 19 15 19 15.0068 20.4443C15.0068 20.751 15.2559 21 15.5625 21L15.5625 21 16.4434 21.0059C16.752 21.0059 17.001 20.7568 17.001 20.4492L17.001 20.4492 17.0029 18.999 18.4453 18.999C18.7529 18.999 19.002 18.75 19.002 18.4434L19.002 18.4434 18.9971 17.5557C18.9971 17.249 18.748 17 18.4414 17L18.4414 17 17 17 17.0059 15.5508C17.0059 15.2432 16.7559 14.9941 16.4482 14.9941L16.4482 14.9941zM3.998 9.5C3.998 9.2197 4.2183 9 4.498 9L12.498 9C12.7783 9 12.998 9.2197 12.998 9.5 12.998 9.7798 12.7783 10 12.498 10L4.498 10C4.2183 10 3.998 9.7798 3.998 9.5zM3.998 12.5C3.998 12.2197 4.2183 12 4.498 12L11.498 12C11.7783 12 11.998 12.2197 11.998 12.5 11.998 12.7798 11.7783 13 11.498 13L4.498 13C4.2183 13 3.998 12.7798 3.998 12.5z"/>
  </g>
</svg>
