<svg xmlns="http://www.w3.org/2000/svg" width="24" height="24" viewBox="0 0 24 24">
  <g fill="#7CC33F" fill-rule="evenodd" transform="translate(0 .615)">
    <path d="M16.2504662 7.14095449e-13C17.7923717.00844217709 19.2618776.651600667 20.3095459 1.77653698 21.3848419 2.94764026 21.973326 4.48073816 21.9562314 6.06642352L21.9562314 7.41724657 23.6854581 7.41724657C23.7727193 7.41659311 23.8562898 7.45220626 23.9159941 7.51548824 23.9741643 7.5810731 24.0063551 7.66545906 24.0065618 7.75290563 24.0086877 7.83045298 23.982347 7.90611743 23.9324609 7.96576259L21.2669567 11.2031668C21.2090893 11.2697781 21.124944 11.3080662 21.0364207 11.3080662 20.9478974 11.3080662 20.8637521 11.2697781 20.8058847 11.2031668L18.0656747 7.96576259C18.0157887 7.90611743 17.989448 7.83045298 17.9915739 7.75290563 17.9917806 7.66545906 18.0239713 7.5810731 18.0821416 7.51548824 18.1405798 7.45043258 18.2249978 7.41445832 18.3126776 7.41724657L20.1037103 7.41724657 20.1037103 6.06642352C20.1683537 3.89887602 18.4549803 2.08895396 16.2751665 2.02214117L14.5957755 2.02214117C14.2351998 2.00880527 13.9525317 1.70948653 13.9618016 1.35082305L13.9618016.671318122C13.9520268.321673605 14.2202844.0260984024 14.5710753 7.14095449e-13L16.2504662 7.14095449e-13zM0 4.38511814L0 21.3851181C0 22.4851181.9 23.3851181 2 23.3851181L15 23.3851181C16.1 23.3851181 17 22.4851181 17 21.3851181L17 8.03511814C16.99 6.93511814 16.36 6.40511814 15.58 5.62511814L12.9878049 3.25097179C12.2178049 2.47097179 12.1 2.38511814 11 2.38511814L2 2.38511814C.9 2.38511814 0 3.28511814 0 4.38511814zM2 4.38511814L10 4.38511814 10 7.38511814C10 8.48511814 10.9 9.38511814 12 9.38511814L15 9.38511814 15 21.3851181 2 21.3851181 2 4.38511814zM14.58 7.38511814L12 7.38511814 12 4.80511814 14.58 7.38511814z"/>
    <path d="M2,4.38511814 L10,4.38511814 L10,7.38511814 C10,8.48511814 10.9,9.38511814 12,9.38511814 L15,9.38511814 L15,21.3851181 L2,21.3851181 L2,4.38511814 Z" opacity=".1"/>
    <polygon points="14.596 7.417 12 7.417 12 4.777" opacity=".1"/>
  </g>
</svg>
