<svg xmlns="http://www.w3.org/2000/svg" width="24" height="24" viewBox="0 0 24 24">
  <g fill="none" fill-rule="evenodd">
    <path fill="#5C5CE0" d="M20 0C20.1 0 20.3 0 20.4.1L23.9 3.6C24 3.7 24 3.8 24 4L20 4 20 0zM10 18.0234343L10 11.6C10 11.3 10.2 11.1 10.5 11.1L12.5 11.1C12.8 11.1 13 11.3 13 11.6L13 18.0234343 16.4 18.0234343C17.0020486 18.0234343 16.9 18.7234343 16.8 18.8234343L11.9 23.6234343C11.7139603 23.795362 11.2969135 23.795362 11.1 23.6234343L6.2 18.8234343C6.1 18.7234343 5.80857769 18.0234343 6.7 18.0234343L10 18.0234343z"/>
    <path fill="#5C5CE0" fill-rule="nonzero" d="M12.5,0 C12.2,0 12,0.2 12,0.5 L12,2.5 L9.9,0.5 C9.6,0.2 9.1,0 8.7,0 L2.1,0 C1,0 0,0.9 0,2 L0,14 C0,14.5 0.2,15 0.6,15.4 C1,15.8 1.5,16 2,16 L7.4,16 C7.7,16 7.9,15.8 7.9,15.5 L7.9,14.5 C7.9,14.2 7.7,14 7.4,14 L2,14 L2,2 L8.7,2 L12,5.1 L12,8.5 C12,8.8 12.2,9 12.5,9 L14.5,9 C14.8,9 15,9.2 15,9.5 L15.0666667,15.4 C15.0666667,15.7 15.2666667,15.9 15.5666667,15.9 L23.5666667,15.9 C23.8666667,15.9 24.0666667,15.7 24.0666667,15.4 L24,5.1 L19.6,5.1 C19.3,5.1 19,4.9 19,4.6 L19,0 L12.5,0 Z"/>
    <polygon fill="#5C5CE0" points="8.7 2 12 5.114 12 8.017 12 9 8 9 8 14 2 14 2 2" opacity=".1"/>
    <path fill="#5C5CE0" d="M5.18804443,8.89522816 C4.73164772,9.61630081 4.28246371,10.072029 4.01990292,10.072029 C3.97145528,10.072029 3.93167197,10.0577848 3.9027304,10.0308541 C3.84992792,9.9825571 3.83042184,9.93003129 3.84271521,9.86615455 C3.89261446,9.60779875 4.4126554,9.23517704 5.18804443,8.89522816 L5.18804443,8.89522816 Z M7.38184241,7.8639416 C7.18582907,7.90435977 6.98328347,7.95123239 6.77788,8.0044259 C6.6303143,8.04279646 6.48061654,8.08463906 6.33087342,8.12937503 C6.41044004,7.96970545 6.4834744,7.81141578 6.54711863,7.66091596 C6.6310401,7.46220812 6.70988092,7.26345577 6.78223484,7.06902121 C6.84587907,7.1669507 6.91170072,7.26207585 6.97892862,7.35359541 C7.11202354,7.53458692 7.25537049,7.70765503 7.39785554,7.86024699 L7.38184241,7.8639416 Z M6.36847931,4.43222516 C6.40535939,4.36977285 6.46469414,4.33215903 6.52616095,4.33215903 C6.69903918,4.33215903 6.73664507,4.53656458 6.73664507,4.7076296 C6.73809668,4.98018518 6.65417521,5.41459149 6.51023855,5.89506919 C6.2201878,5.14127919 6.26069692,4.61321667 6.36847931,4.43222516 L6.36847931,4.43222516 Z M9.61614951,8.37139441 C9.59079162,8.4998601 9.45556464,8.5828776 9.27039305,8.5828776 C9.21972263,8.5828776 9.16696551,8.57651218 9.11416303,8.56373684 C8.77421302,8.48428041 8.44868844,8.32309737 8.12393503,8.07186371 C8.42845656,8.02641553 8.6852109,8.01653355 8.85668288,8.01653355 C9.05197041,8.01653355 9.23060974,8.03002111 9.34487903,8.05343516 C9.49171892,8.08325914 9.65733908,8.16271557 9.61614951,8.37139441 L9.61614951,8.37139441 Z M10.1079747,8.03144554 C9.89168411,7.80362593 9.47797394,7.68789108 8.87836637,7.68789108 C8.58323497,7.68789108 8.24981724,7.71633515 7.88523515,7.77237752 C7.6877702,7.58573282 7.49538589,7.36570306 7.31311753,7.11727374 C7.18292584,6.94055553 7.0628501,6.75742738 6.95511307,6.57145037 C7.16627764,5.91919545 7.27333422,5.3897085 7.27333422,4.9971893 C7.27333422,4.51528718 7.07877249,4 6.53269321,4 C6.35328272,4 6.16956274,4.10647606 6.07552533,4.26476573 C5.84263191,4.65724042 5.93594351,5.46493616 6.30773831,6.28683166 C6.17827243,6.66443888 6.03719363,7.0321196 5.8643154,7.43946177 C5.71897248,7.78368393 5.54609425,8.13574045 5.36310008,8.46082184 C4.80617906,8.68089612 3.62206978,9.21461184 3.50925211,9.80441446 C3.4759557,9.98117719 3.53311302,10.1479244 3.67128859,10.2742534 C3.71392977,10.3140039 3.87669206,10.4431818 4.15372364,10.4431818 C4.86687469,10.4431818 5.57789369,9.47434756 6.05674506,8.64038892 C6.32869599,8.54953706 6.60645338,8.46723177 6.88275915,8.39552068 C7.18582907,8.31677647 7.47878305,8.25218752 7.75504346,8.20389047 C8.51020061,8.85049219 9.18143629,8.94842168 9.51775726,8.94842168 C9.97996043,8.94842168 10.1527933,8.75180597 10.2157571,8.58643867 C10.2989527,8.37072671 10.2178891,8.14713588 10.1079747,8.03144554 L10.1079747,8.03144554 Z"/>
  </g>
</svg>
