<svg xmlns="http://www.w3.org/2000/svg" width="24" height="24" viewBox="0 0 24 24">
  <g fill="none" fill-rule="evenodd">
    <polygon fill="#3DA74E" fill-rule="nonzero" points="19 6.3 19 20 5 20 5 3 15.6 3" opacity=".1"/>
    <path fill="#3DA74E" fill-rule="nonzero" d="M15.9481856,7.00261587 L8.06993327,7.00261587 C7.80458004,6.98339665 7.54250411,7.07066745 7.34170168,7.24511564 C7.14089926,7.41956383 7.01792768,7.66680512 7,7.93212616 L7,13.4271238 C7,14.5165498 7.45997131,14.9962971 8.45990895,14.9962971 L15.5282118,14.9962971 C15.9481856,14.9962971 16.3548984,14.8650365 16.6381426,14.5565288 C16.9184008,14.2512566 16.9981201,13.8482213 16.9981201,13.4271238 L16.9981201,7.93212616 C16.9028197,7.41828331 16.4700137,7.03511885 15.9481856,7.00261587 Z M13,9.00105313 L16,9 L16,10 L13,10.0010531 L13,9.00105313 Z M13,11.0010531 L16,11 L16,12 L13,12.0010531 L13,11.0010531 Z M10,14 L8.45990895,14 C8.1837838,14 7.95994013,13.7762603 7.95994013,13.5002633 L7.96880652,12.9871101 L10.0000624,13.0042125 L10,14 Z M10.0000624,12.0015797 L7.96880652,11.9844773 L7.96880652,10.9855304 L10.0000624,11.0026328 L10.0000624,12.0015797 Z M10.0000624,10.0031594 L7.96880652,9.98605701 L7.96880652,8.98711015 L10.0000624,9.00421253 L10.0000624,10.0031594 Z M11.9999376,14.0010531 L10.9999376,14 L11.0000624,13.0042125 L12,13.0010531 L11.9999376,14.0010531 Z M12,12.0010531 L11,12.0015797 L11,11.0026328 L12,10.9994734 L12,12.0010531 Z M12,10 L11,10.0031594 L11,9.00421253 L12,9.00105313 L12,10 Z M15.9932414,13.5497424 C15.9932414,13.8257394 15.7693977,14.0494792 15.4932726,14.0494792 L12.9999376,14 L13,13.0010531 L16,13 L15.9932414,13.5497424 Z"/>
    <path fill="#3DA74E" fill-rule="nonzero" d="M19,6.3 L19,20 L5,20 L5,3 L15.6,3 L19,6.3 Z M15.7,1 L5,1 C3.9,1 3,1.9 3,3 L3,20 C3,21.1 3.9,22 5,22 L19,22 C20.1,22 21,21.1 21,20 L21,6 C21,5.6 20.8,5.1 20.5,4.8 L16.9,1.5 C16.6,1.2 16.2,1 15.7,1 L15.7,1 Z"/>
  </g>
</svg>
