<svg xmlns="http://www.w3.org/2000/svg" width="24" height="24" viewBox="0 0 24 24">
  <g fill="none" fill-rule="evenodd">
    <path fill="#D7373F" d="M11,1 C12.1,1 13.01,1.64 13.79,2.42 L13.79,2.42 L17.58,6.24 C18.36,7.02 18.99,7.55 19,8.65 L19,8.65 L18.996,12.394 L18.019,13.6206262 L17,12.295 L17,10 L12,10 C10.9,10 10,9.1 10,8 L10,8 L10,3 L4,3 L4,20 L10.8785942,19.9997916 C10.6987522,20.4573698 10.6,20.9558148 10.6,21.4774643 C10.6,21.6548027 10.6114667,21.8294627 10.6336995,22.0007466 L4,22 C2.9,22 2,21.1 2,20 L2,20 L2,3 C2,1.9 2.9,1 4,1 L4,1 Z M12,3.42 L12,8 L16.58,8 L12,3.42 Z"/>
    <path fill="#D7373F" d="M10,3 L10,8 C10,9.1 10.9,10 12,10 L17,10 L17,11.675 L16.7118534,11.2994725 L16.5553754,11.0851454 L16.4273722,10.9246602 C15.6623813,10.0232147 14.5881422,9.70355817 13.4797022,10.3143312 L13.4797022,10.3143312 L13.294632,10.4348743 L13.1476233,10.5541468 C12.254742,11.3262469 12.0871989,12.4093931 12.6466277,13.4385028 L12.6466277,13.4385028 L12.6599697,13.4628625 L12.965621,13.9710882 L13.2298151,14.3812028 C13.4181155,14.6650248 13.6323974,14.972289 13.8824997,15.3187021 L13.8824997,15.3187021 L14.0117985,15.4969121 L15.233,17.1496262 L15.125,17.3416262 L15.038,17.3394643 L14.8363653,17.3444031 C13.1769116,17.4258822 11.7818092,18.5076077 11.2408087,19.9998292 L4,20 L4,3 L10,3 Z M12,3.42 L16.58,8 L12,8 L12,3.42 Z" opacity=".1"/>
    <path fill="#D7373F" fill-rule="nonzero" d="M14.9452756,11.763893 L15.1228936,12.0063816 L17.4061126,14.9747261 L17.6367713,15.2968881 C17.9433933,15.7143967 18.035389,15.7416815 18.317118,15.3795855 L18.6186622,14.9683938 L20.9871985,11.994262 L21.154258,11.75855 C21.4684504,11.3223807 21.786238,11.1669089 22.2652647,11.4327973 C22.6425389,11.7220407 22.7281131,12.0329783 22.5864275,12.3922077 L22.5400299,12.4981632 C22.522805,12.5333877 22.5026647,12.5707893 22.4761402,12.6171823 L22.368683,12.798914 C22.1640101,13.1406289 21.896306,13.5312506 21.5520298,13.9977909 L21.2384053,14.4162141 L20.0127698,16.0077718 C19.8936583,16.1661879 19.7983772,16.2968633 19.7174096,16.413103 C19.564997,16.6337 19.6311142,17.0236564 19.8491042,17.4746703 C19.930504,17.643426 20.0115645,17.7960201 20.1243322,17.9950767 L20.565,18.7691033 L20.6172235,18.7509212 C20.739269,18.7115283 20.864609,18.6817575 20.9923646,18.661835 L21.1857001,18.6393656 L21.382,18.6318382 C22.7848427,18.6318382 23.92,19.7669955 23.92,21.1698382 C23.92,22.5676664 22.7838557,23.7018382 21.382,23.7018382 C19.9851573,23.7018382 18.85,22.5666809 18.85,21.1698382 C18.85,20.7680712 18.9403637,20.3860799 19.1137804,20.0391413 L19.17,19.9351033 L18.8707054,19.1418968 C18.8315214,19.040781 18.795866,18.952434 18.7598368,18.8677549 L18.6747544,18.6762917 L18.5813427,18.4836831 C18.2563234,17.7654952 17.7024044,17.7546644 17.435832,18.4895803 L17.2470539,18.8653501 C17.0918555,19.1827465 16.9834197,19.4468736 16.8936794,19.748177 L16.844,19.9271033 L16.9062196,20.0391413 C17.0218307,20.2704337 17.1005294,20.5173051 17.1401495,20.7752289 L17.1625035,20.9706734 L17.17,21.1698382 C17.17,22.5666809 16.0348427,23.7018382 14.638,23.7018382 C13.2361443,23.7018382 12.1,22.5676664 12.1,21.1698382 C12.1,19.7669955 13.2351573,18.6318382 14.638,18.6318382 C14.9014167,18.6318382 15.1586855,18.6721353 15.4027765,18.7509212 L15.468,18.7751033 L15.5424688,18.6683639 C15.6842779,18.4566961 15.8352933,18.2121502 15.9864785,17.9507045 L16.1373857,17.6842174 L16.2863981,17.4100146 C16.4849088,17.1351537 16.4928565,16.6884881 16.3029161,16.4135725 L15.9761893,15.9629629 L14.8258849,14.4083806 L14.6986602,14.2330362 C14.3510158,13.7515189 14.0706492,13.3422586 13.8479592,12.9852533 L13.5883402,12.5574512 C13.5803182,12.5433199 13.5726275,12.5294392 13.5644946,12.5144781 C13.3339063,12.0902944 13.3658605,11.7539346 13.8036093,11.4204625 C14.2636794,11.1669545 14.6107349,11.3286832 14.9452756,11.763893 Z M14.6362096,20.0985139 C14.0148893,20.0985139 13.5112096,20.6021936 13.5112096,21.2235139 C13.5112096,21.8448343 14.0148893,22.3485139 14.6362096,22.3485139 C15.2575299,22.3485139 15.7612096,21.8448343 15.7612096,21.2235139 C15.7612096,20.6021936 15.2575299,20.0985139 14.6362096,20.0985139 Z M21.4247905,20.0985139 C20.8034702,20.0985139 20.2997905,20.6021936 20.2997905,21.2235139 C20.2997905,21.8448343 20.8034702,22.3485139 21.4247905,22.3485139 C22.0461108,22.3485139 22.5497905,21.8448343 22.5497905,21.2235139 C22.5497905,20.6021936 22.0461108,20.0985139 21.4247905,20.0985139 Z"/>
  </g>
</svg>
