<?xml version="1.0" encoding="UTF-8"?>
<svg width="24px" height="24px" viewBox="0 0 24 24" version="1.1" xmlns="http://www.w3.org/2000/svg" xmlns:xlink="http://www.w3.org/1999/xlink">
    <title>A12_CropPages_24</title>
    <g id="A12_CropPages_24" stroke="none" stroke-width="1" fill="none" fill-rule="evenodd">
        <path d="M14,22 L14,16 L12,16 L12,14 L14,14 L14,12 L16,12 L16,13.999 L22,14 L22,20 L24,20 L24,22 L22,22 L22,24 L20,24 L20,22 L14,22 Z M20,15.999 L16,15.999 L16,20 L20,20 L20,15.999 Z" id="Combined-Shape" fill="#2680EB" fill-rule="nonzero"></path>
        <path d="M14,3.42 L16.58,6 L14,6 L14,3.42 Z M12.5,20 L4,20 L4,3 L12,3 L12,6 C12,7.1 12.9,8 14,8 L17,8 L17,11.776 L19,11.776 L19,6.65 C18.99,5.55 18.36,5.02 17.58,4.24 L14.988,1.866 C14.218,1.086 14.1,1 13,1 L4,1 C2.9,1 2,1.9 2,3 L2,20 C2,21.1 2.9,22 4,22 L12.5,22 L12.5,20 Z" id="Fill-1" fill="#2680EB"></path>
        <polygon id="Path" fill="#2680EB" opacity="0.1" points="14 3.42 16.58 6 14 6"></polygon>
        <path d="M12.5,20.0271069 L12.5,17.5315294 L10.4448,17.5315294 L10.4448,12.7759 L12.4448,12.7759 L12.4448,10.7759 L16.9998,10.7759 L16.9998,7.9999 L13.9998,7.9999 C12.8998,7.9999 11.9998,7.0999 11.9998,5.9999 L11.9998,2.9999 L3.9998,2.9999 L3.9998,20 L12.5,20.0271069 Z" id="Fill-3" fill="#2680EB" opacity="0.1"></path>
    </g>
</svg>