<svg xmlns="http://www.w3.org/2000/svg" width="42" height="42" viewBox="0 0 42 42">
  <g id="s_illu_addcomments_42" transform="translate(-119)">
    <rect id="Rectangle_149771" data-name="Rectangle 149771" width="42" height="42" transform="translate(119)" fill="none"/>
    <g id="Group_159946" data-name="Group 159946" transform="translate(119)">
      <path id="Path_102656" data-name="Path 102656" d="M25.75,9.084h0a.75.75,0,0,1-.75.75H9.458a2.213,2.213,0,0,0-1.3.451l-.123.107A2.126,2.126,0,0,0,7.5,11.773V26.524a2.155,2.155,0,0,0,.554,1.4,2.213,2.213,0,0,0,1.422.553l7.052,0V34.43l6.8-5.954h7.728a2.225,2.225,0,0,0,1.409-.546,2.137,2.137,0,0,0,.536-1.4v-7.7a.75.75,0,0,1,1.5,0v7.692a3.671,3.671,0,0,1-.848,2.329L33.517,29a3.7,3.7,0,0,1-2.462.978H23.891L17.1,35.922a1.257,1.257,0,0,1-.673.3l-.15.008a1.251,1.251,0,0,1-1.251-1.25l0-5H9.493a3.726,3.726,0,0,1-2.335-.842L7.009,29A3.636,3.636,0,0,1,6,26.526V11.765A3.605,3.605,0,0,1,7,9.311a3.67,3.67,0,0,1,2.488-.977H25a.75.75,0,0,1,.75.75" fill="#8e8e8e" fill-rule="evenodd"/>
      <path id="Path_102657" data-name="Path 102657" d="M13.25,21.084h12a.5.5,0,0,1,0,1h-12a.5.5,0,0,1,0-1m0-4h16a.5.5,0,0,1,0,1h-16a.5.5,0,0,1,0-1" fill="#8e8e8e" fill-rule="evenodd"/>
      <path id="Path_102658" data-name="Path 102658" d="M38.88,9H34.63V4.75a.75.75,0,0,0-1.5,0V9H28.88a.75.75,0,0,0,0,1.5h4.25v4.25a.75.75,0,0,0,1.5,0V10.5h4.25a.75.75,0,0,0,0-1.5" fill="#fe0000" fill-rule="evenodd"/>
    </g>
  </g>
</svg>
