<?xml version="1.0" encoding="UTF-8"?>
<svg id="uuid-4cd98472-b3f1-434d-a330-0e4af9bbe081" data-name="Icons" xmlns="http://www.w3.org/2000/svg" width="24" height="24" viewBox="0 0 24 24">
  <path d="m14.60141,12.77279l-.86133-.95002.27103-1.25369c.04967-.2313-.05534-.46862-.26039-.58676s-.4633-.09188-.63855.06811l-.95002.86133-1.25369-.27067c-.23059-.05179-.46827.05499-.58676.26003s-.09082.46295.06811.63855l.86133.95002-.27103,1.25369c-.04967.2313.05534.46862.26039.58676.08514.04896.17879.07308.27245.07308.13197,0,.26322-.04789.3661-.14119l.95002-.86133,1.25369.27067c.23059.05108.46827-.05499.58676-.26003s.09082-.46295-.06811-.63855Z" fill="var(--iconIndigoGenAI, #584ccc)" stroke-width="0"/>
  <path d="m20.49097,8.65491l.00903,7.37244c.00391.34277-.12695.67773-.35742.91699-.24902.25879-.60156.31055-.85645.30566h-7.00293l-4.2832,3.89941v-3.89941H3.46875c-.30273.00098-.49219-.08203-.64844-.26172-.20508-.23438-.32129-.56836-.32031-.91602l.01953-11.2832c.00195-.34766.13867-.68555.375-.92676.23242-.2373.56055-.37207.86133-.3623h9.73706c-.22168-.4635-.2937-.99506-.20142-1.5H3.74414c-.71582,0-1.41406.29492-1.92188.81348-.50586.5166-.79883,1.23438-.80273,1.9707l-.01953,11.28418c-.00293.71582.24219,1.39258.68945,1.90625.44336.50977,1.05957.74902,1.78906.77539h3.02148v3.48438c-.00781.58203.51758.99414,1.04492,1.01562.26953,0,.5293-.11523.66504-.26758l4.65332-4.23242h6.41309c.74512.00195,1.45898-.26074,1.94629-.76465.50195-.52148.78516-1.24121.77734-1.9668l-.00854-7.03912-1.50049-.32452Z" fill="var(--iconIndigoGenAI, #584ccc)" stroke-width="0"/>
  <path d="m23.78638,6.21082l-2.01953-2.22607.63574-2.93781c.08032-.37415-.08838-.75348-.42041-.94269-.30249-.17554-.76343-.12329-1.021.11078l-2.22705,2.01813-2.93774-.6344c-.3728-.07526-.74902.08673-.94067.41492-.17578.3031-.1272.76709.10742,1.02631l2.01953,2.22607-.63501,2.93671c-.08154.37311.08691.7525.4187.94379.12134.07001.26855.10345.4187.10345.22266,0,.44995-.07422.60425-.21423l2.22632-2.01813,2.93774.63544c.37354.07208.75146-.08783.94238-.41803.17432-.30206.12476-.76611-.10938-1.02423Zm-3.69922-.69324c-.29712-.05554-.67969.05048-.9043.25488l-.98755.89471.28149-1.30231c.00049,0,.00049-.00128.00049-.00128.06567-.30536-.04028-.6991-.24976-.92999l-.89551-.98682,1.28809.27759c.30908.07318.71045-.03278.94653-.24609l.98755-.89465-.28394,1.31238c-.06177.30286.04419.69281.25171.9212l.89624.9881-1.33105-.28772Z" fill="var(--iconIndigoGenAI, #584ccc)" stroke-width="0"/>
  <path d="m20.45215,8.64648l-1.65527,1.50098c-.42383.38281-1.01074.60254-1.61133.60254-.42188,0-.82715-.10547-1.17188-.30664-.89551-.51562-1.35156-1.54492-1.13184-2.55859l.47168-2.18262-1.50098-1.6543c-.14844-.16382-.26514-.35065-.35962-.54785H3.75586c-.30078-.00977-.62891.125-.86133.3623-.23633.24121-.37305.5791-.375.92676l-.01953,11.2832c-.00098.34766.11523.68164.32031.91602.15625.17969.3457.2627.64844.26172h4.53125v3.89941l4.2832-3.89941h7.00293c.25488.00488.60742-.04688.85645-.30566.23047-.23926.36133-.57422.35742-.91699l-.00903-7.37244-.03882-.00842Z" fill="var(--iconIndigoGenAI, #584ccc)" opacity=".1" stroke-width="0"/>
</svg>