<svg width="24" height="24" viewBox="0 0 24 24" fill="none" xmlns="http://www.w3.org/2000/svg">
<mask id="mask0_22_34866" style="mask-type:alpha" maskUnits="userSpaceOnUse" x="0" y="0" width="24" height="24">
<g clip-path="url(#clip0_22_34866)">
<path d="M13.866 13.6029C13.6486 13.9792 13.2098 14.168 12.7892 14.0807L12.0952 13.931L11.5692 14.4075C11.3804 14.5781 11.1395 14.6667 10.8973 14.6667C10.7254 14.6667 10.5535 14.6224 10.3973 14.5325C10.021 14.3164 9.82827 13.8802 9.91941 13.4557L10.0691 12.7617L9.59259 12.2357C9.30092 11.9141 9.25014 11.4401 9.46759 11.0638C9.68504 10.6862 10.1238 10.5039 10.5444 10.5859L11.2384 10.7357L11.7645 10.2591C12.0874 9.96743 12.5587 9.91664 12.9363 10.1341C13.3127 10.3502 13.5054 10.7864 13.4142 11.2109L13.2645 11.9049L13.741 12.431C14.0327 12.7526 14.0835 13.2265 13.866 13.6029Z" fill="#222222"/>
<path d="M23.7349 6.53092L21.6854 4.27051L22.3306 1.28483C22.4283 0.827801 22.2219 0.364254 21.8169 0.131187C21.4413 -0.0875593 20.8801 -0.0263593 20.5585 0.265307L18.2974 2.31479L15.3202 1.67156C14.8664 1.57911 14.397 1.77312 14.16 2.17937C13.9406 2.55568 13.9992 3.11948 14.2922 3.4424L16.3417 5.70281L15.6965 8.68849C15.5988 9.14552 15.8052 9.60907 16.2101 9.84213C16.3625 9.93068 16.5454 9.97235 16.7303 9.97235C17.0012 9.97235 17.2772 9.8812 17.4686 9.70803L19.7297 7.65855L22.7069 8.30177C23.1633 8.40073 23.6307 8.20021 23.8671 7.79396C24.0865 7.41765 24.0279 6.85384 23.7349 6.53092ZM19.6926 5.60384C19.3755 5.53223 18.9784 5.639 18.7381 5.85775L18.2609 6.29004L18.397 5.66244C18.4654 5.34604 18.3605 4.95151 18.1431 4.71192L17.7095 4.23405L18.3345 4.36947C18.6515 4.43717 19.0487 4.33301 19.2889 4.11556L19.7661 3.68327L19.6314 4.30696C19.5604 4.62467 19.6659 5.02051 19.884 5.26139L20.3176 5.73925L19.6926 5.60384Z" fill="#222222"/>
<path d="M20.2984 9.84369L19.0128 11.009L19.0197 16.7226C19.0223 16.9791 18.926 17.2278 18.7554 17.4049C18.5965 17.569 18.3817 17.6627 18.1486 17.6627H11.3231L7.68637 20.9335V17.664H2.97282C2.82959 17.664 2.68637 17.5898 2.57178 17.4583C2.41943 17.2838 2.33219 17.0312 2.3335 16.7642L2.35303 5.95045C2.35303 5.69133 2.45459 5.44003 2.63038 5.26034C2.79965 5.08717 3.07569 4.97127 3.25407 4.99731H12.9771L12.7977 4.79939C12.3467 4.30233 12.0893 3.65877 12.0314 2.99731H3.24626C2.48585 2.99731 1.74235 3.30982 1.20199 3.86059C0.656421 4.41789 0.355634 5.15877 0.353034 5.94653L0.333501 16.7603C0.332194 17.5142 0.590008 18.2278 1.06397 18.7734C1.56787 19.3476 2.27361 19.6067 2.98975 19.664H5.68637V22.6679C5.67986 23.3411 6.18637 23.8918 6.88689 23.9231C7.21762 23.9231 7.53923 23.7838 7.7085 23.5976L12.0887 19.6627H18.1252C18.9272 19.6887 19.6525 19.3554 20.1955 18.7929C20.7267 18.2421 21.0275 17.4791 21.0197 16.7109L21.0116 9.99766L20.2984 9.84369Z" fill="#222222"/>
</g>
</mask>
<g mask="url(#mask0_22_34866)">
<rect width="24" height="24" fill="url(#paint0_linear_22_34866)"/>
</g>
<defs>
<linearGradient id="paint0_linear_22_34866" x1="-3.12924e-07" y1="12" x2="24" y2="12" gradientUnits="userSpaceOnUse">
<stop stop-color="#EC4028"/>
<stop offset="1" stop-color="#5A4CD5"/>
</linearGradient>
<clipPath id="clip0_22_34866">
<rect width="24" height="24" fill="white"/>
</clipPath>
</defs>
</svg>
