<svg width="128" height="88" viewBox="0 0 128 88" fill="none" xmlns="http://www.w3.org/2000/svg">
<g clip-path="url(#clip0_1_21)">
<path d="M90.856 64.1943C79.978 59.6556 70.0654 56.8835 61.4062 55.9357C50.4562 54.7436 41.4656 56.5102 34.665 61.1494C28.801 65.1567 29.1468 69.7816 29.3916 71.103C29.6942 72.7259 30.5444 73.9324 31.5672 74.191L32.72 74.4781C43.4682 77.0778 59.8068 82.4209 71.3476 87.8501H75.598C75.5404 87.807 75.4828 87.7639 75.4108 87.7208C63.6826 81.674 45.0676 75.5124 33.1666 72.6253L32.3164 72.4244C32.2876 72.4675 32.2444 72.5104 32.2156 72.5535C31.8842 72.9558 31.2792 73.0276 30.8756 72.6828C30.4722 72.3526 30.4146 71.7493 30.746 71.347C30.919 71.1461 31.0918 70.945 31.2648 70.7438C31.2504 70.6289 31.2214 70.4996 31.207 70.3705C31.0774 69.0922 31.2648 65.8031 35.7456 62.7436C42.1572 58.363 50.7154 56.7113 61.19 57.8459C69.662 58.7507 79.3874 61.4797 90.0924 65.9465C105.509 72.3669 122.827 83.4839 128 86.8879V84.6041C121.761 80.5394 105.48 70.2986 90.856 64.1943ZM35.8608 60.4744C36.6678 59.9717 37.5034 59.5119 38.3678 59.0811L35.8608 60.4744Z" fill="url(#paint0_linear_1_21)"/>
<path d="M38.368 59.0811C37.5034 59.5119 36.6678 59.9717 35.861 60.4743L38.368 59.0811Z" fill="url(#paint1_linear_1_21)"/>
<path d="M38.368 59.0811C37.5034 59.5119 36.6678 59.9717 35.861 60.4743L38.368 59.0811Z" fill="url(#paint2_linear_1_21)"/>
<path d="M38.368 59.0811C37.5034 59.5119 36.6678 59.9717 35.861 60.4743L38.368 59.0811Z" fill="url(#paint3_linear_1_21)"/>
<path d="M32.0288 72.3384L32.317 72.4102C35.285 68.8625 39.5498 66.7511 44.0306 66.6076C47.2724 66.5071 50.1972 67.5267 51.8686 69.3364C53.4966 71.0888 53.8424 73.4299 52.8916 76.2595C52.7186 76.7621 52.9924 77.2935 53.4966 77.4659C53.5974 77.4947 53.6984 77.509 53.7992 77.509C54.2026 77.509 54.5772 77.2504 54.707 76.8627C55.8884 73.3724 55.384 70.3132 53.2662 68.0438C51.1914 65.8032 47.8054 64.5968 43.9586 64.7117C39.1318 64.8552 34.5358 67.0384 31.2364 70.7297C31.438 71.7639 31.8702 72.2809 32.0288 72.3384Z" fill="url(#paint4_linear_1_21)"/>
<path d="M30.8754 72.6684C31.2788 72.9987 31.884 72.9414 32.2154 72.5391C32.2442 72.496 32.2874 72.4529 32.3162 72.4098L32.028 72.338C31.884 72.2807 31.4374 71.7635 31.2644 70.7151C31.0916 70.9162 30.9186 71.1172 30.7458 71.3183C30.4 71.7348 30.4576 72.338 30.8754 72.6684Z" fill="url(#paint5_linear_1_21)"/>
<path d="M30.8754 72.6684C31.2788 72.9987 31.884 72.9414 32.2154 72.5391C32.2442 72.496 32.2874 72.4529 32.3162 72.4098L32.028 72.338C31.884 72.2807 31.4374 71.7635 31.2644 70.7151C31.0916 70.9162 30.9186 71.1172 30.7458 71.3183C30.4 71.7348 30.4576 72.338 30.8754 72.6684Z" fill="url(#paint6_linear_1_21)"/>
<path d="M30.6736 29.6083C33.267 30.427 36.3216 30.8291 39.7506 30.8291C41.7678 30.8291 43.929 30.6854 46.2198 30.4127C56.3918 29.1631 70.526 24.3371 88.2334 16.0927C100.077 10.563 116.819 1.8734 120.133 0.149841H115.998C109.745 3.3815 96.9648 9.91667 87.4122 14.3692C70.137 22.4124 55.83 27.3103 45.9894 28.5168C30.1838 30.4701 25.8182 25.0265 24.8528 23.3174C24.046 21.8811 23.9452 20.3441 24.5214 19.0371C24.5214 19.0371 24.5214 19.0371 24.507 19.0371C24.0316 18.8073 23.8298 18.2328 24.0604 17.7588C24.291 17.2849 24.8672 17.0838 25.3428 17.3136C25.5156 17.3998 25.703 17.4716 25.9046 17.5434C27.1726 16.7822 29.5354 15.5326 30.9042 14.8863C40.4854 10.405 57.069 1.62923 59.8642 0.149841H55.7724C49.793 3.29534 37.7048 9.60067 30.083 13.1627C30.0252 13.1914 24.291 15.9778 23.5994 16.854C21.9424 18.9366 21.7696 21.7661 23.1672 24.2509C24.118 25.9171 26.1784 28.1863 30.6736 29.6083ZM33.0798 29.8525C32.273 29.6801 31.495 29.4934 30.7746 29.2637C30.299 29.12 29.8524 28.962 29.4346 28.7896L33.0798 29.8525Z" fill="url(#paint7_linear_1_21)"/>
<path d="M33.08 29.8526L29.4348 28.7896C29.8526 28.9476 30.2992 29.1057 30.7748 29.2637C31.5096 29.4934 32.2876 29.6802 33.08 29.8526Z" fill="#F26A56"/>
<path d="M33.08 29.8526L29.4348 28.7896C29.8526 28.9476 30.2992 29.1057 30.7748 29.2637C31.5096 29.4934 32.2876 29.6802 33.08 29.8526Z" fill="url(#paint8_linear_1_21)"/>
<path d="M24.5218 19.0373C25.6746 19.5975 27.461 19.9708 29.5934 19.9708C31.1928 19.9708 32.9938 19.7554 34.8668 19.224C38.44 18.2186 43.3964 15.7482 46.7246 9.65827C46.9838 9.19865 46.811 8.62414 46.3356 8.3656C45.8744 8.10707 45.2982 8.27942 45.0388 8.7534C42.0276 14.2544 37.561 16.495 34.3336 17.3999C31.0342 18.3335 27.7492 18.1899 25.905 17.5435C25.5016 17.7877 25.2134 17.9744 25.0838 18.075C24.8532 18.3766 24.666 18.7069 24.5218 19.0373Z" fill="url(#paint9_linear_1_21)"/>
<path d="M24.061 17.7591C23.8306 18.2331 24.0322 18.8076 24.5078 19.0374C24.5078 19.0374 24.5078 19.0374 24.5222 19.0374C24.6662 18.7071 24.8536 18.3767 25.0984 18.0751C25.2282 17.9746 25.5162 17.7735 25.9198 17.5437C25.718 17.4718 25.5306 17.4 25.3578 17.3139C24.868 17.084 24.2916 17.2851 24.061 17.7591Z" fill="url(#paint10_linear_1_21)"/>
<path d="M24.061 17.7591C23.8306 18.2331 24.0322 18.8076 24.5078 19.0374C24.5078 19.0374 24.5078 19.0374 24.5222 19.0374C24.6662 18.7071 24.8536 18.3767 25.0984 18.0751C25.2282 17.9746 25.5162 17.7735 25.9198 17.5437C25.718 17.4718 25.5306 17.4 25.3578 17.3139C24.868 17.084 24.2916 17.2851 24.061 17.7591Z" fill="url(#paint11_linear_1_21)"/>
<path d="M55.4694 45.1636C55.066 44.8618 54.7634 44.4167 54.6192 43.9282L54.259 42.6642C54.1726 42.3771 53.8124 42.3053 53.6252 42.5495L52.8326 43.5979C52.5302 44 52.0834 44.3017 51.5936 44.4454L50.3114 44.8044C50.0232 44.8906 49.9512 45.2496 50.196 45.422L51.2478 46.2263C51.6512 46.5279 51.9538 46.9732 52.0978 47.4615L52.458 48.7255C52.5446 49.0128 52.9048 49.0846 53.092 48.8404L53.8844 47.792C54.187 47.3897 54.6336 47.0882 55.1236 46.9445L56.4058 46.5853C56.694 46.4991 56.766 46.1401 56.5212 45.9534L55.4694 45.1636Z" fill="#FD6A54"/>
<path d="M0.892254 37.7089L2.98141 39.2889C3.78825 39.8922 4.37899 40.754 4.65273 41.7162L5.37313 44.2153C5.53161 44.7756 6.26643 44.9048 6.61221 44.4452L8.18269 42.3769C8.78781 41.5869 9.65229 40.998 10.632 40.7253L13.1534 40.0071C13.7154 39.849 13.845 39.1165 13.384 38.7719L11.2948 37.1919C10.5024 36.5887 9.89723 35.7268 9.62349 34.7646L8.91749 32.2655C8.75901 31.7054 8.02419 31.5761 7.67841 32.0356L6.09353 34.1039C5.48839 34.9083 4.62391 35.4971 3.64417 35.7699L1.12278 36.4881C0.560872 36.6318 0.431198 37.3499 0.892254 37.7089Z" fill="#6338EE"/>
<path d="M45.1682 56.3519C45.7734 55.9642 46.2632 55.4759 46.6522 54.887C47.1854 54.0827 47.5024 53.149 47.5456 52.1724C47.56 51.8132 47.5312 51.4255 47.4592 50.9947L44.6496 35.2241C44.4046 33.8453 43.641 32.6244 42.5028 31.8057C41.9408 31.4036 41.307 31.1163 40.6298 30.9582C39.9526 30.8002 39.261 30.786 38.5694 30.9008L14.8827 35.0517C14.3784 35.1379 14.0471 35.6119 14.1335 36.1145C14.22 36.6174 14.6954 36.9476 15.1997 36.8614L38.8864 32.7107C39.333 32.6388 39.7796 32.6532 40.212 32.7536C40.6442 32.8541 41.062 33.0409 41.4222 33.2995C42.1714 33.8309 42.6756 34.6353 42.8342 35.54L45.6438 51.3106C45.7014 51.5979 45.7158 51.8563 45.7014 52.0862C45.6726 52.7182 45.4708 53.3358 45.1106 53.8672C44.8656 54.2407 44.5488 54.5566 44.1742 54.8008C43.7996 55.0449 43.3816 55.2029 42.935 55.2604L23.931 58.607L18.2974 65.7597L18.283 65.7885C18.1533 65.9609 17.966 66.0758 17.7787 66.1046C17.5338 66.1333 17.3033 66.0758 17.1015 65.9322C16.8998 65.7885 16.7846 65.573 16.7413 65.3433L15.8048 60.029L8.19742 61.3647C7.36176 61.4653 6.5261 61.2498 5.84892 60.7471C5.18616 60.2014 4.73952 59.4257 4.59544 58.5495L1.8291 42.7215C1.74265 42.2188 1.26719 41.8886 0.762914 41.9746C0.258634 42.0608 -0.0727492 42.5349 0.0136986 43.0376L2.78002 58.8512C2.99614 60.1583 3.68772 61.336 4.7107 62.1691L4.73952 62.1978C5.8201 63.0164 7.14564 63.3612 8.47118 63.1888L14.3064 62.1691L14.9259 65.6448C15.0412 66.363 15.4302 66.9949 16.0209 67.426C16.4964 67.7706 17.0583 67.9573 17.649 67.9573C17.7931 67.9573 17.9372 67.943 18.0669 67.9286C18.7585 67.8137 19.3636 67.4403 19.7814 66.88L24.9682 60.2874L43.2232 57.0845C43.9148 56.9841 44.5632 56.7398 45.1682 56.3519Z" fill="url(#paint12_linear_1_21)"/>
<path d="M37.4022 41.5007C37.3156 40.998 36.8402 40.6678 36.336 40.7538L11.0356 45.2065C10.5313 45.2927 10.1999 45.7666 10.2863 46.2692C10.3584 46.7144 10.7618 47.0305 11.194 47.0305C11.2517 47.0305 11.2949 47.0305 11.3525 47.0162L36.653 42.5637C37.1572 42.4775 37.4886 42.0035 37.4022 41.5007Z" fill="url(#paint13_linear_1_21)"/>
<path d="M25.6738 50.1187L12.3031 52.4742C11.7988 52.5604 11.4675 53.0345 11.5539 53.5371C11.626 53.9823 12.0294 54.2984 12.4616 54.2984C12.5192 54.2984 12.5625 54.2984 12.6201 54.284L25.9908 51.9284C26.495 51.8422 26.8264 51.3683 26.74 50.8656C26.6534 50.3773 26.178 50.0325 25.6738 50.1187Z" fill="url(#paint14_linear_1_21)"/>
</g>
<defs>
<linearGradient id="paint0_linear_1_21" x1="36.227" y1="71.0475" x2="132.372" y2="73.4043" gradientUnits="userSpaceOnUse">
<stop offset="0.23" stop-color="#FD6A54"/>
<stop offset="0.55" stop-color="#FDB1A5"/>
<stop offset="0.88" stop-color="white" stop-opacity="0"/>
</linearGradient>
<linearGradient id="paint1_linear_1_21" x1="27.3074" y1="62.0643" x2="116.297" y2="41.1614" gradientUnits="userSpaceOnUse">
<stop stop-color="#FD6A54"/>
<stop offset="0.3" stop-color="#AC5996"/>
<stop offset="0.58" stop-color="#5D4AD8"/>
</linearGradient>
<linearGradient id="paint2_linear_1_21" x1="7.81438" y1="59.7755" x2="46.082" y2="59.7755" gradientUnits="userSpaceOnUse">
<stop stop-color="#FD6A54"/>
<stop offset="0.3" stop-color="#AC5996"/>
<stop offset="0.58" stop-color="#5D4AD8"/>
</linearGradient>
<linearGradient id="paint3_linear_1_21" x1="36.5038" y1="59.7594" x2="132.649" y2="62.1161" gradientUnits="userSpaceOnUse">
<stop offset="0.23" stop-color="#FD6A54"/>
<stop offset="0.55" stop-color="#FDB1A5"/>
<stop offset="0.88" stop-color="white"/>
</linearGradient>
<linearGradient id="paint4_linear_1_21" x1="32.8076" y1="66.3674" x2="55.7004" y2="73.8511" gradientUnits="userSpaceOnUse">
<stop offset="0.23" stop-color="#FD6A54"/>
<stop offset="0.58" stop-color="#FDB1A5"/>
<stop offset="0.95" stop-color="white" stop-opacity="0"/>
</linearGradient>
<linearGradient id="paint5_linear_1_21" x1="36.2052" y1="71.9269" x2="132.35" y2="74.2835" gradientUnits="userSpaceOnUse">
<stop offset="0.23" stop-color="#FD6A54"/>
<stop offset="0.55" stop-color="#FDB1A5"/>
<stop offset="0.88" stop-color="white"/>
</linearGradient>
<linearGradient id="paint6_linear_1_21" x1="31.0532" y1="71.7318" x2="53.9458" y2="79.2155" gradientUnits="userSpaceOnUse">
<stop offset="0.23" stop-color="#FD6A54"/>
<stop offset="0.58" stop-color="#FDB1A5"/>
<stop offset="0.95" stop-color="white"/>
</linearGradient>
<linearGradient id="paint7_linear_1_21" x1="32.339" y1="33.5008" x2="114.317" y2="-18.7826" gradientUnits="userSpaceOnUse">
<stop offset="0.42" stop-color="#FD6A54"/>
<stop offset="0.66" stop-color="#FDB1A5"/>
<stop offset="0.92" stop-color="white" stop-opacity="0"/>
</linearGradient>
<linearGradient id="paint8_linear_1_21" x1="30.129" y1="30.0356" x2="112.107" y2="-22.2477" gradientUnits="userSpaceOnUse">
<stop offset="0.42" stop-color="#FD6A54"/>
<stop offset="0.66" stop-color="#FDB1A5"/>
<stop offset="0.92" stop-color="white"/>
</linearGradient>
<linearGradient id="paint9_linear_1_21" x1="23.8124" y1="17.6059" x2="47.5284" y2="12.0352" gradientUnits="userSpaceOnUse">
<stop offset="0.23" stop-color="#FD6A54"/>
<stop offset="0.58" stop-color="#FDB1A5"/>
<stop offset="0.95" stop-color="white" stop-opacity="0"/>
</linearGradient>
<linearGradient id="paint10_linear_1_21" x1="23.1236" y1="19.051" x2="105.101" y2="-33.2324" gradientUnits="userSpaceOnUse">
<stop offset="0.42" stop-color="#FD6A54"/>
<stop offset="0.66" stop-color="#FDB1A5"/>
<stop offset="0.92" stop-color="white"/>
</linearGradient>
<linearGradient id="paint11_linear_1_21" x1="23.9728" y1="18.2877" x2="47.6888" y2="12.717" gradientUnits="userSpaceOnUse">
<stop offset="0.23" stop-color="#FD6A54"/>
<stop offset="0.58" stop-color="#FDB1A5"/>
<stop offset="0.95" stop-color="white"/>
</linearGradient>
<linearGradient id="paint12_linear_1_21" x1="5.68496" y1="34.5048" x2="42.6997" y2="60.5064" gradientUnits="userSpaceOnUse">
<stop stop-color="#FD6A54"/>
<stop offset="0.3" stop-color="#AC5996"/>
<stop offset="0.58" stop-color="#5D4AD8"/>
</linearGradient>
<linearGradient id="paint13_linear_1_21" x1="10.2765" y1="46.2706" x2="37.3963" y2="41.475" gradientUnits="userSpaceOnUse">
<stop stop-color="#FD6A54"/>
<stop offset="0.3" stop-color="#AC5996"/>
<stop offset="0.58" stop-color="#5D4AD8"/>
</linearGradient>
<linearGradient id="paint14_linear_1_21" x1="11.5625" y1="53.5449" x2="26.7461" y2="50.8598" gradientUnits="userSpaceOnUse">
<stop stop-color="#FD6A54"/>
<stop offset="0.3" stop-color="#AC5996"/>
<stop offset="0.58" stop-color="#5D4AD8"/>
</linearGradient>
<clipPath id="clip0_1_21">
<rect width="128" height="88" fill="white"/>
</clipPath>
</defs>
</svg>
