<svg xmlns="http://www.w3.org/2000/svg" width="42" height="42" viewBox="0 0 42 42">
  <g id="s_illu_CollectSignature_42" transform="translate(-119)">
    <rect id="Canvas" width="42" height="42" transform="translate(119)" fill="#ededed" opacity="0"/>
    <g id="S_IlluCollectSignaturesFromOthers_42" transform="translate(118.949 3)">
      <path id="Path_101566" data-name="Path 101566" d="M41.1,5H37.9V1.8a.789.789,0,0,0-.8-.8.736.736,0,0,0-.8.8V5H33.1a.789.789,0,0,0-.8.8.736.736,0,0,0,.8.8h3.2V9.8a.789.789,0,0,0,.8.8.736.736,0,0,0,.8-.8V6.6h3.2a.8.8,0,1,0,0-1.6Z" fill="#fe0200"/>
      <path id="Path_101567" data-name="Path 101567" d="M20.865,7.25a4.2,4.2,0,0,0-4.215,4.439c0,2.61,1.971,4.98,4.216,4.98s4.215-2.37,4.215-4.98A4.2,4.2,0,0,0,20.865,7.25Zm0,1.5a2.7,2.7,0,0,1,2.716,2.939c0,1.836-1.367,3.48-2.715,3.48s-2.716-1.643-2.716-3.48A2.7,2.7,0,0,1,20.865,8.75Zm3.115,8.206a5.326,5.326,0,0,1,4.639,4.207.75.75,0,0,1-1.441.416,3.922,3.922,0,0,0-2.726-3.006l-.23-.056-.116.138a4.18,4.18,0,0,1-2.972,1.4h-.227a4.2,4.2,0,0,1-3.236-1.4l-.117-.137-.012,0a3.812,3.812,0,0,0-2.875,2.839l-.068.221a.75.75,0,0,1-1.441-.416A5.326,5.326,0,0,1,17.8,16.956a.75.75,0,0,1,.725.343,2.861,2.861,0,0,0,4.735,0,.75.75,0,0,1,.617-.348ZM8.3,14.25a4.2,4.2,0,0,0-4.215,4.439c0,2.61,1.971,4.98,4.216,4.98s4.215-2.37,4.215-4.98A4.2,4.2,0,0,0,8.3,14.25Zm0,1.5a2.7,2.7,0,0,1,2.716,2.939c0,1.836-1.367,3.48-2.715,3.48s-2.716-1.643-2.716-3.48A2.7,2.7,0,0,1,8.3,15.75Zm3.165,8.206A5.221,5.221,0,0,1,15.9,27.442a9.976,9.976,0,0,1,.647,3.8.75.75,0,0,1-1.5,0A8.6,8.6,0,0,0,14.5,28a3.728,3.728,0,0,0-2.747-2.472l-.046-.01-.116.139a4.181,4.181,0,0,1-2.972,1.4H8.164a4.2,4.2,0,0,1-3-1.4l-.117-.138-.039.009A3.642,3.642,0,0,0,2.376,27.78l-.09.215a8.678,8.678,0,0,0-.537,3.246.75.75,0,0,1-1.5,0,10.052,10.052,0,0,1,.642-3.8,5.189,5.189,0,0,1,4.395-3.488.75.75,0,0,1,.724.343A2.723,2.723,0,0,0,8.4,25.553,2.7,2.7,0,0,0,10.745,24.3a.75.75,0,0,1,.616-.348Z" fill="#8e8e8e"/>
      <path id="Path_101568" data-name="Path 101568" stroke="#8e8e8e" d="M10.77,3.689a3.473,3.473,0,1,0-6.932,0c0,2.255,1.7,4.23,3.466,4.23S10.77,5.944,10.77,3.689Zm4.025,12.552c0-1.192-.112-6.019-4.416-6.54a3.453,3.453,0,0,1-3,1.6,3.455,3.455,0,0,1-3-1.6C.112,10.222,0,15.048,0,16.241" fill="none" transform="translate(26.23 15)" stroke-linecap="round" stroke-linejoin="round" stroke-width="1.5" fill-rule="evenodd"/>
    </g>
  </g>
</svg>
