<svg xmlns="http://www.w3.org/2000/svg" width="42" height="42" viewBox="0 0 42 42">
  <g fill="none" fill-rule="evenodd">
    <path fill="#FA0F00" fill-rule="nonzero" d="M21.5110714,28.1411528 C24.3759715,27.8905065 26.9325913,28.7292523 29.1382116,30.6435947 C31.2321336,32.4609898 32.4636543,34.7564785 32.8148408,37.495977 L34.6714653,35.1910749 L34.747193,35.11006 C35.0147826,34.8633483 35.4250852,34.8508251 35.7102827,35.0967964 C36.024,35.3673648 36.0675418,35.8482528 35.8075361,36.1708898 L35.8075361,36.1708898 L32.9106832,39.7648805 L32.8673709,39.8289177 C32.6301092,40.1214516 32.2240535,40.1816838 31.9170991,39.9861765 L31.8282538,39.9198287 L28.2806592,36.8407355 L28.2020614,36.7617529 C27.9626117,36.4830151 27.9494011,36.0588856 28.1866628,35.7663518 C28.4476507,35.4445646 28.9128793,35.4038623 29.22578,35.6754408 L29.22578,35.6754408 L31.3259381,37.4969995 C30.9924816,35.2225805 29.9536911,33.3369818 28.1930908,31.8088893 C26.2881373,30.1555072 24.1193475,29.4439961 21.6440024,29.6605608 C19.2739472,29.8679137 17.3120941,30.873645 15.7236932,32.6955767 C15.0310248,33.4962558 13.7957223,32.6297556 14.6230172,31.6734615 C16.4623656,29.5636791 18.7693409,28.3810232 21.5110714,28.1411528 Z" transform="scale(1 -1) rotate(-20 -168.221 0)"/>
    <path fill="#FE0200" fill-rule="nonzero" d="M37.3883103,11 L27.8841404,11 C26.2889898,11 25,12.2977539 25,13.8935515 L25,23.1064485 C25,24.7022461 26.2889898,26 27.8841404,26 L40.1158596,26 C41.7110102,26 43,24.7022461 43,23.1064485 L42.9803077,16.5287961 C42.9797205,15.8570009 42.7135828,15.2114916 42.2393875,14.7346665 L39.1689785,11.7338044 C38.709936,11.2708088 38.063372,11.0005989 37.3883103,11 Z M37.3869808,12.5 C37.6622107,12.5002439 37.9260794,12.6105191 38.1205752,12.8065813 L41.1757984,15.7923895 C41.3705365,15.9882077 41.480067,16.2538706 41.4803093,16.5309718 L41.5,23.1064485 C41.5,23.8760857 40.8802992,24.5 40.1158596,24.5 L27.8841404,24.5 C27.1197008,24.5 26.5,23.8760857 26.5,23.1064485 L26.5,13.8935515 C26.5,13.1239143 27.1197008,12.5 27.8841404,12.5 L37.3869808,12.5 Z" transform="matrix(0 -1 -1 0 52.5 52.5)"/>
    <path fill="#8E8E8E" d="M10.4795986,2 C10.9867926,2 11.4743599,2.175 11.8493323,2.48 L11.9846528,2.601 L12.5392749,3.12938261 C12.8576464,3.4326918 12.8698569,3.93666357 12.5665477,4.25503509 C12.4144804,4.414654 12.2030372,4.5040762 11.9825869,4.502 L11.9825869,4.502 L11.9825869,4.502 C11.8493323,4.5 11.7222755,4.45 11.6262082,4.359 L10.8845274,3.656 C10.8060208,3.58 10.6934258,3.526 10.571534,3.507 L10.4795986,3.5 L2.43783664,3.5 C1.98539069,3.5 1.61145134,3.83 1.55670331,4.258 L1.54947244,4.368 L1.54947244,17.632 C1.54947244,18.076 1.8893234,18.44 2.32627463,18.493 L2.34794276,18.4931966 C2.76323522,18.4969639 3.0979119,18.8346904 3.0979119,19.25 L3.0979119,19.3399247 C3.0979119,19.7044742 2.80238614,20 2.43783664,20 L2.43783664,20 L2.43783664,20 C1.14557663,20 0.0909023832,19.025 0.00516490814,17.794 L0,17.632 L0,4.368 C0,3.116 1.0009592,2.089 2.27049362,2.005 L2.43783664,2 L10.4795986,2 Z"/>
    <path fill="#8E8E8E" d="M14.4795986,6 C14.9867926,6 15.4743599,6.175 15.8493323,6.48 L15.9846528,6.601 L16.5392749,7.12938261 C16.8576464,7.4326918 16.8698569,7.93666357 16.5665477,8.25503509 C16.4144804,8.414654 16.2030372,8.5040762 15.9825869,8.502 L15.9825869,8.502 L15.9825869,8.502 C15.8493323,8.5 15.7222755,8.45 15.6262082,8.359 L14.8845274,7.656 C14.8060208,7.58 14.6934258,7.526 14.571534,7.507 L14.4795986,7.5 L6.43783664,7.5 C5.98539069,7.5 5.61145134,7.83 5.55670331,8.258 L5.54947244,8.368 L5.54947244,21.632 C5.54947244,22.076 5.8893234,22.44 6.32627463,22.493 L6.34794276,22.4931966 C6.76323522,22.4969639 7.0979119,22.8346904 7.0979119,23.25 L7.0979119,23.3399247 C7.0979119,23.7044742 6.80238614,24 6.43783664,24 L6.43783664,24 L6.43783664,24 C5.14557663,24 4.09090238,23.025 4.00516491,21.794 L4,21.632 L4,8.368 C4,7.116 5.0009592,6.089 6.27049362,6.005 L6.43783664,6 L14.4795986,6 Z"/>
    <path fill="#8E8E8E" d="M18.3267508,11.5 L10.4022801,11.5 C9.95643322,11.5 9.58794788,11.83 9.53399837,12.258 L9.52687296,12.368 L9.52687296,25.632 C9.52687296,26.076 9.8617671,26.44 10.2923453,26.493 L10.4022801,26.5 L20.5987378,26.5 C21.0435668,26.5 21.41307,26.17 21.4670195,25.743 L21.473127,25.635 L21.4568404,14.525 C21.4568404,14.401 21.4171417,14.282 21.353013,14.191 L21.3000814,14.128 L18.7257736,11.656 C18.6484121,11.58 18.5374593,11.526 18.4173453,11.507 L18.3267508,11.5 Z M18.3267508,10 C18.8265472,10 19.3070033,10.175 19.6765065,10.48 L19.8098534,10.601 L22.3668567,13.056 C22.7180375,13.402 22.9317997,13.858 22.97557,14.341 L22.9837134,14.523 L23,25.632 C23,26.884 22.014658,27.911 20.7636401,27.994 L20.5987378,28 L10.4022801,28 C9.12886808,28 8.08957655,27.024 8.00508958,25.794 L8,25.632 L8,12.368 C8,11.116 8.98635993,10.089 10.2373779,10.005 L10.4022801,10 L18.3267508,10 Z"/>
  </g>
</svg>
