<?xml version="1.0" encoding="UTF-8"?>
<svg width="42px" height="42px" viewBox="0 0 42 42" version="1.1" xmlns="http://www.w3.org/2000/svg" xmlns:xlink="http://www.w3.org/1999/xlink">
    <title>S_Illu_Compress-PDF-Size_42</title>
    <g id="S_Illu_Compress-PDF-Size_42" stroke="none" stroke-width="1" fill="none" fill-rule="evenodd">
        <path d="M32.4999999,24.815 L33.9999999,26.303 L34,32.4556621 C34,34.3457049 32.5252752,35.8936518 30.663826,35.9947482 L30.4699274,36 L12.5300726,36 C10.6432465,36 9.10562746,34.5150545 9.005216,32.6499182 L9,32.4556621 L8.99999986,26.775 L10.4999999,25.287 L10.5,32.4556621 C10.5,33.5332949 11.3281456,34.4161632 12.3785659,34.4941975 L12.5300726,34.4998043 L30.4699274,34.4998043 C31.5401429,34.4998043 32.4169346,33.6659192 32.4944318,32.6082188 L32.5,32.4556621 L32.4999999,24.815 Z M26.497781,5 C27.2343249,5.00065345 27.9424676,5.27103667 28.4788681,5.74325122 L28.6207934,5.87699008 L33.1169732,10.2718027 C33.6349569,10.7927269 33.9447019,11.4828031 33.9932695,12.2130129 L34,12.4130591 L33.9999999,14.578 L32.4999999,16.069 L32.5,12.4130591 C32.499689,12.0573994 32.3766566,11.7145858 32.154563,11.4420129 L32.053384,11.3296637 L27.57239,6.94990701 C27.2871296,6.66231156 26.900122,6.50055355 26.4964516,6.50019572 L12.5300726,6.50019572 C11.4598571,6.50019572 10.5830654,7.33408084 10.5055682,8.39178123 L10.5,8.54433796 L10.4999999,15.596 L8.99999986,14.104 L9,8.54433796 C9,6.65429514 10.4747248,5.10634819 12.336174,5.00525177 L12.5300726,5 L26.497781,5 Z" id="Combined-Shape" fill="#8E8E8E" fill-rule="nonzero"></path>
        <path d="M15.5087719,28 L27.7192982,28 C28.0002852,28 28.2280702,28.2286205 28.2280702,28.5106383 C28.2280702,28.7926561 28.0002852,29.0212766 27.7192982,29.0212766 L15.5087719,29.0212766 C15.2277849,29.0212766 15,28.7926561 15,28.5106383 C15,28.2286205 15.2277849,28 15.5087719,28 Z M15.5087719,31.0638298 L27.7192982,31.0638298 C28.0002852,31.0638298 28.2280702,31.2924503 28.2280702,31.5744681 C28.2280702,31.8564859 28.0002852,32.0851064 27.7192982,32.0851064 L15.5087719,32.0851064 C15.2277849,32.0851064 15,31.8564859 15,31.5744681 C15,31.2924503 15.2277849,31.0638298 15.5087719,31.0638298 Z" id="Shape" fill="#8E8E8E" fill-rule="nonzero"></path>
        <path d="M17.8761695,21.5156753 C16.8957618,23.0646462 15.930848,24.043618 15.3668285,24.043618 C15.2627558,24.043618 15.1772953,24.0130191 15.1151246,23.9551682 C15.001697,23.851419 14.9597951,23.7385857 14.986203,23.601369 C15.093394,23.0463825 16.210519,22.2459359 17.8761695,21.5156753 L17.8761695,21.5156753 Z M22.5887726,19.300319 C22.1677069,19.3871432 21.7326089,19.4878325 21.2913718,19.6021001 C20.9743789,19.6845257 20.6528059,19.7744098 20.3311355,19.8705093 C20.5020564,19.5275154 20.658945,19.1874858 20.7956622,18.8641898 C20.975938,18.437336 21.1452998,18.0103865 21.3007267,17.5927122 C21.4374439,17.8030793 21.5788386,18.0074222 21.7232541,18.2040198 C22.0091617,18.5928163 22.3170922,18.9645923 22.6231711,19.2923824 L22.5887726,19.300319 Z M20.4119185,11.9284837 C20.4911424,11.7943269 20.6186022,11.7135268 20.750642,11.7135268 C21.1220101,11.7135268 21.2027931,12.1526202 21.2027931,12.5200932 C21.2059114,13.105583 21.0256356,14.0387521 20.7164384,15.0708894 C20.0933664,13.4516368 20.180386,12.3172802 20.4119185,11.9284837 L20.4119185,11.9284837 Z M27.3883952,20.3904028 C27.3339227,20.6663661 27.0434352,20.8447 26.6456591,20.8447 C26.5368116,20.8447 26.4234815,20.8310262 26.3100539,20.8035828 C25.5797909,20.6328987 24.8805159,20.2866536 24.1828975,19.7469665 C24.8370548,19.6493371 25.3886012,19.6281091 25.7569484,19.6281091 C26.176455,19.6281091 26.5601987,19.6570824 26.8056661,19.7073792 C27.1210999,19.7714456 27.4768765,19.9421297 27.3883952,20.3904028 L27.3883952,20.3904028 Z M28.4449086,19.6601423 C27.9802844,19.170752 27.0915737,18.9221364 25.8035278,18.9221364 C25.1695418,18.9221364 24.4533111,18.9832385 23.6701348,19.1036258 C23.2459508,18.7026853 22.8326808,18.2300288 22.4411414,17.6963658 C22.1614703,17.3167489 21.9035298,16.9233625 21.6720947,16.5238564 C22.1257075,15.1227162 22.3556809,13.9852997 22.3556809,13.1421103 C22.3556809,12.1069132 21.9377335,11 20.7646743,11 C20.379274,11 19.9846163,11.2287264 19.78261,11.568756 C19.2823204,12.4118498 19.4827675,14.1468999 20.2814378,15.9124532 C20.003326,16.7236094 19.7002678,17.5134421 19.3288997,18.3884734 C19.0166816,19.1279136 18.6453136,19.8841832 18.252215,20.5825062 C17.0558661,21.0552583 14.512224,22.2017588 14.2698749,23.4687422 C14.1983493,23.8484547 14.3211317,24.2066524 14.6179533,24.4780259 C14.7095528,24.5634158 15.0591904,24.8409091 15.6542952,24.8409091 C17.1862493,24.8409091 18.7136235,22.7597096 19.7422672,20.9682429 C20.3264581,20.7730796 20.9231221,20.5962757 21.5166678,20.4422296 C22.1677069,20.2730754 22.7970154,20.1343287 23.3904637,20.0305795 C25.0126532,21.4195758 26.4545668,21.6299429 27.1770341,21.6299429 C28.169915,21.6299429 28.5411856,21.2075832 28.6764411,20.8523497 C28.8551577,20.3889685 28.6810211,19.9086623 28.4449086,19.6601423 L28.4449086,19.6601423 Z" id="Shape" fill="#FA0F00" fill-rule="nonzero"></path>
        <path d="M5.46824412,14.4710996 C5.7337929,14.2041171 6.1503899,14.1787895 6.44458682,14.3958527 L6.52890045,14.4682441 L12.0047434,19.9146829 C12.2730025,20.1815015 12.2971186,20.6005035 12.077282,20.8946871 L12.0040126,20.9789206 L6.52816956,26.4104176 C6.23408795,26.7021176 5.75921814,26.7001869 5.46751815,26.4061053 C5.20233634,26.1387584 5.17982451,25.7219998 5.39887089,25.4292764 L5.47183044,25.3454539 L10.41,20.445 L5.47109955,15.5317559 C5.20411713,15.2662071 5.17878946,14.8496101 5.39585269,14.5554132 L5.46824412,14.4710996 Z" id="Path-22" fill="#8E8E8E" fill-rule="nonzero"></path>
        <path d="M31.4682441,14.4710996 C31.7337929,14.2041171 32.1503899,14.1787895 32.4445868,14.3958527 L32.5289004,14.4682441 L38.0047434,19.9146829 C38.2730025,20.1815015 38.2971186,20.6005035 38.077282,20.8946871 L38.0040126,20.9789206 L32.5281696,26.4104176 C32.234088,26.7021176 31.7592181,26.7001869 31.4675182,26.4061053 C31.2023363,26.1387584 31.1798245,25.7219998 31.3988709,25.4292764 L31.4718304,25.3454539 L36.41,20.445 L31.4710996,15.5317559 C31.2041171,15.2662071 31.1787895,14.8496101 31.3958527,14.5554132 L31.4682441,14.4710996 Z" id="Path-22" fill="#8E8E8E" fill-rule="nonzero" transform="translate(34.737921, 20.438968) scale(-1, 1) translate(-34.737921, -20.438968) "></path>
    </g>
</svg>