<svg xmlns="http://www.w3.org/2000/svg" xmlns:xlink="http://www.w3.org/1999/xlink" width="400" height="240" viewBox="0 0 400 240">
  <defs>
    <clipPath id="clip-Convert-JPG-to-PDF.svg">
      <rect width="400" height="240"/>
    </clipPath>
  </defs>
  <g id="Convert-JPG-to-PDF.svg" clip-path="url(#clip-Convert-JPG-to-PDF.svg)">
    <path id="Path_101359" data-name="Path 101359" d="M11.587,0H139.758a11.832,11.832,0,0,1,11.587,12.062v95.975A11.832,11.832,0,0,1,139.758,120.1H11.587A11.832,11.832,0,0,1,0,108.037V12.062A11.832,11.832,0,0,1,11.587,0Z" transform="translate(137.356 65.942) rotate(90)" fill="#fee"/>
    <g id="Group_159996" data-name="Group 159996" transform="translate(39.607 49.004)">
      <path id="Path_101375" data-name="Path 101375" d="M0,130.987V13.806A13.791,13.791,0,0,1,13.772,0H81.484A15.134,15.134,0,0,1,92.156,4.409l20.272,20.169a15.208,15.208,0,0,1,4.476,10.78v95.63a13.791,13.791,0,0,1-13.772,13.806H13.772A13.791,13.791,0,0,1,0,130.987Z" transform="translate(0 0)" fill="#fff" stroke="#cacaca" stroke-linecap="round" stroke-linejoin="round" stroke-width="4"/>
      <g id="Group_155657" data-name="Group 155657" transform="translate(25.825 38.302) rotate(1)">
        <path id="Path_101549" data-name="Path 101549" d="M4.382,0H62.908A4.382,4.382,0,0,1,67.29,4.382V7.107a4.382,4.382,0,0,1-4.382,4.382H4.382A4.382,4.382,0,0,1,0,7.107V4.382A4.382,4.382,0,0,1,4.382,0Z" transform="translate(0 1.032)" fill="#e1f5d0"/>
        <g id="Path_101548" data-name="Path 101548" transform="translate(1.094 1.032)" fill="none" stroke-linecap="round">
          <path d="M4.382,0H60.72A4.382,4.382,0,0,1,65.1,4.382v36.1A4.382,4.382,0,0,1,60.72,44.86H4.382A4.382,4.382,0,0,1,0,40.478V4.382A4.382,4.382,0,0,1,4.382,0Z" stroke="none"/>
          <path d="M 60.71965789794922 0 L 4.381690979003906 1.1444091796875e-05 C 1.961750030517578 1.1444091796875e-05 7.62939453125e-06 1.961753845214844 7.62939453125e-06 4.381687164306641 L 7.62939453125e-06 40.47802352905273 C 7.62939453125e-06 42.89796829223633 1.961750030517578 44.85971069335938 4.381683349609375 44.85971069335938 L 60.71965026855469 44.85969924926758 C 63.13957977294922 44.85969924926758 65.10133361816406 42.89795684814453 65.10133361816406 40.47801208496094 L 65.10133361816406 4.381675720214844 C 65.10133361816406 1.961742401123047 63.13959121704102 0 60.71965789794922 0 M 60.71965789794922 -3 C 64.78992462158203 -3 68.10133361816406 0.3114089965820312 68.10133361816406 4.381675720214844 L 68.10133361816406 40.47801208496094 C 68.10133361816406 44.54829025268555 64.78992462158203 47.85969924926758 60.71965026855469 47.85969924926758 L 4.381683349609375 47.85971069335938 C 0.3114166259765625 47.85971069335938 -2.999992370605469 44.54830169677734 -2.999992370605469 40.47802352905273 L -2.999992370605469 4.381687164306641 C -2.999992370605469 0.3114204406738281 0.3114166259765625 -2.999988555908203 4.381690979003906 -2.999988555908203 L 60.71965789794922 -3 Z" stroke="none" fill="#44b756"/>
        </g>
        <line id="Line_6839" data-name="Line 6839" x2="66.743" transform="translate(0.274 12.247)" fill="none" stroke="#3eb851" stroke-width="3"/>
        <line id="Line_6846" data-name="Line 6846" x2="66.743" transform="translate(0.274 21)" fill="none" stroke="#3eb851" stroke-width="3"/>
        <path id="Path_101226" data-name="Path 101226" d="M0,0V47.807" transform="translate(11.762 0)" fill="none" stroke="#3eb851" stroke-width="3"/>
        <path id="Path_101227" data-name="Path 101227" d="M0,0V47.807" transform="translate(44.586 0)" fill="none" stroke="#3eb851" stroke-width="3"/>
        <line id="Line_6840" data-name="Line 6840" x2="66.743" transform="translate(0.274 29.753)" fill="none" stroke="#3eb851" stroke-width="3"/>
        <line id="Line_6841" data-name="Line 6841" x2="66.743" transform="translate(0.274 38.506)" fill="none" stroke="#3eb851" stroke-width="3"/>
      </g>
    </g>
    <path id="Path_101390" data-name="Path 101390" d="M13.777,0A13.775,13.775,0,0,0,0,13.774V132.42A13.777,13.777,0,0,0,13.777,146.2h91.841a13.777,13.777,0,0,0,13.777-13.777V34.9a11.565,11.565,0,0,0-3.4-8.129L92.484,3.35A11.343,11.343,0,0,0,84.4,0Z" transform="translate(213.122 66.88)" fill="#fee" style="isolation: isolate"/>
    <line id="Line_6856" data-name="Line 6856" y2="28.986" transform="translate(156.505 100.927)" fill="none" stroke="#fff" stroke-width="5"/>
    <g id="Group_159997" data-name="Group 159997" transform="translate(125.813 162.429)">
      <g id="Ellipse_10670" data-name="Ellipse 10670" transform="translate(0)" fill="#fff" stroke="#fff" stroke-width="1">
        <ellipse cx="21.448" cy="21.998" rx="21.448" ry="21.998" stroke="none"/>
        <ellipse cx="21.448" cy="21.998" rx="20.948" ry="21.498" fill="none"/>
      </g>
      <path id="Path_101403" data-name="Path 101403" d="M28.18,9.05A19.13,19.13,0,1,1,9.05,28.18,19.13,19.13,0,0,1,28.18,9.05Zm-10.747,20.2a1.075,1.075,0,0,0,1.075,1.075h7.523v7.523a1.075,1.075,0,0,0,1.075,1.075h2.149a1.075,1.075,0,0,0,1.075-1.075V30.33h7.523a1.075,1.075,0,0,0,1.075-1.075V27.105a1.075,1.075,0,0,0-1.075-1.075H30.33V18.508a1.075,1.075,0,0,0-1.075-1.075H27.105a1.075,1.075,0,0,0-1.075,1.075v7.523H18.508a1.075,1.075,0,0,0-1.075,1.075Z" transform="translate(-6.73 -5.718)" fill="#0d66d0"/>
    </g>
    <line id="Line_6857" data-name="Line 6857" y2="13.527" transform="translate(156.505 128.357)" fill="none" stroke="#cacaca" stroke-linecap="round" stroke-width="4"/>
    <line id="Line_6858" data-name="Line 6858" y2="13.527" transform="translate(156.505 87.777)" fill="none" stroke="#cacaca" stroke-linecap="round" stroke-width="4"/>
    <g id="Group_156101" data-name="Group 156101" transform="translate(233.238 49.619)">
      <path id="Path_101552" data-name="Path 101552" d="M0,130.934V13.8A13.785,13.785,0,0,1,13.767,0H81.451A15.128,15.128,0,0,1,92.118,4.407l20.263,20.16a15.2,15.2,0,0,1,4.474,10.776v95.591a13.785,13.785,0,0,1-13.767,13.8H13.767A13.785,13.785,0,0,1,0,130.934Z" transform="translate(0 0)" fill="#fff" stroke="#cacaca" stroke-linecap="round" stroke-linejoin="round" stroke-width="4"/>
    </g>
    <g id="Group_155517" data-name="Group 155517" transform="translate(198.451 27.256)">
      <line id="Line_6847" data-name="Line 6847" y2="7.067" transform="translate(11.386 0)" fill="none" stroke="#0d66d0" stroke-linecap="round" stroke-width="3"/>
      <line id="Line_6848" data-name="Line 6848" y2="7.067" transform="translate(11.386 15.705)" fill="none" stroke="#0d66d0" stroke-linecap="round" stroke-width="3"/>
      <line id="Line_6850" data-name="Line 6850" y2="7.067" transform="translate(22.771 11.386) rotate(90)" fill="none" stroke="#0d66d0" stroke-linecap="round" stroke-width="3"/>
      <line id="Line_6849" data-name="Line 6849" y2="7.067" transform="translate(7.067 11.386) rotate(90)" fill="none" stroke="#0d66d0" stroke-linecap="round" stroke-width="3"/>
    </g>
    <g id="Group_155518" data-name="Group 155518" transform="translate(365.704 200.063) rotate(-1)">
      <line id="Line_6847-2" data-name="Line 6847" y2="3.608" transform="translate(7.375 0)" fill="none" stroke="#fba868" stroke-linecap="round" stroke-width="3"/>
      <line id="Line_6848-2" data-name="Line 6848" y2="3.608" transform="translate(7.375 11.142)" fill="none" stroke="#fba868" stroke-linecap="round" stroke-width="3"/>
      <line id="Line_6850-2" data-name="Line 6850" y2="3.608" transform="translate(14.75 7.375) rotate(90)" fill="none" stroke="#fba868" stroke-linecap="round" stroke-width="3"/>
      <line id="Line_6849-2" data-name="Line 6849" y2="3.608" transform="translate(3.608 7.375) rotate(90)" fill="none" stroke="#fba868" stroke-linecap="round" stroke-width="3"/>
    </g>
    <g id="Group_155519" data-name="Group 155519" transform="translate(233.046 15.617)">
      <line id="Line_6847-3" data-name="Line 6847" y2="2.86" transform="translate(5.846 0)" fill="none" stroke="#3eb851" stroke-linecap="round" stroke-width="3"/>
      <line id="Line_6848-3" data-name="Line 6848" y2="2.86" transform="translate(5.846 8.832)" fill="none" stroke="#3eb851" stroke-linecap="round" stroke-width="3"/>
      <line id="Line_6850-3" data-name="Line 6850" y2="2.86" transform="translate(11.692 5.846) rotate(90)" fill="none" stroke="#3eb851" stroke-linecap="round" stroke-width="3"/>
      <line id="Line_6849-3" data-name="Line 6849" y2="2.86" transform="translate(2.86 5.846) rotate(90)" fill="none" stroke="#3eb851" stroke-linecap="round" stroke-width="3"/>
    </g>
    <g id="Group_156096" data-name="Group 156096" transform="translate(64.721 84.706)">
      <g id="Group_156094" data-name="Group 156094" transform="translate(0 0)">
        <rect id="Rectangle_148676" data-name="Rectangle 148676" width="67" height="52" transform="translate(1.279 1.294)" fill="#ffebf3"/>
        <g id="Group_155647" data-name="Group 155647" transform="translate(0 0)">
          <rect id="Rectangle_148640" data-name="Rectangle 148640" width="69.018" height="52.865" rx="2" transform="translate(0 0)" fill="none" stroke="#d11183" stroke-linecap="round" stroke-linejoin="round" stroke-width="3"/>
          <path id="Path_101153" data-name="Path 101153" d="M4,8.021A4.01,4.01,0,1,0,0,4,4.014,4.014,0,0,0,4,8.021Z" transform="translate(50.419 10.948)" fill="#fcb0cf" stroke="#fcb0cf" stroke-linecap="round" stroke-linejoin="round" stroke-width="3"/>
          <path id="Union_1" data-name="Union 1" d="M41.739,22.066H33.748l.028-.042L0,21.844,22.191.554a1.966,1.966,0,0,1,2.741.005l14,13.749.6-.9,6.63-6.819a2.609,2.609,0,0,1,3.56.007l15.311,15.47h-18.2l.028.027Z" transform="translate(2.369 29.233)" fill="#fcb0cf"/>
          <rect id="Rectangle_148641" data-name="Rectangle 148641" width="69.018" height="52.865" rx="2" transform="translate(0 0)" fill="none" stroke="#d11183" stroke-linecap="round" stroke-linejoin="round" stroke-width="2"/>
        </g>
      </g>
    </g>
    <path id="Path_102751" data-name="Path 102751" d="M208.145,257.618c-4.5,7.112-8.929,11.6-11.518,11.6a1.729,1.729,0,0,1-1.746-2.031c.491-2.547,5.619-6.22,13.264-9.574Zm21.632-10.166c-1.934.4-3.931.859-5.956,1.383-1.454.379-2.931.791-4.408,1.232.786-1.574,1.506-3.135,2.132-4.617.827-1.96,1.605-3.92,2.32-5.839.626.966,1.276,1.905,1.939,2.809a56.312,56.312,0,0,0,4.129,5Zm-9.994-33.84a1.861,1.861,0,0,1,1.556-.987c1.7,0,2.075,2.015,2.075,3.7a45.418,45.418,0,0,1-2.232,11.709c-2.861-7.434-2.461-12.641-1.4-14.426Zm32.023,38.843c-.248,1.266-1.582,2.083-3.409,2.083a6.621,6.621,0,0,1-1.54-.188,25.274,25.274,0,0,1-9.764-4.85,49.3,49.3,0,0,1,7.225-.545,26.555,26.555,0,0,1,4.816.363c1.446.295,3.08,1.078,2.673,3.137Zm4.849-3.354c-2.132-2.245-6.212-3.388-12.124-3.388a65.192,65.192,0,0,0-9.793.835,48.1,48.1,0,0,1-5.64-6.46,59.017,59.017,0,0,1-3.529-5.382c2.08-6.431,3.137-11.654,3.137-15.522,0-4.753-1.918-9.835-7.3-9.835a5.435,5.435,0,0,0-4.508,2.613c-2.3,3.868-1.378,11.834,2.289,19.938-1.276,3.722-2.667,7.347-4.372,11.364a100.46,100.46,0,0,1-4.944,10.07c-5.492,2.172-17.167,7.434-18.278,13.249a4.874,4.874,0,0,0,1.6,4.633,7.031,7.031,0,0,0,4.758,1.665c7.031,0,14.042-9.553,18.764-17.775,2.681-.9,5.419-1.707,8.144-2.414,2.989-.778,5.878-1.415,8.6-1.89,7.444,6.374,14.063,7.34,17.381,7.34,4.557,0,6.262-1.937,6.883-3.568a5.391,5.391,0,0,0-1.065-5.473Z" transform="translate(67.392 -129.554)" fill="#fa0f00" fill-rule="evenodd"/>
    <g id="Group_160019" data-name="Group 160019" transform="translate(147.051 126.878) rotate(-90)">
      <line id="Line_6851" data-name="Line 6851" y2="45.338" transform="translate(11.906 0)" fill="none" stroke="#cacaca" stroke-linecap="round" stroke-width="4"/>
      <line id="Line_6854" data-name="Line 6854" x2="11.118" y2="9.883" transform="translate(0 35.594)" fill="none" stroke="#cacaca" stroke-linecap="round" stroke-width="4"/>
      <line id="Line_6855" data-name="Line 6855" x1="11.566" y2="9.744" transform="translate(11.906 35.594)" fill="none" stroke="#cacaca" stroke-linecap="round" stroke-width="4"/>
    </g>
  </g>
</svg>
