<svg xmlns="http://www.w3.org/2000/svg" xmlns:xlink="http://www.w3.org/1999/xlink" width="42" height="42" viewBox="0 0 42 42"><defs><path id="a" d="M23.25,17 C23.664,17 24,17.336 24,17.75 L24,21 L27.25,21 C27.664,21 28,21.336 28,21.75 C28,22.164 27.664,22.5 27.25,22.5 L24,22.5 L24,25.75 C24,26.164 23.664,26.5 23.25,26.5 C22.836,26.5 22.5,26.164 22.5,25.75 L22.5,22.5 L19.25,22.5 C18.836,22.5 18.5,22.164 18.5,21.75 C18.5,21.336 18.836,21 19.25,21 L22.5,21 L22.5,17.75 C22.5,17.336 22.836,17 23.25,17 Z"/></defs><g fill="none" fill-rule="evenodd"><path fill="#FA0F00" fill-rule="nonzero" d="M36.7,9.6 L36.7,9.6 C36.3,9.4 35.9,9.4 35.6,9.7 C35.3,10 35.4,10.5 35.7,10.8 L35.7,10.8 L38.2,12.8 L38.3,12.9 C38.6,13.1 38.9,13 39.1,12.8 L39.1,12.8 L41.6,10.8 L41.7,10.7 C41.9,10.4 42,10 41.7,9.7 C41.4,9.4 41,9.3 40.6,9.6 L40.6,9.6 L39.3,10.6 L39.3,8.2 L39.3,8 C39.2,4.7 36.6,2 33.5,2 L33.5,2 L31.6,2 L31.5,2 C31.1,2 30.9,2.4 30.9,2.7 C30.9,3.1 31.2,3.5 31.7,3.5 L31.7,3.5 L33.6,3.5 L33.8,3.5 C36.2,3.5 38,5.6 38,8.2 L38,8.2 L38,10.6 L36.7,9.6 Z"/><path fill="#8E8E8E" fill-rule="nonzero" d="M28.5,7.4 C29.3,7.4 30.1,7.7 30.6,8.3 L30.6,8.3 L35.1,12.7 C35.7,13.3 36,14 36,14.8 L36,14.8 L36,34.8 C36,36.8 34.4,38.3 32.5,38.3 L32.5,38.3 L18,38.3 C17.6,38.3 17.2,37.9 17.3,37.5 L17.3,37.5 C17.3,37.1 17.7,36.8 18,36.8 L32.5,36.8 C33.6,36.8 34.4,36 34.5,34.9 L34.5,34.7 L34.5,14.7 C34.5,14.3 34.3,13.9 34.1,13.6 L34.1,13.6 L29.6,9.2 C29.3,9.1 28.9,8.9 28.5,8.9 L28.5,8.9 L14.5,8.9 C13.4,8.9 12.5,9.8 12.5,10.9 L12.5,10.9 L12.5,17 C12.5,17.4 12.2,17.7 11.8,17.7 L11.8,17.7 C11.4,17.7 11,17.4 11,17 L11,10.9 C11,9 12.5,7.5 14.3,7.4 L14.5,7.4 L28.5,7.4 Z"/><path fill="#FA0F00" fill-rule="nonzero" d="M11.156,20.8999896 C11.499,20.8990053 11.828,21.0400053 12.064,21.2900053 C12.231,21.4670053 12.342,21.6890053 12.384,21.9280053 L12.4,23.6320053 L16.508,23.6320053 C16.859,23.6320053 17.145,23.9160053 17.145,24.2680053 C17.145,24.6200053 16.859,24.9050053 16.508,24.9070053 L15.691,24.9100053 L14.136,38.9700053 C14.106,39.2870053 13.871,39.5410053 13.566,39.6020053 L3.702,39.6150053 C3.384,39.6050053 3.115,39.3850053 3.037,39.0850053 L1.583,24.9050053 L0.639,24.9220053 C0.293,24.9290053 0.006,24.6530053 -2.20268248e-12,24.3070053 L-2.20268248e-12,24.2950053 C-2.20268248e-12,23.9420053 0.286,23.6550053 0.639,23.6550053 L4.758,23.6550053 L4.757,22.0940053 C4.774,21.8040053 4.893,21.5270053 5.095,21.3130053 C5.297,21.0990053 5.566,20.9660053 5.856,20.9320053 L11.156,20.8999896 Z M14.381,24.9340053 L2.91,24.9340053 L4.347,38.3070053 L12.913,38.3070053 L14.381,24.9340053 Z M8.5,26.3996053 C8.77614237,26.3996053 9,26.6234629 9,26.8996053 L9,26.8996053 L9,35.8996053 C9,36.1757477 8.77614237,36.3996053 8.5,36.3996053 C8.22385763,36.3996053 8,36.1757477 8,35.8996053 L8,35.8996053 L8,26.8996053 C8,26.6234629 8.22385763,26.3996053 8.5,26.3996053 Z M11.4416,26.4523053 C11.7456,26.4803053 11.9696,26.7483053 11.9456,27.0533053 L11.2406,35.8503053 C11.2181,36.1194053 11.00444,36.3269453 10.744691,36.3483053 L10.6566,36.3483053 C10.6536,36.3483053 10.6506,36.3483053 10.6476,36.3473053 C10.3436,36.3183053 10.1196,36.0513053 10.1436,35.7463053 L10.8496,26.9483053 C10.8703,26.6792053 11.08459,26.4724753 11.344483,26.4513053 L11.4326,26.4513053 C11.4356,26.4513053 11.4386,26.4513053 11.4416,26.4523053 Z M6.1386,26.9393053 C6.1396,26.9423053 6.1396,26.9453053 6.1396,26.9483053 L6.8446,35.7463053 C6.8696,36.0513053 6.6446,36.3183053 6.3406,36.3473053 C6.0426,36.3763053 5.7786,36.1573053 5.7496,35.8593053 C5.7496,35.8563053 5.7486,35.8533053 5.7486,35.8503053 L5.0436,27.0533053 C5.0196,26.7483053 5.2446,26.4803053 5.5476,26.4523053 C5.8456,26.4233053 6.1106,26.6423053 6.1386,26.9393053 Z M11.097,22.2380053 L6.002,22.2380053 L5.99,23.6550053 L11.097,23.6320053 L11.097,22.2380053 Z"/><use xlink:href="#a" fill="#FA0F00"/></g></svg>