<?xml version="1.0" encoding="UTF-8"?>
<svg width="42px" height="42px" viewBox="0 0 42 42" version="1.1" xmlns="http://www.w3.org/2000/svg" xmlns:xlink="http://www.w3.org/1999/xlink">
    <title> S_Illu_PDF-Document-Reviews_42</title>
    <g id="-S_Illu_PDF-Document-Reviews_42" stroke="none" stroke-width="1" fill="none" fill-rule="evenodd">
        <g id="Group" transform="translate(6.000000, 5.999262)" fill-rule="nonzero">
            <path d="M16.25,0 L16.25,1.5 L3.5300726,1.50093338 C2.45985714,1.50093338 1.58306538,2.3348185 1.50556822,3.39251888 L1.5,3.54507562 L1.5,27.4563998 C1.5,28.5340325 2.32814561,29.4169009 3.37856591,29.4949351 L3.5300726,29.500542 L21.4699274,29.500542 C22.5401429,29.500542 23.4169346,28.6666569 23.4944318,27.6089565 L23.5,27.4563998 L23.5001888,14.6652484 C23.975546,14.8336026 24.4918512,14.8878866 25.0001719,14.8072789 L25,27.4563998 C25,29.3464426 23.5252752,30.8943895 21.663826,30.9954859 L21.4699274,31.0007377 L3.5300726,31.0007377 C1.64324647,31.0007377 0.105627462,29.5157922 0.00521600137,27.6506558 L0,27.4563998 L0,3.54507562 C0,1.6550328 1.4747248,0.107085847 3.33617399,0.00598943098 L3.5300726,0.000737657396 L16.25,0 Z" id="Combined-Shape" fill="#8E8E8E"></path>
            <path d="M6.5087719,23.0007377 L18.7192982,23.0007377 C19.0002852,23.0007377 19.2280702,23.2293582 19.2280702,23.511376 C19.2280702,23.7933938 19.0002852,24.0220143 18.7192982,24.0220143 L6.5087719,24.0220143 C6.2277849,24.0220143 6,23.7933938 6,23.511376 C6,23.2293582 6.2277849,23.0007377 6.5087719,23.0007377 Z M6.5087719,26.0645675 L18.7192982,26.0645675 C19.0002852,26.0645675 19.2280702,26.293188 19.2280702,26.5752058 C19.2280702,26.8572236 19.0002852,27.0858441 18.7192982,27.0858441 L6.5087719,27.0858441 C6.2277849,27.0858441 6,26.8572236 6,26.5752058 C6,26.293188 6.2277849,26.0645675 6.5087719,26.0645675 Z" id="Shape" fill="#8E8E8E"></path>
            <path d="M8.87616952,16.516413 C7.89576176,18.0653839 6.93084798,19.0443557 6.36682849,19.0443557 C6.26275578,19.0443557 6.17729533,19.0137568 6.11512456,18.9559059 C6.001697,18.8521567 5.95979507,18.7393234 5.98620303,18.6021067 C6.09339402,18.0471202 7.21051901,17.2466736 8.87616952,16.516413 L8.87616952,16.516413 Z M13.5887726,14.3010567 C13.1677069,14.3878809 12.7326089,14.4885702 12.2913718,14.6028378 C11.9743789,14.6852634 11.6528059,14.7751475 11.3311355,14.871247 C11.5020564,14.5282531 11.658945,14.1882235 11.7956622,13.8649275 C11.975938,13.4380737 12.1452998,13.0111242 12.3007267,12.5934499 C12.4374439,12.803817 12.5788386,13.0081599 12.7232541,13.2047575 C13.0091617,13.593554 13.3170922,13.96533 13.6231711,14.2931201 L13.5887726,14.3010567 Z M11.4119185,6.92922134 C11.4911424,6.79506453 11.6186022,6.71426446 11.750642,6.71426446 C12.1220101,6.71426446 12.2027931,7.15335787 12.2027931,7.52083087 C12.2059114,8.10632063 12.0256356,9.03948976 11.7164384,10.0716271 C11.0933664,8.45237443 11.180386,7.31801791 11.4119185,6.92922134 L11.4119185,6.92922134 Z M18.3883952,15.3911405 C18.3339227,15.6671038 18.0434352,15.8454377 17.6456591,15.8454377 C17.5368116,15.8454377 17.4234815,15.8317639 17.3100539,15.8043205 C16.5797909,15.6336364 15.8805159,15.2873913 15.1828975,14.7477042 C15.8370548,14.6500748 16.3886012,14.6288468 16.7569484,14.6288468 C17.176455,14.6288468 17.5601987,14.6578201 17.8056661,14.7081169 C18.1210999,14.7721833 18.4768765,14.9428674 18.3883952,15.3911405 L18.3883952,15.3911405 Z M19.4449086,14.66088 C18.9802844,14.1714897 18.0915737,13.9228741 16.8035278,13.9228741 C16.1695418,13.9228741 15.4533111,13.9839762 14.6701348,14.1043635 C14.2459508,13.703423 13.8326808,13.2307665 13.4411414,12.6971035 C13.1614703,12.3174866 12.9035298,11.9241002 12.6720947,11.5245941 C13.1257075,10.1234539 13.3556809,8.9860374 13.3556809,8.142848 C13.3556809,7.10765085 12.9377335,6.00073766 11.7646743,6.00073766 C11.379274,6.00073766 10.9846163,6.22946402 10.78261,6.56949368 C10.2823204,7.41258746 10.4827675,9.14763755 11.2814378,10.9131909 C11.003326,11.7243471 10.7002678,12.5141798 10.3288997,13.3892111 C10.0166816,14.1286513 9.64531358,14.8849209 9.25221499,15.5832439 C8.05586612,16.055996 5.51222397,17.2024965 5.2698749,18.4694799 C5.19834927,18.8491924 5.32113168,19.2073901 5.61795327,19.4787636 C5.70955284,19.5641535 6.05919035,19.8416468 6.65429523,19.8416468 C8.18624934,19.8416468 9.71362348,17.7604473 10.7422672,15.9689806 C11.3264581,15.7738173 11.9231221,15.5970134 12.5166678,15.4429673 C13.1677069,15.2738131 13.7970154,15.1350664 14.3904637,15.0313172 C16.0126532,16.4203135 17.4545668,16.6306806 18.1770341,16.6306806 C19.169915,16.6306806 19.5411856,16.2083209 19.6764411,15.8530874 C19.8551577,15.3897062 19.6810211,14.9094 19.4449086,14.66088 L19.4449086,14.66088 Z" id="Shape" fill="#FA0F00"></path>
        </g>
        <path d="M40.133748,2.18832865 L25.8938693,2.24626855 C24.9866034,2.24626234 24.25,2.98646929 24.25,3.89782562 L24.25,12.3824488 L24.2560393,12.5248419 C24.3280184,13.3696712 25.0345149,14.0340121 25.8969212,14.0340121 L30.008,14.016 L30.0080583,17.7004518 C30.0080583,18.6310751 31.1295864,19.1039562 31.7934221,18.4483232 L36.277,14.01 L40.140557,13.9760475 C41.0440912,13.9760784 41.780303,13.2358475 41.780303,12.3245151 L41.780303,3.83989193 C41.780303,2.92855958 41.0440912,2.18832865 40.133748,2.18832865 Z M25.8969212,3.74626234 L40.133,3.688 C40.2138305,3.68832865 40.280303,3.75516409 40.280303,3.83989193 L40.280303,12.3245151 C40.280303,12.409243 40.2138305,12.4760784 40.133748,12.4760784 L35.960077,12.51394 C35.7652855,12.5157085 35.5788244,12.5931967 35.4401525,12.7300065 L31.508,16.616 L31.5080583,13.2639091 C31.5080583,12.8484837 31.1703785,12.5121975 30.7549568,12.5139155 L25.8938197,12.5340185 C25.8166736,12.5340121 25.75,12.4670123 25.75,12.3824488 L25.75,3.89782562 C25.75,3.81326216 25.8166736,3.74626234 25.8969212,3.74626234 Z" id="Stroke-1" fill="#8E8E8E" fill-rule="nonzero"></path>
    </g>
</svg>