<svg xmlns="http://www.w3.org/2000/svg" width="42" height="42" viewBox="0 0 42 42"><g fill="none" fill-rule="evenodd"><path fill="#8E8E8E" fill-rule="nonzero" d="M21.666,7.5 L11.967,7.5 C10.911,7.501 10.044,8.336 10.005,9.392 L10,33.456 C10,34.585 10.909,35.5 12.03,35.5 L29.97,35.5 C31.091,35.5 32,34.585 32,33.456 L32,16.367 C32,15.96 32.329,15.629 32.736,15.628 L32.759,15.628 C33.168,15.626 33.5,15.958 33.5,16.367 L33.5,33.456 C33.5,35.411 31.922,37 29.97,37 L12.03,37 C10.078,37 8.5,35.411 8.5,33.456 L8.5,9.544 C8.5,7.589 10.078,6 12.03,6 L21.666,6 C22.089,6 22.429,6.349 22.416,6.772 C22.404,7.177 22.072,7.5 21.666,7.5 Z"/><path fill="#FA0F00" fill-rule="nonzero" d="M16.6802721,29.75 C16.3047619,29.75 16,30.086 16,30.5 C16,30.914 16.3047619,31.25 16.6802721,31.25 L25.3197279,31.25 C25.6952381,31.25 26,30.914 26,30.5 C26,30.086 25.6952381,29.75 25.3197279,29.75 L16.6802721,29.75 Z"/><path fill="#FA0F00" fill-rule="nonzero" d="M24.0521143,17.3475975 L27.0401143,20.3465975 C27.4211143,20.7285975 27.4501143,21.3335975 27.1291143,21.7505975 L27.0411143,21.8505975 L24.0521143,24.8485975 C23.7601143,25.1425975 23.2851143,25.1435975 22.9911143,24.8505975 C22.7251143,24.5855975 22.6991143,24.1685975 22.9171143,23.8745975 L22.9891143,23.7905975 L24.9111143,21.8615975 L15.4031143,21.8625975 C14.9891143,21.8625975 14.6531143,21.5265975 14.6531143,21.1125975 C14.6531143,20.7325975 14.9351143,20.4195975 15.3011143,20.3695975 L15.4031143,20.3625975 L24.9381143,20.3615975 L22.9891143,18.4065975 C22.7231143,18.1395975 22.6991143,17.7225975 22.9181143,17.4295975 L22.9901143,17.3455975 C23.2581143,17.0795975 23.6741143,17.0565975 23.9681143,17.2745975 L24.0521143,17.3475975 Z" transform="rotate(90 21.001 21.098)"/><path fill="#8E8E8E" fill-rule="nonzero" d="M34.4840782,1.00236683 C32.5036142,1.06204089 31.1331974,2.23539919 30.4749909,3.71248411 L30.437,3.799 C30.2756577,3.77985019 30.1146566,3.76886463 29.9532021,3.76684434 L29.7514216,3.76950787 C27.7474497,3.84708271 26.1709723,5.43958171 26.1475138,7.35343938 L26.15,7.479 L26.1021319,7.49564316 C25.0478044,7.88562654 24.2627086,9.02689737 24.2499316,10.1024442 C24.2322367,11.5412178 25.2180553,12.8153482 26.9465979,12.9471795 L38.1715329,12.9493513 C40.1039019,12.9493513 41.7401367,11.6834347 41.7697589,9.275004 L41.7663681,9.07536187 C41.6900597,7.42011748 40.4249851,5.98457476 38.9103636,5.42116717 L38.852,5.401 L38.8520914,5.43525076 C38.8923807,3.03215499 37.0572153,1.04033862 34.7348318,1.00076704 L34.4840782,1.00236683 Z M26.779428,8.86276146 L26.8667911,8.85611654 L26.9484078,8.86557122 C27.4500458,8.90919191 27.840971,8.4596994 27.7511845,7.98242515 L27.726708,7.88673776 C27.672611,7.72015701 27.645759,7.54525769 27.6474237,7.36974507 C27.6614701,6.22400839 28.6628143,5.25123489 29.9346815,5.26672998 C30.1990823,5.27003848 30.4617628,5.31007192 30.7154497,5.38581992 C31.1201484,5.50665828 31.5447702,5.26964757 31.6543481,4.86175592 C31.9997394,3.57607541 33.0601963,2.47250683 34.7092767,2.50054934 C36.1869727,2.52572811 37.3789723,3.81947763 37.3523632,5.40687941 C37.3495449,5.54029127 37.3343655,5.67644543 37.3071577,5.80986817 C37.2224931,6.2250508 37.4983351,6.62788422 37.9160405,6.69906663 C39.1245568,6.90501348 40.2844542,8.0554363 40.2698709,9.25667568 C40.2514674,10.7529667 39.3513697,11.4493513 38.1715329,11.4493513 L27.0036327,11.4493513 C26.1801427,11.3843678 25.7412555,10.8171239 25.749822,10.1205764 C25.7560879,9.59312897 26.2781173,8.93735178 26.779428,8.86276146 Z"/></g></svg>