<?xml version="1.0" encoding="UTF-8"?>
<svg width="42px" height="42px" viewBox="0 0 42 42" version="1.1" xmlns="http://www.w3.org/2000/svg" xmlns:xlink="http://www.w3.org/1999/xlink">
    <title>S_Illu_Draw-On-Your-PDF_42</title>
    <g id="S_Illu_Draw-On-Your-PDF_42" stroke="none" stroke-width="1" fill="none" fill-rule="evenodd">
        <path d="M16.0788932,9.70927847 C15.7818932,9.42227847 15.3058932,9.43127847 15.0188932,9.73127847 C14.7318932,10.0302785 14.7418932,10.5042785 15.0408932,10.7912785 L16.8218932,12.5002785 L6.95710678,12.5002785 C6.54310678,12.5002785 6.20710678,12.8362785 6.20710678,13.2502785 C6.20710678,13.6642785 6.54310678,14.0002785 6.95710678,14.0002785 L16.8228932,14.0002785 L15.0418932,15.7092785 C14.7418932,15.9952785 14.7328932,16.4712785 15.0198932,16.7702785 C15.1668932,16.9232785 15.3638932,17.0002785 15.5608932,17.0002785 C15.7478932,17.0002785 15.9348932,16.9312785 16.0798932,16.7912785 L18.9898932,14.0002785 C19.1938932,13.8062785 19.3098932,13.5322785 19.3098932,13.2512785 C19.3098932,12.9692785 19.1938932,12.6952785 18.9908932,12.5032785 L16.0788932,9.70927847 Z" id="Path" fill="#FA0F00" fill-rule="nonzero" transform="translate(12.758500, 13.250139) scale(1, -1) rotate(-45.000000) translate(-12.758500, -13.250139) "></path>
        <path d="M21.6734138,5 C22.6617138,5 23.6125058,5.36574051 24.3450556,6.02174651 L24.5101492,6.1782508 L28.8305367,10.5141381 C29.5249931,11.2109042 29.9365534,12.1371974 29.9918046,13.1145808 L29.9981964,13.3409565 L29.9981964,16.1911957 C29.9981964,16.6054092 29.66241,16.9411957 29.2481964,16.9411957 C28.8685007,16.9411957 28.5547055,16.6590418 28.5050431,16.2929662 L28.4981964,16.1911957 L28.4981964,13.3409565 C28.4981964,12.7441945 28.285549,12.1695648 27.902124,11.7185772 L27.768048,11.5729666 L23.4476644,7.23708322 C23.0245017,6.81251932 22.4649305,6.55513303 21.8721104,6.50790141 L21.6734138,6.5 L8.70847826,6.5 C7.54174517,6.5 6.58641172,7.40474827 6.50554479,8.55076946 L6.5,8.70847826 L6.5,32.4324903 C6.5,33.5989011 7.40443998,34.5539122 8.55072925,34.6347517 L8.70847826,34.6402947 L26.2897182,34.6402947 C27.4566247,34.6402947 28.4117998,33.735997 28.4926526,32.5901737 L28.4981964,32.4324903 L28.4981964,30.5232077 C28.4981964,30.1089941 28.8339829,29.7732077 29.2481964,29.7732077 C29.6278922,29.7732077 29.9416874,30.0553616 29.9913498,30.4214371 L29.9981964,30.5232077 L29.9981964,32.4324903 C29.9981964,34.4143381 28.4434196,36.0328009 26.4866884,36.1351556 L26.2897182,36.1402947 L8.70847826,36.1402947 C6.7262311,36.1402947 5.10751077,34.5857624 5.00513989,32.6294211 L5,32.4324903 L5,8.70847826 C5,6.72655716 6.55484775,5.10753181 8.51151486,5.00514091 L8.70847826,5 L21.6734138,5 Z" id="Stroke-1-Copy" fill="#8E8E8E" fill-rule="nonzero"></path>
        <path d="M22.271322,17.9790404 C20.4770434,17.9517974 18.9991919,19.400643 18.972067,21.2058472 C18.9449398,23.0102787 20.3786386,24.5022768 22.1727792,24.5295177 C23.9670593,24.5567607 25.4441878,23.1086353 25.4713126,21.3034325 C25.4984421,19.4988566 24.0653241,18.0062791 22.271322,17.9790404 Z M22.2485498,19.4788675 C23.2107873,19.4934774 23.9862123,20.3010744 23.971482,21.2808903 C23.9567529,22.2611378 23.1579032,23.0443022 22.1955515,23.0296906 C21.2329063,23.0150745 20.4571735,22.2077977 20.4718976,21.2283894 C20.4866268,20.2481379 21.2862021,19.4642559 22.2485498,19.4788675 Z" id="Stroke-3-Copy" fill="#FA0F00" fill-rule="nonzero"></path>
        <path d="M38.2389341,8.29603659 C38.8565637,7.44992268 40.0489099,7.24709126 40.9253166,7.83857803 C41.760107,8.41297724 41.9959112,9.51709671 41.4827942,10.372742 L41.3955302,10.5056655 L30.3310989,25.6397674 L30.2012113,25.7770759 L26.4792763,28.8290923 C25.9051008,29.2999208 25.0923997,28.7419248 25.2765936,28.0623232 L25.3080061,27.9689817 L27.0868654,23.5516597 L27.1186886,23.4826673 L27.1776452,23.3884684 L38.2389341,8.29603659 Z M40.0806345,9.07812078 C39.9016118,8.95730597 39.660616,8.97939349 39.5088014,9.11607279 L39.4496387,9.18158293 L28.4417138,24.1991437 L27.7927138,25.8121437 L29.1747138,24.6781437 L40.1802579,9.62642859 C40.2926983,9.46937599 40.2733395,9.26458346 40.1431529,9.13077511 L40.0806345,9.07812078 Z" id="Shape" fill="#8E8E8E" fill-rule="nonzero"></path>
        <path d="M10.509,27.547 L9.30981742,30.3696481 L9.27596833,30.4662089 C9.13267097,30.9818815 9.57511392,31.4958442 10.1252988,31.4026173 L13.147,30.89 L15.9696481,32.0901826 L16.0662089,32.1240317 C16.5818815,32.267329 17.0958442,31.8248861 17.0026173,31.2747012 L16.49,28.252 L17.6901826,25.4303519 L17.7240317,25.3337911 C17.867329,24.8181185 17.4248861,24.3041558 16.8747012,24.3973827 L13.852,24.909 L11.0303519,23.7098174 C10.4847357,23.4777865 9.89832909,23.9407274 9.99738271,24.5252988 L10.509,27.547 Z M11.705,25.627 L13.4668411,26.3759721 L13.5680842,26.4107268 C13.6712884,26.4380982 13.7795678,26.4432241 13.8856497,26.4252489 L15.772,26.105 L15.0240279,27.8668411 L14.9892732,27.9680842 C14.9619018,28.0712884 14.9567759,28.1795678 14.9747511,28.2856497 L15.294,30.172 L13.5331589,29.4240279 L13.4319158,29.3892732 C13.3287116,29.3619018 13.2204322,29.3567759 13.1143503,29.3747511 L11.227,29.694 L11.9759721,27.9331589 C12.0321141,27.8011419 12.0492158,27.6557929 12.0252489,27.5143503 L11.705,25.627 Z" id="Stroke-1" fill="#FA0F00" fill-rule="nonzero"></path>
    </g>
</svg>