<svg xmlns="http://www.w3.org/2000/svg" width="42" height="42" viewBox="0 0 42 42"><g fill="none" transform="translate(4 9)"><path fill="#FA0F00" d="M12,10.2501641 C11.9944721,9.9128188 11.8606723,9.5915868 11.6280456,9.357161 C11.3954189,9.1227351 11.0830286,8.9943261 10.7596216,9.0001925 L8.2403784,9.0001925 C7.9169714,8.9943261 7.6045811,9.1227351 7.3719544,9.357161 C7.1393277,9.5915868 7.0055279,9.9128188 7,10.2501641 L7,16.5710555 L9.5,20.25 L12,16.4232693 L12,10.2501641 Z"/><path fill="#8E8E8E" d="M12.2666667,19.5103053 C12.2666667,19.2284714 12.48728,19 12.7594203,19 L26.2405797,19 C26.51272,19 26.7333333,19.2284714 26.7333333,19.5103053 C26.7333333,19.7921391 26.51272,20.0206106 26.2405797,20.0206106 L12.7594203,20.0206106 C12.48728,20.0206106 12.2666667,19.7921391 12.2666667,19.5103053 Z M17.9799901,8.4268838 C18.3845381,8.5158435 18.6403729,8.9159105 18.5514132,9.3204584 L17.1457734,15.412345 L17.0551441,15.7775741 C17.637096,15.353535 18.2656177,14.6926573 18.5210313,14.3153417 L18.5210313,14.2430917 C17.9710281,12.1108136 21.1364813,12.3546573 20.065375,14.3875917 L20.065375,14.4598417 C20.2008438,14.974623 20.4829784,15.6046644 20.6704688,15.7964667 C20.8117203,15.9409667 21.2493719,15.8145292 21.1400938,15.4984355 C20.8285156,14.5971167 21.4372219,12.7141011 22.5164563,12.922723 C22.8442906,12.9859417 23.0294313,13.2424292 23.1540625,13.7192792 C23.2705656,14.1672292 23.2172812,14.902373 22.7476562,15.7151855 C22.9463437,15.9409667 23.1540625,16.0132167 23.2172813,16.0132167 C24.0084188,16.0132167 24.36425,14.2430917 24.36425,14.2430917 L25.3170469,15.3584511 L25.1680313,15.7964667 C24.6261563,17.2685605 23.61285,17.6162636 22.9463438,17.4943417 C22.5164563,17.4220917 22.2238438,17.214373 22.0070938,16.8350605 C21.7451875,17.1963105 21.2123438,17.4491855 20.60725,17.4220917 C20.3363125,17.4040292 19.9299063,17.2685605 19.59575,16.8260292 C19.3970625,16.527998 19.2615938,16.238998 19.0629063,15.9409667 C18.8148757,16.3216648 17.9743567,16.9140821 17.6421415,17.1268615 C17.3263167,17.3291431 16.8924688,17.5974475 16.0965617,17.5974475 C15.5610183,17.5974475 15.1270433,17.1733067 15.271586,16.6535303 L15.3799668,16.2559547 L17.0864155,8.998307 C17.1753752,8.593759 17.5754421,8.3379242 17.9799901,8.4268838 Z"/><path fill="#8E8E8E" d="M1.523,5.717 L32.478,5.717 L32.478,1.576 L1.523,1.576 L1.523,5.717 Z M1.522,23.619 L32.376,23.619 L32.376,6.703 L1.522,6.703 L1.522,23.619 Z M0,1.281 C0,0.59 0.507,0.098 1.218,0 L32.681,0 C33.391,0 33.898,0.493 34,1.183 L34,23.719 C34,24.407 33.492,24.9 32.781,25 L1.319,25 C0.609,25 0.102,24.507 0,23.817 L0,1.281 Z"/><path fill="#8E8E8E" d="M7.5,3 C7.777,3 8,3.224 8,3.5 C8,3.746 7.824,3.95 7.59,3.992 L7.5,4 L4.5,4 C4.224,4 4,3.776 4,3.5 C4,3.254 4.177,3.05 4.41,3.008 L4.5,3 L7.5,3 Z"/></g></svg>