<svg xmlns="http://www.w3.org/2000/svg" width="42" height="42" viewBox="0 0 42 42"><g fill="none" fill-rule="evenodd"><path fill="#8E8E8E" fill-rule="nonzero" d="M23.497781,5 C24.2343249,5.00065345 24.9424676,5.27103667 25.4788681,5.74325122 L25.6207934,5.87699008 L27.0452329,7.26907916 C26.5564165,7.45232222 26.1467428,7.79023468 25.8723057,8.22090633 L24.57239,6.94990701 C24.2871296,6.66231156 23.900122,6.50055355 23.4964516,6.50019572 L9.5300726,6.50019572 C8.45985714,6.50019572 7.58306538,7.33408084 7.50556822,8.39178123 L7.5,8.54433796 L7.5,32.4556621 C7.5,33.5332949 8.32814561,34.4161632 9.37856591,34.4941975 L9.5300726,34.4998043 L27.4699274,34.4998043 C28.5401429,34.4998043 29.4169346,33.6659192 29.4944318,32.6082188 L29.5,32.4556621 L29.5,22.658 L31,24.162 L31,32.4556621 C31,34.3457049 29.5252752,35.8936518 27.663826,35.9947482 L27.4699274,36 L9.5300726,36 C7.64324647,36 6.10562746,34.5150545 6.005216,32.6499182 L6,32.4556621 L6,8.54433796 C6,6.65429514 7.4747248,5.10634819 9.33617399,5.00525177 L9.5300726,5 L23.497781,5 Z"/><path fill="#8E8E8E" fill-rule="nonzero" d="M12.5087719,28 L24.7192982,28 C25.0002852,28 25.2280702,28.2286205 25.2280702,28.5106383 C25.2280702,28.7926561 25.0002852,29.0212766 24.7192982,29.0212766 L12.5087719,29.0212766 C12.2277849,29.0212766 12,28.7926561 12,28.5106383 C12,28.2286205 12.2277849,28 12.5087719,28 Z M12.5087719,31.0638298 L24.7192982,31.0638298 C25.0002852,31.0638298 25.2280702,31.2924503 25.2280702,31.5744681 C25.2280702,31.8564859 25.0002852,32.0851064 24.7192982,32.0851064 L12.5087719,32.0851064 C12.2277849,32.0851064 12,31.8564859 12,31.5744681 C12,31.2924503 12.2277849,31.0638298 12.5087719,31.0638298 Z"/><path fill="#FA0F00" fill-rule="nonzero" d="M14.8761695,21.5156753 C13.8957618,23.0646462 12.930848,24.043618 12.3668285,24.043618 C12.2627558,24.043618 12.1772953,24.0130191 12.1151246,23.9551682 C12.001697,23.851419 11.9597951,23.7385857 11.986203,23.601369 C12.093394,23.0463825 13.210519,22.2459359 14.8761695,21.5156753 L14.8761695,21.5156753 Z M19.5887726,19.300319 C19.1677069,19.3871432 18.7326089,19.4878325 18.2913718,19.6021001 C17.9743789,19.6845257 17.6528059,19.7744098 17.3311355,19.8705093 C17.5020564,19.5275154 17.658945,19.1874858 17.7956622,18.8641898 C17.975938,18.437336 18.1452998,18.0103865 18.3007267,17.5927122 C18.4374439,17.8030793 18.5788386,18.0074222 18.7232541,18.2040198 C19.0091617,18.5928163 19.3170922,18.9645923 19.6231711,19.2923824 L19.5887726,19.300319 Z M17.4119185,11.9284837 C17.4911424,11.7943269 17.6186022,11.7135268 17.750642,11.7135268 C18.1220101,11.7135268 18.2027931,12.1526202 18.2027931,12.5200932 C18.2059114,13.105583 18.0256356,14.0387521 17.7164384,15.0708894 C17.0933664,13.4516368 17.180386,12.3172802 17.4119185,11.9284837 L17.4119185,11.9284837 Z M24.3883952,20.3904028 C24.3339227,20.6663661 24.0434352,20.8447 23.6456591,20.8447 C23.5368116,20.8447 23.4234815,20.8310262 23.3100539,20.8035828 C22.5797909,20.6328987 21.8805159,20.2866536 21.1828975,19.7469665 C21.8370548,19.6493371 22.3886012,19.6281091 22.7569484,19.6281091 C23.176455,19.6281091 23.5601987,19.6570824 23.8056661,19.7073792 C24.1210999,19.7714456 24.4768765,19.9421297 24.3883952,20.3904028 L24.3883952,20.3904028 Z M25.4449086,19.6601423 C24.9802844,19.170752 24.0915737,18.9221364 22.8035278,18.9221364 C22.1695418,18.9221364 21.4533111,18.9832385 20.6701348,19.1036258 C20.2459508,18.7026853 19.8326808,18.2300288 19.4411414,17.6963658 C19.1614703,17.3167489 18.9035298,16.9233625 18.6720947,16.5238564 C19.1257075,15.1227162 19.3556809,13.9852997 19.3556809,13.1421103 C19.3556809,12.1069132 18.9377335,11 17.7646743,11 C17.379274,11 16.9846163,11.2287264 16.78261,11.568756 C16.2823204,12.4118498 16.4827675,14.1468999 17.2814378,15.9124532 C17.003326,16.7236094 16.7002678,17.5134421 16.3288997,18.3884734 C16.0166816,19.1279136 15.6453136,19.8841832 15.252215,20.5825062 C14.0558661,21.0552583 11.512224,22.2017588 11.2698749,23.4687422 C11.1983493,23.8484547 11.3211317,24.2066524 11.6179533,24.4780259 C11.7095528,24.5634158 12.0591904,24.8409091 12.6542952,24.8409091 C14.1862493,24.8409091 15.7136235,22.7597096 16.7422672,20.9682429 C17.3264581,20.7730796 17.9231221,20.5962757 18.5166678,20.4422296 C19.1677069,20.2730754 19.7970154,20.1343287 20.3904637,20.0305795 C22.0126532,21.4195758 23.4545668,21.6299429 24.1770341,21.6299429 C25.169915,21.6299429 25.5411856,21.2075832 25.6764411,20.8523497 C25.8551577,20.3889685 25.6810211,19.9086623 25.4449086,19.6601423 L25.4449086,19.6601423 Z"/><path fill="#8E8E8E" fill-rule="nonzero" d="M4.75 3C5.1642136 3 5.5 3.3357864 5.5 3.75 5.5 4.1296958 5.2178461 4.443491 4.8517706 4.4931534L4.75 4.5 3.95 4.5C3.5357864 4.5 3.2 4.1642136 3.2 3.75 3.2 3.3703042 3.4821539 3.056509 3.8482294 3.0068466L3.95 3 4.75 3ZM1.55 3C1.9642136 3 2.3 3.3357864 2.3 3.75 2.3 4.1296958 2.0178461 4.443491 1.6517706 4.4931534L1.55 4.5.75 4.5C.3357864 4.5-8.73034978e-12 4.1642136-8.73034978e-12 3.75-8.73034978e-12 3.3703042.2821539 3.056509.6482294 3.0068466L.75 3 1.55 3ZM2.75 1C3.1296958 1 3.443491 1.2821539 3.4931534 1.6482294L3.5 1.75 3.5 2.55C3.5 2.9642136 3.1642136 3.3 2.75 3.3 2.3703042 3.3 2.056509 3.0178461 2.0068466 2.6517706L2 2.55 2 1.75C2 1.3357864 2.3357864 1 2.75 1ZM2.75 4.2C3.1296958 4.2 3.443491 4.4821539 3.4931534 4.8482294L3.5 4.95 3.5 5.75C3.5 6.1642136 3.1642136 6.5 2.75 6.5 2.3703042 6.5 2.056509 6.2178461 2.0068466 5.8517706L2 5.75 2 4.95C2 4.5357864 2.3357864 4.2 2.75 4.2ZM37.8157895 5.1968085C38.2021466 5.1968085 38.5214469 5.4849657 38.5719806 5.85883L38.5789474 5.962766 38.5789474 6.9840426C38.5789474 7.4070692 38.2372699 7.75 37.8157895 7.75 37.4294324 7.75 37.110132 7.4618428 37.0595983 7.0879785L37.0526316 6.9840426 37.0526316 5.962766C37.0526316 5.5397393 37.394309 5.1968085 37.8157895 5.1968085ZM35.7807017 3.1542553C36.2021822 3.1542553 36.5438596 3.4971861 36.5438596 3.9202128 36.5438596 4.3079872 36.2567557 4.6284589 35.8842578 4.6791779L35.7807017 4.6861702 34.7631579 4.6861702C34.3416774 4.6861702 34 4.3432394 34 3.9202128 34 3.5324383 34.2871039 3.2119666 34.6596019 3.1612476L34.7631579 3.1542553 35.7807017 3.1542553ZM40.868421 3.1542553C41.2899015 3.1542553 41.6315789 3.4971861 41.6315789 3.9202128 41.6315789 4.3079872 41.344475 4.6284589 40.9719771 4.6791779L40.868421 4.6861702 39.8508772 4.6861702C39.4293967 4.6861702 39.0877193 4.3432394 39.0877193 3.9202128 39.0877193 3.5324383 39.3748232 3.2119666 39.7473212 3.1612476L39.8508772 3.1542553 40.868421 3.1542553ZM37.8157895.0904255C38.2021466.0904255 38.5214469.3785827 38.5719806.752447L38.5789474.856383 38.5789474 1.8776596C38.5789474 2.3006862 38.2372699 2.643617 37.8157895 2.643617 37.4294324 2.643617 37.110132 2.3554598 37.0595983 1.9815955L37.0526316 1.8776596 37.0526316.856383C37.0526316.4333563 37.394309.0904255 37.8157895.0904255Z"/><path fill="#FA0F00" fill-rule="nonzero" d="M27.0440091,12.1934473 L40.8745964,26.0657556 C41.5965891,26.7904935 41.5751153,27.9601446 40.8271081,28.6579811 L40.6895171,28.7733232 C39.9224757,29.3323243 38.9023357,29.2558218 38.2606177,28.6121118 L24.4305044,14.7402684 C23.7083148,14.0161455 23.7297801,12.8467136 24.4769117,12.1481449 L24.6157638,12.031865 L24.6522556,12.0036472 C25.3830272,11.4736607 26.4024352,11.5498819 27.0440091,12.1934473 Z M29.4524187,16.733819 L28.9664187,17.165819 L39.3228974,27.5530736 C39.441086,27.6716292 39.636189,27.6862604 39.7713291,27.5880841 L39.8381135,27.531121 C39.9320672,27.4415762 39.9356109,27.2485568 39.8121328,27.1246092 L29.4524187,16.733819 Z M25.6050891,13.1780672 L25.5398242,13.214 L25.4659524,13.2749005 C25.3727543,13.3640673 25.369207,13.5573223 25.4926713,13.6811171 L27.9064187,16.101819 L28.3914187,15.669819 L25.9817296,13.2524857 C25.883325,13.1537756 25.7315267,13.1272003 25.6050891,13.1780672 Z"/><path fill="#8E8E8E" fill-rule="nonzero" d="M29.75,10.2 C30.1296958,10.2 30.443491,10.4821539 30.4931534,10.8482294 L30.5,10.95 L30.5,11.75 C30.5,12.1642136 30.1642136,12.5 29.75,12.5 C29.3703042,12.5 29.056509,12.2178461 29.0068466,11.8517706 L29,11.75 L29,10.95 C29,10.5357864 29.3357864,10.2 29.75,10.2 Z M31.75,9 C32.1642136,9 32.5,9.3357864 32.5,9.75 C32.5,10.1296958 32.2178461,10.443491 31.8517706,10.4931534 L31.75,10.5 L30.95,10.5 C30.5357864,10.5 30.2,10.1642136 30.2,9.75 C30.2,9.3703042 30.4821539,9.056509 30.8482294,9.0068466 L30.95,9 L31.75,9 Z M28.55,9 C28.9642136,9 29.3,9.3357864 29.3,9.75 C29.3,10.1296958 29.0178461,10.443491 28.6517706,10.4931534 L28.55,10.5 L27.75,10.5 C27.3357864,10.5 27,10.1642136 27,9.75 C27,9.3703042 27.2821539,9.056509 27.6482294,9.0068466 L27.75,9 L28.55,9 Z M29.75,7 C30.1296958,7 30.443491,7.2821539 30.4931534,7.6482294 L30.5,7.75 L30.5,8.55 C30.5,8.9642136 30.1642136,9.3 29.75,9.3 C29.3703042,9.3 29.056509,9.0178461 29.0068466,8.6517706 L29,8.55 L29,7.75 C29,7.3357864 29.3357864,7 29.75,7 Z"/></g></svg>