<svg xmlns="http://www.w3.org/2000/svg" width="42" height="42" viewBox="0 0 42 42"><g fill="none" fill-rule="evenodd"><path fill="#8E8E8E" d="M31.951,9.7591 L31.951,9.7591 C31.946,10.1701 31.612,10.5001 31.201,10.5001 L5.5,10.5001 L5.5,33.5001 L36.5,33.5001 L36.5,18.9861 C36.5,18.5761 36.83,18.2411 37.24,18.2361 L37.24,18.2361 C37.658,18.2301 38,18.5681 38,18.9861 L38,34.0001 C38,34.5521 37.552,35.0001 37,35.0001 L5,35.0001 C4.448,35.0001 4,34.5521 4,34.0001 L4,10.0001 C4,9.4481 4.448,9.0001 5,9.0001 L31.201,9.0001 C31.619,9.0001 31.956,9.3411 31.951,9.7591"/><path fill="#FA0F00" d="M40.3305,6.5781 C40.1515,6.4571 39.9105,6.4791 39.7585,6.6161 L39.6995,6.6811 L28.6915,21.6991 L28.0425,23.3121 L29.4245,22.1781 L40.4305,7.1261 C40.5425,6.9691 40.5235,6.7641 40.3935,6.6311 L40.3305,6.5781 Z M38.4885,5.7961 C39.1065,4.9501 40.2985,4.7471 41.1755,5.3381 C42.0095,5.9131 42.2455,7.0171 41.7325,7.8731 L41.6455,8.0061 L30.5805,23.1401 L30.4515,23.2771 L26.7295,26.3291 C26.1545,26.8001 25.3425,26.2421 25.5265,25.5621 L25.5575,25.4691 L27.3365,21.0521 L27.3685,20.9831 L27.4275,20.8881 L38.4885,5.7961 Z"/><path fill="#8E8E8E" d="M23.0987 24 20.7347 24C20.3047 24 19.9477 24.309 19.9477 24.699 19.9477 25.089 20.3047 25.398 20.7347 25.398L23.0987 25.398C23.5287 25.398 23.8847 25.089 23.8847 24.699 23.8847 24.309 23.5287 24 23.0987 24M25.0987 20.5 20.7347 20.5C20.3047 20.5 19.9477 20.809 19.9477 21.199 19.9477 21.589 20.3047 21.898 20.7347 21.898L25.0987 21.898C25.5287 21.898 25.8847 21.589 25.8847 21.199 25.8847 20.809 25.5287 20.5 25.0987 20.5M30.1457 28.602 11.7587 28.602C11.3437 28.602 11.0047 28.914 11.0047 29.301 11.0047 29.688 11.3437 30 11.7587 30L30.1457 30C30.3447 30 30.5367 29.927 30.6777 29.797 30.8197 29.666 30.8997 29.487 30.8997 29.301 30.8997 29.115 30.8197 28.936 30.6777 28.805 30.5367 28.675 30.3447 28.602 30.1457 28.602M19.5357 15 10.4367 15C10.1487 15.019 9.9197 15.242 9.8997 15.522L9.8997 18.676C9.9197 18.964 10.1487 19.187 10.4367 19.206L10.9357 19.206 11.0317 19.192C11.2807 19.137 11.4627 18.933 11.4807 18.684L11.4807 16.54 14.2177 16.54 14.2177 24.187 12.3207 24.188C11.9867 24.209 11.7267 24.462 11.7057 24.779L11.7057 25.265C11.7377 25.584 12.0107 25.812 12.3267 25.796L17.6507 25.796C17.9477 25.776 18.1767 25.553 18.1957 25.273L18.1967 24.718 18.1797 24.626C18.1087 24.357 17.8587 24.173 17.5747 24.188L15.8107 24.187 15.8107 16.54 18.4197 16.54 18.4207 18.744C18.4147 18.883 18.4707 19.022 18.5747 19.124 18.6797 19.226 18.8227 19.281 18.9707 19.274L19.5267 19.275C19.6697 19.281 19.8137 19.226 19.9177 19.124 20.0217 19.022 20.0777 18.883 20.0717 18.739L20.0717 15.53C20.0517 15.242 19.8237 15.019 19.5357 15"/></g></svg>