<?xml version="1.0" encoding="UTF-8"?>
<svg width="42px" height="42px" viewBox="0 0 42 42" version="1.1" xmlns="http://www.w3.org/2000/svg" xmlns:xlink="http://www.w3.org/1999/xlink">
    <title>S_Illu_Edit-PDFs-Easily-Online_42</title>
    <g id="S_Illu_Edit-PDFs-Easily-Online_42" stroke="none" stroke-width="1" fill="none" fill-rule="evenodd">
        <path d="M34.5887232,7.9993241 C33.9458706,8.37968553 33.4119065,8.92452935 33.0448169,9.57581926 L4.523,9.576 L4.523,13.717 L22.5228049,13.7166421 C22.5610018,14.0533048 22.6473997,14.3857402 22.7822209,14.702898 L4.522,14.703 L4.522,31.619 L35.376,31.619 L35.375,27.695 L37,29.325 L37,31.719 C37,32.407 36.492,32.9 35.781,33 L4.319,33 C3.609,33 3.102,32.507 3,31.817 L3,9.281 C3,8.59 3.507,8.098 4.218,8 Z M10.5,11 C10.777,11 11,11.224 11,11.5 C11,11.746 10.824,11.95 10.59,11.992 L10.5,12 L7.5,12 C7.224,12 7,11.776 7,11.5 C7,11.254 7.177,11.05 7.41,11.008 L7.5,11 L10.5,11 Z" id="Combined-Shape" fill="#8E8E8E" fill-rule="nonzero"></path>
        <path d="M16.5011292,25.7501664 C15.5545286,27.1863769 14.6228877,28.0940825 14.0783172,28.0940825 C13.9778332,28.0940825 13.8953196,28.0657112 13.8352927,28.0120716 C13.7257764,27.9158751 13.6853194,27.8112557 13.7108167,27.684028 C13.8143115,27.1694428 14.8929149,26.4272662 16.5011292,25.7501664 L16.5011292,25.7501664 Z M21.0512287,23.6960812 C20.6446825,23.7765849 20.2245879,23.8699443 19.7985659,23.9758936 C19.4925037,24.0523189 19.1820195,24.1356597 18.8714412,24.2247634 C19.0364682,23.9067384 19.1879469,23.5914619 19.3199498,23.2917009 C19.4940091,22.8959207 19.6575308,22.5000518 19.8075982,22.112783 C19.939601,22.307836 20.07612,22.4973033 20.2155557,22.6795892 C20.4916044,23.0400826 20.7889166,23.3847944 21.0844411,23.6887224 L21.0512287,23.6960812 Z M18.9494386,16.8608929 C19.0259306,16.7365023 19.1489953,16.6615842 19.276482,16.6615842 C19.6350442,16.6615842 19.7130416,17.068713 19.7130416,17.4094351 C19.7160524,17.952303 19.541993,18.8175403 19.2434577,19.7745411 C18.641871,18.2731651 18.7258899,17.2213863 18.9494386,16.8608929 L18.9494386,16.8608929 Z M25.6853471,24.7068103 C25.632753,24.9626843 25.3522822,25.128036 24.9682226,25.128036 C24.8631284,25.128036 24.7537062,25.1153576 24.64419,25.0899121 C23.9391085,24.9316532 23.2639464,24.6106137 22.5903838,24.1102141 C23.221984,24.0196918 23.7545115,24.0000092 24.1101571,24.0000092 C24.5151979,24.0000092 24.8857091,24.0268733 25.1227121,24.0735087 C25.4272689,24.1329112 25.7707773,24.2911701 25.6853471,24.7068103 L25.6853471,24.7068103 Z M26.705429,24.0297105 C26.2568263,23.5759463 25.3987608,23.3454292 24.1551303,23.3454292 C23.5430059,23.3454292 22.8514728,23.4020832 22.0953025,23.5137067 C21.6857456,23.1419534 21.2867263,22.7037049 20.9086882,22.2088909 C20.638661,21.856909 20.389615,21.4921599 20.1661604,21.1217365 C20.6041314,19.8225951 20.8261747,18.7679791 20.8261747,17.9861713 C20.8261747,17.0263333 20.4226392,16 19.2900304,16 C18.9179197,16 18.5368709,16.2120758 18.3418303,16.5273523 C17.8587921,17.3090715 18.0523273,18.9178152 18.8234572,20.5548417 C18.5549354,21.3069482 18.2623275,22.0392835 17.9037653,22.8506152 C17.6023133,23.5362264 17.243751,24.2374419 16.8642076,24.8849291 C15.7091121,25.3232663 13.2531818,26.3863051 13.0191896,27.561056 C12.9501303,27.9131266 13.0686789,28.2452486 13.3552652,28.4968669 C13.4437062,28.5760407 13.7812872,28.8333333 14.3558713,28.8333333 C15.8349994,28.8333333 17.3097054,26.9036388 18.3028787,25.2425853 C18.866925,25.0616294 19.4430144,24.8976962 20.0160931,24.7548642 C20.6446825,24.5980239 21.2522908,24.4693776 21.8252753,24.373181 C23.3915272,25.6610626 24.7837197,25.8561156 25.4812743,25.8561156 C26.4399179,25.8561156 26.7983861,25.4645024 26.9289777,25.1351289 C27.1015316,24.7054804 26.9333997,24.260139 26.705429,24.0297105 L26.705429,24.0297105 Z" id="Fill-4-Copy-3" fill="#FA0F00"></path>
        <g id="Group-28" transform="translate(-0.000000, 0.909575)" fill="#8E8E8E" fill-rule="nonzero">
            <path d="M4.75,2 C5.1642136,2 5.5,2.3357864 5.5,2.75 C5.5,3.1296958 5.2178461,3.443491 4.8517706,3.4931534 L4.75,3.5 L3.95,3.5 C3.5357864,3.5 3.2,3.1642136 3.2,2.75 C3.2,2.3703042 3.4821539,2.056509 3.8482294,2.0068466 L3.95,2 L4.75,2 Z" id="Path"></path>
            <path d="M1.55,2 C1.9642136,2 2.3,2.3357864 2.3,2.75 C2.3,3.1296958 2.0178461,3.443491 1.6517706,3.4931534 L1.55,3.5 L0.75,3.5 C0.3357864,3.5 0,3.1642136 0,2.75 C0,2.3703042 0.2821539,2.056509 0.6482294,2.0068466 L0.75,2 L1.55,2 Z" id="Path"></path>
            <path d="M2.75,0 C3.1296958,0 3.443491,0.2821539 3.4931534,0.6482294 L3.5,0.75 L3.5,1.55 C3.5,1.9642136 3.1642136,2.3 2.75,2.3 C2.3703042,2.3 2.056509,2.0178461 2.0068466,1.6517706 L2,1.55 L2,0.75 C2,0.3357864 2.3357864,0 2.75,0 Z" id="Path"></path>
            <path d="M2.75,3.2 C3.1296958,3.2 3.443491,3.4821539 3.4931534,3.8482294 L3.5,3.95 L3.5,4.75 C3.5,5.1642136 3.1642136,5.5 2.75,5.5 C2.3703042,5.5 2.056509,5.2178461 2.0068466,4.8517706 L2,4.75 L2,3.95 C2,3.5357864 2.3357864,3.2 2.75,3.2 Z" id="Path"></path>
        </g>
        <g id="Group-30" transform="translate(34.000000, 0.000000)" fill="#8E8E8E" fill-rule="nonzero">
            <path d="M3.81578947,5.106383 C4.20214657,5.106383 4.52144694,5.3945402 4.57198063,5.7684045 L4.57894737,5.8723405 L4.57894737,6.8936171 C4.57894737,7.3166437 4.23726994,7.6595745 3.81578947,7.6595745 C3.42943237,7.6595745 3.11013201,7.3714173 3.05959832,6.997553 L3.05263158,6.8936171 L3.05263158,5.8723405 C3.05263158,5.4493138 3.39430901,5.106383 3.81578947,5.106383 Z" id="Path"></path>
            <path d="M1.78070175,3.0638298 C2.20218222,3.0638298 2.54385965,3.4067606 2.54385965,3.8297873 C2.54385965,4.2175617 2.2567557,4.5380334 1.88425776,4.5887524 L1.78070175,4.5957447 L0.763157895,4.5957447 C0.341677428,4.5957447 0,4.2528139 0,3.8297873 C0,3.4420128 0.28710395,3.1215411 0.659601889,3.0708221 L0.763157895,3.0638298 L1.78070175,3.0638298 Z" id="Path"></path>
            <path d="M6.86842105,3.0638298 C7.28990152,3.0638298 7.63157895,3.4067606 7.63157895,3.8297873 C7.63157895,4.2175617 7.344475,4.5380334 6.97197706,4.5887524 L6.86842105,4.5957447 L5.85087719,4.5957447 C5.42939673,4.5957447 5.0877193,4.2528139 5.0877193,3.8297873 C5.0877193,3.4420128 5.37482325,3.1215411 5.74732118,3.0708221 L5.85087719,3.0638298 L6.86842105,3.0638298 Z" id="Path"></path>
            <path d="M3.81578947,0 C4.20214657,0 4.52144694,0.2881572 4.57198063,0.6620215 L4.57894737,0.7659575 L4.57894737,1.7872341 C4.57894737,2.2102607 4.23726994,2.5531915 3.81578947,2.5531915 C3.42943237,2.5531915 3.11013201,2.2650343 3.05959832,1.89117 L3.05263158,1.7872341 L3.05263158,0.7659575 C3.05263158,0.3429308 3.39430901,0 3.81578947,0 Z" id="Path"></path>
        </g>
        <path d="M37.75,14.1095745 C38.1296958,14.1095745 38.443491,14.3917284 38.4931534,14.7578039 L38.5,14.8595745 L38.5,15.6595745 C38.5,16.0737881 38.1642136,16.4095745 37.75,16.4095745 C37.3703042,16.4095745 37.056509,16.1274206 37.0068466,15.7613451 L37,15.6595745 L37,14.8595745 C37,14.4453609 37.3357864,14.1095745 37.75,14.1095745 Z M39.75,12.9095745 C40.1642136,12.9095745 40.5,13.2453609 40.5,13.6595745 C40.5,14.0392703 40.2178461,14.3530655 39.8517706,14.4027279 L39.75,14.4095745 L38.95,14.4095745 C38.5357864,14.4095745 38.2,14.0737881 38.2,13.6595745 C38.2,13.2798787 38.4821539,12.9660835 38.8482294,12.9164211 L38.95,12.9095745 L39.75,12.9095745 Z M36.55,12.9095745 C36.9642136,12.9095745 37.3,13.2453609 37.3,13.6595745 C37.3,14.0392703 37.0178461,14.3530655 36.6517706,14.4027279 L36.55,14.4095745 L35.75,14.4095745 C35.3357864,14.4095745 35,14.0737881 35,13.6595745 C35,13.2798787 35.2821539,12.9660835 35.6482294,12.9164211 L35.75,12.9095745 L36.55,12.9095745 Z M37.75,10.9095745 C38.1296958,10.9095745 38.443491,11.1917284 38.4931534,11.5578039 L38.5,11.6595745 L38.5,12.4595745 C38.5,12.8737881 38.1642136,13.2095745 37.75,13.2095745 C37.3703042,13.2095745 37.056509,12.9274206 37.0068466,12.5613451 L37,12.4595745 L37,11.6595745 C37,11.2453609 37.3357864,10.9095745 37.75,10.9095745 Z" id="Combined-Shape" fill="#8E8E8E" fill-rule="nonzero"></path>
        <path d="M27.0440091,11.5406283 L40.8745964,25.4129366 C41.5965891,26.1376744 41.5751153,27.3073256 40.8271081,28.0051621 L40.6895171,28.1205042 C39.9224757,28.6795053 38.9023357,28.6030028 38.2606177,27.9592928 L24.4305044,14.0874494 C23.7083148,13.3633265 23.7297801,12.1938946 24.4769117,11.4953259 L24.6157638,11.379046 L24.6522556,11.3508282 C25.3830272,10.8208417 26.4024352,10.8970628 27.0440091,11.5406283 Z M29.4524187,16.081 L28.9664187,16.513 L39.3228974,26.9002546 C39.441086,27.0188101 39.636189,27.0334413 39.7713291,26.9352651 L39.8381135,26.878302 C39.9320672,26.7887572 39.9356109,26.5957378 39.8121328,26.4717902 L29.4524187,16.081 Z M25.6050891,12.5252482 L25.5398242,12.561181 L25.4659524,12.6220815 C25.3727543,12.7112483 25.369207,12.9045033 25.4926713,13.0282981 L27.9064187,15.449 L28.3914187,15.017 L25.9817296,12.5996667 C25.883325,12.5009566 25.7315267,12.4743812 25.6050891,12.5252482 Z" id="Combined-Shape" fill="#FA0F00" fill-rule="nonzero"></path>
    </g>
</svg>