<svg id="production" xmlns="http://www.w3.org/2000/svg" width="136" height="136" viewBox="0 0 136 136">
  <title>S_IlluError_136x136</title>
  <path fill="#b3b3b3" d="M47.06152,117.0752a1.00026,1.00026,0,0,0-1.22363.708l-1.80371,6.76368a.99894.99894,0,0,0,.708,1.22363.987.987,0,0,0,.25879.03418.99964.99964,0,0,0,.96484-.74219l1.80371-6.76367A.99893.99893,0,0,0,47.06152,117.0752Z"/>
  <path fill="#b3b3b3" d="M53.25781,93.83887a.99874.99874,0,0,0-1.22363.708L50.7334,99.4248a.99894.99894,0,0,0,.708,1.22364.987.987,0,0,0,.25879.03418.99964.99964,0,0,0,.96484-.74219l1.30078-4.87793A.99893.99893,0,0,0,53.25781,93.83887Z"/>
  <path fill="#b3b3b3" d="M50.41113,104.51465a1.001,1.001,0,0,0-1.22363.708l-1.80371,6.76269a.99893.99893,0,0,0,.708,1.22363.987.987,0,0,0,.25879.03418.99964.99964,0,0,0,.96484-.74218l1.80371-6.7627A.99893.99893,0,0,0,50.41113,104.51465Z"/>
  <path fill="#b3b3b3" d="M75.20215,111.28809a1.00641,1.00641,0,0,0-1.207.73828L72.35547,118.832a1.0012,1.0012,0,0,0,.73828,1.207,1.02461,1.02461,0,0,0,.23535.02735,1.00164,1.00164,0,0,0,.97168-.76563l1.63965-6.80566A1.0012,1.0012,0,0,0,75.20215,111.28809Z"/>
  <path fill="#b3b3b3" d="M78.24609,98.64941a1.0075,1.0075,0,0,0-1.207.73829l-1.63965,6.80566a1.00122,1.00122,0,0,0,.73829,1.207,1.02453,1.02453,0,0,0,.23535.02734,1.00163,1.00163,0,0,0,.97168-.76562l1.63965-6.80566A1.00123,1.00123,0,0,0,78.24609,98.64941Z"/>
  <path fill="#b3b3b3" d="M87.09277,102.43164a.99445.99445,0,0,0-1.21191.72754l-1.69727,6.791a.99951.99951,0,1,0,1.93946.48437l1.69726-6.791A.99849.99849,0,0,0,87.09277,102.43164Z"/>
  <path fill="#b3b3b3" d="M83.93945,115.044a.9928.9928,0,0,0-1.21191.72753l-1.69727,6.791a.99952.99952,0,1,0,1.93946.48438l1.69726-6.791A.99848.99848,0,0,0,83.93945,115.044Z"/>
  <path fill="#b3b3b3" d="M89.24219,93.835a.9961.9961,0,0,0-1.21192.72754l-.69433,2.77637a.99951.99951,0,1,0,1.93945.48437l.69434-2.77636A.99851.99851,0,0,0,89.24219,93.835Z"/>
  <path fill="#b3b3b3" d="M67.68555,106.58887a1.0043,1.0043,0,0,0-1.2334.69238l-1.89551,6.73828a1.00017,1.00017,0,0,0,1.92578.541l1.89551-6.73828A1.00006,1.00006,0,0,0,67.68555,106.58887Z"/>
  <path fill="#b3b3b3" d="M64.166,119.10352a1.00735,1.00735,0,0,0-1.2334.69238l-1.89551,6.73828a1.00017,1.00017,0,0,0,1.92578.541l1.89551-6.73829A1.00005,1.00005,0,0,0,64.166,119.10352Z"/>
  <path fill="#b3b3b3" d="M71.20508,94.07422a1.00588,1.00588,0,0,0-1.2334.69238l-1.89551,6.73828a1.00017,1.00017,0,0,0,1.92578.541l1.89551-6.73828A1.00005,1.00005,0,0,0,71.20508,94.07422Z"/>
  <path fill="#b3b3b3" d="M61.81348,96.00586a.998.998,0,0,0-1.208.73535L58.94922,103.542a1,1,0,0,0,1.94336.47266l1.65625-6.80078A.99978.99978,0,0,0,61.81348,96.00586Z"/>
  <path fill="#b3b3b3" d="M55.66113,121.26758a1.003,1.003,0,0,0-1.208.73535l-1.65624,6.80078a1,1,0,0,0,1.94335.47266l1.65625-6.80078A.99978.99978,0,0,0,55.66113,121.26758Z"/>
  <path fill="#b3b3b3" d="M58.7373,108.63672a.99932.99932,0,0,0-1.208.73535l-1.65625,6.80078a1,1,0,0,0,1.94336.47266l1.65625-6.80078A.99979.99979,0,0,0,58.7373,108.63672Z"/>
  <path fill="#b3b3b3" d="M68.61035,75.72363a2.28121,2.28121,0,0,0-2.41357,2.3125,2.41972,2.41972,0,0,0,4.8269,0A2.24457,2.24457,0,0,0,68.61035,75.72363Z"/>
  <path fill="#b3b3b3" d="M67.26953,72.63965h2.68164c.20117,0,.23438-.10059.23438-.20117.10058-1.00537.67041-8.916.67041-11.73145V58.29346a.42155.42155,0,0,0-.20117-.36914,6.60654,6.60654,0,0,0-2.04444-.30127,5.80509,5.80509,0,0,0-2.01123.40234.35785.35785,0,0,0-.16748.36816v2.41407c0,2.81543.53613,10.69238.60327,11.63086A.22184.22184,0,0,0,67.26953,72.63965Z"/>
  <path fill="#b3b3b3" d="M72.94434,45.52344a4.84365,4.84365,0,0,0-8.39063,0L44.23926,80.73535A4.84411,4.84411,0,0,0,48.43457,88H89.06348a4.84411,4.84411,0,0,0,4.19531-7.26465ZM90.66016,84.07812A1.81083,1.81083,0,0,1,89.06348,85H48.43457a1.84411,1.84411,0,0,1-1.59766-2.76465L67.15137,47.02344a1.84437,1.84437,0,0,1,3.19531,0L90.66113,82.23535A1.811,1.811,0,0,1,90.66016,84.07812Z"/>
  <path fill="#b3b3b3" d="M108.11426,34.44141a1.50008,1.50008,0,1,0-.21875,2.99218,23.255,23.255,0,0,1-1.82813,46.44336l-4.11621.00586a1.5,1.5,0,0,0,.00195,3h.002l4.11621-.00586a26.2551,26.2551,0,0,0,2.043-52.43554Z"/>
  <path fill="#b3b3b3" d="M101.23047,45.60742a1.4972,1.4972,0,0,0,1.36133-.86914A28.9399,28.9399,0,1,0,48.03809,26.5127a1.49951,1.49951,0,1,0,2.93359.623A25.941,25.941,0,1,1,99.87109,43.47656a1.50047,1.50047,0,0,0,1.35938,2.13086Z"/>
  <path fill="#b3b3b3" d="M39.47266,26.67285a21.18724,21.18724,0,0,1,5.33789.30664,1.50028,1.50028,0,0,0,.55273-2.94922A23.78062,23.78062,0,0,0,17.88086,53.11133,17.21371,17.21371,0,0,0,4.085,69.9248,17.09437,17.09437,0,0,0,21.17773,86.98242h.04l17.4961-.02148a1.5,1.5,0,0,0-.002-3H38.71l-17.49707.02148h-.0332A14.09695,14.09695,0,0,1,7.085,69.919,14.17542,14.17542,0,0,1,19.92773,55.8457a1.50063,1.50063,0,0,0,1.29395-1.96289,20.78264,20.78264,0,0,1,18.251-27.21Z"/>
</svg>
