<svg xmlns="http://www.w3.org/2000/svg" width="42" height="42" viewBox="0 0 42 42"><g fill="none" fill-rule="evenodd"><path fill="#8E8E8E" fill-rule="nonzero" d="M14.5 20.0499905 26.5 20.0499905C26.7761424 20.0499905 27 20.2738481 27 20.5499905 27 20.8261329 26.7761424 21.0499905 26.5 21.0499905L14.5 21.0499905C14.2238576 21.0499905 14 20.8261329 14 20.5499905 14 20.2738481 14.2238576 20.0499905 14.5 20.0499905ZM14.5 23.0499905 23.5 23.0499905C23.7761424 23.0499905 24 23.2738481 24 23.5499905 24 23.8261329 23.7761424 24.0499905 23.5 24.0499905L14.5 24.0499905C14.2238576 24.0499905 14 23.8261329 14 23.5499905 14 23.2738481 14.2238576 23.0499905 14.5 23.0499905ZM14.5 17.0499905 23.5 17.0499905C23.7761424 17.0499905 24 17.2738481 24 17.5499905 24 17.8261329 23.7761424 18.0499905 23.5 18.0499905L14.5 18.0499905C14.2238576 18.0499905 14 17.8261329 14 17.5499905 14 17.2738481 14.2238576 17.0499905 14.5 17.0499905Z"/><path fill="#8E8E8E" fill-rule="nonzero" d="M25.497781,5 C26.3012834,5.00071285 27.0709861,5.32242643 27.6207934,5.87699008 L27.6207934,5.87699008 L32.1169732,10.2718027 C32.6820463,10.8400837 32.9992982,11.6096694 33,12.4130591 L33,12.4130591 L33.0006555,19.8966695 C32.5007805,19.9333579 32.000456,19.9973402 31.5000865,20.088607 L31.5,12.4130591 C31.4996446,12.0065909 31.339,11.6169012 31.053384,11.3296637 L31.053384,11.3296637 L26.57239,6.94990701 C26.2871296,6.66231156 25.900122,6.50055355 25.4964516,6.50019572 L25.4964516,6.50019572 L11.5300726,6.50019572 C10.4088945,6.50019572 9.5,7.41538937 9.5,8.54433796 L9.5,8.54433796 L9.5,32.4556621 C9.5,33.5846107 10.4088945,34.4998043 11.5300726,34.4998043 L11.5300726,34.4998043 L29.4699274,34.4998043 C30.5911055,34.4998043 31.5,33.5846107 31.5,32.4556621 L31.5,32.4556621 L31.4993095,27.84174 C31.573054,28.0315369 31.6687791,28.215833 31.7869798,28.3910727 C32.097169,28.8509471 32.5224709,29.1900291 33.0000678,29.3936593 L33,32.4556621 C33,34.4108788 31.4218165,36 29.4699274,36 L29.4699274,36 L11.5300726,36 C9.5781835,36 8,34.4108788 8,32.4556621 L8,32.4556621 L8,8.54433796 C8,6.58912125 9.5781835,5 11.5300726,5 L11.5300726,5 Z"/><path fill="#FA0F00" fill-rule="nonzero" d="M24.6111577,17.2608391 L24.7171296,17.2685305 C28.1371465,17.7491825 30.9051897,19.3783466 32.9803727,22.1322075 C34.6640555,24.3665299 35.5175186,26.8257694 35.5341728,29.4860704 L38.0315809,26.4904702 L38.0858315,26.4317023 C38.3688387,26.154747 38.821241,26.1316876 39.1319237,26.390726 C39.4633185,26.6670337 39.5079755,27.1596739 39.2316679,27.4910688 L39.2316679,27.4910688 L35.4699481,32.0027593 L35.4156975,32.0615272 C35.2704036,32.2037141 35.0804619,32.278981 34.8879712,32.2835119 C34.692253,32.2987773 34.4911382,32.2398351 34.3290449,32.1038226 L34.3290449,32.1038226 L34.1565342,31.9609083 C34.1359631,31.9453927 34.116219,31.9289013 34.0973615,31.9115131 L29.8150847,28.3161603 L29.7564871,28.2617257 C29.4804204,27.9778517 29.4587792,27.5253794 29.7187903,27.2155103 C29.9961355,26.8849832 30.4889133,26.8418707 30.8194404,27.1192159 L30.8194404,27.1192159 L33.9702157,29.7635552 C34.0130606,27.3338251 33.2696023,25.1123407 31.7325047,23.0725434 C29.9068358,20.649799 27.5095203,19.238831 24.4996716,18.8158243 C24.0723982,18.755775 23.7747043,18.3607218 23.8347537,17.9334484 C23.894803,17.506175 24.2898562,17.2084811 24.7171296,17.2685305 Z" transform="rotate(-74 31.62 24.774)"/></g></svg>