<svg xmlns="http://www.w3.org/2000/svg" width="42" height="42" viewBox="0 0 42 42"><g fill="none" fill-rule="evenodd"><path fill="#8E8E8E" fill-rule="nonzero" d="M31.9844,25.88 L31.9844,30.99 C31.9844,32.734 30.5704,34.148 28.8254,34.148 C28.4114,34.148 28.0754,33.812 28.0754,33.398 C28.0754,32.984 28.4114,32.648 28.8254,32.648 C29.6934,32.648 30.4064,31.982 30.4784,31.134 L30.4844,30.99 L30.4838743,26.1424742 C30.9188082,26.0459233 31.3798195,25.9640831 31.8686482,25.8961583 L31.9844,25.88 Z M24.9504,8 C25.7744,8 26.5684,8.299 27.1854,8.837 L27.3494,8.99 L30.9844,12.609 C31.5714,13.195 31.9234,13.972 31.9774,14.793 L31.9844,15.019 L31.9840932,18.2746365 C31.4709524,18.3300787 30.9710558,18.3963712 30.4842271,18.473646 L30.4844,15.019 C30.4844,14.57 30.3254,14.137 30.0394,13.796 L29.9264,13.672 L26.2914,10.053 C25.9744,9.738 25.5584,9.546 25.1174,9.507 L24.9504,9.5 L13.7504,9.5 C13.3364,9.5 13.0004,9.164 13.0004,8.75 C13.0004,8.37 13.2824,8.057 13.6484,8.007 L13.7504,8 L24.9504,8 Z"/><path fill="#8E8E8E" fill-rule="nonzero" d="M29.9504 4C30.7744 4 31.5684 4.299 32.1854 4.837L32.3494 4.99 35.9844 8.609C36.5714 9.195 36.9234 9.972 36.9774 10.793L36.9844 11.019 36.9845807 12.9566388C36.468483 12.9971658 35.9566778 13.1436025 35.4832275 13.3996795L35.4844 11.019C35.4844 10.57 35.3254 10.137 35.0394 9.796L34.9264 9.672 31.2914 6.053C30.9744 5.738 30.5584 5.546 30.1174 5.507L29.9504 5.5 18.9754 5.5C18.5614 5.5 18.2254 5.164 18.2254 4.75 18.2254 4.37 18.5074 4.057 18.8734 4.007L18.9754 4 29.9504 4ZM8.69462437 12 20.0956456 12.0595717C20.6313492 12.0604542 21.1497942 12.232354 21.568697 12.5362211L21.7209588 12.656281 26.2444329 17.2423053C26.6212787 17.6209163 26.865547 18.1070013 26.9479504 18.6273421L26.971207 18.8239327 26.9721879 19.2939409C26.4599436 19.4582067 25.9664121 19.639273 25.4912744 19.8373781L25.4908515 19.0244906C25.4900572 18.8418042 25.4416056 18.6635658 25.3505801 18.5055341L25.2744078 18.3910453 20.8055411 13.8367926C20.6840149 13.7144721 20.5224566 13.6245586 20.3432333 13.5802691L20.2058532 13.555813 8.85546783 13.484327C8.19366401 13.484327 7.63570336 13.9660196 7.51373127 14.6054404L7.49524845 14.7353317 7.492 23 7.5 23 7.5 34 7.49 34 7.48929129 34.9251572C7.48929129 35.6195393 7.98581867 36.2161866 8.60827771 36.3461396L8.7343388 36.3657983 24.1365893 36.3727483C24.7853618 36.3727483 25.3582154 35.8578957 25.4845542 35.1971499L25.5037587 35.0631649 25.4977071 29.0479278C25.9193288 28.4867228 26.4108477 28.0041638 26.9869903 27.5935211L27 34.9251572C27 36.3934457 25.8993711 37.6634557 24.4766105 37.8410632L24.3043828 37.8570753 8.86341071 37.8620396C7.39512225 37.8620396 6.1875332 36.6989898 6.02002324 35.2670142L6.0049643 35.0939435 6.004 34 6 34 6 14.868375C6 13.3991319 7.0997109 12.1841625 8.52240097 12.0152035L8.69462437 12Z"/><path fill="#FA0F00" fill-rule="nonzero" d="M36.0518465,16.1420954 C36.3985129,15.8910495 36.8830546,15.9685652 37.1341005,16.3152317 L37.1341005,16.3152317 L41.3214664,22.0975171 L41.3779038,22.1877425 C41.5594838,22.5276277 41.4636239,22.9582655 41.1394113,23.1861343 L41.1394113,23.1861343 L35.4457036,27.1878862 L35.3555974,27.2425687 C35.0166043,27.4181008 34.5916154,27.320467 34.3660052,26.9994679 L34.3660052,26.9994679 L34.3113227,26.9093618 C34.1357906,26.5703687 34.2334245,26.1453798 34.5544235,25.9197696 L34.5544235,25.9197696 L39.1886667,22.6627346 L39.1664821,22.6634841 L38.2654285,22.6144987 C38.1175402,22.6074181 37.9707897,22.6008812 37.8251687,22.5948907 L37.8251687,22.5948907 L36.9649273,22.5655273 L36.1313829,22.5494114 L35.3241264,22.5466761 C35.0593768,22.5480092 34.7989404,22.5515946 34.5427489,22.5574544 L34.5427489,22.5574544 L33.7868415,22.5818792 C25.6104451,22.9260967 21.9826326,25.771311 20.4539109,31.91418 C20.3505459,32.3295321 19.9300425,32.5824476 19.5146904,32.4790826 C19.0993383,32.3757176 18.8464228,31.9552143 18.9497878,31.5398621 C20.4943315,25.3334161 24.0668577,22.0990953 31.2617703,21.2380211 L31.2617703,21.2380211 L31.9580031,21.1631703 C32.7831711,21.0841708 33.6536848,21.0342359 34.5717314,21.0125442 L34.5717314,21.0125442 L35.3703201,21.0008488 C35.7754859,20.9984403 36.1894969,21.0011762 36.6125254,21.0089918 L36.6125254,21.0089918 L37.4706566,21.0313768 C37.7607421,21.0410834 38.0548864,21.0530285 38.3531405,21.0671929 L38.3531405,21.0671929 L38.6736667,21.0837346 L35.8787102,17.2243495 L35.8227594,17.1350254 C35.6424527,16.7985476 35.7340689,16.3722209 36.0518465,16.1420954 Z"/></g></svg>