<svg xmlns="http://www.w3.org/2000/svg" width="42" height="42" viewBox="0 0 42 42"><g fill="none" fill-rule="evenodd"><path fill="#8E8E8E" fill-rule="nonzero" d="M21.5006559,6 L33.9986881,10.1630417 L34,20.1773333 C34,27.8265833 28.9100068,34.6259167 21.5006559,37 C14.123138,34.6858984 9.16213086,28.0099101 9.00389527,20.4144132 L9,20.0520417 L9,10.165625 L21.5006559,6 Z M21.4999997,7.581 L10.4999997,11.246 L10.4999997,20.0510254 C10.5046599,26.9292654 14.8030505,33.0037194 21.2726644,35.3404771 L21.496,35.418 L21.7168055,35.3398823 C28.0480726,33.0130596 32.3496907,27.1255801 32.4961403,20.5253563 L32.4999997,20.1773333 L32.498,11.244 L21.4999997,7.581 Z"/><path fill="#FA0F00" fill-rule="nonzero" d="M27.705263,16.4844793 C27.9899772,16.1836294 28.4646708,16.1705488 28.7655207,16.455263 C29.0390206,16.7140941 29.0746947,17.1299329 28.8650105,17.4294339 L28.794737,17.5155207 L20.535541,26.2427934 C20.2781341,26.5147885 19.8650957,26.5517706 19.5656859,26.3452708 L19.4795411,26.2760079 L15.7387371,22.7906577 C15.4356791,22.508295 15.4189022,22.0337178 15.7012648,21.7306597 C15.9579582,21.4551524 16.3735066,21.416241 16.6746314,21.6235864 L16.7612629,21.6931874 L19.957,24.671 L27.705263,16.4844793 Z"/></g></svg>