<svg xmlns="http://www.w3.org/2000/svg" width="42" height="42" viewBox="0 0 42 42"><g fill="none" fill-rule="evenodd"><path fill="#8E8E8E" fill-rule="nonzero" d="M30.0291,6 C30.8531,6 31.6471,6.299 32.2641,6.837 L32.4281,6.99 L36.0631,10.609 C36.6501,11.195 37.0021,11.972 37.0561,12.793 L37.0631,13.019 L37.0631,28.99 C37.0631,30.734 35.6491,32.148 33.9041,32.148 C33.4901,32.148 33.1541,31.812 33.1541,31.398 C33.1541,30.984 33.4901,30.648 33.9041,30.648 C34.7721,30.648 35.4851,29.982 35.5571,29.134 L35.5631,28.99 L35.5631,13.019 C35.5631,12.57 35.4041,12.137 35.1181,11.796 L35.0051,11.672 L31.3701,8.053 C31.0531,7.738 30.6371,7.546 30.1961,7.507 L30.0291,7.5 L18.8291,7.5 C18.4151,7.5 18.0791,7.164 18.0791,6.75 C18.0791,6.37 18.3611,6.057 18.7271,6.007 L18.8291,6 L30.0291,6 Z"/><path fill="#8E8E8E" fill-rule="nonzero" d="M32.131,17.079 L32.122,16.878 C32.075,16.28 31.817,15.714 31.39,15.285 L26.978,10.799 L26.834,10.666 C26.389,10.285 25.804,10.066 25.197,10.065 L13.884,10 L13.714,10.005 C12.198,10.093 11,11.355 11,12.894 L11,16.392 C11,16.806 11.336,17.142 11.75,17.142 C12.164,17.142 12.5,16.806 12.5,16.392 L12.5,12.894 L12.506,12.76 C12.573,12.052 13.165,11.5 13.876,11.5 L25.189,11.565 L25.308,11.572 C25.543,11.598 25.759,11.701 25.912,11.855 L30.32,16.337 L30.413,16.442 C30.554,16.627 30.63,16.85 30.631,17.08 L30.651,33.097 L30.644,33.234 C30.574,33.963 29.964,34.553 29.267,34.553 L13.884,34.553 L13.754,34.546 C13.069,34.475 12.5,33.841 12.5,33.095 L12.5,25.614 C12.5,25.2 12.164,24.864 11.75,24.864 C11.336,24.864 11,25.2 11,25.614 L11,33.095 L11.005,33.265 C11.092,34.786 12.346,36.053 13.884,36.053 L29.267,36.053 L29.436,36.048 C30.952,35.955 32.151,34.633 32.151,33.095 L32.131,17.079 Z"/><path fill="#FA0F00" fill-rule="nonzero" d="M7,15.5002404 C6.994,15.0958404 6.8332,14.7106404 6.5536,14.4286404 C6.2752,14.1478404 5.8996,13.9930404 5.512,14.0002404 L2.488,14.0002404 C2.1004,13.9930404 1.7248,14.1478404 1.4464,14.4286404 C1.1668,14.7106404 1.006,15.0958404 1,15.5002404 L1,23.0854404 L4,27.5002404 L7,22.9078404 L7,15.5002404 Z"/><path fill="#8E8E8E" fill-rule="nonzero" d="M17.435,29 L26.565,29 C26.806,29 27,29.201 27,29.45 C27,29.699 26.806,29.9 26.565,29.9 L17.435,29.9 C17.195,29.9 17,29.699 17,29.45 C17,29.201 17.195,29 17.435,29 Z"/><path fill="#8E8E8E" fill-rule="nonzero" d="M10.7499995,17.9999996 C11.1642131,17.9999996 11.4999995,18.335786 11.4999995,18.7499996 L11.4999995,18.7499996 L11.4999995,20.6980584 L11.5051589,20.8993096 C11.621683,23.1677304 13.697618,24.9999996 16.2710495,24.9999996 L16.2710495,24.9999996 L18.6889995,24.9989996 L17.6643816,23.7185319 L17.6014931,23.6269113 C17.4173816,23.3110454 17.4874349,22.8996003 17.7814672,22.6643541 C18.1049026,22.4055832 18.5768741,22.4580041 18.835645,22.7814396 L18.835645,22.7814396 L20.835645,25.2812219 L20.9005769,25.3764779 C21.0520862,25.6401954 21.0304578,25.9747771 20.8356848,26.2182645 L20.8356848,26.2182645 L18.8356848,28.7184822 L18.7601037,28.7999487 C18.4923566,29.0489061 18.0755691,29.0708786 17.7815169,28.8356573 C17.4580595,28.5769138 17.4055984,28.1049468 17.6643418,27.7814893 L17.6643418,27.7814893 L18.6879995,26.4999996 L16.2710495,26.4999996 L16.0368695,26.4960214 C12.6949654,26.3823059 9.99999953,23.8448071 9.99999953,20.6980584 L9.99999953,20.6980584 L9.99999953,18.7499996 L10.0068462,18.648229 C10.0565086,18.2821535 10.3703038,17.9999996 10.7499995,17.9999996 Z" transform="scale(1 -1) rotate(-65 -21.388 0)"/></g></svg>