<svg xmlns="http://www.w3.org/2000/svg" width="42" height="42" viewBox="0 0 42 42">
  <g fill="none" fill-rule="evenodd">
    <path fill="#8E8E8E" fill-rule="nonzero" d="M28.3883103,17 L18.8841404,17 C17.2889898,17 16,18.2977539 16,19.8935515 L16,36.1064485 C16,37.7022461 17.2889898,39 18.8841404,39 L31.1158596,39 C32.7110102,39 34,37.7022461 34,36.1064485 L33.9803077,22.5287961 C33.9797205,21.8570009 33.7135828,21.2114916 33.2393875,20.7346664 L30.1689785,17.7338044 C29.709936,17.2708088 29.063372,17.0005989 28.3883103,17 Z M28.3869808,18.5 C28.6622107,18.5002439 28.9260794,18.6105191 29.1205752,18.8065813 L32.1757984,21.7923895 C32.3705365,21.9882077 32.480067,22.2538706 32.4803093,22.5309718 L32.5,36.1064485 C32.5,36.8760857 31.8802992,37.5 31.1158596,37.5 L18.8841404,37.5 C18.1197008,37.5 17.5,36.8760857 17.5,36.1064485 L17.5,19.8935515 C17.5,19.1239143 18.1197008,18.5 18.8841404,18.5 L28.3869808,18.5 Z"/>
    <path fill="#FA0F00" d="M22.0009679,29.7026278 C21.1895959,30.9845348 20.3910466,31.7947183 19.9242719,31.7947183 C19.8381427,31.7947183 19.7674168,31.7693951 19.7159652,31.7215185 C19.6220941,31.6356571 19.5874166,31.5422778 19.6092715,31.4287192 C19.6979813,30.96942 20.6224985,30.3069814 22.0009679,29.7026278 L22.0009679,29.7026278 Z M25.9010532,27.8692295 C25.552585,27.941084 25.1925039,28.0244131 24.8273422,28.1189794 C24.5650032,28.1871937 24.2988738,28.2615806 24.0326638,28.3411112 C24.1741156,28.0572541 24.3039545,27.7758503 24.4170998,27.508295 C24.5662935,27.1550367 24.706455,26.8016991 24.8350842,26.4560377 C24.9482295,26.6301346 25.0652457,26.799246 25.184762,26.9619474 C25.4213752,27.2837101 25.6762142,27.5913867 25.929521,27.8626613 L25.9010532,27.8692295 Z M24.0995188,21.7684003 C24.1650834,21.657374 24.2705674,21.5905049 24.3798417,21.5905049 C24.6871808,21.5905049 24.7540357,21.9538926 24.7540357,22.2580082 C24.7566163,22.7425514 24.6074226,23.5148293 24.3515352,24.3690119 C23.8358894,23.0289408 23.9079056,22.090163 24.0995188,21.7684003 L24.0995188,21.7684003 Z M29.8731547,28.7713678 C29.828074,28.9997513 29.5876705,29.147338 29.2584765,29.147338 C29.1683958,29.147338 29.0746053,29.1360217 28.9807343,29.1133099 C28.3763787,28.9720541 27.7976683,28.6855064 27.2203289,28.2388688 C27.7617006,28.158072 28.2181527,28.1405041 28.5229918,28.1405041 C28.8701696,28.1405041 29.1877506,28.164482 29.390896,28.206107 C29.6519447,28.2591274 29.9463806,28.4003832 29.8731547,28.7713678 L29.8731547,28.7713678 Z M30.7475106,28.1670143 C30.362994,27.7620017 29.6275092,27.5562508 28.5615402,27.5562508 C28.0368622,27.5562508 27.4441195,27.606818 26.7959736,27.7064489 C26.4449248,27.3746361 26.1029083,26.9834721 25.7788756,26.54182 C25.5474237,26.2276543 25.3339557,25.9020931 25.1424232,25.5714673 C25.5178269,24.411903 25.7081497,23.4705929 25.7081497,22.772781 C25.7081497,21.9160661 25.3622622,21 24.3914546,21 C24.0725026,21 23.7458893,21.1892908 23.5787117,21.4706946 C23.1646789,22.1684274 23.3305662,23.6043309 23.9915348,25.0654785 C23.7613732,25.7367802 23.5105665,26.3904348 23.2032274,27.1145987 C22.94484,27.7265492 22.6375009,28.3524275 22.3121779,28.9303499 C21.3220961,29.3215931 19.2170129,30.2704211 19.0164482,31.318959 C18.9572546,31.6332039 19.0588676,31.9296434 19.304513,32.1542283 C19.3803196,32.2248959 19.6696748,32.4545455 20.1621754,32.4545455 C21.4299995,32.4545455 22.6940332,30.7321734 23.5453246,29.2495803 C24.0287929,29.0880659 24.5225838,28.9417454 25.0137941,28.814259 C25.552585,28.6742693 26.0733921,28.5594445 26.5645217,28.4735831 C27.9070233,29.6230972 29.1003312,29.7971941 29.6982351,29.7971941 C30.5199297,29.7971941 30.8271881,29.4476551 30.9391237,29.1536688 C31.0870271,28.7701808 30.942914,28.372686 30.7475106,28.1670143 L30.7475106,28.1670143 Z"/>
    <path fill="#8E8E8E" d="M25.4795986,13 C25.9867926,13 26.4743599,13.175 26.8493323,13.48 L26.9846528,13.601 L27.5392749,14.1293826 C27.8576464,14.4326918 27.8698569,14.9366636 27.5665477,15.2550351 C27.4144804,15.414654 27.2030372,15.5040762 26.9825869,15.502 L26.9825869,15.502 L26.9825869,15.502 C26.8493323,15.5 26.7222755,15.45 26.6262082,15.359 L25.8845274,14.656 C25.8060208,14.58 25.6934258,14.526 25.571534,14.507 L14.4378366,14.5 C13.9853907,14.5 13.6114513,14.83 13.5567033,15.258 L13.5494724,32.632 C13.5494724,33.076 13.8893234,33.44 14.3262746,33.493 L14.3479428,33.4931966 C14.7632352,33.4969639 15.0979119,33.8346904 15.0979119,34.25 L15.0979119,34.3399247 C15.0979119,34.7044742 14.8023861,35 14.4378366,35 L14.4378366,35 L14.4378366,35 C13.1455766,35 12.0909024,34.025 12.0051649,32.794 L12,32.632 L12,15.368 C12,14.116 13.0009592,13.089 14.2704936,13.005 L25.4795986,13 Z"/>
    <path fill="#8E8E8E" d="M21.4795986,9 C21.9867926,9 22.4743599,9.175 22.8493323,9.48 L22.9846528,9.601 L23.5392749,10.1293826 C23.8576464,10.4326918 23.8698569,10.9366636 23.5665477,11.2550351 C23.4144804,11.414654 23.2030372,11.5040762 22.9825869,11.502 L22.9825869,11.502 L22.9825869,11.502 C22.8493323,11.5 22.7222755,11.45 22.6262082,11.359 L21.8845274,10.656 C21.8060208,10.58 21.6934258,10.526 21.571534,10.507 L10.4378366,10.5 C9.98539069,10.5 9.61145134,10.83 9.55670331,11.258 L9.54947244,28.632 C9.54947244,29.076 9.8893234,29.44 10.3262746,29.493 L10.3479428,29.4931966 C10.7632352,29.4969639 11.0979119,29.8346904 11.0979119,30.25 L11.0979119,30.3399247 C11.0979119,30.7044742 10.8023861,31 10.4378366,31 L10.4378366,31 L10.4378366,31 C9.14557663,31 8.09090238,30.025 8.00516491,28.794 L8,28.632 L8,11.368 C8,10.116 9.0009592,9.089 10.2704936,9.005 L21.4795986,9 Z"/>
    <path fill="#8E8E8E" d="M17.4795986,5 C17.9867926,5 18.4743599,5.175 18.8493323,5.48 L18.9846528,5.601 L19.5392749,6.12938261 C19.8576464,6.4326918 19.8698569,6.93666357 19.5665477,7.25503509 C19.4144804,7.414654 19.2030372,7.5040762 18.9825869,7.502 L18.9825869,7.502 L18.9825869,7.502 C18.8493323,7.5 18.7222755,7.45 18.6262082,7.359 L17.8845274,6.656 C17.8060208,6.58 17.6934258,6.526 17.571534,6.507 L6.43783664,6.5 C5.98539069,6.5 5.61145134,6.83 5.55670331,7.258 L5.54947244,24.632 C5.54947244,25.076 5.8893234,25.44 6.32627463,25.493 L6.34794276,25.4931966 C6.76323522,25.4969639 7.0979119,25.8346904 7.0979119,26.25 L7.0979119,26.3399247 C7.0979119,26.7044742 6.80238614,27 6.43783664,27 L6.43783664,27 L6.43783664,27 C5.14557663,27 4.09090238,26.025 4.00516491,24.794 L4,24.632 L4,7.368 C4,6.116 5.0009592,5.089 6.27049362,5.005 L17.4795986,5 Z"/>
    <path fill="#FA0F00" fill-rule="nonzero" d="M38.8,9 L35.6,9 L35.6,5.8 C35.6,5.4 35.3,5 34.8,5 C34.3,5 34,5.3 34,5.8 L34,9 L30.8,9 C30.4,9 30,9.3 30,9.8 C30,10.3 30.3,10.6 30.8,10.6 L34,10.6 L34,13.8 C34,14.2 34.3,14.6 34.8,14.6 C35.3,14.6 35.6,14.3 35.6,13.8 L35.6,10.6 L38.8,10.6 C39.2,10.6 39.6,10.3 39.6,9.8 C39.6,9.3 39.2,9 38.8,9 Z"/>
  </g>
</svg>
