<svg xmlns="http://www.w3.org/2000/svg" width="42" height="42" viewBox="0 0 42 42"><g fill="none" fill-rule="evenodd"><path fill="#8E8E8E" d="M15.5,22.05 L27.5,22.05 C27.776,22.05 28,22.274 28,22.55 C28,22.826 27.776,23.05 27.5,23.05 L15.5,23.05 C15.224,23.05 15,22.826 15,22.55 C15,22.274 15.224,22.05 15.5,22.05 M15.5,19.05 L27.5,19.05 C27.776,19.05 28,19.274 28,19.55 C28,19.826 27.776,20.05 27.5,20.05 L15.5,20.05 C15.224,20.05 15,19.826 15,19.55 C15,19.274 15.224,19.05 15.5,19.05 M15.5,16.05 L27.5,16.05 C27.776,16.05 28,16.274 28,16.55 C28,16.826 27.776,17.05 27.5,17.05 L15.5,17.05 C15.224,17.05 15,16.826 15,16.55 C15,16.274 15.224,16.05 15.5,16.05"/><path fill="#8E8E8E" d="M12.5303,36.0498 C11.4133,36.0498 10.5003,35.1358 10.5003,34.0198 L10.5003,10.0948 C10.5003,8.9698 11.4203,8.0498 12.5443,8.0498 L26.4963,8.0498 C26.9003,8.0508 27.2873,8.2128 27.5723,8.4998 L32.0533,12.8798 C32.3393,13.1668 32.4993,13.5568 32.5003,13.9628 L32.5003,22.8458 C32.5003,23.2598 32.8363,23.5958 33.2503,23.5958 C33.6643,23.5958 34.0003,23.2598 34.0003,22.8458 L34.0003,13.9628 C33.9993,13.1598 33.6823,12.3898 33.1173,11.8218 L28.6213,7.4268 C28.0713,6.8728 27.3013,6.5508 26.4983,6.5498 L12.5303,6.5498 C10.5803,6.5498 9.0003,8.1308 9.0003,10.0798 L9.0003,34.0058 C9.0003,35.9628 10.5873,37.5498 12.5443,37.5498 L26.7963,37.5498 C27.2233,37.5498 27.5603,37.1898 27.5343,36.7648 C27.5343,36.7578 27.5343,36.7508 27.5333,36.7438 C27.5103,36.3538 27.1863,36.0498 26.7953,36.0498 L12.5303,36.0498 Z"/><path fill="#FA0F00" d="M36.75,31 L32.5,31 L32.5,26.75 C32.5,26.336 32.164,26 31.75,26 C31.336,26 31,26.336 31,26.75 L31,31 L26.75,31 C26.336,31 26,31.336 26,31.75 C26,32.164 26.336,32.5 26.75,32.5 L31,32.5 L31,36.75 C31,37.164 31.336,37.5 31.75,37.5 C32.164,37.5 32.5,37.164 32.5,36.75 L32.5,32.5 L36.75,32.5 C37.164,32.5 37.5,32.164 37.5,31.75 C37.5,31.336 37.164,31 36.75,31"/></g></svg>