<svg xmlns="http://www.w3.org/2000/svg" width="42" height="42" viewBox="0 0 42 42">
  <g id="s_illu_LetOtherSign_42" transform="translate(-484)">
    <rect id="Canvas" width="42" height="42" transform="translate(484)" fill="#ededed" opacity="0"/>
    <g id="S_IlluLetOthersSignDocFast_42" transform="translate(483 0.75)">
      <path id="Path_101573" data-name="Path 101573" d="M8.884,11l12.313.065a2.531,2.531,0,0,1,1.637.6l.143.133,4.412,4.486a2.548,2.548,0,0,1,.733,1.594l.008.2.02,16.015a2.953,2.953,0,0,1-2.714,2.953l-.17.005H8.884A2.942,2.942,0,0,1,6,34.264l0-.17v-20.2A2.89,2.89,0,0,1,8.714,11Zm-.008,1.5a1.386,1.386,0,0,0-1.37,1.259l-.006.134v20.2a1.459,1.459,0,0,0,1.254,1.452l.13.007H25.267a1.441,1.441,0,0,0,1.378-1.319l.007-.138-.02-16.016a1.048,1.048,0,0,0-.218-.638l-.093-.106-4.408-4.481a1.012,1.012,0,0,0-.6-.283l-.119-.007Z" fill="#8e8e8e"/>
      <path id="Path_101574" data-name="Path 101574" d="M15,20.25a1.3,1.3,0,0,0-.372-.893A1.193,1.193,0,0,0,13.76,19H11.24a1.193,1.193,0,0,0-.868.357A1.3,1.3,0,0,0,10,20.25v6.321l2.5,3.679L15,26.423Z" fill="#fe0200"/>
      <path id="Path_101575" data-name="Path 101575" d="M12.267,31.567a.5.5,0,0,1,.493-.51H24.241a.511.511,0,0,1,0,1.021H12.759A.5.5,0,0,1,12.267,31.567ZM26.2,7.25a3.4,3.4,0,0,1,2.236.837l.164.153,3.635,3.619a3.4,3.4,0,0,1,.993,2.184l.007.225V30.24A3.159,3.159,0,0,1,30.076,33.4a.75.75,0,0,1,0-1.5,1.659,1.659,0,0,0,1.653-1.515l.006-.143V14.269a1.9,1.9,0,0,0-.446-1.223l-.113-.124L27.541,9.3a1.9,1.9,0,0,0-1.174-.546L26.2,8.75H15a.75.75,0,0,1-.1-1.493L15,7.25Z" fill="#8e8e8e"/>
      <path id="Path_101576" data-name="Path 101576" d="M31.2,3.25a3.4,3.4,0,0,1,2.236.837l.164.153L37.234,7.86a3.4,3.4,0,0,1,.993,2.184l.007.225V26.24A3.159,3.159,0,0,1,35.076,29.4a.75.75,0,0,1,0-1.5,1.659,1.659,0,0,0,1.653-1.515l.006-.143V10.269a1.9,1.9,0,0,0-.446-1.223l-.113-.124L32.541,5.3a1.9,1.9,0,0,0-1.174-.546L31.2,4.75H20.225a.75.75,0,0,1-.1-1.493l.1-.007Z" fill="#8e8e8e"/>
      <path id="Path_101577" data-name="Path 101577" d="M18.063,28.191c.2.3.334.587.533.885a1.4,1.4,0,0,0,1.011.6,1.647,1.647,0,0,0,1.4-.587,1.431,1.431,0,0,0,.939.659c.667.122,1.68-.226,2.222-1.7l.149-.438-.953-1.115s-.356,1.77-1.147,1.77a.813.813,0,0,1-.47-.3,2.773,2.773,0,0,0,.406-2c-.125-.477-.31-.733-.638-.8-1.079-.209-1.688,1.674-1.376,2.576.109.316-.363.326-.47.3-.271-.07-.47-.822-.605-1.337v-.072c1.071-2.033-2.094-2.277-1.544-.145v.072c-.4.587-1.7,1.86-2.321,1.86l.641,1.319A4.073,4.073,0,0,0,18.063,28.191Z" fill="#8e8e8e" fill-rule="evenodd"/>
    </g>
  </g>
</svg>
