<?xml version="1.0" encoding="UTF-8"?>
<svg width="42px" height="42px" viewBox="0 0 42 42" version="1.1" xmlns="http://www.w3.org/2000/svg" xmlns:xlink="http://www.w3.org/1999/xlink">
    <title>S_Illu_Nothing-To-Install_42</title>
    <g id="S_Illu_Nothing-To-Install_42" stroke="none" stroke-width="1" fill="none" fill-rule="evenodd">
        <path d="M24.0701526,8.26331563 L23.746,8.252 L23.4676826,8.25014062 C19.3192648,8.28770804 16.5693861,11.01571 15.3886985,14.3819584 L15.285,14.692 L15.1787929,14.6768875 C10.1192617,13.9852644 6.53896857,17.2434878 6.54866055,22.2780379 L6.552,22.536 L6.44593636,22.5508514 C4.04676176,22.9193686 2.2390917,25.1125168 2.24991504,27.7270198 C2.24991504,30.4850377 4.13713151,32.8139463 7.43635607,32.816318 L31.8478601,32.816318 C35.6114159,32.816318 38.75,30.1149559 38.75,25.4255658 L38.7452745,25.1748246 C38.6134034,21.6749127 35.7400883,18.6276004 32.4646519,17.6817358 L32.239,17.619 L32.259095,17.3576148 C32.2650513,17.2464274 32.2685249,17.1350586 32.2695065,17.023603 L32.267013,16.7599079 C32.1587325,12.1203016 28.6608273,8.50291119 24.0701526,8.26331563 Z M23.9919679,9.76127663 L24.0047455,9.76183437 C27.8696342,9.963659 30.7868563,13.051886 30.7695428,17.01372 C30.7664267,17.366677 30.7314348,17.721762 30.6650965,18.0706644 L30.5207517,18.8298375 L31.2839018,18.9514153 C34.3329459,19.4371599 37.25,22.2869715 37.25,25.4255658 C37.25,29.2323875 34.8287803,31.316318 31.8478601,31.316318 L7.43689517,31.316318 C5.04361066,31.3145975 3.74985061,29.7181363 3.74985061,27.723901 C3.74174543,25.7476115 5.14385809,24.1411582 6.90536984,24.0057769 L7.09387464,23.9977944 L7.2936179,24.0193107 L8.18212034,24.0851324 L8.09547184,23.1984187 C7.61532639,18.2848709 10.8391306,15.2586257 15.6637996,16.2834738 L16.3696392,16.4334071 L16.5467058,15.7338808 C17.3958815,12.3790924 19.9630983,9.55098406 23.9919679,9.76127663 Z" id="Path-Copy-4" fill="#8E8E8E" fill-rule="nonzero"></path>
        <path d="M16.4006531,27.793618 C16.2965803,27.793618 16.2111199,27.7630191 16.1489491,27.7051682 C16.0355216,27.601419 15.9936196,27.4885857 16.0200276,27.351369 C16.1272186,26.7963825 17.2443436,25.9959359 18.9099941,25.2656753 C17.9295863,26.8146462 16.9646725,27.793618 16.4006531,27.793618 Z M23.6225971,23.050319 C23.2015315,23.1371432 22.7664335,23.2378325 22.3251964,23.3521001 C22.0082034,23.4345257 21.6866305,23.5244098 21.36496,23.6205093 C21.535881,23.2775154 21.6927696,22.9374858 21.8294868,22.6141898 C22.0097626,22.187336 22.1791243,21.7603865 22.3345513,21.3427122 C22.4712685,21.5530793 22.6126631,21.7574222 22.7570786,21.9540198 C23.0429862,22.3428163 23.3509167,22.7145923 23.6569957,23.0423824 L23.6225971,23.050319 Z M21.7844666,15.4635268 C22.1558346,15.4635268 22.2366177,15.9026202 22.2366177,16.2700932 C22.239736,16.855583 22.0594602,17.7887521 21.7502629,18.8208894 C21.1271909,17.2016368 21.2142105,16.0672802 21.4457431,15.6784837 C21.524967,15.5443269 21.6524268,15.4635268 21.7844666,15.4635268 Z M27.6794837,24.5947 C27.5706361,24.5947 27.457306,24.5810262 27.3438785,24.5535828 C26.6136155,24.3828987 25.9143405,24.0366536 25.216722,23.4969665 C25.8708794,23.3993371 26.4224258,23.3781091 26.790773,23.3781091 C27.2102795,23.3781091 27.5940233,23.4070824 27.8394906,23.4573792 C28.1549245,23.5214456 28.5107011,23.6921297 28.4222198,24.1404028 C28.3677473,24.4163661 28.0772597,24.5947 27.6794837,24.5947 Z M26.8373523,22.6721364 C26.2033664,22.6721364 25.4871357,22.7332385 24.7039593,22.8536258 C24.2797754,22.4526853 23.8665054,21.9800288 23.4749659,21.4463658 C23.1952949,21.0667489 22.9373544,20.6733625 22.7059193,20.2738564 C23.1595321,18.8727162 23.3895055,17.7352997 23.3895055,16.8921103 C23.3895055,15.8569132 22.9715581,14.75 21.7984989,14.75 C21.4130985,14.75 21.0184408,14.9787264 20.8164345,15.318756 C20.316145,16.1618498 20.5165921,17.8968999 21.3152624,19.6624532 C21.0371505,20.4736094 20.7340924,21.2634421 20.3627243,22.1384734 C20.0505062,22.8779136 19.6791381,23.6341832 19.2860396,24.3325062 C18.0896907,24.8052583 15.5460485,25.9517588 15.3036995,27.2187422 C15.2321738,27.5984547 15.3549562,27.9566524 15.6517778,28.2280259 C15.7433774,28.3134158 16.0930149,28.5909091 16.6881198,28.5909091 C18.2200739,28.5909091 19.747448,26.5097096 20.7760917,24.7182429 C21.3602826,24.5230796 21.9569466,24.3462757 22.5504924,24.1922296 C23.2015315,24.0230754 23.83084,23.8843287 24.4242883,23.7805795 C26.0464777,25.1695758 27.4883914,25.3799429 28.2108587,25.3799429 C29.2037396,25.3799429 29.5750102,24.9575832 29.7102657,24.6023497 C29.8889823,24.1389685 29.7148457,23.6586623 29.4787332,23.4101423 C29.014109,22.920752 28.1253982,22.6721364 26.8373523,22.6721364 Z" id="Fill-4-Copy-5" fill="#FA0F00"></path>
    </g>
</svg>