<svg xmlns="http://www.w3.org/2000/svg" width="42" height="42" viewBox="0 0 42 42"><g fill="none" fill-rule="evenodd"><path fill="#8E8E8E" fill-rule="nonzero" d="M27.0856455,10.0314676 L27.1485341,10.1230882 C27.3326455,10.4389541 27.2625922,10.8503992 26.96856,11.0856455 C26.6451245,11.3444164 26.173153,11.2919954 25.9143821,10.96856 L25.9143821,10.96856 L23.9143821,8.46877764 L23.8494503,8.37352167 C23.697941,8.10980417 23.7195694,7.77522244 23.9143423,7.53173506 L23.9143423,7.53173506 L25.9143423,5.03151739 L25.9899234,4.95005085 C26.2576706,4.70109351 26.674458,4.679121 26.9685102,4.9143423 C27.2919677,5.17308572 27.3444287,5.64505277 27.0856853,5.96851021 L27.0856853,5.96851021 L26.0600138,7.24998617 L28.4789776,7.2500276 L28.7131576,7.25400583 C32.0550618,7.3677213 34.7500276,9.90522013 34.7500276,13.0519688 L34.7500276,13.0519688 L34.7500276,15.0000276 L34.743181,15.1017982 C34.6935186,15.4678737 34.3797234,15.7500276 34.0000276,15.7500276 C33.585814,15.7500276 33.2500276,15.4142412 33.2500276,15.0000276 L33.2500276,15.0000276 L33.2500276,13.0519688 L33.2448682,12.8507176 C33.1283441,10.5822968 31.0524091,8.7500276 28.4789776,8.7500276 L28.4789776,8.7500276 L26.0600138,8.74998617 L27.0856455,10.0314676 Z" transform="matrix(0 -1 -1 0 39.5 39.5)"/><path fill="#FE0200" fill-rule="nonzero" d="M4.99998615,26.2499862 C5.41419971,26.2499862 5.74998615,26.5857726 5.74998615,26.9999862 L5.74998615,26.9999862 L5.74998615,28.948045 L5.75514552,29.1492962 C5.87166962,31.417717 7.94760465,33.2499862 10.5210362,33.2499862 L10.5210362,33.2499862 L12.9389862,33.2489862 L11.9143683,31.9685185 L11.8514798,31.8768979 C11.6673683,31.561032 11.7374216,31.1495869 12.0314539,30.9143407 C12.3548893,30.6555698 12.8268608,30.7079907 13.0856317,31.0314262 L13.0856317,31.0314262 L15.0856317,33.5312085 L15.1505636,33.6264645 C15.3020729,33.890182 15.2804445,34.2247637 15.0856715,34.4682511 L15.0856715,34.4682511 L13.0856715,36.9684688 L13.0100904,37.0499353 C12.7423433,37.2988927 12.3255558,37.3208652 12.0315036,37.0856439 C11.7080462,36.8269004 11.6555851,36.3549334 11.9143285,36.0314759 L11.9143285,36.0314759 L12.9379862,34.7499862 L10.5210362,34.7499862 L10.2868562,34.746008 C6.94495199,34.6322925 4.24998615,32.0947937 4.24998615,28.948045 L4.24998615,28.948045 L4.24998615,26.9999862 L4.25683277,26.8982156 C4.30649519,26.5321401 4.62029038,26.2499862 4.99998615,26.2499862 Z" transform="matrix(0 -1 -1 0 41.5 41.5)"/><path fill="#8E8E8E" fill-rule="nonzero" d="M13.3883103,1.5 L3.88414042,1.5 C2.2889898,1.5 1,2.79775394 1,4.39355151 L1,20.6064485 C1,22.2022461 2.2889898,23.5 3.88414042,23.5 L16.1158596,23.5 C17.7110102,23.5 19,22.2022461 19,20.6064485 L18.9803077,7.02879611 C18.9797205,6.35700087 18.7135828,5.71149159 18.2393875,5.23466645 L15.1689785,2.23380437 C14.709936,1.77080878 14.063372,1.50059892 13.3883103,1.5 Z M13.3869808,3 C13.6622107,3.00024394 13.9260794,3.1105191 14.1205752,3.30658133 L17.1757984,6.2923895 C17.3705365,6.48820768 17.480067,6.75387056 17.4803093,7.0309718 L17.5,20.6064485 C17.5,21.3760857 16.8802992,22 16.1158596,22 L3.88414042,22 C3.11970077,22 2.5,21.3760857 2.5,20.6064485 L2.5,4.39355151 C2.5,3.62391426 3.11970077,3 3.88414042,3 L13.3869808,3 Z"/><path fill="#FE0200" fill-rule="nonzero" d="M34.3883103,19.5 L24.8841404,19.5 C23.2889898,19.5 22,20.7977539 22,22.3935515 L22,38.6064485 C22,40.2022461 23.2889898,41.5 24.8841404,41.5 L37.1158596,41.5 C38.7110102,41.5 40,40.2022461 40,38.6064485 L39.9803077,25.0287961 C39.9797205,24.3570009 39.7135828,23.7114916 39.2393875,23.2346665 L36.1689785,20.2338044 C35.709936,19.7708088 35.063372,19.5005989 34.3883103,19.5 Z M34.3869808,21 C34.6622107,21.0002439 34.9260794,21.1105191 35.1205752,21.3065813 L38.1757984,24.2923895 C38.3705365,24.4882077 38.480067,24.7538706 38.4803093,25.0309718 L38.5,38.6064485 C38.5,39.3760857 37.8802992,40 37.1158596,40 L24.8841404,40 C24.1197008,40 23.5,39.3760857 23.5,38.6064485 L23.5,22.3935515 C23.5,21.6239143 24.1197008,21 24.8841404,21 L34.3869808,21 Z" transform="matrix(0 -1 -1 0 61.5 61.5)"/><path fill="#FE0200" fill-rule="nonzero" d="M31.75,30.25 L31.75,28 C31.75,27.586 31.414,27.25 31,27.25 C30.586,27.25 30.25,27.586 30.25,28 L30.25,30.25 L28,30.25 C27.586,30.25 27.25,30.586 27.25,31 C27.25,31.414 27.586,31.75 28,31.75 L30.25,31.75 L30.25,34 C30.25,34.414 30.586,34.75 31,34.75 C31.414,34.75 31.75,34.414 31.75,34 L31.75,31.75 L34,31.75 C34.414,31.75 34.75,31.414 34.75,31 C34.75,30.586 34.414,30.25 34,30.25 L31.75,30.25 Z"/><path fill="#8E8E8E" fill-rule="nonzero" d="M6.0143,8.05 L11.0143,8.05 C11.2904424,8.05 11.5143,8.2738576 11.5143,8.55 C11.5143,8.8261424 11.2904424,9.05 11.0143,9.05 L6.0143,9.05 C5.7381576,9.05 5.5143,8.8261424 5.5143,8.55 C5.5143,8.2738576 5.7381576,8.05 6.0143,8.05 Z M6.0143,11.05 L14.0143,11.05 C14.2904424,11.05 14.5143,11.2738576 14.5143,11.55 C14.5143,11.8261424 14.2904424,12.05 14.0143,12.05 L6.0143,12.05 C5.7381576,12.05 5.5143,11.8261424 5.5143,11.55 C5.5143,11.2738576 5.7381576,11.05 6.0143,11.05 Z M6.0143,14.05 L14.0143,14.05 C14.2904424,14.05 14.5143,14.2738576 14.5143,14.55 C14.5143,14.8261424 14.2904424,15.05 14.0143,15.05 L6.0143,15.05 C5.7381576,15.05 5.5143,14.8261424 5.5143,14.55 C5.5143,14.2738576 5.7381576,14.05 6.0143,14.05 Z"/></g></svg>