<?xml version="1.0" encoding="UTF-8"?>
<svg width="42px" height="42px" viewBox="0 0 42 42" version="1.1" xmlns="http://www.w3.org/2000/svg" xmlns:xlink="http://www.w3.org/1999/xlink">
    <title>s_illu_edit-ppt-file-free_42</title>
    <g id="s_illu_edit-ppt-file-free_42" stroke="none" stroke-width="1" fill="none" fill-rule="evenodd">
        <path d="M32,9 C32.2901315,9 32.565834,9.06177826 32.8146704,9.17289782 L31.842,10.5 L9,10.5 C8.75454011,10.5 8.55039163,10.6768752 8.50805567,10.9101244 L8.5,11 L8.5,13 L28,13 C28.601508,13 29.140996,13.2655392 29.5076349,13.6857884 L28.5,15.059 L28.5,15 C28.5,14.7545401 28.3231248,14.5503916 28.0898756,14.5080557 L28,14.5 L5,14.5 C4.75454011,14.5 4.55039163,14.6768752 4.50805567,14.9101244 L4.5,15 L4.5,32 C4.5,32.2454599 4.67687516,32.4496084 4.91012437,32.4919443 L5,32.5 L28,32.5 C28.2454599,32.5 28.4496084,32.3231248 28.4919443,32.0898756 L28.5,32 L28.5,28.027 L30,26.797 L30,28.5 L32,28.5 C32.2454599,28.5 32.4496084,28.3231248 32.4919443,28.0898756 L32.5,28 L32.5,24.612 L34,22.56 L34,28 C34,29.1045695 33.1045695,30 32,30 L30,30 L30,32 C30,33.1045695 29.1045695,34 28,34 L5,34 C3.8954305,34 3,33.1045695 3,32 L3,15 C3,13.8954305 3.8954305,13 5,13 L7,13 L7,11 C7,9.8954305 7.8954305,9 9,9 L32,9 Z" id="Combined-Shape" fill="#8E8E8E" fill-rule="nonzero"></path>
        <path d="M38.3889341,5.79603659 C39.0065637,4.94992268 40.1989099,4.74709126 41.0753166,5.33857803 C41.910107,5.91297724 42.1459112,7.01709671 41.6327942,7.87274199 L41.5455302,8.00566554 L30.4810989,23.1397674 L30.3512113,23.2770759 L26.6292763,26.3290923 C26.0551008,26.7999208 25.2423997,26.2419248 25.4265936,25.5623232 L25.4580061,25.4689817 L27.2368654,21.0516597 L27.2686886,20.9826673 L27.3276452,20.8884684 L38.3889341,5.79603659 Z M40.2306345,6.57812078 C40.0516118,6.45730597 39.810616,6.47939349 39.6588014,6.61607279 L39.5996387,6.68158293 L28.5917138,21.6991437 L27.9427138,23.3121437 L29.3247138,22.1781437 L40.3302579,7.12642859 C40.4426983,6.96937599 40.4233395,6.76458346 40.2931529,6.63077511 L40.2306345,6.57812078 Z" id="Shape" fill="#FA0F00" fill-rule="nonzero"></path>
        <path d="M23.3993914,24.0271156 L14.9836573,28.1433954 C14.7822763,28.2419713 14.5448995,28.2362829 14.3485609,28.128176 C14.1522222,28.020069 14.0219424,27.8233206 14,27.6017796 L14,19.3692201 C14,18.9359276 14.5464763,18.7192813 14.9836573,18.8276044 L23.3993914,22.943884 C23.6012095,23.0505659 23.727273,23.2588057 23.727273,23.4854998 C23.727273,23.7121939 23.6012095,23.9204338 23.3993914,24.0271156 Z" id="Path-Copy" fill="#8E8E8E" fill-rule="nonzero"></path>
    </g>
</svg>