<?xml version="1.0" encoding="UTF-8"?>
<svg width="42px" height="42px" viewBox="0 0 42 42" version="1.1" xmlns="http://www.w3.org/2000/svg" xmlns:xlink="http://www.w3.org/1999/xlink">
    <title>s_illu_reuse-file-content_42</title>
    <g id="s_illu_reuse-file-content_42" stroke="none" stroke-width="1" fill="none" fill-rule="evenodd">
        <path d="M10.4795986,4 C10.9867926,4 11.4743599,4.175 11.8493323,4.48 L11.9846528,4.601 L12.5392749,5.12938261 C12.8576464,5.4326918 12.8698569,5.93666357 12.5665477,6.25503509 C12.4144804,6.414654 12.2030372,6.5040762 11.9825869,6.502 L11.9825869,6.502 L11.9825869,6.502 C11.8493323,6.5 11.7222755,6.45 11.6262082,6.359 L10.8845274,5.656 C10.8060208,5.58 10.6934258,5.526 10.571534,5.507 L10.4795986,5.5 L2.43783664,5.5 C1.98539069,5.5 1.61145134,5.83 1.55670331,6.258 L1.54947244,6.368 L1.54947244,19.632 C1.54947244,20.076 1.8893234,20.44 2.32627463,20.493 L2.34794276,20.4931966 C2.76323522,20.4969639 3.0979119,20.8346904 3.0979119,21.25 L3.0979119,21.3399247 C3.0979119,21.7044742 2.80238614,22 2.43783664,22 L2.43783664,22 L2.43783664,22 C1.14557663,22 0.0909023832,21.025 0.00516490814,19.794 L0,19.632 L0,6.368 C0,5.116 1.0009592,4.089 2.27049362,4.005 L2.43783664,4 L10.4795986,4 Z" id="Fill-8-Copy-3" fill="#8E8E8E"></path>
        <path d="M14.4795986,8 C14.9867926,8 15.4743599,8.175 15.8493323,8.48 L15.9846528,8.601 L16.5392749,9.12938261 C16.8576464,9.4326918 16.8698569,9.93666357 16.5665477,10.2550351 C16.4144804,10.414654 16.2030372,10.5040762 15.9825869,10.502 L15.9825869,10.502 L15.9825869,10.502 C15.8493323,10.5 15.7222755,10.45 15.6262082,10.359 L14.8845274,9.656 C14.8060208,9.58 14.6934258,9.526 14.571534,9.507 L14.4795986,9.5 L6.43783664,9.5 C5.98539069,9.5 5.61145134,9.83 5.55670331,10.258 L5.54947244,10.368 L5.54947244,23.632 C5.54947244,24.076 5.8893234,24.44 6.32627463,24.493 L6.34794276,24.4931966 C6.76323522,24.4969639 7.0979119,24.8346904 7.0979119,25.25 L7.0979119,25.3399247 C7.0979119,25.7044742 6.80238614,26 6.43783664,26 L6.43783664,26 L6.43783664,26 C5.14557663,26 4.09090238,25.025 4.00516491,23.794 L4,23.632 L4,10.368 C4,9.116 5.0009592,8.089 6.27049362,8.005 L6.43783664,8 L14.4795986,8 Z" id="Fill-8-Copy-4" fill="#8E8E8E"></path>
        <g id="Group-9-Copy-2" transform="translate(28.524192, 27.000001) rotate(-118.000000) translate(-28.524192, -27.000001) translate(17.774193, 16.250001)" fill="#FA0F00" fill-rule="nonzero">
            <path d="M20.75,9.75640325 C21.1642136,9.75640325 21.4999977,10.0921897 21.4999977,10.5064033 C21.4999977,16.572363 16.7374661,21.5 10.8496204,21.5 C8.07283945,21.5 5.46579158,20.3971507 3.50397375,18.466974 L3.50000121,20.7513478 C3.49931644,21.131043 3.21659909,21.4443306 2.85043487,21.4933351 L2.74865218,21.5 C2.36895702,21.4993164 2.05566939,21.2165991 2.00666492,20.8504349 L2.00000121,20.7486522 L2.00668256,17.0308058 C2.00762084,16.5055117 2.40850144,16.069514 2.91973891,16.0128998 L3.03087339,16.0066808 L6.74865251,16 C7.1628654,15.999257 7.49925459,16.3344396 7.50000121,16.7486525 C7.50068097,17.1283477 7.21909133,17.4426493 6.85310558,17.4929693 L6.75134749,17.5 L4.66599573,17.5042223 C6.3381534,19.0965822 8.52444001,20 10.8496204,20 C15.8973846,20 19.9999977,15.755159 19.9999977,10.5064033 C19.9999977,10.0921897 20.3357864,9.75640325 20.75,9.75640325 Z M18.7513478,1.2110977e-06 C19.131043,0.000683562207 19.4443306,0.283400909 19.4933351,0.649565128 L19.5,0.751347825 L19.4933174,4.46919416 C19.4923792,4.9944883 19.0914986,5.43048601 18.5802611,5.4871002 L18.4691266,5.49331921 L14.7513475,5.50000121 C14.3371346,5.50074299 14.0007454,5.16556039 14,4.75134749 C13.999319,4.37165234 14.2809087,4.05735072 14.6468944,4.00703066 L14.7486525,4.00000121 L16.9303485,3.99559478 C15.2466241,2.40246341 13.0470074,1.5 10.7079629,1.5 C5.62738745,1.5 1.5,5.74570905 1.5,10.9934322 C1.5,11.4076457 1.16421356,11.7434322 0.75,11.7434322 C0.335786438,11.7434322 -1.45519152e-11,11.4076457 -1.45519152e-11,10.9934322 C-1.45519152e-11,4.92662163 4.78932401,0 10.7079629,0 C13.4525884,0 16.0333348,1.06568428 17.9957729,2.93879741 L18,0.748652175 C18.0006836,0.368957023 18.2834009,0.0556693929 18.6495651,0.00666492421 L18.7513478,1.2110977e-06 Z" id="Combined-Shape"></path>
        </g>
        <path d="M18.3268,12 C18.8268,12 19.3068,12.175 19.6768,12.48 L21.5120014,14.2792746 C21.8042299,14.5657822 21.8141106,15.0332405 21.5342496,15.3318405 C21.2595251,15.62496 20.7991966,15.6398721 20.5060771,15.3651476 C20.50395,15.363154 20.501835,15.3611477 20.4997321,15.3591287 L18.7258,13.656 L18.7258,13.656 C18.6488,13.58 18.5378,13.526 18.4178,13.507 L10.4028,13.5 C9.9568,13.5 9.5878,13.83 9.5338,14.258 L9.5268,27.632 C9.5268,28.076 9.8618,28.44 10.2928,28.493 L14.8908,28.501 C15.2958,28.501 15.6258,28.826 15.6328,29.231 C15.6328,29.236 15.6328,29.241 15.6328,29.246 C15.6408,29.661 15.3058,30.001 14.8908,30.001 L10.4028,30 C9.1288,30 8.0898,29.024 8.0048,27.794 L7.9998,14.311 C7.9998,13.064 8.9908,12.043 10.2378,12.005 L18.3268,12 Z" id="Fill-1" fill="#8E8E8E"></path>
    </g>
</svg>