<svg xmlns="http://www.w3.org/2000/svg" width="42" height="42" viewBox="0 0 42 42">
  <g fill="none" fill-rule="evenodd">
    <path fill="#8E8E8E" fill-rule="nonzero" d="M39.7,13.2 L31.7,5.5 C30.5,4.2 28.4,4.2 27.1,5.4 L25.2,7.2 L19.4,4.8 C18.4,4.4 17.3,4.5 16.4,5 C15.8,5.4 15.4,5.9 15.1,6.6 L14,9.2 L8.5,9.2 C6.7,9.2 5.3,10.7 5.3,12.4 L5.3,14.2 C5.3,14.6 5.6,15 6.1,15 C6.5,15 6.9,14.7 6.9,14.2 L6.9,12.4 C6.9,11.4 7.7,10.7 8.6,10.7 L19,10.7 C19.5,10.7 20,10.9 20.4,11.3 L24.2,15 C24.6,15.4 24.8,15.9 24.8,16.4 L24.8,34 C24.8,35 24,35.7 23.1,35.7 L8.5,35.7 C7.5,35.7 6.8,34.9 6.8,34 L6.8,31.7 C6.8,31.3 6.5,30.9 6,30.9 C5.6,30.9 5.2,31.2 5.2,31.7 L5.2,34 C5.2,35.8 6.7,37.2 8.4,37.2 L23,37.2 C23.8,37.2 24.4,36.9 25,36.5 C25.8,36.4 26.5,36.1 27,35.6 L39.6,23.4 C40.3,22.8 40.6,21.9 40.7,20.9 L40.8,15.6 C40.8,14.8 40.4,13.9 39.7,13.2 Z M26.3,32.3 L26.3,16.5 C26.3,15.6 25.9,14.7 25.3,14 L21.5,10.3 C20.8,9.6 20,9.3 19,9.3 L15.6,9.3 L16.5,7.2 C16.7,6.8 17,6.4 17.5,6.3 C17.7,6.2 17.9,6.2 18.1,6.2 C18.3,6.2 18.6,6.2 18.8,6.3 L29.3,10.6 C29.8,10.8 30.2,11.2 30.4,11.7 L32.4,16.6 C32.6,17.1 32.6,17.6 32.4,18.1 L26.3,32.3 Z M39.2,21 C39.2,21.5 39,22 38.6,22.4 L27.6,33.1 L33.8,18.7 C34.2,17.8 34.2,16.9 33.8,16 L31.8,11.1 C31.5,10.2 30.8,9.6 29.9,9.2 L26.7,7.9 L28.1,6.5 C28.1,6.5 28.1,6.5 28.1,6.5 C28.4,6.2 28.9,6 29.3,6 C29.8,6 30.2,6.2 30.6,6.5 L38.6,14.2 C39,14.6 39.2,15.1 39.2,15.6 L39.2,21 Z"/>
    <path fill="#FE0200" fill-rule="nonzero" d="M11,22 L6.8,22 L6.8,17.8 C6.8,17.4 6.5,17 6,17 C5.5,17 5.2,17.3 5.2,17.8 L5.2,22 L1,22 C0.6,22 0.2,22.3 0.2,22.8 C0.2,23.3 0.5,23.6 1,23.6 L5.2,23.6 L5.2,27.8 C5.2,28.2 5.5,28.6 6,28.6 C6.5,28.6 6.8,28.3 6.8,27.8 L6.8,23.6 L11,23.6 C11.4,23.6 11.8,23.3 11.8,22.8 C11.8,22.3 11.4,22 11,22 Z"/>
  </g>
</svg>
