<svg xmlns="http://www.w3.org/2000/svg" width="42" height="42" viewBox="0 0 42 42">
  <g fill="none" fill-rule="evenodd">
    <path fill="#FA0F00" fill-rule="nonzero" d="M26.5856455,12.5314676 L26.6485341,12.6230882 C26.8326455,12.9389541 26.7625922,13.3503992 26.46856,13.5856455 C26.1451245,13.8444164 25.673153,13.7919954 25.4143821,13.46856 L25.4143821,13.46856 L23.4143821,10.9687776 L23.3494503,10.8735217 C23.197941,10.6098042 23.2195694,10.2752224 23.4143423,10.0317351 L23.4143423,10.0317351 L25.4143423,7.53151739 L25.4899234,7.45005085 C25.7576706,7.20109351 26.174458,7.179121 26.4685102,7.4143423 C26.7919677,7.67308572 26.8444287,8.14505277 26.5856853,8.46851021 L26.5856853,8.46851021 L25.5600138,9.74998617 L27.9789776,9.7500276 L28.2131576,9.75400583 C31.5550618,9.8677213 34.2500276,12.4052201 34.2500276,15.5519688 L34.2500276,15.5519688 L34.2500276,17.5000276 L34.243181,17.6017982 C34.1935186,17.9678737 33.8797234,18.2500276 33.5000276,18.2500276 C33.085814,18.2500276 32.7500276,17.9142412 32.7500276,17.5000276 L32.7500276,17.5000276 L32.7500276,15.5519688 L32.7448682,15.3507176 C32.6283441,13.0822968 30.5524091,11.2500276 27.9789776,11.2500276 L27.9789776,11.2500276 L25.5600138,11.2499862 L26.5856455,12.5314676 Z" transform="matrix(0 -1 -1 0 41.5 41.5)"/>
    <path fill="#8E8E8E" fill-rule="nonzero" d="M7.49998615,26.7499862 C7.91419971,26.7499862 8.24998615,27.0857726 8.24998615,27.4999862 L8.24998615,27.4999862 L8.24998615,29.448045 L8.25514552,29.6492962 C8.37166962,31.917717 10.4476047,33.7499862 13.0210362,33.7499862 L13.0210362,33.7499862 L15.4389862,33.7489862 L14.4143683,32.4685185 L14.3514798,32.3768979 C14.1673683,32.061032 14.2374216,31.6495869 14.5314539,31.4143407 C14.8548893,31.1555698 15.3268608,31.2079907 15.5856317,31.5314262 L15.5856317,31.5314262 L17.5856317,34.0312085 L17.6505636,34.1264645 C17.8020729,34.390182 17.7804445,34.7247637 17.5856715,34.9682511 L17.5856715,34.9682511 L15.5856715,37.4684688 L15.5100904,37.5499353 C15.2423433,37.7988927 14.8255558,37.8208652 14.5315036,37.5856439 C14.2080462,37.3269004 14.1555851,36.8549334 14.4143285,36.5314759 L14.4143285,36.5314759 L15.4379862,35.2499862 L13.0210362,35.2499862 L12.7868562,35.246008 C9.44495199,35.1322925 6.74998615,32.5947937 6.74998615,29.448045 L6.74998615,29.448045 L6.74998615,27.4999862 L6.75683277,27.3982156 C6.80649519,27.0321401 7.12029038,26.7499862 7.49998615,26.7499862 Z" transform="matrix(0 -1 -1 0 44.5 44.5)"/>
    <path fill="#8E8E8E" fill-rule="nonzero" d="M12.3883103 2L2.88414042 2C1.2889898 2 0 3.29775394 0 4.89355151L0 21.1064485C0 22.7022461 1.2889898 24 2.88414042 24L15.1158596 24C16.7110102 24 18 22.7022461 18 21.1064485L17.9803077 7.52879611C17.9797205 6.85700087 17.7135828 6.21149159 17.2393875 5.73466645L14.1689785 2.73380437C13.709936 2.27080878 13.063372 2.00059892 12.3883103 2zM12.3869808 3.5C12.6622107 3.50024394 12.9260794 3.6105191 13.1205752 3.80658133L16.1757984 6.7923895C16.3705365 6.98820768 16.480067 7.25387056 16.4803093 7.5309718L16.5 21.1064485C16.5 21.8760857 15.8802992 22.5 15.1158596 22.5L2.88414042 22.5C2.11970077 22.5 1.5 21.8760857 1.5 21.1064485L1.5 4.89355151C1.5 4.12391426 2.11970077 3.5 2.88414042 3.5L12.3869808 3.5zM40.5117647 21L24.4850868 21C23.6661474 21.0071748 23.0040263 21.669296 22.9968515 22.4882353L22.9968515 24.0058418 21.5086162 24.0058418C20.6896768 24.0130166 20.0275557 24.6751378 20.0203809 25.4940771L20.0203809 37.2352941C20.0275557 38.0542335 20.6896768 38.7163546 21.5086162 38.7235294L37.5352941 38.7235294C38.3542335 38.7163546 39.0163546 38.0542335 39.0235294 37.2352941L39.0235294 35.7470588 40.5117647 35.7470588C41.330704 35.739884 41.9928252 35.0777629 42 34.2588235L42 22.4882353C41.9928252 21.669296 41.330704 21.0071748 40.5117647 21zM37.6029412 37.1676471L21.5762632 37.1676471 21.5762632 25.42643 37.6029412 25.42643 37.6029412 37.1676471zM39.0235294 34.2588235L39.0235294 25.4940771C39.0163546 24.6751378 38.3542335 24.0130166 37.5352941 24.0058418L24.4850868 24.0058418 24.4850868 22.4882353 40.5117647 22.4882353 40.5117647 34.2588235 39.0235294 34.2588235z"/>
    <path fill="#8E8E8E" fill-rule="nonzero" d="M32.8346028,31.6205882 L27.6257793,34.1911765 C27.5011368,34.2527365 27.3542151,34.2491841 27.2326935,34.1816721 C27.1111719,34.11416 27.0305367,33.991292 27.0169557,33.8529412 L27.0169557,28.7117647 C27.0169557,28.4411765 27.355191,28.3058824 27.6257793,28.3735294 L32.8346028,30.9441176 C32.9595158,31.0107397 33.0375414,31.140784 33.0375414,31.2823529 C33.0375414,31.4239218 32.9595158,31.5539662 32.8346028,31.6205882 Z"/>
    <path fill="#FA0F00" d="M6.00096788,14.7026278 C5.18959594,15.9845348 4.3910466,16.7947183 3.92427185,16.7947183 C3.83814272,16.7947183 3.76741683,16.7693951 3.71596515,16.7215185 C3.62209407,16.6356571 3.58741661,16.5422778 3.60927148,16.4287192 C3.69798126,15.96942 4.62249849,15.3069814 6.00096788,14.7026278 L6.00096788,14.7026278 Z M9.90105318,12.8692295 C9.55258502,12.941084 9.19250394,13.0244131 8.82734222,13.1189794 C8.56500319,13.1871937 8.29887384,13.2615806 8.03266385,13.3411112 C8.17411563,13.0572541 8.3039545,12.7758503 8.41709979,12.508295 C8.56629352,12.1550367 8.70645498,11.8016991 8.83508416,11.4560377 C8.94822946,11.6301346 9.06524573,11.799246 9.184762,11.9619474 C9.42137518,12.2837101 9.6762142,12.5913867 9.92952095,12.8626613 L9.90105318,12.8692295 Z M8.09951877,6.76840029 C8.16508336,6.65737396 8.27056736,6.59050494 8.37984168,6.59050494 C8.68718076,6.59050494 8.75403568,6.95389259 8.75403568,7.25800817 C8.75661633,7.74255142 8.6074226,8.51482932 8.3515352,9.36901189 C7.83588942,8.02894078 7.90790564,7.09016296 8.09951877,6.76840029 L8.09951877,6.76840029 Z M13.8731547,13.7713678 C13.828074,13.9997513 13.5876705,14.147338 13.2584765,14.147338 C13.1683958,14.147338 13.0746053,14.1360217 12.9807343,14.1133099 C12.3763787,13.9720541 11.7976683,13.6855064 11.2203289,13.2388688 C11.7617006,13.158072 12.2181527,13.1405041 12.5229918,13.1405041 C12.8701696,13.1405041 13.1877506,13.164482 13.390896,13.206107 C13.6519447,13.2591274 13.9463806,13.4003832 13.8731547,13.7713678 L13.8731547,13.7713678 Z M14.7475106,13.1670143 C14.362994,12.7620017 13.6275092,12.5562508 12.5615402,12.5562508 C12.0368622,12.5562508 11.4441195,12.606818 10.7959736,12.7064489 C10.4449248,12.3746361 10.1029083,11.9834721 9.77887561,11.54182 C9.54742372,11.2276543 9.33395572,10.9020931 9.14242324,10.5714673 C9.51782691,9.41190303 9.70814972,8.47059289 9.70814972,7.77278097 C9.70814972,6.91606609 9.36226221,6 8.3914546,6 C8.07250261,6 7.74588931,6.18929078 7.5787117,6.47069464 C7.16467894,7.16842742 7.33056624,8.60433094 7.99153477,10.0654785 C7.7613732,10.7367802 7.51056645,11.3904348 7.20322738,12.1145987 C6.94483997,12.7265492 6.6375009,13.3524275 6.31217793,13.9303499 C5.3220961,14.3215931 3.21701294,15.2704211 3.01644819,16.318959 C2.95725457,16.6332039 3.05886759,16.9296434 3.30451305,17.1542283 C3.38031959,17.2248959 3.66967477,17.4545455 4.16217536,17.4545455 C5.42999946,17.4545455 6.69403322,15.7321734 7.54532456,14.2495803 C8.02879288,14.0880659 8.52258379,13.9417454 9.01379405,13.814259 C9.55258502,13.6742693 10.0733921,13.5594445 10.5645217,13.4735831 C11.9070233,14.6230972 13.1003312,14.7971941 13.6982351,14.7971941 C14.5199297,14.7971941 14.8271881,14.4476551 14.9391237,14.1536688 C15.0870271,13.7701808 14.942914,13.372686 14.7475106,13.1670143 L14.7475106,13.1670143 Z"/>
  </g>
</svg>
