<svg xmlns="http://www.w3.org/2000/svg" width="42" height="42" viewBox="0 0 42 42"><g fill="none" fill-rule="evenodd"><g transform="translate(7 7)"><path fill="#8E8E8E" fill-rule="nonzero" d="M17.497781,0 C18.3012834,0.00071285 19.0709861,0.32242643 19.6207934,0.87699008 L19.6207934,0.87699008 L24.1169732,5.2718027 C24.6820463,5.8400837 24.9992982,6.6096694 25,7.4130591 L25,7.4130591 L25,27.4556621 C25,29.4108788 23.4218165,31 21.4699274,31 L21.4699274,31 L3.5300726,31 C1.5781835,31 0,29.4108788 0,27.4556621 L0,27.4556621 L0,3.54433796 C0,1.58912125 1.5781835,0 3.5300726,0 L3.5300726,0 Z M17.4964516,1.50019572 L3.5300726,1.50019572 C2.4088945,1.50019572 1.5,2.41538937 1.5,3.54433796 L1.5,3.54433796 L1.5,27.4556621 C1.5,28.5846107 2.4088945,29.4998043 3.5300726,29.4998043 L3.5300726,29.4998043 L21.4699274,29.4998043 C22.5911055,29.4998043 23.5,28.5846107 23.5,27.4556621 L23.5,27.4556621 L23.5,7.4130591 C23.4996446,7.0065909 23.339,6.6169012 23.053384,6.3296637 L23.053384,6.3296637 L18.57239,1.94990701 C18.2871296,1.66231156 17.900122,1.50055355 17.4964516,1.50019572 L17.4964516,1.50019572 Z"/><path fill="#8E8E8E" fill-rule="nonzero" d="M6.5087719 23 18.7192982 23C19.0002852 23 19.2280702 23.2286205 19.2280702 23.5106383 19.2280702 23.7926561 19.0002852 24.0212766 18.7192982 24.0212766L6.5087719 24.0212766C6.2277849 24.0212766 6 23.7926561 6 23.5106383 6 23.2286205 6.2277849 23 6.5087719 23ZM6.5087719 26.0638298 18.7192982 26.0638298C19.0002852 26.0638298 19.2280702 26.2924503 19.2280702 26.5744681 19.2280702 26.8564859 19.0002852 27.0851064 18.7192982 27.0851064L6.5087719 27.0851064C6.2277849 27.0851064 6 26.8564859 6 26.5744681 6 26.2924503 6.2277849 26.0638298 6.5087719 26.0638298Z"/><path fill="#FA0F00" d="M8.87616952,16.5156753 C7.89576176,18.0646462 6.93084798,19.043618 6.36682849,19.043618 C6.26275578,19.043618 6.17729533,19.0130191 6.11512456,18.9551682 C6.001697,18.851419 5.95979507,18.7385857 5.98620303,18.601369 C6.09339402,18.0463825 7.21051901,17.2459359 8.87616952,16.5156753 L8.87616952,16.5156753 Z M13.5887726,14.300319 C13.1677069,14.3871432 12.7326089,14.4878325 12.2913718,14.6021001 C11.9743789,14.6845257 11.6528059,14.7744098 11.3311355,14.8705093 C11.5020564,14.5275154 11.658945,14.1874858 11.7956622,13.8641898 C11.975938,13.437336 12.1452998,13.0103865 12.3007267,12.5927122 C12.4374439,12.8030793 12.5788386,13.0074222 12.7232541,13.2040198 C13.0091617,13.5928163 13.3170922,13.9645923 13.6231711,14.2923824 L13.5887726,14.300319 Z M11.4119185,6.92848368 C11.4911424,6.79432687 11.6186022,6.7135268 11.750642,6.7135268 C12.1220101,6.7135268 12.2027931,7.15262021 12.2027931,7.52009321 C12.2059114,8.10558297 12.0256356,9.0387521 11.7164384,10.0708894 C11.0933664,8.45163677 11.180386,7.31728025 11.4119185,6.92848368 L11.4119185,6.92848368 Z M18.3883952,15.3904028 C18.3339227,15.6663661 18.0434352,15.8447 17.6456591,15.8447 C17.5368116,15.8447 17.4234815,15.8310262 17.3100539,15.8035828 C16.5797909,15.6328987 15.8805159,15.2866536 15.1828975,14.7469665 C15.8370548,14.6493371 16.3886012,14.6281091 16.7569484,14.6281091 C17.176455,14.6281091 17.5601987,14.6570824 17.8056661,14.7073792 C18.1210999,14.7714456 18.4768765,14.9421297 18.3883952,15.3904028 L18.3883952,15.3904028 Z M19.4449086,14.6601423 C18.9802844,14.170752 18.0915737,13.9221364 16.8035278,13.9221364 C16.1695418,13.9221364 15.4533111,13.9832385 14.6701348,14.1036258 C14.2459508,13.7026853 13.8326808,13.2300288 13.4411414,12.6963658 C13.1614703,12.3167489 12.9035298,11.9233625 12.6720947,11.5238564 C13.1257075,10.1227162 13.3556809,8.98529974 13.3556809,8.14211034 C13.3556809,7.10691319 12.9377335,6 11.7646743,6 C11.379274,6 10.9846163,6.22872636 10.78261,6.56875602 C10.2823204,7.4118498 10.4827675,9.14689989 11.2814378,10.9124532 C11.003326,11.7236094 10.7002678,12.5134421 10.3288997,13.3884734 C10.0166816,14.1279136 9.64531358,14.8841832 9.25221499,15.5825062 C8.05586612,16.0552583 5.51222397,17.2017588 5.2698749,18.4687422 C5.19834927,18.8484547 5.32113168,19.2066524 5.61795327,19.4780259 C5.70955284,19.5634158 6.05919035,19.8409091 6.65429523,19.8409091 C8.18624934,19.8409091 9.71362348,17.7597096 10.7422672,15.9682429 C11.3264581,15.7730796 11.9231221,15.5962757 12.5166678,15.4422296 C13.1677069,15.2730754 13.7970154,15.1343287 14.3904637,15.0305795 C16.0126532,16.4195758 17.4545668,16.6299429 18.1770341,16.6299429 C19.169915,16.6299429 19.5411856,16.2075832 19.6764411,15.8523497 C19.8551577,15.3889685 19.6810211,14.9086623 19.4449086,14.6601423 L19.4449086,14.6601423 Z"/></g><g transform="rotate(-90 35.877 .877)"><line x2="29.454" y1="2.751" y2="2.751" stroke="#FA0F00" stroke-linecap="round" stroke-width="1.5"/><g transform="translate(18)"><path fill="#FFF" d="M5.55028651,2.77514325 C5.55028651,4.31055356 4.30844158,5.55239849 2.77514325,5.55239849 C1.24184493,5.55239849 0,4.31055356 0,2.77514325 C0,1.24184493 1.24184493,0 2.77514325,0 C4.30844158,0 5.55028651,1.24184493 5.55028651,2.77514325 Z"/><path stroke="#FA0F00" stroke-width="1.5" d="M2.87694075,0 C4.41023907,0 5.652084,1.24184493 5.652084,2.77514325 C5.652084,4.31055356 4.41023907,5.55239849 2.87694075,5.55239849 C1.34364242,5.55239849 0.101797492,4.31055356 0.101797492,2.77514325 C0.101797492,1.24184493 1.34364242,0 2.87694075,0 Z"/></g></g></g></svg>