<?xml version="1.0" encoding="UTF-8"?>
<svg width="42px" height="42px" viewBox="0 0 42 42" version="1.1" xmlns="http://www.w3.org/2000/svg" xmlns:xlink="http://www.w3.org/1999/xlink">
    <title>S_Illu_Edit-Excel-File-Free_42</title>
    <g id="S_Illu_Edit-Excel-File-Free_42" stroke="none" stroke-width="1" fill="none" fill-rule="evenodd">
        <path d="M33.041,8.99991977 L30.109,12.9999198 L25.875,13 L25.875,17.25 L26.994,17.2499198 L25.895,18.7499198 L25.875,18.75 L25.875,18.7769198 L25.411219,19.4106235 L25.3084819,19.5621401 L25.1651555,19.7911422 L25.0985468,19.9355494 L25.0178397,20.1177861 L24.375,21.7109198 L24.375,18.75 L13.875,18.75 L13.875,22.25 L24.158,22.2499198 L23.554,23.7499198 L13.875,23.75 L13.875,27.25 L23.3570994,27.2510167 C23.4301733,27.3888184 23.513049,27.5205785 23.6045976,27.6455419 C23.8469917,27.9192468 24.0621781,28.1248176 24.2501567,28.2622542 C24.4381354,28.3996908 24.769251,28.5935372 25.2435036,28.8437934 C25.4476811,28.9127885 25.6589533,28.9620237 25.8742584,28.9894503 L25.8749825,32.125259 C25.8749823,32.2621261 25.8383204,32.3904296 25.7742814,32.5008855 L34,32.5 C34.7796961,32.5 35.4204487,31.9051119 35.4931334,31.14446 L35.5,31 L35.5,28.75 L27.5218291,28.7520367 C27.7938443,28.6327593 28.0600932,28.4708571 28.3144845,28.2622542 L28.3144845,28.2622542 L29.548,27.2499198 L35.5,27.25 L35.5,23.75 L33.23,23.7499198 L34.327,22.2499198 L35.5,22.25 L35.5,20.6459198 L37,18.5939198 L37,31 C37,32.6568542 35.6568542,34 34,34 L7,34 C5.34314575,34 4,32.6568542 4,31 L4,12 C4,10.3431458 5.34314575,9 7,9 L33.041,8.99991977 Z M12.374,28.75 L5.5,28.75 L5.5,31 C5.5,31.7796961 6.09488808,32.4204487 6.85553999,32.4931334 L7,32.5 L12.4756824,32.500886 C12.4277943,32.4182856 12.3952156,32.325705 12.381829,32.2270271 L12.3749825,32.1252565 L12.374,28.75 Z M24.356,28.75 L13.874,28.75 L13.8749825,32.125259 C13.8749823,32.2621261 13.8383204,32.3904296 13.7742814,32.5008855 L24.262,32.5 L24.356,28.75 Z M12.375,23.75 L5.5,23.75 L5.5,27.25 L12.375,27.25 L12.375,23.75 Z M12.375,18.75 L5.5,18.75 L5.5,22.25 L12.375,22.25 L12.375,18.75 Z M12.375,13 L5.5,13 L5.5,17.25 L12.375,17.25 L12.375,13 Z M24.375,13 L13.875,13 L13.875,17.25 L24.375,17.25 L24.375,13 Z" id="Combined-Shape" fill="#8E8E8E" fill-rule="nonzero"></path>
        <path d="M38.4889341,5.79603659 C39.1065637,4.94992268 40.2989099,4.74709126 41.1753166,5.33857803 C42.010107,5.91297724 42.2459112,7.01709671 41.7327942,7.87274199 L41.6455302,8.00566554 L30.5810989,23.1397674 L30.4512113,23.2770759 L26.7292763,26.3290923 C26.1551008,26.7999208 25.3423997,26.2419248 25.5265936,25.5623232 L25.5580061,25.4689817 L27.3368654,21.0516597 L27.3686886,20.9826673 L27.4276452,20.8884684 L38.4889341,5.79603659 Z M40.3306345,6.57812078 C40.1516118,6.45730597 39.910616,6.47939349 39.7588014,6.61607279 L39.6996387,6.68158293 L28.6917138,21.6991437 L28.0427138,23.3121437 L29.4247138,22.1781437 L40.4302579,7.12642859 C40.5426983,6.96937599 40.5233395,6.76458346 40.3931529,6.63077511 L40.3306345,6.57812078 Z" id="Shape" fill="#FA0F00" fill-rule="nonzero"></path>
    </g>
</svg>