<svg xmlns="http://www.w3.org/2000/svg" width="42" height="42" viewBox="0 0 42 42">
  <g fill="none" fill-rule="evenodd">
    <path fill="#8E8E8E" fill-rule="nonzero" d="M29,8.25 C21.9582309,8.25 16.25,13.9582309 16.25,21 C16.25,28.0417691 21.9582309,33.75 29,33.75 C36.0417691,33.75 41.75,28.0417691 41.75,21 C41.75,13.9582309 36.0417691,8.25 29,8.25 Z M29,9.75 C35.213342,9.75 40.25,14.786658 40.25,21 C40.25,27.213342 35.213342,32.25 29,32.25 C22.786658,32.25 17.75,27.213342 17.75,21 C17.75,14.786658 22.786658,9.75 29,9.75 Z"/>
    <path fill="#8E8E8E" fill-rule="nonzero" d="M30.2431557,12.1018376 C30.1935091,12.4681143 29.8798046,12.75 29.5,12.75 C29.0856677,12.75 28.75,12.4145327 28.75,12 C28.75,11.5857836 29.0857836,11.25 29.5,11.25 C29.8796984,11.25 30.1934914,11.5321515 30.2431534,11.8982289 L30.25,12 L30.2431557,12.1018376 Z M30.2431534,30.1017712 C30.1934914,30.4678485 29.8796984,30.75 29.5,30.75 C29.0857836,30.75 28.75,30.4142164 28.75,30 C28.75,29.5854673 29.0856677,29.25 29.5,29.25 C29.8798046,29.25 30.1935091,29.5318857 30.2431557,29.8981624 L30.25,30 L30.2431534,30.1017712 Z M20.6017468,20.2568526 C20.9677512,20.3065569 21.25,20.6205916 21.25,21 C21.25,21.4142164 20.9142164,21.75 20.5,21.75 C20.0857836,21.75 19.75,21.4142164 19.75,21 C19.75,20.6205916 20.0322488,20.3065569 20.3982532,20.2568526 L20.5,20.25 L20.6017468,20.2568526 Z M22.9695367,14.4698934 C23.2620783,14.1767349 23.7372733,14.1767349 24.0302676,14.4696975 C24.3232441,14.7626424 24.3232441,15.2376817 24.0300717,15.5308222 C23.7371224,15.8230919 23.2622293,15.8230919 22.9697324,15.5306266 C22.6767559,15.2376817 22.6767559,14.7626424 22.9695367,14.4698934 Z M23.0540608,26.3967144 C23.3477144,26.1793252 23.7643613,26.2034959 24.0302676,26.4693734 C24.3232441,26.7623183 24.3232441,27.2373576 24.0304633,27.5301066 C23.7379217,27.8232651 23.2627267,27.8232651 22.9697324,27.5303025 C22.7033901,27.2639889 22.6791772,26.8471842 22.8970936,26.5535086 L22.9697324,26.4693734 L23.0540608,26.3967144 Z"/>
    <path fill="#FA0F00" fill-rule="nonzero" d="M31.3112722 14.7030925C31.4752497 14.3227187 31.9165336 14.1472948 32.2969075 14.3112722 32.6455835 14.4615849 32.8220447 14.8449121 32.7227291 15.2007408L32.6887278 15.2969075 29.875 21.822 32.2084602 24.5080797C32.4554421 24.7923255 32.4504328 25.2096617 32.2125669 25.4873091L32.1342406 25.5661399C31.8499948 25.8131218 31.4326586 25.8081125 31.1550112 25.5702467L31.0761804 25.4919203 28.4338601 22.4509341C28.2684596 22.2605784 28.2113019 22.0020261 28.2760296 21.7630635L28.3112722 21.6621063 31.3112722 14.7030925zM13.2563226 19.7499958L1.75837989 19.7499958C1.34046094 19.7499958 1 20.084847 1 20.4999961 1 20.9151509 1.34045881 21.2499958 1.75837989 21.2499958L13.2564569 21.2499958C13.4566486 21.2501133 13.6490618 21.1717915 13.7913222 21.0318762 13.9343313 20.8912246 14.0148369 20.6998424 14.0148369 20.4999961 14.0148369 20.3001551 13.9343316 20.1087728 13.7913237 19.9681223 13.6490667 19.8282105 13.4566579 19.7498885 13.2563226 19.7499958zM13.7067681 26.7499973L6.47026407 26.7499973C6.03665085 26.7499973 5.67716062 27.0809581 5.67716062 27.4999976 5.67716062 27.9190407 6.03664936 28.2499973 6.47026407 28.2499973L13.7068965 28.2499973C13.9129301 28.2501085 14.1117717 28.1743443 14.2603466 28.0375612 14.4129951 27.8970278 14.5000004 27.7034195 14.5000004 27.4999976 14.5000004 27.2965787 14.4129959 27.10297 14.2603482 26.9624374 14.1117752 26.825656 13.9129355 26.7498917 13.7067681 26.7499973zM14.2087629 12.75L6.15867767 12.75C5.72592031 12.75 5.36744055 13.081167 5.36744055 13.5 5.36744055 13.918833 5.72592031 14.25 6.15867767 14.25L14.2087629 14.25C14.6415202 14.25 15 13.918833 15 13.5 15 13.081167 14.6415202 12.75 14.2087629 12.75z"/>
  </g>
</svg>
