<svg xmlns="http://www.w3.org/2000/svg" width="42" height="42" viewBox="0 0 42 42">
  <g fill="none" fill-rule="evenodd">
    <path fill="#8E8E8E" fill-rule="nonzero" d="M27.497781,6 L13.5300726,6 C11.5781835,6 10,7.58912125 10,9.54433796 L10,33.4556621 C10,35.4108788 11.5781835,37 13.5300726,37 L31.4699274,37 C33.4218165,37 35,35.4108788 35,33.4556621 L35,13.4130591 C34.9992982,12.6096694 34.6820463,11.8400837 34.1169732,11.2718027 L29.6207934,6.87699008 C29.0709861,6.32242643 28.3012834,6.00071285 27.497781,6 Z M27.4964516,7.50019572 C27.900122,7.50055355 28.2871296,7.66231156 28.57239,7.94990701 L33.053384,12.3296637 C33.339,12.6169012 33.4996446,13.0065909 33.5,13.4130591 L33.5,33.4556621 C33.5,34.5846107 32.5911055,35.4998043 31.4699274,35.4998043 L13.5300726,35.4998043 C12.4088945,35.4998043 11.5,34.5846107 11.5,33.4556621 L11.5,9.54433796 C11.5,8.41538937 12.4088945,7.50019572 13.5300726,7.50019572 L27.4964516,7.50019572 Z M40,4.75 C40.4142136,4.75 40.75,5.08578644 40.75,5.5 C40.75,5.87969577 40.4678461,6.19349096 40.1017706,6.24315338 L40,6.25 L38,6.25 C37.5857864,6.25 37.25,5.91421356 37.25,5.5 C37.25,5.12030423 37.5321539,4.80650904 37.8982294,4.75684662 L38,4.75 L40,4.75 Z M35,4.75 C35.4142136,4.75 35.75,5.08578644 35.75,5.5 C35.75,5.87969577 35.4678461,6.19349096 35.1017706,6.24315338 L35,6.25 L33,6.25 C32.5857864,6.25 32.25,5.91421356 32.25,5.5 C32.25,5.12030423 32.5321539,4.80650904 32.8982294,4.75684662 L33,4.75 L35,4.75 Z M36.5,1.25 C36.8796958,1.25 37.193491,1.53215388 37.2431534,1.89822944 L37.25,2 L37.25,4 C37.25,4.41421356 36.9142136,4.75 36.5,4.75 C36.1203042,4.75 35.806509,4.46784612 35.7568466,4.10177056 L35.75,4 L35.75,2 C35.75,1.58578644 36.0857864,1.25 36.5,1.25 Z M36.5,6.25 C36.8796958,6.25 37.193491,6.53215388 37.2431534,6.89822944 L37.25,7 L37.25,9 C37.25,9.41421356 36.9142136,9.75 36.5,9.75 C36.1203042,9.75 35.806509,9.46784612 35.7568466,9.10177056 L35.75,9 L35.75,7 C35.75,6.58578644 36.0857864,6.25 36.5,6.25 Z M41,16.25 C41.4142136,16.25 41.75,16.5857864 41.75,17 C41.75,17.3796958 41.4678461,17.693491 41.1017706,17.7431534 L41,17.75 L40.2,17.75 C39.7857864,17.75 39.45,17.4142136 39.45,17 C39.45,16.6203042 39.7321539,16.306509 40.0982294,16.2568466 L40.2,16.25 L41,16.25 Z M37.8,16.25 C38.2142136,16.25 38.55,16.5857864 38.55,17 C38.55,17.3796958 38.2678461,17.693491 37.9017706,17.7431534 L37.8,17.75 L37,17.75 C36.5857864,17.75 36.25,17.4142136 36.25,17 C36.25,16.6203042 36.5321539,16.306509 36.8982294,16.2568466 L37,16.25 L37.8,16.25 Z M39,14.25 C39.3796958,14.25 39.693491,14.5321539 39.7431534,14.8982294 L39.75,15 L39.75,15.8 C39.75,16.2142136 39.4142136,16.55 39,16.55 C38.6203042,16.55 38.306509,16.2678461 38.2568466,15.9017706 L38.25,15.8 L38.25,15 C38.25,14.5857864 38.5857864,14.25 39,14.25 Z M39,17.45 C39.3796958,17.45 39.693491,17.7321539 39.7431534,18.0982294 L39.75,18.2 L39.75,19 C39.75,19.4142136 39.4142136,19.75 39,19.75 C38.6203042,19.75 38.306509,19.4678461 38.2568466,19.1017706 L38.25,19 L38.25,18.2 C38.25,17.7857864 38.5857864,17.45 39,17.45 Z"/>
    <path fill="#8E8E8E" fill-rule="nonzero" d="M1.78070175,36.4042553 C2.20218222,36.4042553 2.54385965,36.7471861 2.54385965,37.1702128 C2.54385965,37.5579872 2.2567557,37.8784589 1.88425776,37.9291779 L1.78070175,37.9361702 L0.763157895,37.9361702 C0.341677428,37.9361702 0,37.5932394 0,37.1702128 C0,36.7824383 0.28710395,36.4619666 0.659601889,36.4112476 L0.763157895,36.4042553 L1.78070175,36.4042553 Z M3.81578947,33.3404255 C4.20214657,33.3404255 4.52144694,33.6285827 4.57198063,34.002447 L4.57894737,34.106383 L4.57894737,35.1276596 C4.57894737,35.5506862 4.23726994,35.893617 3.81578947,35.893617 C3.42943237,35.893617 3.11013201,35.6054598 3.05959832,35.2315955 L3.05263158,35.1276596 L3.05263158,34.106383 C3.05263158,33.6833563 3.39430901,33.3404255 3.81578947,33.3404255 Z M6.86842105,36.4042553 C7.28990152,36.4042553 7.63157895,36.7471861 7.63157895,37.1702128 C7.63157895,37.5579872 7.344475,37.8784589 6.97197706,37.9291779 L6.86842105,37.9361702 L5.85087719,37.9361702 C5.42939673,37.9361702 5.0877193,37.5932394 5.0877193,37.1702128 C5.0877193,36.7824383 5.37482325,36.4619666 5.74732118,36.4112476 L5.85087719,36.4042553 L6.86842105,36.4042553 Z M3.81578947,38.4468085 C4.20214657,38.4468085 4.52144694,38.7349657 4.57198063,39.10883 L4.57894737,39.212766 L4.57894737,40.2340426 C4.57894737,40.6570692 4.23726994,41 3.81578947,41 C3.42943237,41 3.11013201,40.7118428 3.05959832,40.3379785 L3.05263158,40.2340426 L3.05263158,39.212766 C3.05263158,38.7897393 3.39430901,38.4468085 3.81578947,38.4468085 Z M16.5087719,29 L28.7192982,29 C29.0002852,29 29.2280702,29.2286205 29.2280702,29.5106383 C29.2280702,29.7926561 29.0002852,30.0212766 28.7192982,30.0212766 L16.5087719,30.0212766 C16.2277849,30.0212766 16,29.7926561 16,29.5106383 C16,29.2286205 16.2277849,29 16.5087719,29 Z M16.5087719,32.0638298 L28.7192982,32.0638298 C29.0002852,32.0638298 29.2280702,32.2924503 29.2280702,32.5744681 C29.2280702,32.8564859 29.0002852,33.0851064 28.7192982,33.0851064 L16.5087719,33.0851064 C16.2277849,33.0851064 16,32.8564859 16,32.5744681 C16,32.2924503 16.2277849,32.0638298 16.5087719,32.0638298 Z"/>
    <path fill="#FA0F00" d="M18.8761695,22.5156753 C17.8957618,24.0646462 16.930848,25.043618 16.3668285,25.043618 C16.2627558,25.043618 16.1772953,25.0130191 16.1151246,24.9551682 C16.001697,24.851419 15.9597951,24.7385857 15.986203,24.601369 C16.093394,24.0463825 17.210519,23.2459359 18.8761695,22.5156753 L18.8761695,22.5156753 Z M23.5887726,20.300319 C23.1677069,20.3871432 22.7326089,20.4878325 22.2913718,20.6021001 C21.9743789,20.6845257 21.6528059,20.7744098 21.3311355,20.8705093 C21.5020564,20.5275154 21.658945,20.1874858 21.7956622,19.8641898 C21.975938,19.437336 22.1452998,19.0103865 22.3007267,18.5927122 C22.4374439,18.8030793 22.5788386,19.0074222 22.7232541,19.2040198 C23.0091617,19.5928163 23.3170922,19.9645923 23.6231711,20.2923824 L23.5887726,20.300319 Z M21.4119185,12.9284837 C21.4911424,12.7943269 21.6186022,12.7135268 21.750642,12.7135268 C22.1220101,12.7135268 22.2027931,13.1526202 22.2027931,13.5200932 C22.2059114,14.105583 22.0256356,15.0387521 21.7164384,16.0708894 C21.0933664,14.4516368 21.180386,13.3172802 21.4119185,12.9284837 L21.4119185,12.9284837 Z M28.3883952,21.3904028 C28.3339227,21.6663661 28.0434352,21.8447 27.6456591,21.8447 C27.5368116,21.8447 27.4234815,21.8310262 27.3100539,21.8035828 C26.5797909,21.6328987 25.8805159,21.2866536 25.1828975,20.7469665 C25.8370548,20.6493371 26.3886012,20.6281091 26.7569484,20.6281091 C27.176455,20.6281091 27.5601987,20.6570824 27.8056661,20.7073792 C28.1210999,20.7714456 28.4768765,20.9421297 28.3883952,21.3904028 L28.3883952,21.3904028 Z M29.4449086,20.6601423 C28.9802844,20.170752 28.0915737,19.9221364 26.8035278,19.9221364 C26.1695418,19.9221364 25.4533111,19.9832385 24.6701348,20.1036258 C24.2459508,19.7026853 23.8326808,19.2300288 23.4411414,18.6963658 C23.1614703,18.3167489 22.9035298,17.9233625 22.6720947,17.5238564 C23.1257075,16.1227162 23.3556809,14.9852997 23.3556809,14.1421103 C23.3556809,13.1069132 22.9377335,12 21.7646743,12 C21.379274,12 20.9846163,12.2287264 20.78261,12.568756 C20.2823204,13.4118498 20.4827675,15.1468999 21.2814378,16.9124532 C21.003326,17.7236094 20.7002678,18.5134421 20.3288997,19.3884734 C20.0166816,20.1279136 19.6453136,20.8841832 19.252215,21.5825062 C18.0558661,22.0552583 15.512224,23.2017588 15.2698749,24.4687422 C15.1983493,24.8484547 15.3211317,25.2066524 15.6179533,25.4780259 C15.7095528,25.5634158 16.0591904,25.8409091 16.6542952,25.8409091 C18.1862493,25.8409091 19.7136235,23.7597096 20.7422672,21.9682429 C21.3264581,21.7730796 21.9231221,21.5962757 22.5166678,21.4422296 C23.1677069,21.2730754 23.7970154,21.1343287 24.3904637,21.0305795 C26.0126532,22.4195758 27.4545668,22.6299429 28.1770341,22.6299429 C29.169915,22.6299429 29.5411856,22.2075832 29.6764411,21.8523497 C29.8551577,21.3889685 29.6810211,20.9086623 29.4449086,20.6601423 L29.4449086,20.6601423 Z"/>
  </g>
</svg>
