<svg xmlns="http://www.w3.org/2000/svg" width="42" height="42" viewBox="0 0 42 42">
  <g fill="none" fill-rule="evenodd">
    <path fill="#8E8E8E" fill-rule="nonzero" d="M26.997781,5.5 L13.0300726,5.5 C11.0781835,5.5 9.5,7.08891393 9.5,9.04387555 L9.5,32.9520801 C9.5,34.9070417 11.0781835,36.4959556 13.0300726,36.4959556 L30.9699274,36.4959556 C32.9218165,36.4959556 34.5,34.9070417 34.5,32.9520801 L34.5,12.912092 C34.4992982,12.1088071 34.1820463,11.3393218 33.6169732,10.7711149 L29.1207934,6.37687566 C28.5709861,5.82238436 27.8012834,5.50071276 26.997781,5.5 Z M26.9964516,7 C27.400122,7.00035778 27.7871296,7.16209469 28.07239,7.44965262 L32.553384,11.8288379 C32.839,12.1160379 32.9996446,12.5056768 33,12.912092 L33,32.9520801 C33,34.0808814 32.0911055,34.9959556 30.9699274,34.9959556 L13.0300726,34.9959556 C11.9088945,34.9959556 11,34.0808814 11,32.9520801 L11,9.04387555 C11,7.91507425 11.9088945,7 13.0300726,7 L26.9964516,7 Z"/>
    <g fill="#8E8E8E" fill-rule="nonzero" transform="translate(33 1)">
      <path d="M7 2.75C7.41421356 2.75 7.75 3.08578644 7.75 3.5 7.75 3.87969577 7.46784612 4.19349096 7.10177056 4.24315338L7 4.25 5 4.25C4.58578644 4.25 4.25 3.91421356 4.25 3.5 4.25 3.12030423 4.53215388 2.80650904 4.89822944 2.75684662L5 2.75 7 2.75zM2 2.75C2.41421356 2.75 2.75 3.08578644 2.75 3.5 2.75 3.87969577 2.46784612 4.19349096 2.10177056 4.24315338L2 4.25 0 4.25C-.414213562 4.25-.75 3.91421356-.75 3.5-.75 3.12030423-.467846118 2.80650904-.101770557 2.75684662L0 2.75 2 2.75zM3.5-.75C3.87969577-.75 4.19349096-.467846118 4.24315338-.101770557L4.25 0 4.25 2C4.25 2.41421356 3.91421356 2.75 3.5 2.75 3.12030423 2.75 2.80650904 2.46784612 2.75684662 2.10177056L2.75 2 2.75 0C2.75-.414213562 3.08578644-.75 3.5-.75zM3.5 4.25C3.87969577 4.25 4.19349096 4.53215388 4.24315338 4.89822944L4.25 5 4.25 7C4.25 7.41421356 3.91421356 7.75 3.5 7.75 3.12030423 7.75 2.80650904 7.46784612 2.75684662 7.10177056L2.75 7 2.75 5C2.75 4.58578644 3.08578644 4.25 3.5 4.25z"/>
    </g>
    <g fill="#8E8E8E" fill-rule="nonzero" transform="translate(36 13)">
      <path d="M5 2.25C5.41421356 2.25 5.75 2.58578644 5.75 3 5.75 3.37969577 5.46784612 3.69349096 5.10177056 3.74315338L5 3.75 4.2 3.75C3.78578644 3.75 3.45 3.41421356 3.45 3 3.45 2.62030423 3.73215388 2.30650904 4.09822944 2.25684662L4.2 2.25 5 2.25zM1.8 2.25C2.21421356 2.25 2.55 2.58578644 2.55 3 2.55 3.37969577 2.26784612 3.69349096 1.90177056 3.74315338L1.8 3.75 1 3.75C.585786438 3.75.25 3.41421356.25 3 .25 2.62030423.532153882 2.30650904.898229443 2.25684662L1 2.25 1.8 2.25zM3 .25C3.37969577.25 3.69349096.532153882 3.74315338.898229443L3.75 1 3.75 1.8C3.75 2.21421356 3.41421356 2.55 3 2.55 2.62030423 2.55 2.30650904 2.26784612 2.25684662 1.90177056L2.25 1.8 2.25 1C2.25.585786438 2.58578644.25 3 .25zM3 3.45C3.37969577 3.45 3.69349096 3.73215388 3.74315338 4.09822944L3.75 4.2 3.75 5C3.75 5.41421356 3.41421356 5.75 3 5.75 2.62030423 5.75 2.30650904 5.46784612 2.25684662 5.10177056L2.25 5 2.25 4.2C2.25 3.78578644 2.58578644 3.45 3 3.45z"/>
    </g>
    <path fill="#8E8E8E" fill-rule="nonzero" d="M2 35.25C2.41421356 35.25 2.75 35.5857864 2.75 36 2.75 36.3796958 2.46784612 36.693491 2.10177056 36.7431534L2 36.75 1 36.75C.585786438 36.75.25 36.4142136.25 36 .25 35.6203042.532153882 35.306509.898229443 35.2568466L1 35.25 2 35.25zM4 32.25C4.37969577 32.25 4.69349096 32.5321539 4.74315338 32.8982294L4.75 33 4.75 34C4.75 34.4142136 4.41421356 34.75 4 34.75 3.62030423 34.75 3.30650904 34.4678461 3.25684662 34.1017706L3.25 34 3.25 33C3.25 32.5857864 3.58578644 32.25 4 32.25zM7 35.25C7.41421356 35.25 7.75 35.5857864 7.75 36 7.75 36.3796958 7.46784612 36.693491 7.10177056 36.7431534L7 36.75 6 36.75C5.58578644 36.75 5.25 36.4142136 5.25 36 5.25 35.6203042 5.53215388 35.306509 5.89822944 35.2568466L6 35.25 7 35.25zM4 37.25C4.37969577 37.25 4.69349096 37.5321539 4.74315338 37.8982294L4.75 38 4.75 39C4.75 39.4142136 4.41421356 39.75 4 39.75 3.62030423 39.75 3.30650904 39.4678461 3.25684662 39.1017706L3.25 39 3.25 38C3.25 37.5857864 3.58578644 37.25 4 37.25zM16.25 28L28.25 28C28.5261424 28 28.75 28.2238576 28.75 28.5 28.75 28.7761424 28.5261424 29 28.25 29L16.25 29C15.9738576 29 15.75 28.7761424 15.75 28.5 15.75 28.2238576 15.9738576 28 16.25 28zM16.25 31L28.25 31C28.5261424 31 28.75 31.2238576 28.75 31.5 28.75 31.7761424 28.5261424 32 28.25 32L16.25 32C15.9738576 32 15.75 31.7761424 15.75 31.5 15.75 31.2238576 15.9738576 31 16.25 31z"/>
    <path fill="#FE0200" fill-rule="nonzero" d="M16.1973948,25 C15.8765291,24.9998027 15.5659238,24.8824896 15.3198117,24.6685439 C15.0679705,24.4393673 14.95287,24.0880018 15.0178476,23.7467429 C15.1827955,22.8551456 16.5978747,21.8007621 18.9018608,20.8526799 C19.3054616,20.1018497 19.6686292,19.3283072 19.9896865,18.5356252 C20.3456267,17.6550111 20.6494781,16.8238211 20.9469127,15.9216329 C20.1716199,14.1545207 19.9564705,12.3462217 20.4245148,11.5162086 C20.6032865,11.2047013 20.9230174,11.0099286 21.2719016,11 C22.3287759,11 22.7062311,12.0700737 22.7062311,13.0718949 C22.6457861,14.2678024 22.4162219,15.4479434 22.0249246,16.5743465 C22.2665064,17.0131531 22.5311245,17.4378227 22.8175803,17.8464319 C23.1963283,18.3925782 23.6237335,18.9004386 24.0941336,19.3632849 C24.8033033,19.2411818 25.5204198,19.1756147 26.2392111,19.167157 C27.4568813,19.167157 28.3204986,19.4138859 28.742116,19.8810625 C28.9101486,20.0816813 29.0018337,20.3392031 28.9999605,20.6051666 C29.0010417,20.7304875 28.979929,20.8549504 28.9376378,20.972318 C28.8179845,21.2971057 28.4877113,21.6846544 27.5897455,21.6854389 C26.2057833,21.6200148 24.8929331,21.0295405 23.8997442,20.0258048 C23.3052523,20.1328906 22.6598041,20.2803788 21.9800074,20.464739 C21.3666428,20.6322322 20.7600724,20.822084 20.1772817,21.0280183 C19.3600914,22.5229049 17.7762896,24.9972542 16.2460866,24.9980387 L16.1973948,25 Z M15.607055,23.8636351 C15.6028299,23.8871654 15.6010582,23.9111006 15.6017707,23.9350256 C15.6064632,24.1343728 15.7628108,24.2937231 15.9546912,24.2947242 C16.5121924,24.2943319 17.4305407,23.3258525 18.3866346,21.7513379 C16.768107,22.4997618 15.7104777,23.3003558 15.607055,23.8636351 Z M26.7431137,20.9499594 C26.8497872,20.975812 26.9589442,20.9889718 27.06848,20.9891849 C27.4515969,20.9891849 27.7316686,20.8111008 27.7818702,20.5365218 C27.8656652,20.0917038 27.5229359,19.9210725 27.2213493,19.8559581 C26.377576,19.7360069 25.5213289,19.7471115 24.6806988,19.8889076 C25.2884719,20.3913184 25.9913767,20.7522738 26.7431137,20.9499594 Z M21.1790476,18.9192514 C21.0103252,19.338965 20.8072543,19.7912359 20.587198,20.2376229 C21.0080604,20.1003334 21.4175993,19.9787341 21.8286479,19.8673335 C22.3491585,19.7237679 22.8647622,19.5994228 23.3622481,19.4982208 L23.3078945,19.4334986 C22.9566309,19.0491681 22.6300573,18.6412581 22.3302858,18.2124065 C22.1362738,17.9354739 21.9513208,17.6522653 21.76901,17.345129 C21.6044395,17.8272113 21.4104276,18.3442044 21.1790476,18.9192514 Z M20.9416283,11.8315822 C20.6774098,12.3022891 20.6959051,13.5296573 21.226607,15.0112073 C21.4823595,14.1725833 21.6365429,13.3041045 21.6855924,12.4258497 C21.6855924,12.0610518 21.6101014,11.6209409 21.2602005,11.6197641 C21.1445401,11.6246903 21.0373135,11.6840144 20.9688051,11.7809812 L20.9416283,11.8315822 Z"/>
  </g>
</svg>
