<svg xmlns="http://www.w3.org/2000/svg" width="42" height="42" viewBox="0 0 42 42"><g fill="none" fill-rule="evenodd"><path fill="#8E8E8E" fill-rule="nonzero" d="M39.7420604,14.75 L32.2352123,14.75 C30.8648751,14.75 29.75,15.85084 29.75,17.2133678 L29.75,36.7866322 C29.75,38.14916 30.8648751,39.25 32.2352123,39.25 L39.7420604,39.25 C41.1123976,39.25 42.2272727,38.14916 42.2272727,36.7866322 L42.2272727,17.2133678 C42.2272727,15.85084 41.1123976,14.75 39.7420604,14.75 Z M32.2352123,16.25 L39.7420604,16.25 C40.2881944,16.25 40.7272727,16.6835508 40.7272727,17.2133678 L40.7272727,36.7866322 C40.7272727,37.3164492 40.2881944,37.75 39.7420604,37.75 L32.2352123,37.75 C31.6890783,37.75 31.25,37.3164492 31.25,36.7866322 L31.25,17.2133678 C31.25,16.6835508 31.6890783,16.25 32.2352123,16.25 Z" transform="matrix(-1 0 0 1 71.977 0)"/><path fill="#8E8E8E" d="M36.1994135,35.3636364 L35.255132,35.3636364 C34.9384164,35.3636364 34.6818182,35.5975936 34.6818182,35.8863636 L34.6818182,35.8863636 C34.6818182,36.1751337 34.9384164,36.4090909 35.255132,36.4090909 L36.1994135,36.4090909 C36.516129,36.4090909 36.7727273,36.1751337 36.7727273,35.8863636 L36.7727273,35.8863636 C36.7727273,35.5975936 36.516129,35.3636364 36.1994135,35.3636364 Z" transform="matrix(-1 0 0 1 71.455 0)"/><path fill="#8E8E8E" fill-rule="nonzero" d="M4.81578947,34.1968085 C5.20214657,34.1968085 5.52144694,34.4849657 5.57198063,34.85883 L5.57894737,34.962766 L5.57894737,35.9840426 C5.57894737,36.4070692 5.23726994,36.75 4.81578947,36.75 C4.42943237,36.75 4.11013201,36.4618428 4.05959832,36.0879785 L4.05263158,35.9840426 L4.05263158,34.962766 C4.05263158,34.5397393 4.39430901,34.1968085 4.81578947,34.1968085 Z M2.78070175,32.1542553 C3.20218222,32.1542553 3.54385965,32.4971861 3.54385965,32.9202128 C3.54385965,33.3079872 3.2567557,33.6284589 2.88425776,33.6791779 L2.78070175,33.6861702 L1.76315789,33.6861702 C1.34167743,33.6861702 1,33.3432394 1,32.9202128 C1,32.5324383 1.28710395,32.2119666 1.65960189,32.1612476 L1.76315789,32.1542553 L2.78070175,32.1542553 Z M7.86842105,32.1542553 C8.28990152,32.1542553 8.63157895,32.4971861 8.63157895,32.9202128 C8.63157895,33.3079872 8.344475,33.6284589 7.97197706,33.6791779 L7.86842105,33.6861702 L6.85087719,33.6861702 C6.42939673,33.6861702 6.0877193,33.3432394 6.0877193,32.9202128 C6.0877193,32.5324383 6.37482325,32.2119666 6.74732118,32.1612476 L6.85087719,32.1542553 L7.86842105,32.1542553 Z M4.81578947,29.0904255 C5.20214657,29.0904255 5.52144694,29.3785827 5.57198063,29.752447 L5.57894737,29.856383 L5.57894737,30.8776596 C5.57894737,31.3006862 5.23726994,31.643617 4.81578947,31.643617 C4.42943237,31.643617 4.11013201,31.3554598 4.05959832,30.9815955 L4.05263158,30.8776596 L4.05263158,29.856383 C4.05263158,29.4333563 4.39430901,29.0904255 4.81578947,29.0904255 Z"/><path fill="#FA0F00" d="M27.2054,24.5297 C26.7564,24.0757 25.8984,23.8457 24.6554,23.8457 C24.0434,23.8457 23.3514,23.9017 22.5954,24.0137 C22.1854,23.6417 21.7864,23.2037 21.4084,22.7087 C21.1384,22.3567 20.8894,21.9917 20.6664,21.6217 C21.1044,20.3227 21.3264,19.2677 21.3264,18.4857 C21.3264,17.5267 20.9224,16.4997 19.7904,16.4997 C19.4174,16.4997 19.0364,16.7117 18.8414,17.0277 C18.3584,17.8087 18.5524,19.4177 19.3234,21.0547 C19.0554,21.8067 18.7624,22.5397 18.4034,23.3507 C18.1024,24.0367 17.7434,24.7377 17.3644,25.3847 C16.2094,25.8237 13.7534,26.8867 13.5194,28.0607 C13.4504,28.4127 13.5684,28.7457 13.8554,28.9967 C13.9434,29.0757 14.2814,29.3337 14.8554,29.3337 C16.3354,29.3337 17.8094,27.4037 18.8024,25.7427 C19.3664,25.5617 19.9434,25.3977 20.5164,25.2547 C21.1444,25.0977 21.7524,24.9697 22.3254,24.8727 C23.8914,26.1607 25.2834,26.3557 25.9814,26.3557 C26.9394,26.3557 27.2984,25.9647 27.4294,25.6347 C27.6014,25.2057 27.4334,24.7597 27.2054,24.5297 L27.2054,24.5297 Z M26.1854,25.2067 C26.1324,25.4627 25.8524,25.6277 25.4684,25.6277 C25.3634,25.6277 25.2534,25.6157 25.1444,25.5897 C24.4394,25.4317 23.7644,25.1107 23.0904,24.6107 C23.7224,24.5197 24.2544,24.4997 24.6104,24.4997 C25.0154,24.4997 25.3854,24.5267 25.6224,24.5737 C25.9274,24.6327 26.2704,24.7907 26.1854,25.2067 L26.1854,25.2067 Z M19.4494,17.3607 C19.5254,17.2367 19.6494,17.1617 19.7764,17.1617 C20.1354,17.1617 20.2134,17.5687 20.2134,17.9097 C20.2164,18.4527 20.0424,19.3177 19.7434,20.2747 C19.1414,18.7727 19.2254,17.7217 19.4494,17.3607 L19.4494,17.3607 Z M21.5514,24.1957 C21.1444,24.2767 20.7244,24.3697 20.2984,24.4757 C19.9924,24.5527 19.6824,24.6357 19.3714,24.7247 C19.5364,24.4067 19.6884,24.0917 19.8204,23.7917 C19.9944,23.3957 20.1574,22.9997 20.3074,22.6127 C20.4394,22.8077 20.5764,22.9977 20.7154,23.1797 C20.9914,23.5397 21.2884,23.8847 21.5844,24.1887 L21.5514,24.1957 Z M17.0014,26.2497 C16.0544,27.6867 15.1224,28.5937 14.5784,28.5937 C14.4774,28.5937 14.3954,28.5657 14.3354,28.5117 C14.2254,28.4157 14.1854,28.3117 14.2104,28.1837 C14.3144,27.6697 15.3924,26.9277 17.0014,26.2497 L17.0014,26.2497 Z"/><path fill="#8E8E8E" d="M35.2556 35.3636 36.1996 35.3636C36.5166 35.3636 36.7736 35.5976 36.7736 35.8866 36.7736 36.1746 36.5166 36.4086 36.1996 36.4086L35.2556 36.4086C34.9386 36.4086 34.6826 36.1746 34.6826 35.8866 34.6826 35.5976 34.9386 35.3636 35.2556 35.3636M35.75 4.2C36.13 4.2 36.443 4.482 36.493 4.848L36.5 4.95 36.5 5.75C36.5 6.164 36.164 6.5 35.75 6.5 35.37 6.5 35.057 6.218 35.007 5.852L35 5.75 35 4.95C35 4.536 35.336 4.2 35.75 4.2L35.75 4.2ZM35.75 1C36.13 1 36.443 1.282 36.493 1.648L36.5 1.75 36.5 2.55C36.5 2.964 36.164 3.3 35.75 3.3 35.37 3.3 35.057 3.018 35.007 2.652L35 2.55 35 1.75C35 1.336 35.336 1 35.75 1L35.75 1ZM34.55 3C34.964 3 35.3 3.336 35.3 3.75 35.3 4.13 35.018 4.443 34.652 4.493L34.55 4.5 33.75 4.5C33.336 4.5 33 4.164 33 3.75 33 3.37 33.282 3.057 33.648 3.007L33.75 3 34.55 3ZM37.75 3C38.164 3 38.5 3.336 38.5 3.75 38.5 4.13 38.218 4.443 37.852 4.493L37.75 4.5 36.95 4.5C36.536 4.5 36.2 4.164 36.2 3.75 36.2 3.37 36.482 3.057 36.848 3.007L36.95 3 37.75 3ZM28 32.119 28 33.5 11.1905 33.5C10.8091474 33.5 10.5 33.1908526 10.5 32.8095 10.5 32.4281474 10.8091474 32.119 11.1905 32.119L11.1905 32.119 28 32.119ZM36.181 8.5C36.891 8.5 37.398 8.993 37.5 9.683L37.5 9.683 37.5 13 35.978 13 35.978 10.076 5.023 10.076 5.023 14.217 29.259 14.217C29.257 14.219 29.254 14.221 29.252 14.223 28.956 14.514 28.728 14.85 28.534 15.203L28.534 15.203 5.022 15.203 5.022 26.739C5.022 27.1592887 4.68128869 27.5 4.261 27.5 3.84071131 27.5 3.5 27.1592887 3.5 26.739L3.5 26.739 3.5 9.781C3.5 9.09 4.007 8.598 4.718 8.5L4.718 8.5Z"/></g></svg>