<svg id="convert-to-ppt_400x240" xmlns="http://www.w3.org/2000/svg" width="400" height="240" viewBox="0 0 400 240">
  <g id="Group_310665" data-name="Group 310665">
    <g id="Group_310599" data-name="Group 310599" transform="translate(-18.51 -49.916)">
      <g id="Group_310587" data-name="Group 310587" transform="translate(1337.254 -7168.703)">
        <path id="Path_101359" data-name="Path 101359" d="M11.587,0H139.758a11.832,11.832,0,0,1,11.587,12.062v95.975A11.832,11.832,0,0,1,139.758,120.1H11.587A11.832,11.832,0,0,1,0,108.037V12.062A11.832,11.832,0,0,1,11.587,0Z" transform="translate(-1174.644 7278.942) rotate(90)" fill="#fee"/>
        <path id="Path_101389" data-name="Path 101389" d="M351.36,421.1v52.063a13.907,13.907,0,0,1-13.885,13.922H247.365a13.907,13.907,0,0,1-13.885-13.922V355.01a13.907,13.907,0,0,1,13.885-13.921h68.276a15.262,15.262,0,0,1,10.76,4.446l20.445,20.336a15.336,15.336,0,0,1,4.513,10.871v17.5" transform="translate(-1505.98 6921.53)" fill="#fff" stroke="#cacaca" stroke-linecap="round" stroke-linejoin="round" stroke-width="4"/>
        <path id="Path_101390" data-name="Path 101390" d="M13.777,0A13.775,13.775,0,0,0,0,13.776V132.42A13.778,13.778,0,0,0,13.78,146.2h91.838a13.777,13.777,0,0,0,13.777-13.777V34.9a11.565,11.565,0,0,0-3.4-8.129L92.484,3.35A11.343,11.343,0,0,0,84.4,0Z" transform="translate(-1098.878 7279.88)" fill="#fee" style="isolation: isolate"/>
        <g id="Group_159997" data-name="Group 159997" transform="translate(-1186.187 7375.429)">
          <g id="Ellipse_10670" data-name="Ellipse 10670" transform="translate(0 0)" fill="#fff" stroke="#fff" stroke-width="1">
            <ellipse cx="21.448" cy="21.998" rx="21.448" ry="21.998" stroke="none"/>
            <ellipse cx="21.448" cy="21.998" rx="20.948" ry="21.498" fill="none"/>
          </g>
          <path id="Path_101403" data-name="Path 101403" d="M28.18,9.05A19.13,19.13,0,1,1,9.05,28.18,19.13,19.13,0,0,1,28.18,9.05ZM17.433,29.25a1.075,1.075,0,0,0,1.075,1.075h7.523v7.523a1.075,1.075,0,0,0,1.075,1.075h2.149a1.075,1.075,0,0,0,1.075-1.075V30.33h7.523a1.075,1.075,0,0,0,1.075-1.075V27.1a1.075,1.075,0,0,0-1.075-1.075H30.33V18.508a1.075,1.075,0,0,0-1.075-1.075H27.1a1.075,1.075,0,0,0-1.075,1.075v7.523H18.508a1.075,1.075,0,0,0-1.075,1.075Z" transform="translate(-6.73 -5.718)" fill="#0d66d0"/>
        </g>
        <g id="Group_156101" data-name="Group 156101" transform="translate(-1078.762 7262.619)">
          <path id="Path_101552" data-name="Path 101552" d="M0,132.079V13.921A13.906,13.906,0,0,1,13.888,0h68.28A15.262,15.262,0,0,1,92.929,4.446L113.37,24.782a15.333,15.333,0,0,1,4.513,10.87v96.427A13.906,13.906,0,0,1,104,146H13.888A13.906,13.906,0,0,1,0,132.079Z" transform="translate(0)" fill="#fff"/>
          <path id="Path_101552_-_Outline" data-name="Path 101552 - Outline" d="M103.985,148H13.9A15.919,15.919,0,0,1-2,132.063V13.934A15.919,15.919,0,0,1,13.9-2H82.161A17.274,17.274,0,0,1,94.342,3.032l20.435,20.331a17.346,17.346,0,0,1,5.106,12.3v96.4A15.919,15.919,0,0,1,103.985,148ZM13.9,2.034a11.885,11.885,0,0,0-11.867,11.9V132.066a11.885,11.885,0,0,0,11.87,11.9h90.079a11.885,11.885,0,0,0,11.867-11.9V35.661a13.312,13.312,0,0,0-3.918-9.439L91.5,5.891A13.24,13.24,0,0,0,82.16,2.034Z" transform="translate(0)" fill="#cacaca"/>
        </g>
        <g id="Group_160019" data-name="Group 160019" transform="translate(-1164.949 7339.878) rotate(-90)">
          <path id="Line_6851" data-name="Line 6851" d="M0,47.338a2,2,0,0,1-2-2V0A2,2,0,0,1,0-2,2,2,0,0,1,2,0V45.338A2,2,0,0,1,0,47.338Z" transform="translate(11.906)" fill="#cacaca"/>
          <path id="Line_6854" data-name="Line 6854" d="M11.117,11.883a1.992,1.992,0,0,1-1.328-.505L-1.329,1.495a2,2,0,0,1-.166-2.824,2,2,0,0,1,2.824-.166L12.447,8.388a2,2,0,0,1-1.329,3.495Z" transform="translate(0 35.594)" fill="#cacaca"/>
          <path id="Line_6855" data-name="Line 6855" d="M0,11.744a2,2,0,0,1-1.531-.711,2,2,0,0,1,.241-2.818L10.277-1.53a2,2,0,0,1,2.818.241,2,2,0,0,1-.241,2.818L1.289,11.274A1.992,1.992,0,0,1,0,11.744Z" transform="translate(11.906 35.594)" fill="#cacaca"/>
        </g>
        <path id="Path_102751" data-name="Path 102751" d="M208.145,257.618c-4.5,7.112-8.929,11.6-11.518,11.6a1.729,1.729,0,0,1-1.746-2.031c.491-2.547,5.619-6.22,13.264-9.574Zm21.632-10.166c-1.934.4-3.931.859-5.956,1.383-1.454.379-2.931.791-4.408,1.232.786-1.574,1.506-3.135,2.132-4.617.827-1.96,1.6-3.92,2.32-5.839.626.966,1.276,1.9,1.939,2.809a56.31,56.31,0,0,0,4.129,5Zm-9.994-33.84a1.861,1.861,0,0,1,1.556-.987c1.7,0,2.075,2.015,2.075,3.7a45.419,45.419,0,0,1-2.232,11.709c-2.861-7.434-2.461-12.641-1.4-14.426Zm32.023,38.843c-.248,1.266-1.582,2.083-3.409,2.083a6.62,6.62,0,0,1-1.54-.188,25.274,25.274,0,0,1-9.764-4.85,49.3,49.3,0,0,1,7.225-.545,26.555,26.555,0,0,1,4.816.363c1.446.295,3.08,1.078,2.673,3.137Zm4.849-3.354c-2.132-2.245-6.212-3.388-12.124-3.388a65.194,65.194,0,0,0-9.793.835,48.1,48.1,0,0,1-5.64-6.46,59.02,59.02,0,0,1-3.529-5.382c2.08-6.431,3.137-11.654,3.137-15.522,0-4.753-1.918-9.835-7.3-9.835a5.435,5.435,0,0,0-4.508,2.613c-2.3,3.868-1.378,11.834,2.289,19.938-1.276,3.722-2.667,7.347-4.372,11.364a100.46,100.46,0,0,1-4.944,10.07c-5.492,2.172-17.167,7.434-18.278,13.249a4.874,4.874,0,0,0,1.6,4.633,7.031,7.031,0,0,0,4.758,1.665c7.031,0,14.042-9.553,18.764-17.775,2.681-.9,5.419-1.707,8.144-2.414,2.989-.778,5.878-1.415,8.6-1.89,7.444,6.374,14.063,7.34,17.381,7.34,4.557,0,6.262-1.937,6.883-3.568a5.391,5.391,0,0,0-1.065-5.473Z" transform="translate(-1438.608 7083.446)" fill="#fa0f00" fill-rule="evenodd"/>
        <rect id="Rectangle_248075" data-name="Rectangle 248075" width="63" height="46" rx="4" transform="translate(-1046.744 7306.619)" fill="#fdf2e9"/>
        <path id="Rectangle_248075_-_Outline" data-name="Rectangle 248075 - Outline" d="M4,3A1,1,0,0,0,3,4V42a1,1,0,0,0,1,1H59a1,1,0,0,0,1-1V4a1,1,0,0,0-1-1H4M4,0H59a4,4,0,0,1,4,4V42a4,4,0,0,1-4,4H4a4,4,0,0,1-4-4V4A4,4,0,0,1,4,0Z" transform="translate(-1046.744 7306.619)" fill="#efab73"/>
        <path id="Path_596835" data-name="Path 596835" d="M4,0H59a4,4,0,0,1,4,4V42a4,4,0,0,1-4,4H4a4,4,0,0,1-4-4V4A4,4,0,0,1,4,0Z" transform="translate(-1056.744 7316.619)" fill="#fdf2e9"/>
        <path id="Path_596835_-_Outline" data-name="Path 596835 - Outline" d="M4,3A1,1,0,0,0,3,4V42a1,1,0,0,0,1,1H59a1,1,0,0,0,1-1V4a1,1,0,0,0-1-1H4M4,0H59a4,4,0,0,1,4,4V42a4,4,0,0,1-4,4H4a4,4,0,0,1-4-4V4A4,4,0,0,1,4,0Z" transform="translate(-1056.744 7316.619)" fill="#efab73"/>
        <path id="Path_101125" data-name="Path 101125" d="M14.018,7.809,1.461,13.968A1.076,1.076,0,0,1,0,13.146V.869C0,.231.877-.18,1.461.079L14.018,6.2a.882.882,0,0,1,0,1.612Z" transform="translate(-1032.744 7332.619)" fill="#fba868"/>
      </g>
    </g>
    <g id="Group_155517" data-name="Group 155517" transform="translate(191.706 30.614)">
      <path id="Line_6847" data-name="Line 6847" d="M0,8.567a1.5,1.5,0,0,1-1.5-1.5V0A1.5,1.5,0,0,1,0-1.5,1.5,1.5,0,0,1,1.5,0V7.067A1.5,1.5,0,0,1,0,8.567Z" transform="translate(11.386)" fill="#0d66d0"/>
      <path id="Line_6848" data-name="Line 6848" d="M0,8.567a1.5,1.5,0,0,1-1.5-1.5V0A1.5,1.5,0,0,1,0-1.5,1.5,1.5,0,0,1,1.5,0V7.067A1.5,1.5,0,0,1,0,8.567Z" transform="translate(11.386 15.705)" fill="#0d66d0"/>
      <path id="Line_6850" data-name="Line 6850" d="M0,8.567a1.5,1.5,0,0,1-1.5-1.5V0A1.5,1.5,0,0,1,0-1.5,1.5,1.5,0,0,1,1.5,0V7.067A1.5,1.5,0,0,1,0,8.567Z" transform="translate(22.771 11.386) rotate(90)" fill="#0d66d0"/>
      <path id="Line_6849" data-name="Line 6849" d="M0,8.567a1.5,1.5,0,0,1-1.5-1.5V0A1.5,1.5,0,0,1,0-1.5,1.5,1.5,0,0,1,1.5,0V7.067A1.5,1.5,0,0,1,0,8.567Z" transform="translate(7.067 11.386) rotate(90)" fill="#0d66d0"/>
    </g>
    <g id="Group_155518" data-name="Group 155518" transform="translate(360.363 205.011) rotate(-1)">
      <path id="Line_6847-2" data-name="Line 6847" d="M0,5.108a1.5,1.5,0,0,1-1.5-1.5V0A1.5,1.5,0,0,1,0-1.5,1.5,1.5,0,0,1,1.5,0V3.608A1.5,1.5,0,0,1,0,5.108Z" transform="translate(7.375)" fill="#6fbd6b"/>
      <path id="Line_6848-2" data-name="Line 6848" d="M0,5.108a1.5,1.5,0,0,1-1.5-1.5V0A1.5,1.5,0,0,1,0-1.5,1.5,1.5,0,0,1,1.5,0V3.608A1.5,1.5,0,0,1,0,5.108Z" transform="translate(7.375 11.142)" fill="#6fbd6b"/>
      <path id="Line_6850-2" data-name="Line 6850" d="M0,5.108a1.5,1.5,0,0,1-1.5-1.5V0A1.5,1.5,0,0,1,0-1.5,1.5,1.5,0,0,1,1.5,0V3.608A1.5,1.5,0,0,1,0,5.108Z" transform="translate(14.75 7.375) rotate(90)" fill="#6fbd6b"/>
      <path id="Line_6849-2" data-name="Line 6849" d="M0,5.108a1.5,1.5,0,0,1-1.5-1.5V0A1.5,1.5,0,0,1,0-1.5,1.5,1.5,0,0,1,1.5,0V3.608A1.5,1.5,0,0,1,0,5.108Z" transform="translate(3.608 7.375) rotate(90)" fill="#6fbd6b"/>
    </g>
    <g id="Group_155519" data-name="Group 155519" transform="translate(226.3 19.5)">
      <path id="Line_6847-3" data-name="Line 6847" d="M0,4.36a1.5,1.5,0,0,1-1.5-1.5V0A1.5,1.5,0,0,1,0-1.5,1.5,1.5,0,0,1,1.5,0V2.86A1.5,1.5,0,0,1,0,4.36Z" transform="translate(5.846)" fill="#efab73"/>
      <path id="Line_6848-3" data-name="Line 6848" d="M0,4.36a1.5,1.5,0,0,1-1.5-1.5V0A1.5,1.5,0,0,1,0-1.5,1.5,1.5,0,0,1,1.5,0V2.86A1.5,1.5,0,0,1,0,4.36Z" transform="translate(5.846 8.832)" fill="#efab73"/>
      <path id="Line_6850-3" data-name="Line 6850" d="M0,4.36a1.5,1.5,0,0,1-1.5-1.5V0A1.5,1.5,0,0,1,0-1.5,1.5,1.5,0,0,1,1.5,0V2.86A1.5,1.5,0,0,1,0,4.36Z" transform="translate(11.692 5.846) rotate(90)" fill="#efab73"/>
      <path id="Line_6849-3" data-name="Line 6849" d="M0,4.36a1.5,1.5,0,0,1-1.5-1.5V0A1.5,1.5,0,0,1,0-1.5,1.5,1.5,0,0,1,1.5,0V2.86A1.5,1.5,0,0,1,0,4.36Z" transform="translate(2.86 5.846) rotate(90)" fill="#efab73"/>
    </g>
  </g>
  <rect id="Rectangle_248074" data-name="Rectangle 248074" width="400" height="240" opacity="0"/>
</svg>
