<svg xmlns="http://www.w3.org/2000/svg" width="450" height="320" viewBox="0 0 450 320">
  <g id="Group_310553" data-name="Group 310553" transform="translate(1636 290)">
    <g id="Group_310552" data-name="Group 310552" transform="translate(641.742 -10.117)">
      <path id="Path_101359" data-name="Path 101359" d="M12.744,0H153.713a13.013,13.013,0,0,1,12.744,13.266V118.824a13.013,13.013,0,0,1-12.744,13.266H12.744A13.013,13.013,0,0,1,0,118.824V13.266A13.013,13.013,0,0,1,12.744,0Z" transform="translate(-2120.652 -175.033) rotate(90)" fill="#fee"/>
      <path id="Path_101389" data-name="Path 101389" d="M362.52,428.679v56.992a15.224,15.224,0,0,1-15.2,15.24H248.68a15.224,15.224,0,0,1-15.2-15.24V356.328a15.223,15.223,0,0,1,15.2-15.239h74.74a16.707,16.707,0,0,1,11.779,4.867l22.381,22.261a16.788,16.788,0,0,1,4.94,11.9v19.155" transform="translate(-2461.98 -534.589)" fill="#fff"/>
      <path id="Path_101389_-_Outline" data-name="Path 101389 - Outline" d="M248.68,502.911a17.211,17.211,0,0,1-17.2-17.242V356.328a17.211,17.211,0,0,1,17.2-17.239H323.42a18.707,18.707,0,0,1,13.19,5.45l22.38,22.26a18.788,18.788,0,0,1,5.53,13.319v19.154a2,2,0,0,1-4,0V380.117a14.788,14.788,0,0,0-4.352-10.483l-22.38-22.26a14.707,14.707,0,0,0-10.369-4.285H248.68a13.223,13.223,0,0,0-13.2,13.237V485.671a13.224,13.224,0,0,0,13.2,13.24H347.32a13.224,13.224,0,0,0,13.2-13.238V428.679a2,2,0,0,1,4,0v56.992a17.211,17.211,0,0,1-17.2,17.24Z" transform="translate(-2461.98 -534.589)" fill="#cacaca"/>
      <path id="Path_101390" data-name="Path 101390" d="M15.152,0A15.15,15.15,0,0,0,0,15.151V145.642a15.153,15.153,0,0,0,15.151,15.152H116.163a15.153,15.153,0,0,0,15.152-15.151V38.384a12.72,12.72,0,0,0-3.738-8.94L101.718,3.685A12.476,12.476,0,0,0,92.829,0Z" transform="translate(-1995.905 -213.288)" fill="#fee" style="isolation: isolate"/>
      <g id="Group_155517" data-name="Group 155517" transform="translate(-2053.457 -217.581)">
        <path id="Line_6847" data-name="Line 6847" d="M0,9.273a1.5,1.5,0,0,1-1.5-1.5V0A1.5,1.5,0,0,1,0-1.5,1.5,1.5,0,0,1,1.5,0V7.773A1.5,1.5,0,0,1,0,9.273Z" transform="translate(12.523)" fill="#0d66d0"/>
        <path id="Line_6848" data-name="Line 6848" d="M0,9.273a1.5,1.5,0,0,1-1.5-1.5V0A1.5,1.5,0,0,1,0-1.5,1.5,1.5,0,0,1,1.5,0V7.773A1.5,1.5,0,0,1,0,9.273Z" transform="translate(12.523 17.273)" fill="#0d66d0"/>
        <path id="Line_6850" data-name="Line 6850" d="M0,9.273a1.5,1.5,0,0,1-1.5-1.5V0A1.5,1.5,0,0,1,0-1.5,1.5,1.5,0,0,1,1.5,0V7.773A1.5,1.5,0,0,1,0,9.273Z" transform="translate(25.045 12.523) rotate(90)" fill="#0d66d0"/>
        <path id="Line_6849" data-name="Line 6849" d="M0,9.273a1.5,1.5,0,0,1-1.5-1.5V0A1.5,1.5,0,0,1,0-1.5,1.5,1.5,0,0,1,1.5,0V7.773A1.5,1.5,0,0,1,0,9.273Z" transform="translate(7.773 12.523) rotate(90)" fill="#0d66d0"/>
      </g>
      <g id="Group_155518" data-name="Group 155518" transform="translate(-1869.503 -27.521) rotate(-1)">
        <path id="Line_6847-2" data-name="Line 6847" d="M0,5.469a1.5,1.5,0,0,1-1.5-1.5V0A1.5,1.5,0,0,1,0-1.5,1.5,1.5,0,0,1,1.5,0V3.969A1.5,1.5,0,0,1,0,5.469Z" transform="translate(8.112)" fill="#50bf61"/>
        <path id="Line_6848-2" data-name="Line 6848" d="M0,5.469a1.5,1.5,0,0,1-1.5-1.5V0A1.5,1.5,0,0,1,0-1.5,1.5,1.5,0,0,1,1.5,0V3.969A1.5,1.5,0,0,1,0,5.469Z" transform="translate(8.112 12.254)" fill="#50bf61"/>
        <path id="Line_6850-2" data-name="Line 6850" d="M0,5.469a1.5,1.5,0,0,1-1.5-1.5V0A1.5,1.5,0,0,1,0-1.5,1.5,1.5,0,0,1,1.5,0V3.969A1.5,1.5,0,0,1,0,5.469Z" transform="translate(16.223 8.111) rotate(90)" fill="#50bf61"/>
        <path id="Line_6849-2" data-name="Line 6849" d="M0,5.469a1.5,1.5,0,0,1-1.5-1.5V0A1.5,1.5,0,0,1,0-1.5,1.5,1.5,0,0,1,1.5,0V3.969A1.5,1.5,0,0,1,0,5.469Z" transform="translate(3.969 8.111) rotate(90)" fill="#50bf61"/>
      </g>
      <g id="Group_155519" data-name="Group 155519" transform="translate(-2015.408 -230.383)">
        <path id="Line_6847-3" data-name="Line 6847" d="M0,4.646a1.5,1.5,0,0,1-1.5-1.5V0A1.5,1.5,0,0,1,0-1.5,1.5,1.5,0,0,1,1.5,0V3.146A1.5,1.5,0,0,1,0,4.646Z" transform="translate(6.43)" fill="#fba868"/>
        <path id="Line_6848-3" data-name="Line 6848" d="M0,4.646a1.5,1.5,0,0,1-1.5-1.5V0A1.5,1.5,0,0,1,0-1.5,1.5,1.5,0,0,1,1.5,0V3.146A1.5,1.5,0,0,1,0,4.646Z" transform="translate(6.43 9.713)" fill="#fba868"/>
        <path id="Line_6850-3" data-name="Line 6850" d="M0,4.646a1.5,1.5,0,0,1-1.5-1.5V0A1.5,1.5,0,0,1,0-1.5,1.5,1.5,0,0,1,1.5,0V3.146A1.5,1.5,0,0,1,0,4.646Z" transform="translate(12.859 6.43) rotate(90)" fill="#fba868"/>
        <path id="Line_6849-3" data-name="Line 6849" d="M0,4.646a1.5,1.5,0,0,1-1.5-1.5V0A1.5,1.5,0,0,1,0-1.5,1.5,1.5,0,0,1,1.5,0V3.146A1.5,1.5,0,0,1,0,4.646Z" transform="translate(3.146 6.43) rotate(90)" fill="#fba868"/>
      </g>
      <g id="Group_159996" data-name="Group 159996" transform="translate(-2008.767 -193.663)">
        <path id="Path_101375" data-name="Path 101375" d="M0,144.066V15.184A15.168,15.168,0,0,1,15.147,0H89.621a16.645,16.645,0,0,1,11.737,4.849l22.3,22.182a16.726,16.726,0,0,1,4.923,11.857V144.066a15.168,15.168,0,0,1-15.148,15.184H15.147A15.168,15.168,0,0,1,0,144.066Z" fill="#fff"/>
        <path id="Path_101375_-_Outline" data-name="Path 101375 - Outline" d="M15.147,161.25h0A17.155,17.155,0,0,1-2,144.064V15.184A17.155,17.155,0,0,1,15.144-2H89.621a18.645,18.645,0,0,1,13.148,5.432l22.3,22.181a18.726,18.726,0,0,1,5.513,13.276V144.066a17.155,17.155,0,0,1-17.145,17.184ZM15.147,2A13.168,13.168,0,0,0,2,15.182V144.066A13.168,13.168,0,0,0,15.15,157.25h98.283a13.168,13.168,0,0,0,13.148-13.182V38.888a14.726,14.726,0,0,0-4.334-10.44L99.948,6.267A14.645,14.645,0,0,0,89.62,2Z" fill="#cacaca"/>
        <g id="Group_155657" data-name="Group 155657" transform="translate(27.948 42.768)">
          <path id="Path_101549" data-name="Path 101549" d="M4.819,0h64.37a4.819,4.819,0,0,1,4.819,4.819v3a4.819,4.819,0,0,1-4.819,4.819H4.819A4.819,4.819,0,0,1,0,7.816v-3A4.819,4.819,0,0,1,4.819,0Z" transform="translate(0 1.135)" fill="#e1f5d0"/>
          <g id="Path_101548" data-name="Path 101548" transform="translate(1.203 1.135)">
            <path id="Path_596792" data-name="Path 596792" d="M4.819,0H66.782A4.819,4.819,0,0,1,71.6,4.818v39.7a4.819,4.819,0,0,1-4.819,4.819H4.819A4.819,4.819,0,0,1,0,44.52V4.819A4.819,4.819,0,0,1,4.819,0Z" fill="none"/>
            <path id="Path_596793" data-name="Path 596793" d="M66.782,0H4.819A4.819,4.819,0,0,0,0,4.819v39.7a4.819,4.819,0,0,0,4.819,4.819H66.782A4.819,4.819,0,0,0,71.6,44.52V4.819A4.819,4.819,0,0,0,66.782,0m0-3A7.828,7.828,0,0,1,74.6,4.819v39.7a7.828,7.828,0,0,1-7.819,7.819H4.819A7.828,7.828,0,0,1-3,44.52V4.819A7.828,7.828,0,0,1,4.819-3Z" fill="#44b756"/>
          </g>
          <line id="Line_6839" data-name="Line 6839" x2="73.407" transform="translate(0.301 13.47)" fill="none" stroke="#3eb851" stroke-width="3"/>
          <line id="Line_6846" data-name="Line 6846" x2="73.407" transform="translate(0.301 23.097)" fill="none" stroke="#3eb851" stroke-width="3"/>
          <path id="Path_101226" data-name="Path 101226" d="M0,0V52.58" transform="translate(12.936)" fill="none" stroke="#3eb851" stroke-width="3"/>
          <path id="Path_101227" data-name="Path 101227" d="M0,0V52.58" transform="translate(49.038)" fill="none" stroke="#3eb851" stroke-width="3"/>
          <line id="Line_6840" data-name="Line 6840" x2="73.407" transform="translate(0.301 32.724)" fill="none" stroke="#3eb851" stroke-width="3"/>
          <line id="Line_6841" data-name="Line 6841" x2="73.407" transform="translate(0.301 42.351)" fill="none" stroke="#3eb851" stroke-width="3"/>
        </g>
      </g>
      <g id="Ellipse_10670" data-name="Ellipse 10670" transform="translate(-2133.348 -68.911)" fill="#fff" stroke="#fff" stroke-width="1">
        <ellipse cx="23.59" cy="24.195" rx="23.59" ry="24.195" stroke="none"/>
        <ellipse cx="23.59" cy="24.195" rx="23.09" ry="23.695" fill="none"/>
      </g>
      <path id="Path_101403" data-name="Path 101403" d="M30.09,9.05A21.04,21.04,0,1,1,9.05,30.09,21.04,21.04,0,0,1,30.09,9.05ZM18.27,31.272a1.182,1.182,0,0,0,1.182,1.182h8.274v8.274a1.182,1.182,0,0,0,1.182,1.182h2.364a1.182,1.182,0,0,0,1.182-1.182V32.454h8.274a1.182,1.182,0,0,0,1.182-1.182V28.908a1.182,1.182,0,0,0-1.182-1.182H32.454V19.452a1.182,1.182,0,0,0-1.182-1.182H28.908a1.182,1.182,0,0,0-1.182,1.182v8.274H19.452a1.182,1.182,0,0,0-1.182,1.182Z" transform="translate(-2139.847 -74.297)" fill="#0d66d0"/>
      <path id="Union_3" data-name="Union 3" d="M44.194,32.195a2,2,0,0,1-.167-2.823l9.981-11.229H2a2,2,0,0,1,0-4H53.136L43.992,3.289A2,2,0,1,1,47.051.712L58.939,14.823a1.994,1.994,0,0,1,.471,1h0c0,.017.005.033.007.05l0,.014v.006l0,.019v0l0,.021v0a2,2,0,0,1,.01.2h0q0,.072-.005.143a2,2,0,0,1-.33,2.148L47.017,32.028a2,2,0,0,1-2.823.167Z" transform="translate(-2111.799 -136.96)" fill="#cacaca"/>
      <path id="Path_102636" data-name="Path 102636" d="M205.25,249.225c-3.717,5.876-7.377,9.587-9.516,9.587a1.428,1.428,0,0,1-1.443-1.678c.4-2.1,4.642-5.138,10.958-7.909Zm17.871-8.4c-1.6.328-3.247.709-4.921,1.143-1.2.313-2.421.653-3.642,1.018.649-1.3,1.244-2.59,1.762-3.814.684-1.619,1.326-3.239,1.917-4.824.518.8,1.054,1.574,1.6,2.32a46.552,46.552,0,0,0,3.411,4.127Zm-8.256-27.956a1.537,1.537,0,0,1,1.285-.815c1.408,0,1.714,1.665,1.714,3.06a37.52,37.52,0,0,1-1.844,9.673c-2.363-6.141-2.033-10.443-1.156-11.917ZM241.32,244.96c-.2,1.046-1.307,1.721-2.816,1.721a5.472,5.472,0,0,1-1.272-.155,20.881,20.881,0,0,1-8.067-4.006,40.712,40.712,0,0,1,5.968-.451,21.944,21.944,0,0,1,3.978.3c1.195.244,2.544.891,2.208,2.592Zm4.006-2.771c-1.762-1.854-5.132-2.8-10.016-2.8a53.868,53.868,0,0,0-8.09.69,39.729,39.729,0,0,1-4.66-5.337,48.771,48.771,0,0,1-2.915-4.446c1.719-5.313,2.592-9.628,2.592-12.823,0-3.927-1.585-8.125-6.033-8.125a4.49,4.49,0,0,0-3.724,2.158c-1.9,3.2-1.138,9.776,1.891,16.472-1.054,3.075-2.2,6.07-3.612,9.388a83.006,83.006,0,0,1-4.084,8.319c-4.537,1.794-14.182,6.141-15.1,10.945a4.027,4.027,0,0,0,1.32,3.827,5.809,5.809,0,0,0,3.931,1.376c5.809,0,11.6-7.892,15.5-14.684,2.214-.74,4.476-1.41,6.728-1.995,2.469-.643,4.856-1.169,7.107-1.561,6.15,5.266,11.618,6.063,14.358,6.063,3.765,0,5.173-1.6,5.686-2.948a4.454,4.454,0,0,0-.88-4.522Z" transform="translate(-2383.532 -356.239)" fill="#fa0f00" fill-rule="evenodd"/>
    </g>
    <rect id="Rectangle_248040" data-name="Rectangle 248040" width="450" height="320" transform="translate(-1636 -290)" opacity="0"/>
  </g>
</svg>
