<?xml version="1.0" encoding="UTF-8"?>
<svg width="42px" height="42px" viewBox="0 0 42 42" version="1.1" xmlns="http://www.w3.org/2000/svg" xmlns:xlink="http://www.w3.org/1999/xlink">
    <title>S_Illu_Respect-Privacy_42</title>
    <g id="S_Illu_Respect-Privacy_42" stroke="none" stroke-width="1" fill="none" fill-rule="evenodd">
        <path d="M21.5006559,6 L33.9986881,10.1630417 L34,20.1773333 C34,27.8265833 28.9100068,34.6259167 21.5006559,37 C14.123138,34.6858984 9.16213086,28.0099101 9.00389527,20.4144132 L9,20.0520417 L9,10.165625 L21.5006559,6 Z M21.4999997,7.581 L10.4999997,11.246 L10.4999997,20.0510254 C10.5046599,26.9292654 14.8030505,33.0037194 21.2726644,35.3404771 L21.496,35.418 L21.7168055,35.3398823 C28.0480726,33.0130596 32.3496907,27.1255801 32.4961403,20.5253563 L32.4999997,20.1773333 L32.498,11.244 L21.4999997,7.581 Z" id="Shape" fill="#8E8E8E" fill-rule="nonzero"></path>
        <path d="M19.319,17.636 C19.319,16.354 20.141,15.428 21.5,15.428 C22.857,15.428 23.662,16.424 23.662,17.636 C23.662,17.957 23.59,18.365 23.502,18.65 L19.488,18.65 C19.398,18.365 19.319,17.957 19.319,17.636 M16.75,21.387 L16.75,23.881 C16.75,25.294 17.75,26.438 18.985,26.438 L24.014,26.438 C25.25,26.438 26.25,25.294 26.25,23.881 L26.25,21.387 C26.25,20.339 25.951,19.133 24.909,19.015 C25.003,18.644 25.045,18.254 25.059,17.845 C25.141,15.613 23.466,14 21.5,14 C19.533,14 17.86,15.551 17.94,17.845 C17.954,18.254 17.996,18.644 18.09,19.015 C17.167,19.133 16.75,20.339 16.75,21.387" id="Shape" fill="#FA0F00" fill-rule="nonzero"></path>
    </g>
</svg>