<svg xmlns="http://www.w3.org/2000/svg" width="42" height="42" viewBox="0 0 42 42">
  <g fill="none" fill-rule="evenodd">
    <path fill="#8E8E8E" fill-rule="nonzero" d="M26.7143,6.1 C27.5143,6.1 28.3143,6.39889944 28.8143,6.99669832 L33.3143,11.3805568 C33.9143,11.9783556 34.2143,12.6757877 34.2143,13.4728528 L34.2143,33.6128399 C34.2143,35.6055028 32.6143,37.1 30.7143,37.1 L12.7143,37.1 C10.7143,37.1 9.2143,35.5058697 9.2143,33.6128399 L9.2143,20.37907 C9.2143,19.9805374 9.5143,19.5820048 9.9143,19.5820048 C10.3143,19.5820048 10.6143,19.8809043 10.6143,20.2794369 L10.6143,33.5132067 C10.6143,34.6091713 11.4143,35.5058697 12.5143,35.5058697 L12.7143,35.5058697 L30.6143,35.5058697 C31.7143,35.5058697 32.6143,34.6091713 32.6143,33.5132067 L32.6143,13.3732197 C32.6143,12.9746871 32.4143,12.5761545 32.2143,12.2772551 L27.7143,7.89339664 C27.5143,7.79376349 27.1143,7.5944972 26.7143,7.5944972 L17.0596473,7.5944972 C16.6596473,7.5944972 16.3596473,7.29559776 16.3596473,6.89706517 C16.3596473,6.49853259 16.6596473,6.1 17.1596473,6.1 L26.7143,6.1 Z"/>
    <path fill="#8E8E8E" fill-rule="nonzero" d="M10.75 5.528C12.107 5.528 12.912 6.524 12.912 7.736 12.912 8.057 12.84 8.465 12.752 8.75L8.738 8.75C8.648 8.465 8.569 8.057 8.569 7.736 8.569 6.454 9.391 5.528 10.75 5.528zM6 13.981C6 15.394 7 16.538 8.235 16.538L13.264 16.538C14.5 16.538 15.5 15.394 15.5 13.981L15.5 11.487C15.5 10.439 15.201 9.233 14.159 9.115 14.253 8.744 14.295 8.354 14.309 7.945 14.391 5.713 12.716 4.1 10.75 4.1 8.783 4.1 7.11 5.651 7.19 7.945 7.204 8.354 7.246 8.744 7.34 9.115 6.417 9.233 6 10.439 6 11.487L6 13.981zM16.2143 29L28.2143 29C28.4904424 29 28.7143 29.2238576 28.7143 29.5 28.7143 29.7761424 28.4904424 30 28.2143 30L16.2143 30C15.9381576 30 15.7143 29.7761424 15.7143 29.5 15.7143 29.2238576 15.9381576 29 16.2143 29zM16.2143 32L28.2143 32C28.4904424 32 28.7143 32.2238576 28.7143 32.5 28.7143 32.7761424 28.4904424 33 28.2143 33L16.2143 33C15.9381576 33 15.7143 32.7761424 15.7143 32.5 15.7143 32.2238576 15.9381576 32 16.2143 32z"/>
    <path fill="#FA0F00" d="M18.3404695,22.6156753 C17.3600618,24.1646462 16.395148,25.143618 15.8311285,25.143618 C15.7270558,25.143618 15.6415953,25.1130191 15.5794246,25.0551682 C15.465997,24.951419 15.4240951,24.8385857 15.450503,24.701369 C15.557694,24.1463825 16.674819,23.3459359 18.3404695,22.6156753 L18.3404695,22.6156753 Z M23.0530726,20.400319 C22.6320069,20.4871432 22.1969089,20.5878325 21.7556718,20.7021001 C21.4386789,20.7845257 21.1171059,20.8744098 20.7954355,20.9705093 C20.9663564,20.6275154 21.123245,20.2874858 21.2599622,19.9641898 C21.440238,19.537336 21.6095998,19.1103865 21.7650267,18.6927122 C21.9017439,18.9030793 22.0431386,19.1074222 22.1875541,19.3040198 C22.4734617,19.6928163 22.7813922,20.0645923 23.0874711,20.3923824 L23.0530726,20.400319 Z M20.8762185,13.0284837 C20.9554424,12.8943269 21.0829022,12.8135268 21.214942,12.8135268 C21.5863101,12.8135268 21.6670931,13.2526202 21.6670931,13.6200932 C21.6702114,14.205583 21.4899356,15.1387521 21.1807384,16.1708894 C20.5576664,14.5516368 20.644686,13.4172802 20.8762185,13.0284837 L20.8762185,13.0284837 Z M27.8526952,21.4904028 C27.7982227,21.7663661 27.5077352,21.9447 27.1099591,21.9447 C27.0011116,21.9447 26.8877815,21.9310262 26.7743539,21.9035828 C26.0440909,21.7328987 25.3448159,21.3866536 24.6471975,20.8469665 C25.3013548,20.7493371 25.8529012,20.7281091 26.2212484,20.7281091 C26.640755,20.7281091 27.0244987,20.7570824 27.2699661,20.8073792 C27.5853999,20.8714456 27.9411765,21.0421297 27.8526952,21.4904028 L27.8526952,21.4904028 Z M28.9092086,20.7601423 C28.4445844,20.270752 27.5558737,20.0221364 26.2678278,20.0221364 C25.6338418,20.0221364 24.9176111,20.0832385 24.1344348,20.2036258 C23.7102508,19.8026853 23.2969808,19.3300288 22.9054414,18.7963658 C22.6257703,18.4167489 22.3678298,18.0233625 22.1363947,17.6238564 C22.5900075,16.2227162 22.8199809,15.0852997 22.8199809,14.2421103 C22.8199809,13.2069132 22.4020335,12.1 21.2289743,12.1 C20.843574,12.1 20.4489163,12.3287264 20.24691,12.668756 C19.7466204,13.5118498 19.9470675,15.2468999 20.7457378,17.0124532 C20.467626,17.8236094 20.1645678,18.6134421 19.7931997,19.4884734 C19.4809816,20.2279136 19.1096136,20.9841832 18.716515,21.6825062 C17.5201661,22.1552583 14.976524,23.3017588 14.7341749,24.5687422 C14.6626493,24.9484547 14.7854317,25.3066524 15.0822533,25.5780259 C15.1738528,25.6634158 15.5234904,25.9409091 16.1185952,25.9409091 C17.6505493,25.9409091 19.1779235,23.8597096 20.2065672,22.0682429 C20.7907581,21.8730796 21.3874221,21.6962757 21.9809678,21.5422296 C22.6320069,21.3730754 23.2613154,21.2343287 23.8547637,21.1305795 C25.4769532,22.5195758 26.9188668,22.7299429 27.6413341,22.7299429 C28.634215,22.7299429 29.0054856,22.3075832 29.1407411,21.9523497 C29.3194577,21.4889685 29.1453211,21.0086623 28.9092086,20.7601423 L28.9092086,20.7601423 Z"/>
  </g>
</svg>
