<svg xmlns="http://www.w3.org/2000/svg" width="42" height="42" viewBox="0 0 42 42"><g fill="none" fill-rule="evenodd"><path fill="#8E8E8E" d="M21.145,10 C21.636,10 22.108,10.175 22.471,10.48 L22.602,10.601 L23.16094,11.1510588 C23.4714342,11.4566195 23.4754336,11.9560307 23.1698729,12.266525 C23.0197341,12.4190879 22.8140393,12.5040823 22.6,12.502 L22.6,12.502 L22.6,12.502 C22.471,12.5 22.348,12.45 22.255,12.359 L21.537,11.656 C21.461,11.58 21.352,11.526 21.234,11.507 L21.145,11.5 L13.36,11.5 C12.922,11.5 12.56,11.83 12.507,12.258 L12.5,12.368 L12.5,25.632 C12.5,26.076 12.829,26.44 13.252,26.493 C13.6656842,26.4968766 13.999,26.8333305 13.999,27.2470328 L13.999,27.361 C13.999,27.71391 13.71291,28 13.36,28 L13.36,28 L13.36,28 C12.109,28 11.088,27.025 11.005,25.794 L11,25.632 L11,12.368 C11,11.116 11.969,10.089 13.198,10.005 L13.36,10 L21.145,10 Z"/><path fill="#8E8E8E" d="M17.145 6C17.636 6 18.108 6.175 18.471 6.48L18.602 6.601 19.16094 7.15105881C19.4714342 7.45661951 19.4754336 7.95603072 19.1698729 8.26652495 19.0197341 8.41908793 18.8140393 8.50408231 18.6 8.502L18.6 8.502 18.6 8.502C18.471 8.5 18.348 8.45 18.255 8.359L17.537 7.656C17.461 7.58 17.352 7.526 17.234 7.507L17.145 7.5 9.36 7.5C8.922 7.5 8.56 7.83 8.507 8.258L8.5 8.368 8.5 21.632C8.5 22.076 8.829 22.44 9.252 22.493 9.66568416 22.4968766 9.999 22.8333305 9.999 23.2470328L9.999 23.361C9.999 23.71391 9.71290996 24 9.36 24L9.36 24 9.36 24C8.109 24 7.088 23.025 7.005 21.794L7 21.632 7 8.368C7 7.116 7.969 6.089 9.198 6.005L9.36 6 17.145 6ZM25.145 14C25.636 14 26.108 14.175 26.471 14.48L26.602 14.601 27.16094 15.1510588C27.4714342 15.4566195 27.4754336 15.9560307 27.1698729 16.266525 27.0197341 16.4190879 26.8140393 16.5040823 26.6 16.502L26.6 16.502 26.6 16.502C26.471 16.5 26.348 16.45 26.255 16.359L25.537 15.656C25.461 15.58 25.352 15.526 25.234 15.507L25.145 15.5 17.36 15.5C16.922 15.5 16.56 15.83 16.507 16.258L16.5 16.368 16.5 29.632C16.5 30.076 16.829 30.44 17.252 30.493 17.6656842 30.4968766 17.999 30.8333305 17.999 31.2470328L17.999 31.361C17.999 31.71391 17.71291 32 17.36 32L17.36 32 17.36 32C16.109 32 15.088 31.025 15.005 29.794L15 29.632 15 16.368C15 15.116 15.969 14.089 17.198 14.005L17.36 14 25.145 14Z"/><path fill="#8E8E8E" d="M29.145,19.5 L21.36,19.5 C20.922,19.5 20.56,19.83 20.507,20.258 L20.5,20.368 L20.5,33.632 C20.5,34.076 20.829,34.44 21.252,34.493 L21.36,34.5 L31.377,34.5 C31.814,34.5 32.177,34.17 32.23,33.743 L32.236,33.635 L32.22,22.525 C32.22,22.401 32.181,22.282 32.118,22.191 L32.066,22.128 L29.537,19.656 C29.461,19.58 29.352,19.526 29.234,19.507 L29.145,19.5 Z M29.145,18 C29.636,18 30.108,18.175 30.471,18.48 L30.602,18.601 L33.114,21.056 C33.459,21.402 33.669,21.858 33.712,22.341 L33.72,22.523 L33.736,33.632 C33.736,34.884 32.768,35.911 31.539,35.994 L31.377,36 L21.36,36 C20.109,36 19.088,35.024 19.005,33.794 L19,33.632 L19,20.368 C19,19.116 19.969,18.089 21.198,18.005 L21.36,18 L29.145,18 Z"/><path fill="#FA0F00" fill-rule="nonzero" d="M30.5856455 11.5314676 30.6485341 11.6230882C30.8326455 11.9389541 30.7625922 12.3503992 30.46856 12.5856455 30.1451245 12.8444164 29.673153 12.7919954 29.4143821 12.46856L27.4143821 9.9687776 27.3494503 9.8735217C27.197941 9.6098042 27.2195694 9.2752224 27.4143423 9.0317351L29.4143423 6.53151739 29.4899234 6.45005085C29.7576706 6.20109351 30.174458 6.179121 30.4685102 6.4143423 30.7919677 6.67308572 30.8444287 7.14505277 30.5856853 7.46851021L29.5600138 8.74998617 31.9789776 8.7500276 32.2131576 8.75400583C35.5550618 8.8677213 38.2500276 11.4052201 38.2500276 14.5519688L38.2500276 16.5000276 38.243181 16.6017982C38.1935186 16.9678737 37.8797234 17.2500276 37.5000276 17.2500276 37.085814 17.2500276 36.7500276 16.9142412 36.7500276 16.5000276L36.7500276 14.5519688 36.7448682 14.3507176C36.6283441 12.0822968 34.5524091 10.2500276 31.9789776 10.2500276L29.5600138 10.2499862 30.5856455 11.5314676ZM5.49998615 28.7499862C5.91419971 28.7499862 6.24998615 29.0857726 6.24998615 29.4999862L6.24998615 31.448045 6.25514552 31.6492962C6.37166962 33.917717 8.44760465 35.7499862 11.0210362 35.7499862L13.4389862 35.7489862 12.4143683 34.4685185 12.3514798 34.3768979C12.1673683 34.061032 12.2374216 33.6495869 12.5314539 33.4143407 12.8548893 33.1555698 13.3268608 33.2079907 13.5856317 33.5314262L15.5856317 36.0312085 15.6505636 36.1264645C15.8020729 36.390182 15.7804445 36.7247637 15.5856715 36.9682511L13.5856715 39.4684688 13.5100904 39.5499353C13.2423433 39.7988927 12.8255558 39.8208652 12.5315036 39.5856439 12.2080462 39.3269004 12.1555851 38.8549334 12.4143285 38.5314759L13.4379862 37.2499862 11.0210362 37.2499862 10.7868562 37.246008C7.44495199 37.1322925 4.74998615 34.5947937 4.74998615 31.448045L4.74998615 29.4999862 4.75683277 29.3982156C4.80649519 29.0321401 5.12029038 28.7499862 5.49998615 28.7499862Z" transform="matrix(0 -1 -1 0 44.5 44.5)"/></g></svg>