<svg xmlns="http://www.w3.org/2000/svg" width="42" height="42" viewBox="0 0 42 42">
  <g fill="none" fill-rule="evenodd">
    <path fill="#8E8E8E" fill-rule="nonzero" d="M25.3883103,8 L13.8841404,8 C12.2889898,8 11,9.29775394 11,10.8935515 L11,30.1064485 C11,31.7022461 12.2889898,33 13.8841404,33 L28.1158596,33 C29.7110102,33 31,31.7022461 31,30.1064485 L30.9803077,13.5287961 C30.9797205,12.8570009 30.7135828,12.2114916 30.2393875,11.7346665 L27.1689785,8.73380437 C26.709936,8.27080878 26.063372,8.00059892 25.3883103,8 Z M25.3869808,9.5 C25.6622107,9.50024394 25.9260794,9.6105191 26.1205752,9.80658133 L29.1757984,12.7923895 C29.3705365,12.9882077 29.480067,13.2538706 29.4803093,13.5309718 L29.5,30.1064485 C29.5,30.8760857 28.8802992,31.5 28.1158596,31.5 L13.8841404,31.5 C13.1197008,31.5 12.5,30.8760857 12.5,30.1064485 L12.5,10.8935515 C12.5,10.1239143 13.1197008,9.5 13.8841404,9.5 L25.3869808,9.5 Z"/>
    <path fill="#FE0200" fill-rule="nonzero" d="M8.82961471 2.25C9.20931048 2.25 9.52310567 2.53215388 9.5727681 2.89822944L9.57961471 3 9.57961471 7.09265223C9.57961471 8.13498206 8.77383407 8.98814133 7.75085514 9.06354769L7.60330131 9.06896563 4 9.06896563C3.58578644 9.06896563 3.25 8.73317919 3.25 8.31896563 3.25 7.93926987 3.53215388 7.62547467 3.89822944 7.57581225L4 7.56896563 7.60330131 7.56896563C7.83755683 7.56896563 8.03170448 7.40084637 8.07195636 7.17839575L8.07961471 7.09265223 8.07961471 3C8.07961471 2.58578644 8.41540115 2.25 8.82961471 2.25zM33 2.25C33.3796958 2.25 33.693491 2.53215388 33.7431534 2.89822944L33.75 3 33.75 7.09265223C33.75 7.32690775 33.9181193 7.5210554 34.1405699 7.56130728L34.2263134 7.56896563 38.3189656 7.56896563C38.7331792 7.56896563 39.0689656 7.90475207 39.0689656 8.31896563 39.0689656 8.6986614 38.7868118 9.01245659 38.4207362 9.06211902L38.3189656 9.06896563 34.2263134 9.06896563C33.1839836 9.06896563 32.3308243 8.26318499 32.2554179 7.24020606L32.25 7.09265223 32.25 3C32.25 2.58578644 32.5857864 2.25 33 2.25zM7.60330131 33.25C8.64563114 33.25 9.49879041 34.0557806 9.57419677 35.0787596L9.57961471 35.2263134 9.57961471 39.3189656C9.57961471 39.7331792 9.24382828 40.0689656 8.82961471 40.0689656 8.44991895 40.0689656 8.13612375 39.7868118 8.08646133 39.4207362L8.07961471 39.3189656 8.07961471 35.2263134C8.07961471 34.9920579 7.91149545 34.7979102 7.68904483 34.7576583L7.60330131 34.75 4 34.75C3.58578644 34.75 3.25 34.4142136 3.25 34 3.25 33.6203042 3.53215388 33.306509 3.89822944 33.2568466L4 33.25 7.60330131 33.25zM38.3189656 33.25C38.7331792 33.25 39.0689656 33.5857864 39.0689656 34 39.0689656 34.3796958 38.7868118 34.693491 38.4207362 34.7431534L38.3189656 34.75 34.2263134 34.75C33.9920579 34.75 33.7979102 34.9181193 33.7576583 35.1405699L33.75 35.2263134 33.75 39.3189656C33.75 39.7331792 33.4142136 40.0689656 33 40.0689656 32.6203042 40.0689656 32.306509 39.7868118 32.2568466 39.4207362L32.25 39.3189656 32.25 35.2263134C32.25 34.1839836 33.0557806 33.3308243 34.0787596 33.2554179L34.2263134 33.25 38.3189656 33.25z"/>
  </g>
</svg>
