<?xml version="1.0" encoding="UTF-8"?>
<svg width="42px" height="42px" viewBox="0 0 42 42" version="1.1" xmlns="http://www.w3.org/2000/svg" xmlns:xlink="http://www.w3.org/1999/xlink">
    <title> S_Illu_Simplify-With-One-PDF_42</title>
    <g id="-S_Illu_Simplify-With-One-PDF_42" stroke="none" stroke-width="1" fill="none" fill-rule="evenodd">
        <path d="M24.497781,6 C25.3012834,6.00071285 26.0709861,6.32242643 26.6207934,6.87699008 L26.6207934,6.87699008 L31.1169732,11.2718027 C31.6820463,11.8400837 31.9992982,12.6096694 32,13.4130591 L32,13.4130591 L32,33.4556621 C32,35.4108788 30.4218165,37 28.4699274,37 L28.4699274,37 L10.5300726,37 C8.5781835,37 7,35.4108788 7,33.4556621 L7,33.4556621 L7,9.54433796 C7,7.58912125 8.5781835,6 10.5300726,6 L10.5300726,6 Z M24.4964516,7.50019572 L10.5300726,7.50019572 C9.4088945,7.50019572 8.5,8.41538937 8.5,9.54433796 L8.5,9.54433796 L8.5,33.4556621 C8.5,34.5846107 9.4088945,35.4998043 10.5300726,35.4998043 L10.5300726,35.4998043 L28.4699274,35.4998043 C29.5911055,35.4998043 30.5,34.5846107 30.5,33.4556621 L30.5,33.4556621 L30.5,13.4130591 C30.4996446,13.0065909 30.339,12.6169012 30.053384,12.3296637 L30.053384,12.3296637 L25.57239,7.94990701 C25.2871296,7.66231156 24.900122,7.50055355 24.4964516,7.50019572 L24.4964516,7.50019572 Z" id="Combined-Shape" fill="#8E8E8E" fill-rule="nonzero"></path>
        <path d="M13.5087719,29 L25.7192982,29 C26.0002852,29 26.2280702,29.2286205 26.2280702,29.5106383 C26.2280702,29.7926561 26.0002852,30.0212766 25.7192982,30.0212766 L13.5087719,30.0212766 C13.2277849,30.0212766 13,29.7926561 13,29.5106383 C13,29.2286205 13.2277849,29 13.5087719,29 Z" id="Path" fill="#8E8E8E" fill-rule="nonzero"></path>
        <path d="M13.5087719,32.0638298 L25.7192982,32.0638298 C26.0002852,32.0638298 26.2280702,32.2924503 26.2280702,32.5744681 C26.2280702,32.8564859 26.0002852,33.0851064 25.7192982,33.0851064 L13.5087719,33.0851064 C13.2277849,33.0851064 13,32.8564859 13,32.5744681 C13,32.2924503 13.2277849,32.0638298 13.5087719,32.0638298 Z" id="Path" fill="#8E8E8E" fill-rule="nonzero"></path>
        <path d="M15.8761695,22.5156753 C14.8957618,24.0646462 13.930848,25.043618 13.3668285,25.043618 C13.2627558,25.043618 13.1772953,25.0130191 13.1151246,24.9551682 C13.001697,24.851419 12.9597951,24.7385857 12.986203,24.601369 C13.093394,24.0463825 14.210519,23.2459359 15.8761695,22.5156753 L15.8761695,22.5156753 Z M20.5887726,20.300319 C20.1677069,20.3871432 19.7326089,20.4878325 19.2913718,20.6021001 C18.9743789,20.6845257 18.6528059,20.7744098 18.3311355,20.8705093 C18.5020564,20.5275154 18.658945,20.1874858 18.7956622,19.8641898 C18.975938,19.437336 19.1452998,19.0103865 19.3007267,18.5927122 C19.4374439,18.8030793 19.5788386,19.0074222 19.7232541,19.2040198 C20.0091617,19.5928163 20.3170922,19.9645923 20.6231711,20.2923824 L20.5887726,20.300319 Z M18.4119185,12.9284837 C18.4911424,12.7943269 18.6186022,12.7135268 18.750642,12.7135268 C19.1220101,12.7135268 19.2027931,13.1526202 19.2027931,13.5200932 C19.2059114,14.105583 19.0256356,15.0387521 18.7164384,16.0708894 C18.0933664,14.4516368 18.180386,13.3172802 18.4119185,12.9284837 L18.4119185,12.9284837 Z M25.3883952,21.3904028 C25.3339227,21.6663661 25.0434352,21.8447 24.6456591,21.8447 C24.5368116,21.8447 24.4234815,21.8310262 24.3100539,21.8035828 C23.5797909,21.6328987 22.8805159,21.2866536 22.1828975,20.7469665 C22.8370548,20.6493371 23.3886012,20.6281091 23.7569484,20.6281091 C24.176455,20.6281091 24.5601987,20.6570824 24.8056661,20.7073792 C25.1210999,20.7714456 25.4768765,20.9421297 25.3883952,21.3904028 L25.3883952,21.3904028 Z M26.4449086,20.6601423 C25.9802844,20.170752 25.0915737,19.9221364 23.8035278,19.9221364 C23.1695418,19.9221364 22.4533111,19.9832385 21.6701348,20.1036258 C21.2459508,19.7026853 20.8326808,19.2300288 20.4411414,18.6963658 C20.1614703,18.3167489 19.9035298,17.9233625 19.6720947,17.5238564 C20.1257075,16.1227162 20.3556809,14.9852997 20.3556809,14.1421103 C20.3556809,13.1069132 19.9377335,12 18.7646743,12 C18.379274,12 17.9846163,12.2287264 17.78261,12.568756 C17.2823204,13.4118498 17.4827675,15.1468999 18.2814378,16.9124532 C18.003326,17.7236094 17.7002678,18.5134421 17.3288997,19.3884734 C17.0166816,20.1279136 16.6453136,20.8841832 16.252215,21.5825062 C15.0558661,22.0552583 12.512224,23.2017588 12.2698749,24.4687422 C12.1983493,24.8484547 12.3211317,25.2066524 12.6179533,25.4780259 C12.7095528,25.5634158 13.0591904,25.8409091 13.6542952,25.8409091 C15.1862493,25.8409091 16.7136235,23.7597096 17.7422672,21.9682429 C18.3264581,21.7730796 18.9231221,21.5962757 19.5166678,21.4422296 C20.1677069,21.2730754 20.7970154,21.1343287 21.3904637,21.0305795 C23.0126532,22.4195758 24.4545668,22.6299429 25.1770341,22.6299429 C26.169915,22.6299429 26.5411856,22.2075832 26.6764411,21.8523497 C26.8551577,21.3889685 26.6810211,20.9086623 26.4449086,20.6601423 L26.4449086,20.6601423 Z" id="Fill-4-Copy-3" fill="#FA0F00"></path>
        <g id="Group-2" transform="translate(37.776199, 21.026199) rotate(-90.000000) translate(-37.776199, -21.026199) translate(22.299199, 17.500000)" fill="#FA0F00" fill-rule="nonzero">
            <path d="M21.6269407,0 C23.3083285,0 24.7140162,1.17592894 25.0667896,2.75057272 L30.204,2.75130208 C30.6182136,2.75130208 30.954,3.08708852 30.954,3.50130208 C30.954,3.88099785 30.6718461,4.19479304 30.3057706,4.24445547 L30.204,4.25130208 L25.0773812,4.25147685 C24.7430624,5.8517832 23.326024,7.05239849 21.6269407,7.05239849 C19.9278575,7.05239849 18.5108191,5.8517832 18.1765003,4.25147685 L0.75,4.25130208 C0.335786438,4.25130208 0,3.91551565 0,3.50130208 C0,3.12160632 0.282153882,2.80781112 0.648229443,2.7581487 L0.75,2.75130208 L18.1870919,2.75057272 C18.5398653,1.17592894 19.9455529,0 21.6269407,0 Z M21.6269407,1.5 C20.507856,1.5 19.6017975,2.40605849 19.6017975,3.52514325 C19.6017975,4.64610177 20.507618,5.55239849 21.6269407,5.55239849 C22.7462635,5.55239849 23.652084,4.64610177 23.652084,3.52514325 C23.652084,2.40605849 22.7460255,1.5 21.6269407,1.5 Z" id="Combined-Shape"></path>
        </g>
    </g>
</svg>