<svg xmlns="http://www.w3.org/2000/svg" width="42" height="42" viewBox="0 0 42 42">
  <g fill="none" fill-rule="evenodd">
    <path fill="#FA0F00" d="M23.3359,10.2808 L23.3979,10.3728 C23.5829,10.6888 23.5129,11.1008 23.2189,11.3348 C22.8959,11.5938 22.4229,11.5418 22.1639,11.2188 L20.1639,8.7188 L20.0999,8.6238 C19.9479,8.3598 19.9699,8.0248 20.1639,7.7818 L22.1639,5.2808 L22.2399,5.1998 C22.5079,4.9508 22.9249,4.9288 23.2189,5.1648 C23.5419,5.4228 23.5949,5.8948 23.3359,6.2178 L22.3099,7.49979776 L24.7289,7.49979776 L24.9629,7.5038 C28.3049,7.6178 30.9999,10.1548 30.9999,13.3018 L30.9999,15.2498 L30.9929,15.3518 C30.9419,15.7178 30.6299,15.9997978 30.2499,15.9997978 C29.8359,15.9997978 29.4999,15.6638 29.4999,15.2498 L29.4999,13.3018 L29.4949,13.1008 C29.3779,10.8318 27.3029,8.99979776 24.7289,8.99979776 L22.3099,8.99979776 L23.3359,10.2808 Z"/>
    <path fill="#8E8E8E" d="M16.145,12 C16.636,12 17.108,12.175 17.471,12.48 L17.602,12.601 L18.161,13.151 C18.471,13.457 18.476,13.956 18.17,14.267 C18.02,14.419 17.814,14.504 17.6,14.502 C17.471,14.5 17.348,14.45 17.255,14.359 L16.537,13.656 C16.461,13.58 16.352,13.526 16.234,13.507 L16.145,13.5 L8.36,13.5 C7.922,13.5 7.56,13.83 7.507,14.258 L7.5,14.368 L7.5,27.632 C7.5,28.076 7.829,28.44 8.252,28.493 C8.666,28.497 8.999,28.833 8.999,29.247 L8.999,29.361 C8.999,29.714 8.713,30 8.36,30 C7.109,30 6.088,29.025 6.005,27.794 L6,27.632 L6,14.368 C6,13.116 6.969,12.089 8.198,12.005 L8.36,12 L16.145,12 Z"/>
    <path fill="#8E8E8E" d="M20.145,16 C20.636,16 21.108,16.175 21.471,16.48 L21.602,16.601 L23.0222752,17.9440059 C23.3367655,18.2413866 23.3674841,18.7314289 23.0925926,19.0657552 C22.8441312,19.367937 22.3977467,19.411486 22.095565,19.1630246 C22.080694,19.1507973 22.0663277,19.1379688 22.0525019,19.1245711 L20.537,17.656 L20.537,17.656 C20.461,17.58 20.352,17.526 20.234,17.507 L20.145,17.5 L12.36,17.5 C11.922,17.5 11.56,17.83 11.507,18.258 L11.5,18.368 L11.5,31.632 C11.5,32.076 11.829,32.44 12.252,32.493 L12.36,32.5 L21.626,32.485 C22.048,32.484 22.39,32.829 22.385,33.251 C22.381,33.666 22.043,34 21.627,34 L12.36,34 C11.109,34 10.088,33.024 10.005,31.794 L10,31.632 L10,18.368 C10,17.116 10.969,16.089 12.198,16.005 L12.36,16 L20.145,16 Z M12.145,8 C12.636,8 13.108,8.175 13.471,8.48 L13.602,8.601 L14.161,9.151 C14.471,9.457 14.476,9.956 14.17,10.267 C14.02,10.419 13.814,10.504 13.6,10.502 C13.471,10.5 13.348,10.45 13.255,10.359 L12.537,9.656 C12.461,9.58 12.352,9.526 12.234,9.507 L12.145,9.5 L4.36,9.5 C3.922,9.5 3.56,9.83 3.507,10.258 L3.5,10.368 L3.5,23.632 C3.5,24.076 3.829,24.44 4.252,24.493 C4.666,24.497 4.999,24.833 4.999,25.247 L4.999,25.361 C4.999,25.714 4.713,26 4.36,26 C3.109,26 2.088,25.025 2.005,23.794 L2,23.632 L2,10.368 C2,9.116 2.969,8.089 4.198,8.005 L4.36,8 L12.145,8 Z"/>
    <path fill="#FA0F00" d="M30.5 34.4996053C30.7761424 34.4996053 31 34.2757477 31 33.9996053L31 24.9996053C31 24.7234629 30.7761424 24.4996053 30.5 24.4996053 30.2238576 24.4996053 30 24.7234629 30 24.9996053L30 33.9996053C30 34.2757477 30.2238576 34.4996053 30.5 34.4996053zM32.1436 33.8463053L32.8496 25.0483053C32.8726 24.7493053 33.1346 24.5273053 33.4326 24.5513053 33.4356 24.5513053 33.4386 24.5513053 33.4416 24.5523053 33.7456 24.5803053 33.9696 24.8483053 33.9456 25.1533053L33.2406 33.9503053C33.2156 34.2493053 32.9546 34.4723053 32.6566 34.4483053 32.6536 34.4483053 32.6506 34.4483053 32.6476 34.4473053 32.3436 34.4183053 32.1196 34.1513053 32.1436 33.8463053M27.5476 24.5523053C27.8456 24.5233053 28.1106 24.7423053 28.1386 25.0393053 28.1396 25.0423053 28.1396 25.0453053 28.1396 25.0483053L28.8446 33.8463053C28.8696 34.1513053 28.6446 34.4183053 28.3406 34.4473053 28.0426 34.4763053 27.7786 34.2573053 27.7496 33.9593053 27.7496 33.9563053 27.7486 33.9533053 27.7486 33.9503053L27.0436 25.1533053C27.0196 24.8483053 27.2446 24.5803053 27.5476 24.5523053"/>
    <path fill="#FA0F00" d="M28.002,20.3380053 L27.99,21.7550053 L33.097,21.7320053 L33.097,20.3380053 L28.002,20.3380053 Z M36.381,23.0340053 L24.91,23.0340053 L26.347,36.4070053 L34.913,36.4070053 L36.381,23.0340053 Z M33.156,19 C33.499,18.9990053 33.828,19.1400053 34.064,19.3900053 C34.231,19.5670053 34.342,19.7890053 34.384,20.0280053 L34.4,21.7320053 L38.508,21.7320053 C38.859,21.7320053 39.145,22.0160053 39.145,22.3680053 C39.145,22.7200053 38.859,23.0050053 38.508,23.0070053 L37.691,23.0100053 L36.136,37.0700053 C36.106,37.3870053 35.871,37.6410053 35.566,37.7020053 L25.702,37.7150053 C25.384,37.7050053 25.115,37.4850053 25.037,37.1850053 L23.583,23.0050053 L22.639,23.0220053 C22.293,23.0290053 22.006,22.7530053 22,22.4070053 L22,22.3950053 C22,22.0420053 22.286,21.7550053 22.639,21.7550053 L26.758,21.7550053 L26.757,20.1940053 C26.774,19.9040053 26.893,19.6270053 27.095,19.4130053 C27.297,19.1990053 27.566,19.0660053 27.856,19.0320053 L33.156,19 Z"/>
  </g>
</svg>
