<svg xmlns="http://www.w3.org/2000/svg" width="42" height="42" viewBox="0 0 42 42">
  <g fill="none" fill-rule="evenodd">
    <path fill="#FA0F00" fill-rule="nonzero" d="M32.8020227 14.8981548C32.7501682 14.8990821 32.6981487 14.8946623 32.6468572 14.8848173 32.6184426 14.8793575 32.5904434 14.8722905 32.5628122 14.8635673 32.4715426 14.8347213 32.3845221 14.7879761 32.3068379 14.7227912L32.3068379 14.7227912 28.7092968 11.7040959 28.6296236 11.6266266C28.3870082 11.3531197 28.3748075 10.9359318 28.6168542 10.6474718 28.8831055 10.3301658 29.3561722 10.2887778 29.6734782 10.5550292L29.6734782 10.5550292 31.7921032 12.3329829C31.4623075 10.0894801 30.4110053 8.23239577 28.6214204 6.73075574 26.6896472 5.1098055 24.4869298 4.41616053 21.9698805 4.63637381 19.5598952 4.84722021 17.5625719 5.84226717 15.9425327 7.6391473 14.3393657 9.43104779 13.5745339 11.5127678 13.6360485 13.9201242 13.6466293 14.3342026 13.3195299 14.6784569 12.9054515 14.6890377 12.4913731 14.6996186 12.1471188 14.3725192 12.136538 13.9584408 12.0652596 11.1689817 12.9665663 8.71580426 14.8265539 6.63685837 16.7025391 4.55608544 19.0512243 3.38599339 21.8391469 3.14208177 24.7523144 2.88721264 27.3489286 3.70489742 29.5856018 5.58168907 31.7202461 7.37286829 32.9674702 9.64187818 33.3088528 12.3547073L35.2109065 10.0722384 35.2881256 9.99232274C35.5608706 9.74885116 35.9780182 9.73534274 36.2672355 9.97648397 36.5853746 10.2417393 36.6282453 10.7146739 36.36299 11.032813L36.36299 11.032813 33.3649703 14.6285452C33.286936 14.7215486 33.1933251 14.789955 33.0912381 14.8348146 33.0003359 14.8747585 32.9026813 14.8960438 32.8043734 14.8981101zM37.947488 19C38.3808208 19.0003872 38.7978931 19.1557023 39.1180491 19.4267041L39.2334071 19.5336759 41.4507196 21.7161211C41.7551131 22.0243717 41.9407906 22.4295541 41.9785922 22.8589333L41.9857791 23.0209426 42 32.8955989C42 34.005719 41.148333 34.9175189 40.0661442 34.9947073L39.9172024 35 32.0827976 35C30.9809356 35 30.0813615 34.1364662 30.0052206 33.0456899L30 32.8955989 30 21.1044011C30 19.994281 30.851667 19.0824811 31.9338558 19.0052927L32.0827976 19 37.947488 19zM37.947488 20.5L32.0827976 20.5C31.7961182 20.5 31.5533957 20.7165103 31.507718 21.0055615L31.5 21.1044011 31.5 32.8955989C31.5 33.1989929 31.7140546 33.4458426 31.9890758 33.4921786L32.0827976 33.5 39.9172024 33.5C40.2038818 33.5 40.4466043 33.2834897 40.4922832 32.9960133L40.5 32.8977591 40.4857797 23.0222445C40.4857176 22.9507768 40.4647001 22.8816709 40.4331596 22.8301916L40.398498 22.7851532 38.1644876 20.5860119C38.1264916 20.5474171 38.0704387 20.5183752 38.0095285 20.5062346L37.947488 20.5z"/>
    <path fill="#8E8E8E" fill-rule="nonzero" d="M22.9948718 19C23.4231379 19.0003872 23.8353336 19.1557023 24.1517462 19.4267041L24.2657554 19.5336759 26.457142 21.7161211C26.7579764 22.0243717 26.9414829 22.4295541 26.9788425 22.8589333L26.9859454 23.0209426 27 32.8955989C27 34.005719 26.1582911 34.9175189 25.0887557 34.9947073L24.9415555 35 17.0584446 35C15.969466 35 15.0804102 34.1364662 15.0051596 33.0456899L15 32.8955989 15 21.1044011C15 19.994281 15.8417089 19.0824811 16.9112443 19.0052927L17.0584446 19 22.9948718 19zM22.9948718 20.5L17.0584446 20.5C16.7874965 20.5 16.5519149 20.7133736 16.507508 21.0046205L16.5 21.1044011 16.5 32.8955989C16.5 33.2024782 16.7084869 33.4465396 16.9696521 33.4922831L17.0584446 33.5 24.9415555 33.5C25.2125035 33.5 25.4480851 33.2866264 25.4924931 32.9969359L25.5 32.8977339 25.4859459 23.0222293C25.4858823 22.9480095 25.464539 22.8768065 25.4330757 22.8244438L25.3986524 22.7789473 23.1906674 20.5797093C23.1555661 20.543633 23.1047007 20.5168727 23.0501726 20.5057188L22.9948718 20.5zM7.99487181 19C8.42313793 19.0003872 8.83533362 19.1557023 9.15174621 19.4267041L9.26575541 19.5336759 11.457142 21.7161211C11.7579764 22.0243717 11.9414829 22.4295541 11.9788425 22.8589333L11.9859454 23.0209426 12 32.8955989C12 34.005719 11.1582911 34.9175189 10.0887557 34.9947073L9.94155546 35 2.05844455 35C.969466031 35 .0804101945 34.1364662.00515955182 33.0456899L0 32.8955989 0 21.1044011C0 19.994281.841708944 19.0824811 1.91124432 19.0052927L2.05844455 19 7.99487181 19zM7.99487181 20.5L2.05844455 20.5C1.78749655 20.5 1.55191486 20.7133736 1.50750801 21.0046205L1.5 21.1044011 1.5 32.8955989C1.5 33.2024782 1.70848687 33.4465396 1.96965214 33.4922831L2.05844455 33.5 9.94155546 33.5C10.2125035 33.5 10.4480851 33.2866264 10.4924931 32.9969359L10.5 32.8977339 10.4859459 23.0222293C10.4858823 22.9480095 10.464539 22.8768065 10.4330757 22.8244438L10.3986524 22.7789473 8.1906674 20.5797093C8.15556613 20.543633 8.10470069 20.5168727 8.05017259 20.5057188L7.99487181 20.5z"/>
  </g>
</svg>
