<svg xmlns="http://www.w3.org/2000/svg" width="42" height="42" viewBox="0 0 42 42">
  <g fill="none" fill-rule="evenodd">
    <path fill="#8E8E8E" fill-rule="nonzero" d="M22.4988278,1.78311087 C26.8407852,2.1631299 30.1641679,5.92521397 30.1641679,10.3512993 C30.1641679,10.7655129 29.8283815,11.1012993 29.4141679,11.1012993 C28.9999544,11.1012993 28.6641679,10.7655129 28.6641679,10.3512993 C28.6641679,6.69136696 25.9231767,3.58855268 22.3681166,3.27740488 C18.3675652,2.92765813 14.9541004,5.99395408 14.8242928,9.93901495 L14.8204648,10.1720718 L14.8201754,14.3850822 L34.6306701,14.3860394 C35.3597311,14.3860394 35.9591701,14.9425924 36.0271696,15.6538811 L36.0335936,15.7889629 L36.0335936,34.091302 C36.0335936,34.820363 35.4770406,35.419802 34.7657519,35.4878015 L34.6306701,35.4942255 L10.869099,35.4942255 C10.1400379,35.4942255 9.54059897,34.9376725 9.47259944,34.2263838 L9.46617544,34.091302 L9.46617544,32.5405235 C9.46617544,32.12631 9.80196188,31.7905235 10.2161754,31.7905235 C10.5958712,31.7905235 10.9096664,32.0726774 10.9593288,32.438753 L10.9661754,32.5405235 L10.9661754,33.994 L34.5331754,33.994 L34.5331754,15.886 L10.9661754,15.886 L10.9661754,17.158949 C10.9661754,17.5386447 10.6840216,17.8524399 10.317946,17.9021023 L10.2161754,17.908949 C9.83647967,17.908949 9.52268448,17.6267951 9.47302205,17.2607195 L9.46617544,17.158949 L9.46617544,15.7889629 C9.46617544,15.0599019 10.0227285,14.4604629 10.7340171,14.3924634 L10.869099,14.3860394 L13.3201754,14.3850822 L13.3204648,10.1720718 C13.3204648,5.2372694 17.5413816,1.34970795 22.4988278,1.78311087 Z"/>
    <path fill="#FA0F00" fill-rule="nonzero" d="M9,19.15 C12.1756421,19.15 14.75,21.7243579 14.75,24.9 C14.75,28.0756421 12.1756421,30.65 9,30.65 C5.82435787,30.65 3.25,28.0756421 3.25,24.9 C3.25,21.7243579 5.82435787,19.15 9,19.15 Z M5.59155637,22.3608588 C5.06294175,23.0693001 4.75,23.9481034 4.75,24.9 C4.75,27.247215 6.65278499,29.15 9,29.15 C9.74485925,29.15 10.444963,28.9583837 11.0537069,28.6217556 Z M9,20.65 C8.14697719,20.65 7.35265179,20.9013074 6.68702195,21.333924 L12.2187442,27.6753937 C12.861379,26.9307701 13.25,25.9607698 13.25,24.9 C13.25,22.552785 11.347215,20.65 9,20.65 Z"/>
  </g>
</svg>
