<svg xmlns="http://www.w3.org/2000/svg" width="42" height="42" viewBox="0 0 42 42"><g fill="none" fill-rule="evenodd"><path fill="#8E8E8E" d="M19.145,10 C19.636,10 20.108,10.175 20.471,10.48 L20.602,10.601 L21.16094,11.1510588 C21.4714342,11.4566195 21.4754336,11.9560307 21.1698729,12.266525 C21.0197341,12.4190879 20.8140393,12.5040823 20.6,12.502 L20.6,12.502 L20.6,12.502 C20.471,12.5 20.348,12.45 20.255,12.359 L19.537,11.656 C19.461,11.58 19.352,11.526 19.234,11.507 L19.145,11.5 L11.36,11.5 C10.922,11.5 10.56,11.83 10.507,12.258 L10.5,12.368 L10.5,25.632 C10.5,26.076 10.829,26.44 11.252,26.493 C11.6656842,26.4968766 11.999,26.8333305 11.999,27.2470328 L11.999,27.361 C11.999,27.71391 11.71291,28 11.36,28 L11.36,28 L11.36,28 C10.109,28 9.088,27.025 9.005,25.794 L9,25.632 L9,12.368 C9,11.116 9.969,10.089 11.198,10.005 L11.36,10 L19.145,10 Z"/><path fill="#8E8E8E" d="M15.145 6C15.636 6 16.108 6.175 16.471 6.48L16.602 6.601 17.16094 7.15105881C17.4714342 7.45661951 17.4754336 7.95603072 17.1698729 8.26652495 17.0197341 8.41908793 16.8140393 8.50408231 16.6 8.502L16.6 8.502 16.6 8.502C16.471 8.5 16.348 8.45 16.255 8.359L15.537 7.656C15.461 7.58 15.352 7.526 15.234 7.507L15.145 7.5 7.36 7.5C6.922 7.5 6.56 7.83 6.507 8.258L6.5 8.368 6.5 21.632C6.5 22.076 6.829 22.44 7.252 22.493 7.66568416 22.4968766 7.999 22.8333305 7.999 23.2470328L7.999 23.361C7.999 23.71391 7.71290996 24 7.36 24L7.36 24 7.36 24C6.109 24 5.088 23.025 5.005 21.794L5 21.632 5 8.368C5 7.116 5.969 6.089 7.198 6.005L7.36 6 15.145 6ZM23.145 14C23.636 14 24.108 14.175 24.471 14.48L24.602 14.601 25.16094 15.1510588C25.4714342 15.4566195 25.4754336 15.9560307 25.1698729 16.266525 25.0197341 16.4190879 24.8140393 16.5040823 24.6 16.502L24.6 16.502 24.6 16.502C24.471 16.5 24.348 16.45 24.255 16.359L23.537 15.656C23.461 15.58 23.352 15.526 23.234 15.507L23.145 15.5 15.36 15.5C14.922 15.5 14.56 15.83 14.507 16.258L14.5 16.368 14.5 29.632C14.5 30.076 14.829 30.44 15.252 30.493 15.6656842 30.4968766 15.999 30.8333305 15.999 31.2470328L15.999 31.361C15.999 31.71391 15.71291 32 15.36 32L15.36 32 15.36 32C14.109 32 13.088 31.025 13.005 29.794L13 29.632 13 16.368C13 15.116 13.969 14.089 15.198 14.005L15.36 14 23.145 14Z"/><path fill="#8E8E8E" d="M27.145,19.5 L19.36,19.5 C18.922,19.5 18.56,19.83 18.507,20.258 L18.5,20.368 L18.5,33.632 C18.5,34.076 18.829,34.44 19.252,34.493 L19.36,34.5 L29.377,34.5 C29.814,34.5 30.177,34.17 30.23,33.743 L30.236,33.635 L30.22,22.525 C30.22,22.401 30.181,22.282 30.118,22.191 L30.066,22.128 L27.537,19.656 C27.461,19.58 27.352,19.526 27.234,19.507 L27.145,19.5 Z M27.145,18 C27.636,18 28.108,18.175 28.471,18.48 L28.602,18.601 L31.114,21.056 C31.459,21.402 31.669,21.858 31.712,22.341 L31.72,22.523 L31.736,33.632 C31.736,34.884 30.768,35.911 29.539,35.994 L29.377,36 L19.36,36 C18.109,36 17.088,35.024 17.005,33.794 L17,33.632 L17,20.368 C17,19.116 17.969,18.089 19.198,18.005 L19.36,18 L27.145,18 Z"/><path fill="#FA0F00" fill-rule="nonzero" d="M43.92614,17.5 C45.6075278,17.5 47.0132154,18.6759289 47.3659888,20.2505727 L52.5031992,20.2513021 C52.9174128,20.2513021 53.2531992,20.5870885 53.2531992,21.0013021 C53.2531992,21.3809978 52.9710454,21.694793 52.6049698,21.7444555 L52.5031992,21.7513021 L47.3765804,21.7514768 C47.0422617,23.3517832 45.6252232,24.5523985 43.92614,24.5523985 C42.2270568,24.5523985 40.8100183,23.3517832 40.4756995,21.7514768 L23.0491992,21.7513021 C22.6349857,21.7513021 22.2991992,21.4155156 22.2991992,21.0013021 C22.2991992,20.6216063 22.5813531,20.3078111 22.9474287,20.2581487 L23.0491992,20.2513021 L40.4862912,20.2505727 C40.8390646,18.6759289 42.2447522,17.5 43.92614,17.5 Z M43.92614,19 C42.8070552,19 41.9009967,19.9060585 41.9009967,21.0251433 C41.9009967,22.1461018 42.8068172,23.0523985 43.92614,23.0523985 C45.0454628,23.0523985 45.9512832,22.1461018 45.9512832,21.0251433 C45.9512832,19.9060585 45.0452248,19 43.92614,19 Z" transform="rotate(-90 37.776 21.026)"/></g></svg>