<svg xmlns="http://www.w3.org/2000/svg" width="42" height="42" viewBox="0 0 42 42">
  <g fill="none" fill-rule="evenodd">
    <path fill="#FA0F00" fill-rule="nonzero" d="M35.947488,20.9033639 C36.3808208,20.9037511 36.7978931,21.0590662 37.1180491,21.330068 L37.2334071,21.4370398 L39.4507196,23.6194849 C39.7551131,23.9277355 39.9407906,24.332918 39.9785922,24.7622972 L39.9857791,24.9243065 L40,34.7989628 C40,35.9090829 39.148333,36.8208827 38.0661442,36.8980712 L37.9172024,36.9033639 L30.0827976,36.9033639 C28.9809356,36.9033639 28.0813615,36.0398301 28.0052206,34.9490538 L28,34.7989628 L28,23.007765 C28,21.8976449 28.851667,20.985845 29.9338558,20.9086566 L30.0827976,20.9033639 L35.947488,20.9033639 Z M35.947488,22.4033639 L30.0827976,22.4033639 C29.7961182,22.4033639 29.5533957,22.6198742 29.507718,22.9089254 L29.5,23.007765 L29.5,34.7989628 C29.5,35.1023568 29.7140546,35.3492065 29.9890758,35.3955425 L30.0827976,35.4033639 L37.9172024,35.4033639 C38.2038818,35.4033639 38.4466043,35.1868536 38.4922832,34.8993772 L38.5,34.801123 L38.4857797,24.9256084 C38.4857176,24.8541407 38.4647001,24.7850348 38.4331596,24.7335555 L38.398498,24.6885171 L36.1644876,22.4893758 C36.1264916,22.450781 36.0704387,22.4217391 36.0095285,22.4095985 L35.947488,22.4033639 Z" transform="scale(1 -1) rotate(90 62.903 0)"/>
    <path fill="#8E8E8E" fill-rule="nonzero" d="M20.9948718 18.9033639C21.4231379 18.9037511 21.8353336 19.0590662 22.1517462 19.330068L22.2657554 19.4370398 24.457142 21.6194849C24.7579764 21.9277355 24.9414829 22.332918 24.9788425 22.7622972L24.9859454 22.9243065 25 32.7989628C25 33.9090829 24.1582911 34.8208827 23.0887557 34.8980712L22.9415555 34.9033639 15.0584446 34.9033639C13.969466 34.9033639 13.0804102 34.0398301 13.0051596 32.9490538L13 32.7989628 13 21.007765C13 19.8976449 13.8417089 18.985845 14.9112443 18.9086566L15.0584446 18.9033639 20.9948718 18.9033639zM20.9948718 20.4033639L15.0584446 20.4033639C14.7874965 20.4033639 14.5519149 20.6167375 14.507508 20.9079844L14.5 21.007765 14.5 32.7989628C14.5 33.105842 14.7084869 33.3499035 14.9696521 33.395647L15.0584446 33.4033639 22.9415555 33.4033639C23.2125035 33.4033639 23.4480851 33.1899903 23.4924931 32.9002998L23.5 32.8010978 23.4859459 22.9255932C23.4858823 22.8513734 23.464539 22.7801704 23.4330757 22.7278077L23.3986524 22.6823112 21.1906674 20.4830731C21.1555661 20.4469969 21.1047007 20.4202366 21.0501726 20.4090827L20.9948718 20.4033639zM7.99487181 18.9033639C8.42313793 18.9037511 8.83533362 19.0590662 9.15174621 19.330068L9.26575541 19.4370398 11.457142 21.6194849C11.7579764 21.9277355 11.9414829 22.332918 11.9788425 22.7622972L11.9859454 22.9243065 12 32.7989628C12 33.9090829 11.1582911 34.8208827 10.0887557 34.8980712L9.94155546 34.9033639 2.05844455 34.9033639C.969466031 34.9033639.0804101945 34.0398301.00515955182 32.9490538L0 32.7989628 0 21.007765C0 19.8976449.841708944 18.985845 1.91124432 18.9086566L2.05844455 18.9033639 7.99487181 18.9033639zM7.99487181 20.4033639L2.05844455 20.4033639C1.78749655 20.4033639 1.55191486 20.6167375 1.50750801 20.9079844L1.5 21.007765 1.5 32.7989628C1.5 33.105842 1.70848687 33.3499035 1.96965214 33.395647L2.05844455 33.4033639 9.94155546 33.4033639C10.2125035 33.4033639 10.4480851 33.1899903 10.4924931 32.9002998L10.5 32.8010978 10.4859459 22.9255932C10.4858823 22.8513734 10.464539 22.7801704 10.4330757 22.7278077L10.3986524 22.6823112 8.1906674 20.4830731C8.15556613 20.4469969 8.10470069 20.4202366 8.05017259 20.4090827L7.99487181 20.4033639z"/>
    <path fill="#FA0F00" fill-rule="nonzero" d="M32.8020227,14.8981548 C32.7501682,14.8990821 32.6981487,14.8946623 32.6468572,14.8848173 C32.6184426,14.8793575 32.5904434,14.8722905 32.5628122,14.8635673 C32.4715426,14.8347213 32.3845221,14.7879761 32.3068379,14.7227912 L32.3068379,14.7227912 L28.7092968,11.7040959 L28.6296236,11.6266266 C28.3870082,11.3531197 28.3748075,10.9359318 28.6168542,10.6474718 C28.8831055,10.3301658 29.3561722,10.2887778 29.6734782,10.5550292 L29.6734782,10.5550292 L31.7921032,12.3329829 C31.4623075,10.0894801 30.4110053,8.23239577 28.6214204,6.73075574 C26.6896472,5.1098055 24.4869298,4.41616053 21.9698805,4.63637381 C19.5598952,4.84722021 17.5625719,5.84226717 15.9425327,7.6391473 C14.3393657,9.43104779 13.5745339,11.5127678 13.6360485,13.9201242 C13.6466293,14.3342026 13.3195299,14.6784569 12.9054515,14.6890377 C12.4913731,14.6996186 12.1471188,14.3725192 12.136538,13.9584408 C12.0652596,11.1689817 12.9665663,8.71580426 14.8265539,6.63685837 C16.7025391,4.55608544 19.0512243,3.38599339 21.8391469,3.14208177 C24.7523144,2.88721264 27.3489286,3.70489742 29.5856018,5.58168907 C31.7202461,7.37286829 32.9674702,9.64187818 33.3088528,12.3547073 L35.2109065,10.0722384 L35.2881256,9.99232274 C35.5608706,9.74885116 35.9780182,9.73534274 36.2672355,9.97648397 C36.5853746,10.2417393 36.6282453,10.7146739 36.36299,11.032813 L36.36299,11.032813 L33.3649703,14.6285452 C33.286936,14.7215486 33.1933251,14.789955 33.0912381,14.8348146 C33.0003359,14.8747585 32.9026813,14.8960438 32.8043734,14.8981101 Z"/>
  </g>
</svg>
