<svg xmlns="http://www.w3.org/2000/svg" width="42" height="42" viewBox="0 0 42 42">
  <g fill="none" fill-rule="evenodd">
    <path fill="#FA0F00" fill-rule="nonzero" d="M26.6572,17.7292891 C26.9522,17.4352891 27.4452,17.4222891 27.7572,17.7002891 C28.0402,17.9532891 28.0772,18.3602891 27.8602,18.6532891 L27.7872,18.7372891 L19.2222,27.2702891 C18.9552,27.5372891 18.5272,27.5732891 18.2162,27.3712891 L18.1272,27.3022891 L14.2472,23.8952891 C13.9332,23.6192891 13.9162,23.1552891 14.2082,22.8582891 C14.4752,22.5892891 14.9062,22.5512891 15.2182,22.7532891 L15.3082,22.8222891 L18.6222,25.7332891 L26.6572,17.7292891 Z"/>
    <path fill="#8E8E8E" fill-rule="nonzero" d="M5.523,13.717 L36.478,13.717 L36.478,9.576 L5.523,9.576 L5.523,13.717 Z M5.522,31.619 L36.376,31.619 L36.376,14.703 L5.522,14.703 L5.522,31.619 Z M4,9.281 C4,8.59 4.507,8.098 5.218,8 L36.681,8 C37.391,8 37.898,8.493 38,9.183 L38,31.719 C38,32.407 37.492,32.9 36.781,33 L5.319,33 C4.609,33 4.102,32.507 4,31.817 L4,9.281 Z"/>
    <path fill="#8E8E8E" fill-rule="nonzero" d="M11.5,11 C11.777,11 12,11.224 12,11.5 C12,11.746 11.824,11.95 11.59,11.992 L11.5,12 L8.5,12 C8.224,12 8,11.776 8,11.5 C8,11.254 8.177,11.05 8.41,11.008 L8.5,11 L11.5,11 Z"/>
  </g>
</svg>
