<?xml version="1.0" encoding="UTF-8"?>
<svg width="42px" height="42px" viewBox="0 0 42 42" version="1.1" xmlns="http://www.w3.org/2000/svg" xmlns:xlink="http://www.w3.org/1999/xlink">
    <title>S_Illu_Work-on-any-device_42</title>
    <g id="S_Illu_Work-on-any-device_42" stroke="none" stroke-width="1" fill="none" fill-rule="evenodd">
        <g id="Group-9" transform="translate(3.000000, 8.000000)" fill="#8E8E8E" fill-rule="nonzero">
            <path d="M32.681,0 C33.391,0 33.898,0.493 34,1.183 L34,4.5 L32.477,4.5 L32.478,1.576 L1.523,1.576 L1.523,5.717 L25.7587378,5.71602411 C25.4642914,6.00527501 25.2121495,6.3372261 25.0125702,6.70196762 L1.522,6.703 L1.522,23.619 L24.499,23.619 L24.499,25 L1.319,25 C0.609,25 0.102,24.507 0,23.817 L0,1.281 C0,0.59 0.507,0.098 1.218,0 L32.681,0 Z" id="Combined-Shape"></path>
            <path d="M7.5,3 C7.777,3 8,3.224 8,3.5 C8,3.746 7.824,3.95 7.59,3.992 L7.5,4 L4.5,4 C4.224,4 4,3.776 4,3.5 C4,3.254 4.177,3.05 4.41,3.008 L4.5,3 L7.5,3 Z" id="Path"></path>
        </g>
        <path d="M16.5011292,25.7501664 C15.5545286,27.1863769 14.6228877,28.0940825 14.0783172,28.0940825 C13.9778332,28.0940825 13.8953196,28.0657112 13.8352927,28.0120716 C13.7257764,27.9158751 13.6853194,27.8112557 13.7108167,27.684028 C13.8143115,27.1694428 14.8929149,26.4272662 16.5011292,25.7501664 L16.5011292,25.7501664 Z M21.0512287,23.6960812 C20.6446825,23.7765849 20.2245879,23.8699443 19.7985659,23.9758936 C19.4925037,24.0523189 19.1820195,24.1356597 18.8714412,24.2247634 C19.0364682,23.9067384 19.1879469,23.5914619 19.3199498,23.2917009 C19.4940091,22.8959207 19.6575308,22.5000518 19.8075982,22.112783 C19.939601,22.307836 20.07612,22.4973033 20.2155557,22.6795892 C20.4916044,23.0400826 20.7889166,23.3847944 21.0844411,23.6887224 L21.0512287,23.6960812 Z M18.9494386,16.8608929 C19.0259306,16.7365023 19.1489953,16.6615842 19.276482,16.6615842 C19.6350442,16.6615842 19.7130416,17.068713 19.7130416,17.4094351 C19.7160524,17.952303 19.541993,18.8175403 19.2434577,19.7745411 C18.641871,18.2731651 18.7258899,17.2213863 18.9494386,16.8608929 L18.9494386,16.8608929 Z M25.6853471,24.7068103 C25.632753,24.9626843 25.3522822,25.128036 24.9682226,25.128036 C24.8631284,25.128036 24.7537062,25.1153576 24.64419,25.0899121 C23.9391085,24.9316532 23.2639464,24.6106137 22.5903838,24.1102141 C23.221984,24.0196918 23.7545115,24.0000092 24.1101571,24.0000092 C24.5151979,24.0000092 24.8857091,24.0268733 25.1227121,24.0735087 C25.4272689,24.1329112 25.7707773,24.2911701 25.6853471,24.7068103 L25.6853471,24.7068103 Z M26.705429,24.0297105 C26.2568263,23.5759463 25.3987608,23.3454292 24.1551303,23.3454292 C23.5430059,23.3454292 22.8514728,23.4020832 22.0953025,23.5137067 C21.6857456,23.1419534 21.2867263,22.7037049 20.9086882,22.2088909 C20.638661,21.856909 20.389615,21.4921599 20.1661604,21.1217365 C20.6041314,19.8225951 20.8261747,18.7679791 20.8261747,17.9861713 C20.8261747,17.0263333 20.4226392,16 19.2900304,16 C18.9179197,16 18.5368709,16.2120758 18.3418303,16.5273523 C17.8587921,17.3090715 18.0523273,18.9178152 18.8234572,20.5548417 C18.5549354,21.3069482 18.2623275,22.0392835 17.9037653,22.8506152 C17.6023133,23.5362264 17.243751,24.2374419 16.8642076,24.8849291 C15.7091121,25.3232663 13.2531818,26.3863051 13.0191896,27.561056 C12.9501303,27.9131266 13.0686789,28.2452486 13.3552652,28.4968669 C13.4437062,28.5760407 13.7812872,28.8333333 14.3558713,28.8333333 C15.8349994,28.8333333 17.3097054,26.9036388 18.3028787,25.2425853 C18.866925,25.0616294 19.4430144,24.8976962 20.0160931,24.7548642 C20.6446825,24.5980239 21.2522908,24.4693776 21.8252753,24.373181 C23.3915272,25.6610626 24.7837197,25.8561156 25.4812743,25.8561156 C26.4399179,25.8561156 26.7983861,25.4645024 26.9289777,25.1351289 C27.1015316,24.7054804 26.9333997,24.260139 26.705429,24.0297105 L26.705429,24.0297105 Z" id="Fill-4-Copy-3" fill="#FA0F00"></path>
        <path d="M39.2420604,14.25 L31.7352123,14.25 C30.3648751,14.25 29.25,15.35084 29.25,16.7133678 L29.25,36.2866322 C29.25,37.64916 30.3648751,38.75 31.7352123,38.75 L39.2420604,38.75 C40.6123976,38.75 41.7272727,37.64916 41.7272727,36.2866322 L41.7272727,16.7133678 C41.7272727,15.35084 40.6123976,14.25 39.2420604,14.25 Z M31.7352123,15.75 L39.2420604,15.75 C39.7881944,15.75 40.2272727,16.1835508 40.2272727,16.7133678 L40.2272727,36.2866322 C40.2272727,36.8164492 39.7881944,37.25 39.2420604,37.25 L31.7352123,37.25 C31.1890783,37.25 30.75,36.8164492 30.75,36.2866322 L30.75,16.7133678 C30.75,16.1835508 31.1890783,15.75 31.7352123,15.75 Z" id="Stroke-11-Copy-6" fill="#8E8E8E" fill-rule="nonzero" transform="translate(35.488636, 26.500000) scale(-1, 1) translate(-35.488636, -26.500000) "></path>
        <path d="M36.0175953,34.8636364 L35.0733138,34.8636364 C34.7565982,34.8636364 34.5,35.0975936 34.5,35.3863636 L34.5,35.3863636 C34.5,35.6751337 34.7565982,35.9090909 35.0733138,35.9090909 L36.0175953,35.9090909 C36.3343109,35.9090909 36.5909091,35.6751337 36.5909091,35.3863636 L36.5909091,35.3863636 C36.5909091,35.0975936 36.3343109,34.8636364 36.0175953,34.8636364 Z" id="Stroke-15-Copy-4" fill="#8E8E8E" transform="translate(35.545455, 35.386364) scale(-1, 1) translate(-35.545455, -35.386364) "></path>
    </g>
</svg>