<svg xmlns="http://www.w3.org/2000/svg" width="42" height="42" viewBox="0 0 42 42">
  <g fill="none" fill-rule="evenodd">
    <path fill="#8E8E8E" fill-rule="nonzero" d="M27.0856179,10.03144 L27.1485065,10.1230606 C27.3326179,10.4389265 27.2625646,10.8503716 26.9685324,11.0856179 C26.6450969,11.3443888 26.1731254,11.2919678 25.9143545,10.9685324 L25.9143545,10.9685324 L23.9143545,8.46875004 L23.8494227,8.37349407 C23.6979134,8.10977657 23.7195418,7.77519484 23.9143147,7.53170746 L23.9143147,7.53170746 L25.9143147,5.03148979 L25.9898958,4.95002325 C26.257643,4.70106591 26.6744304,4.6790934 26.9684826,4.9143147 C27.2919401,5.17305812 27.3444011,5.64502517 27.0856577,5.96848261 L27.0856577,5.96848261 L26.0599862,7.24995856 L28.47895,7.25 L28.71313,7.25397823 C32.0550342,7.3676937 34.75,9.90519253 34.75,13.0519412 L34.75,13.0519412 L34.75,15 L34.7431534,15.1017706 C34.693491,15.4678461 34.3796958,15.75 34,15.75 C33.5857864,15.75 33.25,15.4142136 33.25,15 L33.25,15 L33.25,13.0519412 L33.2448406,12.85069 C33.1283165,10.5822692 31.0523815,8.75 28.47895,8.75 L28.47895,8.75 L26.0599862,8.74995856 L27.0856179,10.03144 Z"/>
    <path fill="#FE0200" fill-rule="nonzero" d="M8,26.25 C8.41421356,26.25 8.75,26.5857864 8.75,27 L8.75,27 L8.75,28.9480588 L8.75515937,29.14931 C8.87168347,31.4177308 10.9476185,33.25 13.52105,33.25 L13.52105,33.25 L15.939,33.249 L14.9143821,31.9685323 L14.8514936,31.8769117 C14.6673821,31.5610458 14.7374354,31.1496007 15.0314677,30.9143545 C15.3549031,30.6555836 15.8268746,30.7080045 16.0856455,31.03144 L16.0856455,31.03144 L18.0856455,33.5312223 L18.1505774,33.6264783 C18.3020867,33.8901958 18.2804583,34.2247775 18.0856853,34.4682649 L18.0856853,34.4682649 L16.0856853,36.9684826 L16.0101042,37.0499491 C15.7423571,37.2989065 15.3255696,37.320879 15.0315174,37.0856577 C14.70806,36.8269142 14.6555989,36.3549472 14.9143423,36.0314897 L14.9143423,36.0314897 L15.938,34.75 L13.52105,34.75 L13.28687,34.7460218 C9.94496584,34.6323063 7.25,32.0948075 7.25,28.9480588 L7.25,28.9480588 L7.25,27 L7.25684662,26.8982294 C7.30650904,26.5321539 7.62030423,26.25 8,26.25 Z"/>
    <path fill="#8E8E8E" fill-rule="nonzero" d="M12.8883103,1.5 L3.38414042,1.5 C1.7889898,1.5 0.5,2.79775394 0.5,4.39355151 L0.5,20.6064485 C0.5,22.2022461 1.7889898,23.5 3.38414042,23.5 L15.6158596,23.5 C17.2110102,23.5 18.5,22.2022461 18.5,20.6064485 L18.4803077,7.02879611 C18.4797205,6.35700087 18.2135828,5.71149159 17.7393875,5.23466645 L14.6689785,2.23380437 C14.209936,1.77080878 13.563372,1.50059892 12.8883103,1.5 Z M12.8869808,3 C13.1622107,3.00024394 13.4260794,3.1105191 13.6205752,3.30658133 L16.6757984,6.2923895 C16.8705365,6.48820768 16.980067,6.75387056 16.9803093,7.0309718 L17,20.6064485 C17,21.3760857 16.3802992,22 15.6158596,22 L3.38414042,22 C2.61970077,22 2,21.3760857 2,20.6064485 L2,4.39355151 C2,3.62391426 2.61970077,3 3.38414042,3 L12.8869808,3 Z"/>
    <path fill="#FE0200" fill-rule="nonzero" d="M34.8883103,19.5 L25.3841404,19.5 C23.7889898,19.5 22.5,20.7977539 22.5,22.3935515 L22.5,38.6064485 C22.5,40.2022461 23.7889898,41.5 25.3841404,41.5 L37.6158596,41.5 C39.2110102,41.5 40.5,40.2022461 40.5,38.6064485 L40.4803077,25.0287961 C40.4797205,24.3570009 40.2135828,23.7114916 39.7393875,23.2346665 L36.6689785,20.2338044 C36.209936,19.7708088 35.563372,19.5005989 34.8883103,19.5 Z M34.8869808,21 C35.1622107,21.0002439 35.4260794,21.1105191 35.6205752,21.3065813 L38.6757984,24.2923895 C38.8705365,24.4882077 38.980067,24.7538706 38.9803093,25.0309718 L39,38.6064485 C39,39.3760857 38.3802992,40 37.6158596,40 L25.3841404,40 C24.6197008,40 24,39.3760857 24,38.6064485 L24,22.3935515 C24,21.6239143 24.6197008,21 25.3841404,21 L34.8869808,21 Z"/>
  </g>
</svg>
