<svg xmlns="http://www.w3.org/2000/svg" width="42" height="42" viewBox="0 0 42 42">
  <g fill="none" fill-rule="evenodd">
    <path fill="#8E8E8E" fill-rule="nonzero" d="M39.7,12 L31.7,4.3 C30.5,3 28.4,3 27.1,4.2 L25.2,6 L19.4,3.6 C18.4,3.2 17.3,3.3 16.4,3.8 C15.8,4.2 15.4,4.7 15.1,5.4 L14,8 L8.5,8 C6.7,8 5.3,9.5 5.3,11.2 L5.3,13 C5.3,13.4 5.6,13.8 6.1,13.8 C6.5,13.8 6.9,13.5 6.9,13 L6.9,11.2 C6.9,10.2 7.7,9.5 8.6,9.5 L19,9.5 C19.5,9.5 20,9.7 20.4,10.1 L24.2,13.8 C24.6,14.2 24.8,14.7 24.8,15.2 L24.8,32.8 C24.8,33.8 24,34.5 23.1,34.5 L8.5,34.5 C7.5,34.5 6.8,33.7 6.8,32.8 L6.8,30.5 C6.8,30.1 6.5,29.7 6,29.7 C5.6,29.7 5.2,30 5.2,30.5 L5.2,32.8 C5.2,34.6 6.7,36 8.4,36 L23,36 C23.8,36 24.4,35.7 25,35.3 C25.8,35.2 26.5,34.9 27,34.4 L39.6,22.2 C40.3,21.6 40.6,20.7 40.7,19.7 L40.8,14.4 C40.8,13.6 40.4,12.7 39.7,12 Z M26.3,31.1 L26.3,15.3 C26.3,14.4 25.9,13.5 25.3,12.8 L21.5,9.1 C20.8,8.4 20,8.1 19,8.1 L15.6,8.1 L16.5,6 C16.7,5.6 17,5.2 17.5,5.1 C17.7,5 17.9,5 18.1,5 C18.3,5 18.6,5 18.8,5.1 L29.3,9.4 C29.8,9.6 30.2,10 30.4,10.5 L32.4,15.4 C32.6,15.9 32.6,16.4 32.4,16.9 L26.3,31.1 Z M39.2,19.8 C39.2,20.3 39,20.8 38.6,21.2 L27.6,31.9 L33.8,17.5 C34.2,16.6 34.2,15.7 33.8,14.8 L31.8,9.9 C31.5,9 30.8,8.4 29.9,8 L26.7,6.7 L28.1,5.3 C28.1,5.3 28.1,5.3 28.1,5.3 C28.4,5 28.9,4.8 29.3,4.8 C29.8,4.8 30.2,5 30.6,5.3 L38.6,13 C39,13.4 39.2,13.9 39.2,14.4 L39.2,19.8 Z"/>
    <path fill="#FA0F00" fill-rule="nonzero" d="M11,20.8 L6.8,20.8 L6.8,16.6 C6.8,16.2 6.5,15.8 6,15.8 C5.5,15.8 5.2,16.1 5.2,16.6 L5.2,20.8 L1,20.8 C0.6,20.8 0.2,21.1 0.2,21.6 C0.2,22.1 0.5,22.4 1,22.4 L5.2,22.4 L5.2,26.6 C5.2,27 5.5,27.4 6,27.4 C6.5,27.4 6.8,27.1 6.8,26.6 L6.8,22.4 L11,22.4 C11.4,22.4 11.8,22.1 11.8,21.6 C11.8,21.1 11.4,20.8 11,20.8 Z"/>
  </g>
</svg>
