<?xml version="1.0" encoding="UTF-8"?>
<svg width="42px" height="42px" viewBox="0 0 42 42" version="1.1" xmlns="http://www.w3.org/2000/svg" xmlns:xlink="http://www.w3.org/1999/xlink">
    <title>S_Illu_Share-With-Acrobat_42</title>
    <g id="S_Illu_Share-With-Acrobat_42" stroke="none" stroke-width="1" fill="none" fill-rule="evenodd">
        <path d="M29.5615155,7.7502569 C30.4979925,7.7502569 31.2656589,8.47109942 31.3400844,9.38835418 L31.3459983,9.53473966 L31.3459983,37.4657741 C31.3459983,38.4022512 30.6251558,39.1699175 29.707901,39.244343 L29.5615155,39.2502569 L12.4235845,39.2502569 C11.4871075,39.2502569 10.7194411,38.5294144 10.6450156,37.6121596 L10.6391017,37.4657741 L10.6391017,29.1554293 C10.6391017,28.7412157 10.9748882,28.4054293 11.3891017,28.4054293 C11.7687975,28.4054293 12.0825927,28.6875832 12.1322551,29.0536588 L12.1391017,29.1554293 L12.1391017,37.4657741 C12.1391017,37.6006354 12.2325141,37.7133137 12.3582851,37.7427552 L12.4235845,37.7502569 L29.5615155,37.7502569 C29.6963768,37.7502569 29.8090551,37.6568445 29.8384966,37.5310735 L29.8459983,37.4657741 L29.8459983,9.53473966 C29.8459983,9.39987837 29.7525859,9.28720012 29.6268149,9.2577586 L29.5615155,9.2502569 L12.4235845,9.2502569 C12.2887232,9.2502569 12.1760449,9.34366925 12.1466034,9.46944026 L12.1391017,9.53473966 L12.1391017,17.8450845 C12.1391017,18.259298 11.8033153,18.5950845 11.3891017,18.5950845 C11.009406,18.5950845 10.6956108,18.3129306 10.6459483,17.946855 L10.6391017,17.8450845 L10.6391017,9.53473966 C10.6391017,8.59826263 11.3599442,7.83059626 12.277199,7.75617082 L12.4235845,7.7502569 L29.5615155,7.7502569 Z" id="Stroke-2" fill="#8E8E8E" fill-rule="nonzero" transform="translate(20.992550, 23.500257) rotate(90.000000) translate(-20.992550, -23.500257) "></path>
        <path d="M20.1666854,2.53849976 C20.6809354,2.11365268 21.4486626,2.1463218 21.922595,2.63635867 L21.922595,2.63635867 L27.2188035,8.1161938 L27.2899779,8.20153727 C27.5027982,8.49881791 27.4714967,8.91500869 27.2007321,9.17670001 L27.2007321,9.17670001 L27.1153887,9.24787443 C26.818108,9.46069477 26.4019172,9.4293932 26.1402259,9.15862869 L26.1402259,9.15862869 L21.7413761,4.60760187 L21.7417224,21.1455845 L21.7348758,21.247355 C21.6852134,21.6134306 21.3714182,21.8955845 20.9917224,21.8955845 C20.5775089,21.8955845 20.2417224,21.559798 20.2417224,21.1455845 L20.2417224,21.1455845 L20.2413761,4.60760187 L15.8446681,9.15707432 L15.7617995,9.23111553 C15.4719435,9.45394229 15.0549278,9.43684083 14.784162,9.17515084 C14.4863196,8.88729186 14.4782265,8.41248709 14.7660854,8.11464472 L14.7660854,8.11464472 L20.0605682,2.63654127 Z" id="Combined-Shape" fill="#FA0F00" fill-rule="nonzero"></path>
    </g>
</svg>