<svg xmlns="http://www.w3.org/2000/svg" width="42" height="42" viewBox="0 0 42 42">
  <g fill="none" fill-rule="evenodd">
    <path fill="#8E8E8E" fill-rule="nonzero" d="M40.75,31.9991437 L1.75,31.9991437 C1.33578644,31.9991437 1,32.3349302 1,32.7491437 L1,34.0939713 C1.00967993,35.4013954 1.97329889,36.487223 3.2115924,36.4991437 L39.2807582,36.4991437 C40.5259137,36.4872262 41.4890277,35.4019676 41.5,34.1002778 L41.5,32.7491437 C41.5,32.3349302 41.1642136,31.9991437 40.75,31.9991437 Z M2.499,33.4991437 L40,33.4991437 L40,34.0939713 C39.9956502,34.6081053 39.6518142,34.9955475 39.2735594,34.9991783 L3.21879121,34.9991437 L3.13376429,34.9916153 C2.79673961,34.9351659 2.50353911,34.5681836 2.49997936,34.0884068 L2.499,33.4991437 Z M37.5,13.5411469 L37.5,28.7491437 C37.5,29.1633573 37.1642136,29.4991437 36.75,29.4991437 C36.3703042,29.4991437 36.056509,29.2169899 36.0068466,28.8509143 L36,28.7491437 L36,15.5931469 L37.5,13.5411469 Z M29.229,8.99814689 L28.13,10.4981469 L6.61240011,10.4991437 L6.57939337,10.5062016 C6.54710009,10.5198432 6.51838551,10.5523983 6.50619414,10.5963262 L6.49998994,10.6437658 L6.5,28.7491437 L6.49315338,28.8509143 C6.44349096,29.2169899 6.12969577,29.4991437 5.75,29.4991437 C5.37030423,29.4991437 5.05650904,29.2169899 5.00684662,28.8509143 L5,28.7491437 L5,10.6476494 L5.00516427,10.5071017 C5.06720743,9.72161877 5.67880163,9.083187 6.45983132,9.00678209 L6.60816716,8.99914373 L29.229,8.99814689 Z"/>
    <path fill="#FA0F00" fill-rule="nonzero" d="M34.9852203,5.79603659 C35.6028499,4.94992268 36.7951961,4.74709126 37.6716028,5.33857803 C38.5063932,5.91297724 38.7421974,7.01709671 38.2290804,7.87274199 L38.1418164,8.00566554 L27.0773851,23.1397674 L26.9474975,23.2770759 L23.2255625,26.3290923 C22.651387,26.7999208 21.8386859,26.2419248 22.0228798,25.5623232 L22.0542923,25.4689817 L23.8331516,21.0516597 L23.8649748,20.9826673 L23.9239314,20.8884684 L34.9852203,5.79603659 Z M36.8269207,6.57812078 C36.647898,6.45730597 36.4069022,6.47939349 36.2550876,6.61607279 L36.1959249,6.68158293 L25.188,21.6991437 L24.539,23.3121437 L25.921,22.1781437 L36.9265441,7.12642859 C37.0389845,6.96937599 37.0196257,6.76458346 36.8894391,6.63077511 L36.8269207,6.57812078 Z"/>
    <path fill="#8E8E8E" fill-rule="nonzero" d="M19.9408398,25.7491436 L12.5590288,25.7491436 C12.1167087,25.7491436 11.75,26.0801044 11.75,26.4991438 C11.75,26.9181869 12.1167072,27.2491436 12.5590288,27.2491436 L19.9409708,27.2491436 C20.1511415,27.2492546 20.3539758,27.1734904 20.505534,27.0367073 C20.6612477,26.896174 20.75,26.7025657 20.75,26.4991438 C20.75,26.295725 20.6612485,26.1021163 20.5055356,25.9615837 C20.3539793,25.8248023 20.151147,25.749038 19.9408398,25.7491436 Z M19.9408398,20.7491436 L12.5590288,20.7491436 C12.1167087,20.7491436 11.75,21.0801044 11.75,21.4991438 C11.75,21.9181869 12.1167072,22.2491436 12.5590288,22.2491436 L19.9409708,22.2491436 C20.1511415,22.2492546 20.3539758,22.1734904 20.505534,22.0367073 C20.6612477,21.896174 20.75,21.7025657 20.75,21.4991438 C20.75,21.295725 20.6612485,21.1021163 20.5055356,20.9615837 C20.3539793,20.8248023 20.151147,20.749038 19.9408398,20.7491436 Z M19.9408398,15.7491436 L12.5590288,15.7491436 C12.1167087,15.7491436 11.75,16.0801044 11.75,16.4991438 C11.75,16.9181869 12.1167072,17.2491436 12.5590288,17.2491436 L19.9409708,17.2491436 C20.1511415,17.2492546 20.3539758,17.1734904 20.505534,17.0367073 C20.6612477,16.896174 20.75,16.7025657 20.75,16.4991438 C20.75,16.295725 20.6612485,16.1021163 20.5055356,15.9615837 C20.3539793,15.8248023 20.151147,15.749038 19.9408398,15.7491436 Z"/>
  </g>
</svg>
