<svg xmlns="http://www.w3.org/2000/svg" width="42" height="42" viewBox="0 0 42 42">
  <g fill="none" fill-rule="evenodd">
    <path fill="#8E8E8E" fill-rule="nonzero" d="M5.1002,32.3121204 L5.1002,27.5044 C5.1002,27.0874 5.4372,26.7484 5.8542,26.7474 C6.2752,26.7454 6.6162,27.0874 6.6152,27.5074 L6.6002,32.2111204 L37.0002,32.2111204 L37.0002,15.0504 L6.6002,15.0504 L6.6002,18.5004 C6.6002,18.9144 6.2642,19.2504 5.8502,19.2504 C5.4362,19.2504 5.1002,18.9144 5.1002,18.5004 L5.1002,9.5504 C5.1002,8.8494 5.6002,8.3494 6.3002,8.2504 L6.4002,8.2504 L37.3002,8.2504 C38.0002,8.2504 38.5002,8.7504 38.6002,9.4504 L38.6002,9.5504 L38.6002,32.3121204 C38.6002,33.0111204 38.1002,33.5111204 37.3992,33.6121204 L37.3002,33.6121204 L6.4002,33.6121204 C5.7002,33.6121204 5.2002,33.1121204 5.1002,32.4121204 L5.1002,32.3121204 Z M37.0002,9.8494 L6.6002,9.8494 L6.6002,14.0504 L37.1002,14.0504 L37.1002,9.8494 L37.0002,9.8494 Z"/>
    <path fill="#8E8E8E" fill-rule="nonzero" d="M12.2997,11.55 C12.5767,11.55 12.7997,11.774 12.7997,12.05 C12.7997,12.296 12.6237,12.5 12.3897,12.542 L12.2997,12.55 L9.2997,12.55 C9.0237,12.55 8.7997,12.326 8.7997,12.05 C8.7997,11.804 8.9767,11.6 9.2097,11.558 L9.2997,11.55 L12.2997,11.55 Z"/>
    <path fill="#FA0F00" fill-rule="nonzero" d="M12.4336625,19.3879638 L12.5192629,19.458829 L15.4301939,22.2519191 C15.8259098,22.6302436 15.8541752,23.2438398 15.5157255,23.6568998 L15.4311123,23.7484631 L12.5198619,26.5412294 C12.2209492,26.8279767 11.7461778,26.8181148 11.4594305,26.519202 C11.198751,26.2474632 11.1832033,25.8303867 11.4071084,25.5413628 L11.4814578,25.4587706 L13.261,23.749999 L1,23.749999 C0.585786438,23.749999 0.25,23.4142136 0.25,23 C0.25,22.6203042 0.532153882,22.306509 0.898229443,22.2568466 L1,22.249999 L13.261,22.249999 L11.4807371,20.541171 C11.2090276,20.280461 11.1762204,19.8643862 11.3879638,19.5663375 L11.458829,19.4807371 C11.719539,19.2090276 12.1356138,19.1762204 12.4336625,19.3879638 Z"/>
    <path fill="#8E8E8E" fill-rule="nonzero" d="M18,26.4428701 C18,26.1938701 18.195,25.9928701 18.435,25.9928701 L28.565,25.9928701 C28.806,25.9928701 29,26.1938701 29,26.4428701 C29,26.6918701 28.806,26.8928701 28.565,26.8928701 L18.435,26.8928701 C18.195,26.8928701 18,26.6918701 18,26.4428701 M21.8262,23.0971701 C22.0222,23.4101701 22.1562,23.7131701 22.3522,24.0261701 C22.6812,24.4901701 23.0832,24.6321701 23.3502,24.6511701 C23.9482,24.6791701 24.4732,24.4141701 24.7322,24.0351701 C24.9462,24.4331701 25.2082,24.5611701 25.6602,24.7271701 C26.3172,24.8551701 27.3182,24.4901701 27.8522,22.9461701 L28.0002,22.4871701 L27.0592,21.3171701 C27.0592,21.3171701 26.7082,23.1731701 25.9272,23.1731701 C25.8652,23.1731701 25.6602,23.0971701 25.4642,22.8611701 C25.9272,22.0081701 25.9792,21.2371701 25.8652,20.7671701 C25.7422,20.2671701 25.5582,19.9971701 25.2352,19.9321701 C24.1702,19.7121701 23.5692,21.6881701 23.8772,22.6331701 C23.9842,22.9651701 23.5182,22.9751701 23.4132,22.9461701 C23.1452,22.8721701 22.9492,22.0831701 22.8152,21.5441701 L22.8152,21.4681701 C23.8732,19.3351701 20.7482,19.0791701 21.2912,21.3171701 L21.2912,21.3921701 C20.8992,22.0081701 19.6152,23.3441701 19.0002,23.3441701 L19.6332,24.7271701 C20.2392,24.7271701 21.4432,23.7231701 21.8262,23.0971701"/>
  </g>
</svg>
