<?xml version="1.0" encoding="UTF-8"?>
<svg width="42px" height="42px" viewBox="0 0 42 42" version="1.1" xmlns="http://www.w3.org/2000/svg" xmlns:xlink="http://www.w3.org/1999/xlink">
    <title>S_Illu_Speed-Up-Document-Reviews_42</title>
    <g id="S_Illu_Speed-Up-Document-Reviews_42" stroke="none" stroke-width="1" fill="none" fill-rule="evenodd">
        <path d="M30.9812777,20.9627746 L31,32.1091222 C31,33.6442881 29.8095598,34.9638519 28.3043828,35.0566806 L28.3043828,35.0566806 L28.1365893,35.0616713 L12.8634107,35.0616713 C11.3363907,35.0616713 10.0913432,33.7970061 10.0049643,32.2788089 L10.0049643,32.2788089 L10,29.6345368 C10,29.2212997 10.3336012,28.8859189 10.7446456,28.8859189 C11.15569,28.8859189 11.4892913,29.2212997 11.4892913,29.6345368 L11.4892913,29.6345368 L11.4892913,32.1091222 C11.4892913,32.8537475 12.0542291,33.4865792 12.7343388,33.5574484 L12.7343388,33.5574484 L28.1365893,33.5644355 C28.8286133,33.5644355 29.4342584,32.9755227 29.5037587,32.2478661 L29.5037587,32.2478661 L29.4943316,21.641484 C30.0102877,21.5255123 30.5154842,21.3033389 30.9812777,20.9627746 Z M12.6946244,9.06167135 L18.25,9.09067135 L18.25,10.5846713 L12.8554678,10.5539164 C12.193664,10.5539164 11.6357034,11.0381787 11.5137313,11.6810104 L11.4952485,11.8115946 L11.4892913,11.9453476 L11.4892913,14.4369017 C11.4892913,14.8501388 11.15569,15.1855196 10.7446456,15.1855196 C10.3336012,15.1855196 10,14.8501388 10,14.4369017 L10,14.4369017 L10,11.9453476 C10,10.4091836 11.1894473,9.14950918 12.6946244,9.06167135 L12.6946244,9.06167135 Z" id="Combined-Shape" fill="#8E8E8E" fill-rule="nonzero"></path>
        <path d="M18.198,17.0645713 L15.286,14.2705713 C14.989,13.9835713 14.513,13.9925713 14.226,14.2925713 C13.939,14.5915713 13.949,15.0655713 14.248,15.3525713 L16.029,17.0615713 L4.75,17.0615713 C4.336,17.0615713 4,17.3975713 4,17.8115713 C4,18.2255713 4.336,18.5615713 4.75,18.5615713 L16.03,18.5615713 L14.249,20.2705713 C13.949,20.5565713 13.94,21.0325713 14.227,21.3315713 C14.374,21.4845713 14.571,21.5615713 14.768,21.5615713 C14.955,21.5615713 15.142,21.4925713 15.287,21.3525713 L18.197,18.5615713 C18.401,18.3675713 18.517,18.0935713 18.517,17.8125713 C18.517,17.5305713 18.401,17.2565713 18.198,17.0645713" id="Path" fill="#FA0F00" fill-rule="nonzero"></path>
        <path d="M18.198,24.0645713 L15.286,21.2705713 C14.989,20.9835713 14.513,20.9925713 14.226,21.2925713 C13.939,21.5915713 13.949,22.0655713 14.248,22.3525713 L16.029,24.0615713 L4.75,24.0615713 C4.336,24.0615713 4,24.3975713 4,24.8115713 C4,25.2255713 4.336,25.5615713 4.75,25.5615713 L16.03,25.5615713 L14.249,27.2705713 C13.949,27.5565713 13.94,28.0325713 14.227,28.3315713 C14.374,28.4845713 14.571,28.5615713 14.768,28.5615713 C14.955,28.5615713 15.142,28.4925713 15.287,28.3525713 L18.197,25.5615713 C18.401,25.3675713 18.517,25.0935713 18.517,24.8125713 C18.517,24.5305713 18.401,24.2565713 18.198,24.0645713" id="Path" fill="#FA0F00" fill-rule="nonzero" transform="translate(11.258500, 24.811432) scale(-1, 1) translate(-11.258500, -24.811432) "></path>
        <g id="Group-11-Copy-2" transform="translate(22.000000, 1.000000)" fill="#8E8E8E" fill-rule="nonzero">
            <path d="M18.0872055,-0.75 L1.06890978,-0.680753933 C0.0649860116,-0.680760143 -0.75,0.138212843 -0.75,1.14674956 L-0.75,11.2872067 L-0.743965479,11.4369868 C-0.668021425,12.3755933 0.115334797,13.1147164 1.07196171,13.1147164 L6.131,13.093 L6.13178395,17.6430554 C6.13178395,18.62563 7.3156433,19.1247925 8.01635405,18.4327401 L13.417,13.087 L18.0940144,13.0454456 C19.094193,13.0454765 19.9087295,12.2264933 19.9087295,11.2179668 L19.9087295,1.0775097 C19.9087295,0.0689832635 19.094193,-0.75 18.0872055,-0.75 Z M1.07196171,0.819239857 L18.0872055,0.75 C18.2639322,0.75 18.4087295,0.89558778 18.4087295,1.0775097 L18.4087295,11.2179668 C18.4087295,11.3998888 18.2639322,11.5454765 18.0872055,11.5454765 L13.100342,11.590721 C12.9055505,11.5924895 12.7190894,11.6699777 12.5804175,11.8067876 L7.631,16.7 L7.63178395,12.3406901 C7.63178395,11.9252648 7.29410415,11.5889786 6.87868238,11.5906965 L1.06886015,11.6147228 C0.895056232,11.6147164 0.75,11.4689505 0.75,11.2872067 L0.75,1.14674956 C0.75,0.965005715 0.895056232,0.819239857 1.07196171,0.819239857 Z" id="Stroke-1"></path>
        </g>
        <path d="M26.5504753,5 L36.7610016,5 C37.0419886,5 37.2697736,5.2286205 37.2697736,5.5106383 C37.2697736,5.7926561 37.0419886,6.0212766 36.7610016,6.0212766 L26.5504753,6.0212766 C26.2694883,6.0212766 26.0417034,5.7926561 26.0417034,5.5106383 C26.0417034,5.2286205 26.2694883,5 26.5504753,5 Z" id="Path" fill="#8E8E8E"></path>
        <path d="M26.5504753,8.0638298 L33.7610016,8.0638298 C34.0419886,8.0638298 34.2697736,8.2924503 34.2697736,8.5744681 C34.2697736,8.8564859 34.0419886,9.0851064 33.7610016,9.0851064 L26.5504753,9.0851064 C26.2694883,9.0851064 26.0417034,8.8564859 26.0417034,8.5744681 C26.0417034,8.2924503 26.2694883,8.0638298 26.5504753,8.0638298 Z" id="Path" fill="#8E8E8E"></path>
    </g>
</svg>