<svg xmlns="http://www.w3.org/2000/svg" width="42" height="42" viewBox="0 0 42 42">
  <g fill="none">
    <path fill="#8E8E8E" d="M26.475,0 L26.489,8.8955989 C26.489,10.005719 25.6472911,10.9175189 24.5777557,10.9947073 L24.4305555,11 L16.5474446,11 C15.458466,11 14.5694102,10.1364662 14.4941596,9.0456899 L14.489,8.8955989 L14.489,0 L15.989,0 L15.989,8.8955989 C15.989,9.2024782 16.1974869,9.4465396 16.4586521,9.4922831 L16.5474446,9.5 L24.4305555,9.5 C24.7015035,9.5 24.9370851,9.2866264 24.9814931,8.9969359 L24.989,8.8977339 L24.975,0 L26.475,0 Z"/>
    <path fill="#FA0F00" d="M25.9846532,17.2798707 C26.3656532,17.6618707 26.3946532,18.2668707 26.0736532,18.6838707 L22.9966532,21.7818707 C22.7046532,22.0758707 22.2296532,22.0768707 21.9356532,21.7838707 C21.6696532,21.5188707 21.6436532,21.1018707 21.8616532,20.8078707 L23.8556532,18.7948707 L16.3476532,18.7958707 C15.9336532,18.7958707 15.5976532,18.4598707 15.5976532,18.0458707 C15.5976532,17.6658707 15.8796532,17.3528707 16.2456532,17.3028707 L23.8826532,17.2948707 L21.9336532,15.3398707 C21.6676532,15.0728707 21.6436532,14.6558707 21.8626532,14.3628707 L21.9346532,14.2788707 C22.2026532,14.0128707 22.6186532,13.9898707 22.9126532,14.2078707 L25.9846532,17.2798707 Z" transform="rotate(90 20.946 18.032)"/>
    <path fill="#FA0F00" d="M38.9487352,17.1383326 C39.3297352,17.5203326 39.3587352,18.1253326 39.0377352,18.5423326 L35.9607352,21.6403326 C35.6687352,21.9343326 35.1937352,21.9353326 34.8997352,21.6423326 C34.6337352,21.3773326 34.6077352,20.9603326 34.8257352,20.6663326 L36.8197352,18.6533326 L29.3117352,18.6543326 C28.8977352,18.6543326 28.5617352,18.3183326 28.5617352,17.9043326 C28.5617352,17.5243326 28.8437352,17.2113326 29.2097352,17.1613326 L36.8467352,17.1533326 L34.8977352,15.1983326 C34.6317352,14.9313326 34.6077352,14.5143326 34.8267352,14.2213326 L34.8987352,14.1373326 C35.1667352,13.8713326 35.5827352,13.8483326 35.8767352,14.0663326 L38.9487352,17.1383326 Z" transform="scale(1 -1) rotate(-45 -9.28 0)"/>
    <path fill="#FA0F00" d="M12.9487352,17.1383326 C13.3297352,17.5203326 13.3587352,18.1253326 13.0377352,18.5423326 L9.96073515,21.6403326 C9.66873515,21.9343326 9.19373515,21.9353326 8.89973515,21.6423326 C8.63373515,21.3773326 8.60773515,20.9603326 8.82573515,20.6663326 L10.8197352,18.6533326 L3.31173515,18.6543326 C2.89773515,18.6543326 2.56173515,18.3183326 2.56173515,17.9043326 C2.56173515,17.5243326 2.84373515,17.2113326 3.20973515,17.1613326 L10.8467352,17.1533326 L8.89773515,15.1983326 C8.63173515,14.9313326 8.60773515,14.5143326 8.82673515,14.2213326 L8.89873515,14.1373326 C9.16673515,13.8713326 9.58273515,13.8483326 9.87673515,14.0663326 L12.9487352,17.1383326 Z" transform="rotate(135 7.91 17.89)"/>
    <path fill="#8E8E8E" d="M37.947488 26C38.3808208 26.0003872 38.7978931 26.1557023 39.1180491 26.4267041L39.2334071 26.5336759 41.4507196 28.7161211C41.7551131 29.0243717 41.9407906 29.4295541 41.9785922 29.8589333L41.9857791 30.0209426 42 39.8955989C42 41.005719 41.148333 41.9175189 40.0661442 41.9947073L39.9172024 42 32.0827976 42C30.9809356 42 30.0813615 41.1364662 30.0052206 40.0456899L30 39.8955989 30 28.1044011C30 26.994281 30.851667 26.0824811 31.9338558 26.0052927L32.0827976 26 37.947488 26zM37.947488 27.5L32.0827976 27.5C31.7961182 27.5 31.5533957 27.7165103 31.507718 28.0055615L31.5 28.1044011 31.5 39.8955989C31.5 40.1989929 31.7140546 40.4458426 31.9890758 40.4921786L32.0827976 40.5 39.9172024 40.5C40.2038818 40.5 40.4466043 40.2834897 40.4922832 39.9960133L40.5 39.8977591 40.4857797 30.0222445C40.4857176 29.9507768 40.4647001 29.8816709 40.4331596 29.8301916L40.398498 29.7851532 38.1644876 27.5860119C38.1264916 27.5474171 38.0704387 27.5183752 38.0095285 27.5062346L37.947488 27.5zM22.9948718 26C23.4231379 26.0003872 23.8353336 26.1557023 24.1517462 26.4267041L24.2657554 26.5336759 26.457142 28.7161211C26.7579764 29.0243717 26.9414829 29.4295541 26.9788425 29.8589333L26.9859454 30.0209426 27 39.8955989C27 41.005719 26.1582911 41.9175189 25.0887557 41.9947073L24.9415555 42 17.0584446 42C15.969466 42 15.0804102 41.1364662 15.0051596 40.0456899L15 39.8955989 15 28.1044011C15 26.994281 15.8417089 26.0824811 16.9112443 26.0052927L17.0584446 26 22.9948718 26zM22.9948718 27.5L17.0584446 27.5C16.7874965 27.5 16.5519149 27.7133736 16.507508 28.0046205L16.5 28.1044011 16.5 39.8955989C16.5 40.2024782 16.7084869 40.4465396 16.9696521 40.4922831L17.0584446 40.5 24.9415555 40.5C25.2125035 40.5 25.4480851 40.2866264 25.4924931 39.9969359L25.5 39.8977339 25.4859459 30.0222293C25.4858823 29.9480095 25.464539 29.8768065 25.4330757 29.8244438L25.3986524 29.7789473 23.1906674 27.5797093C23.1555661 27.543633 23.1047007 27.5168727 23.0501726 27.5057188L22.9948718 27.5zM7.99487181 26C8.42313793 26.0003872 8.83533362 26.1557023 9.15174621 26.4267041L9.26575541 26.5336759 11.457142 28.7161211C11.7579764 29.0243717 11.9414829 29.4295541 11.9788425 29.8589333L11.9859454 30.0209426 12 39.8955989C12 41.005719 11.1582911 41.9175189 10.0887557 41.9947073L9.94155546 42 2.05844455 42C.969466031 42 .0804101945 41.1364662.00515955182 40.0456899L0 39.8955989 0 28.1044011C0 26.994281.841708944 26.0824811 1.91124432 26.0052927L2.05844455 26 7.99487181 26zM7.99487181 27.5L2.05844455 27.5C1.78749655 27.5 1.55191486 27.7133736 1.50750801 28.0046205L1.5 28.1044011 1.5 39.8955989C1.5 40.2024782 1.70848687 40.4465396 1.96965214 40.4922831L2.05844455 40.5 9.94155546 40.5C10.2125035 40.5 10.4480851 40.2866264 10.4924931 39.9969359L10.5 39.8977339 10.4859459 30.0222293C10.4858823 29.9480095 10.464539 29.8768065 10.4330757 29.8244438L10.3986524 29.7789473 8.1906674 27.5797093C8.15556613 27.543633 8.10470069 27.5168727 8.05017259 27.5057188L7.99487181 27.5z"/>
  </g>
</svg>
