<svg xmlns="http://www.w3.org/2000/svg" width="42" height="42" viewBox="0 0 42 42">
  <g fill="none" fill-rule="evenodd">
    <path fill="#FA0F00" fill-rule="nonzero" d="M21.5 10C21.8796958 10 22.193491 10.2821539 22.2431534 10.6482294L22.25 10.75 22.25 12.75C22.25 13.1642136 21.9142136 13.5 21.5 13.5 21.1203042 13.5 20.806509 13.2178461 20.7568466 12.8517706L20.75 12.75 20.75 10.75C20.75 10.3357864 21.0857864 10 21.5 10zM21.5 4C21.8796958 4 22.193491 4.28215388 22.2431534 4.64822944L22.25 4.75 22.25 6.75C22.25 7.1642136 21.9142136 7.5 21.5 7.5 21.1203042 7.5 20.806509 7.2178461 20.7568466 6.85177056L20.75 6.75 20.75 4.75C20.75 4.33578644 21.0857864 4 21.5 4zM21.5 35C21.8796958 35 22.193491 35.2821539 22.2431534 35.6482294L22.25 35.75 22.25 37.75C22.25 38.1642136 21.9142136 38.5 21.5 38.5 21.1203042 38.5 20.806509 38.2178461 20.7568466 37.8517706L20.75 37.75 20.75 35.75C20.75 35.3357864 21.0857864 35 21.5 35zM21.5 29C21.8796958 29 22.193491 29.2821539 22.2431534 29.6482294L22.25 29.75 22.25 31.75C22.25 32.1642136 21.9142136 32.5 21.5 32.5 21.1203042 32.5 20.806509 32.2178461 20.7568466 31.8517706L20.75 31.75 20.75 29.75C20.75 29.3357864 21.0857864 29 21.5 29z"/>
    <path fill="#FA0F00" fill-rule="nonzero" d="M20.6469381,17.1742081 L18.0440341,13.7438609 C17.7905934,13.4036038 17.4275568,12.7369777 16.7562816,13.1119549 C16.1398043,13.5910925 16.4822917,14.0285659 16.7494318,14.4799273 C17.5371528,15.8131797 18.9755997,17.6325136 19.6674242,18.6393968 C19.9277146,19.0213181 19.9140152,19.618504 19.646875,19.9934812 C19.3386364,20.5837231 18.96875,21.2156292 18.6399621,21.6808787 C18.3248737,21.5489423 17.9823864,21.4795021 17.6261995,21.4795021 C16.1192551,21.4795021 14.9,22.7155381 14.9,24.243223 C14.9,25.763964 16.1192551,27 17.6261995,27 C19.1262942,27 20.3455492,25.763964 20.3455492,24.243223 C20.3455492,23.7224213 20.2085543,23.2432838 19.9619634,22.8266424 C20.1469066,22.083632 20.3866477,21.6253265 20.6674874,21.0628607 C21.0901981,20.1115296 21.8593434,20.1115296 22.2840278,21.0628607 C22.5648674,21.6253265 22.6950126,22.0628 22.9895518,22.8266424 C22.7429609,23.2432838 22.6059659,23.7224213 22.6059659,24.243223 C22.6059659,25.763964 23.825221,27 25.3253157,27 C26.8322601,27 28.0515152,25.763964 28.0515152,24.243223 C28.0515152,22.7155381 26.8322601,21.4795021 25.3253157,21.4795021 C24.9691288,21.4795021 24.6266414,21.5489423 24.311553,21.6808787 C24.0033144,21.0836928 23.7019255,20.6323313 23.4210859,20.0420894 C23.2224432,19.625448 23.0238005,19.0213181 23.2840909,18.6393968 C23.9759154,17.6325136 25.5171086,15.7992916 26.3048295,14.4660393 C26.5719697,14.0146778 26.8459596,13.5910925 26.2294823,13.1119549 C25.5582071,12.7369777 25.2636679,13.3966598 25.0102273,13.7299729 L22.304577,17.1742081 C21.4963068,18.3060838 21.4141098,18.2644196 20.6469381,17.1742081 Z M17.6261995,22.7502582 C18.4344697,22.7502582 19.0166982,23.3266121 19.0166982,24.1460067 C19.0166982,24.9654014 18.4344697,25.7361879 17.6261995,25.7361879 C16.8110795,25.7361879 16.1535038,25.0626177 16.1535038,24.243223 C16.1535038,23.4238284 16.8110795,22.7502582 17.6261995,22.7502582 Z M25.3253157,22.7502582 C26.1404356,22.7502582 26.7980114,23.4238284 26.7980114,24.243223 C26.7980114,25.0626177 26.1404356,25.7361879 25.3253157,25.7361879 C24.5170455,25.7361879 23.9348169,24.9654014 23.9348169,24.1460067 C23.9348169,23.3266121 24.5170455,22.7502582 25.3253157,22.7502582 Z"/>
    <path fill="#8E8E8E" fill-rule="nonzero" d="M8.99487181 4C9.42313793 4.0003872 9.83533362 4.1557023 10.1517462 4.4267041L10.2657554 4.5336759 12.457142 6.7161211C12.7579764 7.0243717 12.9414829 7.4295541 12.9788425 7.8589333L12.9859454 8.0209426 13 17.8955989C13 19.005719 12.1582911 19.9175189 11.0887557 19.9947073L10.9415555 20 3.05844455 20C1.96946603 20 1.08041019 19.1364662 1.00515955 18.0456899L1 17.8955989 1 6.1044011C1 4.994281 1.84170894 4.0824811 2.91124432 4.0052927L3.05844455 4 8.99487181 4zM8.99487181 5.5L3.05844455 5.5C2.78749655 5.5 2.55191486 5.7133736 2.50750801 6.0046205L2.5 6.1044011 2.5 17.8955989C2.5 18.2024782 2.70848687 18.4465396 2.96965214 18.4922831L3.05844455 18.5 10.9415555 18.5C11.2125035 18.5 11.4480851 18.2866264 11.4924931 17.9969359L11.5 17.8977339 11.4859459 8.0222293C11.4858823 7.9480095 11.464539 7.8768065 11.4330757 7.8244438L11.3986524 7.7789473 9.1906674 5.5797093C9.15556613 5.543633 9.10470069 5.5168727 9.05017259 5.5057188L8.99487181 5.5zM37.9948718 4C38.4231379 4.0003872 38.8353336 4.1557023 39.1517462 4.4267041L39.2657554 4.5336759 41.457142 6.7161211C41.7579764 7.0243717 41.9414829 7.4295541 41.9788425 7.8589333L41.9859454 8.0209426 42 17.8955989C42 19.005719 41.1582911 19.9175189 40.0887557 19.9947073L39.9415555 20 32.0584445 20C30.969466 20 30.0804102 19.1364662 30.0051596 18.0456899L30 17.8955989 30 6.1044011C30 4.994281 30.8417089 4.0824811 31.9112443 4.0052927L32.0584445 4 37.9948718 4zM37.9948718 5.5L32.0584445 5.5C31.7874966 5.5 31.5519149 5.7133736 31.507508 6.0046205L31.5 6.1044011 31.5 17.8955989C31.5 18.2024782 31.7084869 18.4465396 31.9696521 18.4922831L32.0584445 18.5 39.9415555 18.5C40.2125035 18.5 40.4480851 18.2866264 40.4924931 17.9969359L40.5 17.8977339 40.4859459 8.0222293C40.4858823 7.9480095 40.464539 7.8768065 40.4330757 7.8244438L40.3986524 7.7789473 38.1906674 5.5797093C38.1555661 5.543633 38.1047007 5.5168727 38.0501726 5.5057188L37.9948718 5.5zM8.99487181 23C9.42313793 23.0003872 9.83533362 23.1557023 10.1517462 23.4267041L10.2657554 23.5336759 12.457142 25.7161211C12.7579764 26.0243717 12.9414829 26.4295541 12.9788425 26.8589333L12.9859454 27.0209426 13 36.8955989C13 38.005719 12.1582911 38.9175189 11.0887557 38.9947073L10.9415555 39 3.05844455 39C1.96946603 39 1.08041019 38.1364662 1.00515955 37.0456899L1 36.8955989 1 25.1044011C1 23.994281 1.84170894 23.0824811 2.91124432 23.0052927L3.05844455 23 8.99487181 23zM8.99487181 24.5L3.05844455 24.5C2.78749655 24.5 2.55191486 24.7133736 2.50750801 25.0046205L2.5 25.1044011 2.5 36.8955989C2.5 37.2024782 2.70848687 37.4465396 2.96965214 37.4922831L3.05844455 37.5 10.9415555 37.5C11.2125035 37.5 11.4480851 37.2866264 11.4924931 36.9969359L11.5 36.8977339 11.4859459 27.0222293C11.4858823 26.9480095 11.464539 26.8768065 11.4330757 26.8244438L11.3986524 26.7789473 9.1906674 24.5797093C9.15556613 24.543633 9.10470069 24.5168727 9.05017259 24.5057188L8.99487181 24.5zM37.9948718 23C38.4231379 23.0003872 38.8353336 23.1557023 39.1517462 23.4267041L39.2657554 23.5336759 41.457142 25.7161211C41.7579764 26.0243717 41.9414829 26.4295541 41.9788425 26.8589333L41.9859454 27.0209426 42 36.8955989C42 38.005719 41.1582911 38.9175189 40.0887557 38.9947073L39.9415555 39 32.0584445 39C30.969466 39 30.0804102 38.1364662 30.0051596 37.0456899L30 36.8955989 30 25.1044011C30 23.994281 30.8417089 23.0824811 31.9112443 23.0052927L32.0584445 23 37.9948718 23zM37.9948718 24.5L32.0584445 24.5C31.7874966 24.5 31.5519149 24.7133736 31.507508 25.0046205L31.5 25.1044011 31.5 36.8955989C31.5 37.2024782 31.7084869 37.4465396 31.9696521 37.4922831L32.0584445 37.5 39.9415555 37.5C40.2125035 37.5 40.4480851 37.2866264 40.4924931 36.9969359L40.5 36.8977339 40.4859459 27.0222293C40.4858823 26.9480095 40.464539 26.8768065 40.4330757 26.8244438L40.3986524 26.7789473 38.1906674 24.5797093C38.1555661 24.543633 38.1047007 24.5168727 38.0501726 24.5057188L37.9948718 24.5z"/>
  </g>
</svg>
