<svg xmlns="http://www.w3.org/2000/svg" width="42" height="42" viewBox="0 0 42 42">
  <g fill="none" fill-rule="evenodd">
    <path fill="#8E8E8E" d="M25.4976,6.5 C26.3016,6.5 27.0716,6.822 27.6216,7.377 L32.1176,11.772 C32.6816,12.34 32.9986,13.11 32.9996,13.913 L32.9996,16.498723 C32.9996,16.912723 32.6646,17.248723 32.2496,17.248723 C31.8356,17.248723 31.4996,16.912723 31.4996,16.498723 L31.4996,13.913 C31.4996,13.558 31.3766,13.214 31.1546,12.942 L31.0536,12.83 L26.5726,8.45 C26.2876,8.162 25.8996,8 25.4966,8 L11.5306,8 C10.4086,8 9.4996,8.916 9.4996,10.044 L9.4996,33.956 C9.4996,35.085 10.4086,36 11.5306,36 L24.2496,35.999 C24.6646,35.999 24.9996,36.335 24.9996,36.75 C24.9996,37.164 24.6646,37.5 24.2496,37.5 L11.5306,37.5 C9.6436,37.5 8.1056,36.015 8.0056,34.15 L7.9996,33.956 L7.9996,10.044 C7.9996,8.089 9.5786,6.5 11.5306,6.5 L25.4976,6.5 Z"/>
    <g fill="#FA0F00" transform="translate(25 19.5)">
      <path d="M8.5,5.49960528 C8.77614237,5.49960528 9,5.72346291 9,5.99960528 L9,5.99960528 L9,14.9996053 C9,15.2757477 8.77614237,15.4996053 8.5,15.4996053 C8.22385763,15.4996053 8,15.2757477 8,14.9996053 L8,14.9996053 L8,5.99960528 C8,5.72346291 8.22385763,5.49960528 8.5,5.49960528 Z M6.1386,6.03930528 C6.1396,6.04230528 6.1396,6.04530528 6.1396,6.04830528 L6.8446,14.8463053 C6.8696,15.1513053 6.6446,15.4183053 6.3406,15.4473053 C6.0426,15.4763053 5.7786,15.2573053 5.7496,14.9593053 C5.7496,14.9563053 5.7486,14.9533053 5.7486,14.9503053 L5.0436,6.15330528 C5.0196,5.84830528 5.2446,5.58030528 5.5476,5.55230528 C5.8456,5.52330528 6.1106,5.74230528 6.1386,6.03930528 Z M11.4416,5.55230528 C11.7456,5.58030528 11.9696,5.84830528 11.9456,6.15330528 L11.2406,14.9503053 C11.2181,15.2194053 11.00444,15.4269453 10.744691,15.4482663 L10.6566,15.4483053 C10.6536,15.4483053 10.6506,15.4483053 10.6476,15.4473053 C10.3436,15.4183053 10.1196,15.1513053 10.1436,14.8463053 L10.8496,6.04830528 C10.8703,5.77920528 11.08459,5.57247528 11.344483,5.55131628 L11.4326,5.55130528 C11.4356,5.55130528 11.4386,5.55130528 11.4416,5.55230528 Z"/>
      <path d="M6.002,1.33800528 L5.99,2.75500528 L11.097,2.73200528 L11.097,1.33800528 L6.002,1.33800528 Z M14.381,4.03400528 L2.91,4.03400528 L4.347,17.4070053 L12.913,17.4070053 L14.381,4.03400528 Z M11.156,-9.93456774e-05 C11.499,-0.000994716863 11.828,0.140005283 12.064,0.390005283 C12.231,0.567005283 12.342,0.789005283 12.384,1.02800528 L12.4,2.73200528 L16.363,2.73200528 C16.714,2.73200528 17,3.01600528 17,3.36800528 C17,3.72000528 16.714,4.00500528 16.363,4.00700528 L15.691,4.01000528 L14.136,18.0700053 C14.106,18.3870053 13.871,18.6410053 13.566,18.7020053 L3.702,18.7150053 C3.384,18.7050053 3.115,18.4850053 3.037,18.1850053 L1.583,4.00500528 L0.832873775,4.02200528 C0.486873775,4.02900528 0.199873775,3.75300528 0.193873775,3.40700528 L0.193873775,3.39500528 C0.193873775,3.04200528 0.479873775,2.75500528 0.832873775,2.75500528 L4.758,2.75500528 L4.757,1.19400528 C4.774,0.904005283 4.893,0.627005283 5.095,0.413005283 C5.297,0.199005283 5.566,0.0660052831 5.856,0.0320052831 L11.156,-9.93456774e-05 Z"/>
    </g>
  </g>
</svg>
