<svg xmlns="http://www.w3.org/2000/svg" width="42" height="42" viewBox="0 0 42 42">
  <g id="s_illu_esignature_42" transform="translate(-847)">
    <rect id="Canvas" width="42" height="42" transform="translate(847)" fill="#ededed" opacity="0"/>
    <g id="S_IlluESignaturesYouCanTrust_42" transform="translate(854.999 3.808)">
      <path id="Path_101569" data-name="Path 101569" d="M15.916,3.464h0a.75.75,0,0,1-.75.728H3.467A1.965,1.965,0,0,0,1.5,6.084l0,24.064a2.037,2.037,0,0,0,2.03,2.044H21.47a2.037,2.037,0,0,0,2.03-2.044V17.059a.739.739,0,0,1,.736-.739h.023a.738.738,0,0,1,.741.739V30.148a3.537,3.537,0,0,1-3.53,3.544H3.53A3.537,3.537,0,0,1,0,30.148V6.236A3.537,3.537,0,0,1,3.53,2.692H15.166a.75.75,0,0,1,.75.772" fill="#8e8e8e" fill-rule="evenodd"/>
      <path id="Path_101570" data-name="Path 101570" d="M9.5,17.25a1.3,1.3,0,0,0-.372-.893A1.192,1.192,0,0,0,8.26,16H5.74a1.192,1.192,0,0,0-.868.357,1.3,1.3,0,0,0-.372.893v6.321L7,27.25l2.5-3.827Z" fill="#8e8e8e" fill-rule="evenodd"/>
      <path id="Path_101571" data-name="Path 101571" d="M3.3,3.828A2.069,2.069,0,0,1,5.486,1.62,2.092,2.092,0,0,1,7.648,3.828a3.812,3.812,0,0,1-.16,1.014H3.474A3.737,3.737,0,0,1,3.3,3.828M.736,7.579v2.494A2.411,2.411,0,0,0,2.971,12.63H8a2.411,2.411,0,0,0,2.236-2.557V7.579c0-1.048-.3-2.254-1.341-2.372a5.524,5.524,0,0,0,.15-1.17,3.57,3.57,0,1,0-7.119,0,5.524,5.524,0,0,0,.15,1.17C1.153,5.325.736,6.531.736,7.579" transform="translate(16.5)" fill="#fe0200" fill-rule="evenodd"/>
      <path id="Path_101572" data-name="Path 101572" d="M9.5,27.692a.443.443,0,0,1,.435-.45h10.13a.45.45,0,0,1,0,.9H9.935a.443.443,0,0,1-.435-.45m3.826-3.346c.2.313.33.616.526.929a1.366,1.366,0,0,0,1,.625,1.586,1.586,0,0,0,1.382-.616,1.421,1.421,0,0,0,.928.692c.657.128,1.658-.237,2.192-1.781l.148-.459-.941-1.17s-.351,1.856-1.132,1.856a.8.8,0,0,1-.463-.312,3.072,3.072,0,0,0,.4-2.094c-.123-.5-.307-.77-.63-.835-1.065-.22-1.666,1.756-1.358,2.7.107.332-.359.342-.464.313-.268-.074-.464-.863-.6-1.4v-.076c1.058-2.133-2.067-2.389-1.524-.151v.075c-.392.616-1.676,1.952-2.291,1.952l.633,1.383a4.025,4.025,0,0,0,2.193-1.63" fill="#8e8e8e" fill-rule="evenodd"/>
    </g>
  </g>
</svg>
