<svg xmlns="http://www.w3.org/2000/svg" width="33" height="33" fill="none" viewBox="0 0 33 33">
  <g clip-path="url(#a)">
    <path fill="#fff" d="M32.077 19.164a6.87 6.87 0 0 1-2.027 4.893 6.877 6.877 0 0 1-4.893 2.026h-1.05a1.198 1.198 0 0 1 0-2.396h1.05c1.208 0 2.344-.47 3.199-1.325a4.49 4.49 0 0 0 1.325-3.198 4.463 4.463 0 0 0-1.245-3.102 4.521 4.521 0 0 0-3.038-1.392 1.2 1.2 0 0 1-.998-1.75c.2-.385.355-.782.458-1.18.11-.414.165-.84.165-1.264A5.31 5.31 0 0 0 23.459 6.7c-1.93-1.928-5.265-2.035-7.296-.225a5.374 5.374 0 0 0-1.747 3.31 1.197 1.197 0 0 1-1.685.936 4.268 4.268 0 0 0-.825-.28 4.077 4.077 0 0 0-3.75 1.057 3.831 3.831 0 0 0-1.091 3.556c.055.253.138.504.244.744A1.198 1.198 0 0 1 6.29 17.48a3.127 3.127 0 0 0-2.072.968 3.076 3.076 0 0 0-.847 2.123c0 .833.325 1.616.914 2.205a3.098 3.098 0 0 0 2.203.912h3.354a1.198 1.198 0 0 1 0 2.396H6.488a5.476 5.476 0 0 1-3.897-1.614 5.475 5.475 0 0 1-1.615-3.9c0-1.41.534-2.749 1.503-3.772a5.511 5.511 0 0 1 2.208-1.421 6.208 6.208 0 0 1 1.795-5.595 6.47 6.47 0 0 1 5.872-1.697 7.766 7.766 0 0 1 2.215-3.398 7.674 7.674 0 0 1 5.113-1.948 7.69 7.69 0 0 1 5.471 2.266 7.69 7.69 0 0 1 2.266 5.471 7.345 7.345 0 0 1-.3 2.073 6.91 6.91 0 0 1 3.048 1.856 6.85 6.85 0 0 1 1.91 4.759Z"/>
    <path fill="#fff" d="m22.677 17.815-4.796-4.787a1.198 1.198 0 0 0-1.693 0L11.4 17.816a1.198 1.198 0 1 0 1.694 1.694l2.75-2.751v13.07a1.198 1.198 0 0 0 2.396 0V16.772l2.744 2.739a1.199 1.199 0 0 0 1.692-1.696Z"/>
  </g>
  <defs>
    <clipPath id="a">
      <path fill="#fff" d="M.55.528h31.943v31.943H.55z"/>
    </clipPath>
  </defs>
</svg>
