<svg xmlns="http://www.w3.org/2000/svg" width="42" height="42" viewBox="0 0 42 42"><g fill="none" fill-rule="evenodd"><path fill="#8E8E8E" fill-rule="nonzero" d="M11.5,11 C11.777,11 12,11.224 12,11.5 C12,11.746 11.824,11.95 11.59,11.992 L11.5,12 L8.5,12 C8.224,12 8,11.776 8,11.5 C8,11.254 8.177,11.05 8.41,11.008 L8.5,11 L11.5,11 Z"/><path fill="#FA0F00" d="M17.5011292,25.7501664 C16.5545286,27.1863769 15.6228877,28.0940825 15.0783172,28.0940825 C14.9778332,28.0940825 14.8953196,28.0657112 14.8352927,28.0120716 C14.7257764,27.9158751 14.6853194,27.8112557 14.7108167,27.684028 C14.8143115,27.1694428 15.8929149,26.4272662 17.5011292,25.7501664 L17.5011292,25.7501664 Z M22.0512287,23.6960812 C21.6446825,23.7765849 21.2245879,23.8699443 20.7985659,23.9758936 C20.4925037,24.0523189 20.1820195,24.1356597 19.8714412,24.2247634 C20.0364682,23.9067384 20.1879469,23.5914619 20.3199498,23.2917009 C20.4940091,22.8959207 20.6575308,22.5000518 20.8075982,22.112783 C20.939601,22.307836 21.07612,22.4973033 21.2155557,22.6795892 C21.4916044,23.0400826 21.7889166,23.3847944 22.0844411,23.6887224 L22.0512287,23.6960812 Z M19.9494386,16.8608929 C20.0259306,16.7365023 20.1489953,16.6615842 20.276482,16.6615842 C20.6350442,16.6615842 20.7130416,17.068713 20.7130416,17.4094351 C20.7160524,17.952303 20.541993,18.8175403 20.2434577,19.7745411 C19.641871,18.2731651 19.7258899,17.2213863 19.9494386,16.8608929 L19.9494386,16.8608929 Z M26.6853471,24.7068103 C26.632753,24.9626843 26.3522822,25.128036 25.9682226,25.128036 C25.8631284,25.128036 25.7537062,25.1153576 25.64419,25.0899121 C24.9391085,24.9316532 24.2639464,24.6106137 23.5903838,24.1102141 C24.221984,24.0196918 24.7545115,24.0000092 25.1101571,24.0000092 C25.5151979,24.0000092 25.8857091,24.0268733 26.1227121,24.0735087 C26.4272689,24.1329112 26.7707773,24.2911701 26.6853471,24.7068103 L26.6853471,24.7068103 Z M27.705429,24.0297105 C27.2568263,23.5759463 26.3987608,23.3454292 25.1551303,23.3454292 C24.5430059,23.3454292 23.8514728,23.4020832 23.0953025,23.5137067 C22.6857456,23.1419534 22.2867263,22.7037049 21.9086882,22.2088909 C21.638661,21.856909 21.389615,21.4921599 21.1661604,21.1217365 C21.6041314,19.8225951 21.8261747,18.7679791 21.8261747,17.9861713 C21.8261747,17.0263333 21.4226392,16 20.2900304,16 C19.9179197,16 19.5368709,16.2120758 19.3418303,16.5273523 C18.8587921,17.3090715 19.0523273,18.9178152 19.8234572,20.5548417 C19.5549354,21.3069482 19.2623275,22.0392835 18.9037653,22.8506152 C18.6023133,23.5362264 18.243751,24.2374419 17.8642076,24.8849291 C16.7091121,25.3232663 14.2531818,26.3863051 14.0191896,27.561056 C13.9501303,27.9131266 14.0686789,28.2452486 14.3552652,28.4968669 C14.4437062,28.5760407 14.7812872,28.8333333 15.3558713,28.8333333 C16.8349994,28.8333333 18.3097054,26.9036388 19.3028787,25.2425853 C19.866925,25.0616294 20.4430144,24.8976962 21.0160931,24.7548642 C21.6446825,24.5980239 22.2522908,24.4693776 22.8252753,24.373181 C24.3915272,25.6610626 25.7837197,25.8561156 26.4812743,25.8561156 C27.4399179,25.8561156 27.7983861,25.4645024 27.9289777,25.1351289 C28.1015316,24.7054804 27.9333997,24.260139 27.705429,24.0297105 L27.705429,24.0297105 Z"/><path fill="#8E8E8E" d="M5.523,13.717 L36.478,13.717 L36.478,9.576 L5.523,9.576 L5.523,13.717 Z M27.1605,31.619 L5.522,31.619 L5.522,31.619 L5.522,14.703 L36.376,14.703 L36.376,24.188 C36.376,24.644 36.751,25.011 37.207,25 C37.648,24.989 38,24.629 38,24.188 L38,9.183 C37.898,8.493 37.391,8 36.681,8 L5.218,8 C4.507,8.098 4,8.59 4,9.281 L4,31.817 C4.102,32.507 4.609,33 5.319,33 L27.1605,33 C27.5418526,33 27.851,32.6908526 27.851,32.3095 C27.851,31.9281474 27.5418526,31.619 27.1605,31.619 Z"/><path fill="#8E8E8E" d="M31.602 24.951856 39.987 33.522856 35.008 33.521856 34.89 33.531856C34.735 33.555856 34.59 33.629856 34.477 33.741856L31.599 36.624856 31.602 24.951856ZM30.1 37.370856 30.105 37.490856C30.197 38.471856 31.412 38.936856 32.133 38.213856L35.318 35.021856 40.72 35.023856C41.776 35.023856 42.309 33.751856 41.572 32.997856L32.144 23.360856C31.397 22.596856 30.102 23.126856 30.102 24.193856L30.1 37.370856ZM32.681 4C33.391 4 33.898 4.493 34 5.183L34 5.81726562C34 6.23726562 33.659 6.57826562 33.239 6.57826562 32.818 6.57826562 32.477 6.23726562 32.477 5.81626562L32.478 5.576 1.523 5.576 1.501 27.808C1.5 28.222 1.165 28.558.75 28.558.336 28.558 0 28.222 0 27.807L0 5.281C0 4.59.507 4.098 1.218 4L32.681 4Z"/></g></svg>