<svg xmlns="http://www.w3.org/2000/svg" width="42" height="42" viewBox="0 0 42 42"><g fill="none" fill-rule="evenodd"><path fill="#8E8E8E" fill-rule="nonzero" d="M16.125 18.25C16.5392136 18.25 16.875 18.5857864 16.875 19 16.875 19.3796958 16.5928461 19.693491 16.2267706 19.7431534L16.125 19.75 10.5 19.75C10.0857864 19.75 9.75 19.4142136 9.75 19 9.75 18.6203042 10.0321539 18.306509 10.3982294 18.2568466L10.5 18.25 16.125 18.25ZM27.75 22.25C28.1642136 22.25 28.5 22.5857864 28.5 23 28.5 23.3796958 28.2178461 23.693491 27.8517706 23.7431534L27.75 23.75 16.5 23.75C16.0857864 23.75 15.75 23.4142136 15.75 23 15.75 22.6203042 16.0321539 22.306509 16.3982294 22.2568466L16.5 22.25 27.75 22.25ZM20.813 18.25C21.2272136 18.25 21.563 18.5857864 21.563 19 21.563 19.3796958 21.2808461 19.693491 20.9147706 19.7431534L20.813 19.75 19.875 19.75C19.4607864 19.75 19.125 19.4142136 19.125 19 19.125 18.6203042 19.4071539 18.306509 19.7732294 18.2568466L19.875 18.25 20.813 18.25ZM30.188 18.25C30.6022136 18.25 30.938 18.5857864 30.938 19 30.938 19.3796958 30.6558461 19.693491 30.2897706 19.7431534L30.188 19.75 23.625 19.75C23.2107864 19.75 22.875 19.4142136 22.875 19 22.875 18.6203042 23.1571539 18.306509 23.5232294 18.2568466L23.625 18.25 30.188 18.25ZM10.5000441 26.25 27.5000441 26.251C27.9142577 26.2510244 28.25 26.5868306 28.25 27.0010441 28.25 27.3807399 27.9678053 27.6945185 27.6017268 27.7441594L27.4999559 27.751 10.4999559 27.75C10.0857423 27.7499756 9.75 27.4141694 9.75 26.9999559 9.75 26.6202601 10.0321947 26.3064815 10.3982732 26.2568406L10.5000441 26.25ZM9.87609885 22.8927701C10.0850783 22.5795236 10.4889381 22.4742057 10.8195214 22.6303561L10.9162299 22.6850988 11.906 23.345 12.8972821 22.6857576C13.2106998 22.4770351 13.6239908 22.5352171 13.8690423 22.8065435L13.9372424 22.8942821C14.1459649 23.2076998 14.0877829 23.6209908 13.8164565 23.8660423L13.7287179 23.9342424 12.3217179 24.8712424C12.1012442 25.0180682 11.8224484 25.0363183 11.5874865 24.9260348L11.4897701 24.8709012 10.0837701 23.9329012C9.73919898 23.7030237 9.64622141 23.2373412 9.87609885 22.8927701Z"/><path fill="#8E8E8E" d="M5.523,13.717 L36.478,13.717 L36.478,9.576 L5.523,9.576 L5.523,13.717 Z M27.1605,31.619 L5.522,31.619 L5.522,31.619 L5.522,14.703 L36.376,14.703 L36.376,24.188 C36.376,24.644 36.751,25.011 37.207,25 C37.648,24.989 38,24.629 38,24.188 L38,9.183 C37.898,8.493 37.391,8 36.681,8 L5.218,8 C4.507,8.098 4,8.59 4,9.281 L4,31.817 C4.102,32.507 4.609,33 5.319,33 L27.1605,33 C27.5418526,33 27.851,32.6908526 27.851,32.3095 C27.851,31.9281474 27.5418526,31.619 27.1605,31.619 Z"/><path fill="#FA0F00" d="M31.602,24.951856 L39.987,33.522856 L35.008,33.521856 L34.89,33.531856 C34.735,33.555856 34.59,33.629856 34.477,33.741856 L31.599,36.624856 L31.602,24.951856 Z M30.1,37.370856 L30.105,37.490856 C30.197,38.471856 31.412,38.936856 32.133,38.213856 L35.318,35.021856 L40.72,35.023856 C41.776,35.023856 42.309,33.751856 41.572,32.997856 L32.144,23.360856 C31.397,22.596856 30.102,23.126856 30.102,24.193856 L30.1,37.370856 Z"/></g></svg>