<svg xmlns="http://www.w3.org/2000/svg" xmlns:xlink="http://www.w3.org/1999/xlink" width="500" height="300" viewBox="0 0 500 300">
  <defs>
    <clipPath id="clip-s_illu-free-acrobat-tools_500x300">
      <rect width="500" height="300"/>
    </clipPath>
  </defs>
  <g id="s_illu-free-acrobat-tools_500x300" clip-path="url(#clip-s_illu-free-acrobat-tools_500x300)">
    <rect width="500" height="300" fill="#fff"/>
    <g id="Group_295787" data-name="Group 295787" transform="translate(-1333.157 -438.327)">
      <path id="Path_596186" data-name="Path 596186" d="M364.816,153.686c5.626,0,10.186-5.449,10.186-12.168s-4.56-12.168-10.186-12.168h56.755c5.626,0,10.186-5.449,10.186-12.17s-4.56-12.168-10.186-12.168h-58.21c-5.626,0-10.186-5.447-10.186-12.168s4.56-12.168,10.186-12.168h36.381c5.626,0,10.186-5.449,10.186-12.17s-4.56-12.168-10.186-12.168H341.533c5.626,0,10.186-5.447,10.186-12.168S347.159,32,341.533,32H141.158c-5.626,0-10.186,5.447-10.186,12.168s4.56,12.168,10.186,12.168H48.023c-5.626,0-10.186,5.449-10.186,12.168s4.56,12.17,10.186,12.17H16.008c-5.626,0-10.186,5.447-10.186,12.168s4.56,12.168,10.186,12.168H43.657c5.626,0,10.187,5.449,10.187,12.168s-4.561,12.17-10.187,12.17H34.926c-5.625,0-10.186,5.447-10.186,12.168s4.561,12.168,10.186,12.168ZM20.374,141.518c0-6.721-4.561-12.168-10.187-12.168S0,134.8,0,141.518s4.561,12.168,10.186,12.168,10.187-5.449,10.187-12.168" transform="translate(1367.433 501.165)" fill="#e5f1ff" fill-rule="evenodd"/>
      <path id="Path_102813" data-name="Path 102813" d="M25.954,92.641C11.517,92.295,0,80.875,0,66.907S11.517,41.52,25.954,41.173h0a26.4,26.4,0,0,1,2.926.164A32.431,32.431,0,0,1,38.194,8.692,33.056,33.056,0,0,1,71.712,1.937,32.652,32.652,0,0,1,93.128,28.384a27.835,27.835,0,0,1,26.733,7.095,27.318,27.318,0,0,1,7.193,26.508A15.622,15.622,0,0,1,142.209,68a15.34,15.34,0,0,1,1.4,16.14,15.576,15.576,0,0,1-13.9,8.5Z" transform="translate(1402.912 460.625) rotate(1)" fill="#fdfeff" stroke="#c6ddf9" stroke-width="4"/>
      <path id="Path_596187" data-name="Path 596187" d="M87.127,117A8.126,8.126,0,0,0,79,125.126v69.995a8.128,8.128,0,0,0,8.127,8.127h54.181a8.128,8.128,0,0,0,8.127-8.127V137.589a6.823,6.823,0,0,0-2.005-4.8l-13.87-13.817A6.692,6.692,0,0,0,128.793,117Z" transform="translate(1464.2 487.852)" fill="#fee" style="isolation: isolate"/>
      <g id="Group_295772" data-name="Group 295772" transform="translate(1553.388 594.665)">
        <path id="Path_101156" data-name="Path 101156" d="M86.867,117A7.866,7.866,0,0,0,79,124.866v67.752a7.867,7.867,0,0,0,7.867,7.867h52.445a7.867,7.867,0,0,0,7.867-7.867V136.929a6.6,6.6,0,0,0-1.941-4.642l-13.426-13.374A6.477,6.477,0,0,0,127.2,117Z" transform="translate(-79 -117)" fill="#fff" style="isolation: isolate"/>
        <path id="Path_101157" data-name="Path 101157" d="M87.367,117.5a7.866,7.866,0,0,0-7.867,7.866v67.752a7.867,7.867,0,0,0,7.867,7.867h52.445a7.867,7.867,0,0,0,7.867-7.867V137.429a6.6,6.6,0,0,0-1.941-4.642l-13.426-13.374A6.478,6.478,0,0,0,127.7,117.5Z" transform="translate(-78.804 -116.804)" fill="none" stroke="#cacaca" stroke-width="3"/>
      </g>
      <path id="Path_102293" data-name="Path 102293" d="M201.75,239.075c-2.771,4.38-5.5,7.146-7.093,7.146a1.064,1.064,0,0,1-1.075-1.251c.3-1.569,3.461-3.831,8.173-5.9Zm13.322-6.261c-1.192.244-2.421.529-3.668.851-.9.233-1.8.487-2.715.759.484-.97.927-1.931,1.313-2.843.511-1.207.988-2.414,1.429-3.6.386.6.786,1.173,1.192,1.73a34.714,34.714,0,0,0,2.543,3.077Zm-6.154-20.84a1.146,1.146,0,0,1,.958-.608c1.05,0,1.277,1.241,1.277,2.281a27.967,27.967,0,0,1-1.374,7.211c-1.761-4.578-1.515-7.785-.862-8.884ZM228.639,235.9c-.152.78-.974,1.283-2.1,1.283a4.081,4.081,0,0,1-.948-.116,15.564,15.564,0,0,1-6.013-2.987,30.367,30.367,0,0,1,4.449-.336,16.348,16.348,0,0,1,2.966.224C227.883,234.146,228.89,234.629,228.639,235.9Zm2.986-2.065c-1.313-1.383-3.826-2.087-7.466-2.087a40.136,40.136,0,0,0-6.031.511,29.623,29.623,0,0,1-3.473-3.978,36.337,36.337,0,0,1-2.173-3.314,33.157,33.157,0,0,0,1.932-9.56c0-2.927-1.182-6.056-4.5-6.056a3.348,3.348,0,0,0-2.776,1.609c-1.414,2.384-.851,7.287,1.41,12.279-.786,2.292-1.643,4.525-2.692,7a61.873,61.873,0,0,1-3.044,6.2c-3.382,1.337-10.572,4.578-11.256,8.159a3,3,0,0,0,.984,2.853,4.33,4.33,0,0,0,2.93,1.022c4.33,0,8.648-5.883,11.555-10.946,1.651-.552,3.337-1.051,5.015-1.487,1.841-.479,3.62-.871,5.3-1.164,4.584,3.926,8.661,4.52,10.7,4.52,2.809,0,3.856-1.192,4.239-2.2a3.32,3.32,0,0,0-.655-3.37Z" transform="translate(1375.834 407.847)" fill="#fa0f00" fill-rule="evenodd"/>
      <g id="Add_comment_icon" data-name="Add comment icon" transform="translate(1419.875 512.833)">
        <g id="Group_159828" data-name="Group 159828" transform="translate(3 0)">
          <path id="Path_596167" data-name="Path 596167" d="M22.689,52.113V68.576a.557.557,0,0,0,.588.592.43.43,0,0,0,.353-.118L42.322,52.113H63.6a6.916,6.916,0,0,0,4.82-2.013A7.677,7.677,0,0,0,70.3,45.125V6.988a7.548,7.548,0,0,0-2-4.974A7.434,7.434,0,0,0,63.366,0H6.819A7.434,7.434,0,0,0,1.881,2.013,7.014,7.014,0,0,0,0,6.988V45.125A7.314,7.314,0,0,0,2,50.1a7.434,7.434,0,0,0,4.938,2.013Z" transform="translate(5.922 -4.026)" fill="#fff" stroke="#fff" stroke-width="3" style="isolation: isolate"/>
          <path id="Path_102678" data-name="Path 102678" d="M19.628,44.749V58.885a.48.48,0,0,0,.509.509.374.374,0,0,0,.305-.1l16.17-14.543H55.02a6,6,0,0,0,4.17-1.729,6.564,6.564,0,0,0,1.627-4.271V6a6.456,6.456,0,0,0-1.729-4.271A6.456,6.456,0,0,0,54.817,0H5.9A6.456,6.456,0,0,0,1.627,1.729,6,6,0,0,0,0,6V38.748A6.256,6.256,0,0,0,1.729,43.02,6.456,6.456,0,0,0,6,44.749Z" transform="translate(11.216)" fill="#fff" stroke="#d2b22a" stroke-width="3" style="isolation: isolate"/>
          <line id="Line_1" data-name="Line 1" x2="30.205" transform="translate(22.403 26.442)" fill="none" stroke="#d2b200" stroke-linecap="round" stroke-linejoin="round" stroke-width="2"/>
          <line id="Line_2" data-name="Line 2" x2="38.341" transform="translate(22.403 18.306)" fill="none" stroke="#d2b200" stroke-linecap="round" stroke-linejoin="round" stroke-width="2"/>
          <path id="Path_3" data-name="Path 3" d="M37.426,18.713a18.75,18.75,0,1,0-5.492,13.221A18.676,18.676,0,0,0,37.426,18.713Z" transform="translate(60.281 31.019)" fill="#d2b200" stroke="#fff" stroke-width="3"/>
          <g id="Group_1" data-name="Group 1" transform="translate(71.051 41.697)">
            <line id="Line_3" data-name="Line 3" x2="16.272" transform="translate(0 8.136)" fill="none" stroke="#fff" stroke-linecap="round" stroke-linejoin="round" stroke-width="3"/>
            <line id="Line_4" data-name="Line 4" y2="16.272" transform="translate(8.136 0)" fill="none" stroke="#fff" stroke-linecap="round" stroke-linejoin="round" stroke-width="3"/>
          </g>
        </g>
      </g>
      <path id="Path_596203" data-name="Path 596203" d="M87.127,117A8.126,8.126,0,0,0,79,125.126v69.995a8.128,8.128,0,0,0,8.127,8.127h54.181a8.128,8.128,0,0,0,8.127-8.127V137.589a6.823,6.823,0,0,0-2.005-4.8l-13.87-13.817A6.692,6.692,0,0,0,128.793,117Z" transform="translate(1454.425 461.069)" fill="#fff" style="isolation: isolate"/>
      <path id="Path_596207" data-name="Path 596207" d="M87.127,117A8.126,8.126,0,0,0,79,125.126v69.995a8.128,8.128,0,0,0,8.127,8.127h54.181a8.128,8.128,0,0,0,8.127-8.127V137.589a6.823,6.823,0,0,0-2.005-4.8l-13.87-13.817A6.692,6.692,0,0,0,128.793,117Z" transform="translate(1455.116 487.852)" fill="#fff" style="isolation: isolate"/>
      <path id="Path_596189" data-name="Path 596189" d="M87.127,117A8.126,8.126,0,0,0,79,125.126v69.995a8.128,8.128,0,0,0,8.127,8.127h54.181a8.128,8.128,0,0,0,8.127-8.127V137.589a6.823,6.823,0,0,0-2.005-4.8l-13.87-13.817A6.692,6.692,0,0,0,128.793,117Z" transform="translate(1444.649 474.367)" fill="none" style="isolation: isolate"/>
      <path id="Path_596190" data-name="Path 596190" d="M87.127,117A8.126,8.126,0,0,0,79,125.126v69.995a8.128,8.128,0,0,0,8.127,8.127h54.181a8.128,8.128,0,0,0,8.127-8.127V137.589a6.823,6.823,0,0,0-2.005-4.8l-13.87-13.817A6.692,6.692,0,0,0,128.793,117Z" transform="translate(1458.001 485.973)" fill="#fee" style="isolation: isolate"/>
      <path id="Path_596191" data-name="Path 596191" d="M87.127,117A8.126,8.126,0,0,0,79,125.126v69.995a8.128,8.128,0,0,0,8.127,8.127h54.181a8.128,8.128,0,0,0,8.127-8.127V137.589a6.823,6.823,0,0,0-2.005-4.8l-13.87-13.817A6.692,6.692,0,0,0,128.793,117Z" transform="translate(1469.094 498.267)" fill="none" style="isolation: isolate"/>
      <path id="Path_596204" data-name="Path 596204" d="M87.127,117A8.126,8.126,0,0,0,79,125.126v69.995a8.128,8.128,0,0,0,8.127,8.127h54.181a8.128,8.128,0,0,0,8.127-8.127V137.589a6.823,6.823,0,0,0-2.005-4.8l-13.87-13.817A6.692,6.692,0,0,0,128.793,117Z" transform="translate(1460.16 461.022)" fill="#fff" style="isolation: isolate"/>
      <path id="Path_596205" data-name="Path 596205" d="M87.127,117A8.126,8.126,0,0,0,79,125.126v69.995a8.128,8.128,0,0,0,8.127,8.127h54.181a8.128,8.128,0,0,0,8.127-8.127V137.589a6.823,6.823,0,0,0-2.005-4.8l-13.87-13.817A6.692,6.692,0,0,0,128.793,117Z" transform="translate(1475.333 473.186)" fill="#fff" style="isolation: isolate"/>
      <g id="Group_158362" data-name="Group 158362" transform="translate(1538.358 583.749)">
        <path id="Path_101375" data-name="Path 101375" d="M0,75.636V7.97A7.963,7.963,0,0,1,7.953,0h39.1a8.739,8.739,0,0,1,6.162,2.546L64.919,14.192A8.782,8.782,0,0,1,67.5,20.417v55.22a7.963,7.963,0,0,1-7.953,7.972H7.953A7.963,7.963,0,0,1,0,75.636Z" transform="translate(0)" fill="#fff" stroke="#cacaca" stroke-linecap="round" stroke-linejoin="round" stroke-width="4"/>
      </g>
      <g id="Group_160789" data-name="Group 160789" transform="translate(1552.333 594.008)">
        <path id="Path_101375-2" data-name="Path 101375" d="M0,75.636V7.97A7.963,7.963,0,0,1,7.953,0h39.1a8.739,8.739,0,0,1,6.162,2.546L64.919,14.192A8.782,8.782,0,0,1,67.5,20.417v55.22a7.963,7.963,0,0,1-7.953,7.972H7.953A7.963,7.963,0,0,1,0,75.636Z" transform="translate(0 0)" fill="#fff" stroke="#cacaca" stroke-linecap="round" stroke-linejoin="round" stroke-width="4"/>
      </g>
      <path id="Path_596206" data-name="Path 596206" d="M87.127,117A8.126,8.126,0,0,0,79,125.126v69.995a8.128,8.128,0,0,0,8.127,8.127h54.181a8.128,8.128,0,0,0,8.127-8.127V137.589a6.823,6.823,0,0,0-2.005-4.8l-13.87-13.817A6.692,6.692,0,0,0,128.793,117Z" transform="translate(1490.333 486.186)" fill="#fff" style="isolation: isolate"/>
      <g id="Group_160790" data-name="Group 160790" transform="translate(1566.685 606.186)">
        <path id="Path_101375-3" data-name="Path 101375" d="M0,75.636V7.97A7.963,7.963,0,0,1,7.953,0h39.1a8.739,8.739,0,0,1,6.162,2.546L64.919,14.192A8.782,8.782,0,0,1,67.5,20.417v55.22a7.963,7.963,0,0,1-7.953,7.972H7.953A7.963,7.963,0,0,1,0,75.636Z" transform="translate(0)" fill="#fff" stroke="#cacaca" stroke-linecap="round" stroke-linejoin="round" stroke-width="4"/>
      </g>
      <path id="Path_102293-2" data-name="Path 102293" d="M200.951,236.758c-2.555,4.039-5.07,6.589-6.541,6.589a.981.981,0,0,1-.991-1.153c.279-1.447,3.191-3.532,7.536-5.436Zm12.284-5.773c-1.1.225-2.233.487-3.383.785-.826.215-1.664.449-2.5.7.446-.894.855-1.78,1.21-2.622.471-1.113.911-2.226,1.318-3.316.356.549.725,1.082,1.1,1.6a31.971,31.971,0,0,0,2.345,2.837ZM207.56,211.77a1.057,1.057,0,0,1,.883-.56c.968,0,1.177,1.145,1.177,2.1a25.787,25.787,0,0,1-1.267,6.649c-1.624-4.221-1.4-7.178-.794-8.191Zm18.184,22.058c-.141.719-.9,1.183-1.936,1.183a3.758,3.758,0,0,1-.874-.107,14.351,14.351,0,0,1-5.544-2.754,28,28,0,0,1,4.1-.31,15.078,15.078,0,0,1,2.735.206C225.048,232.214,225.976,232.659,225.744,233.828Zm2.754-1.9c-1.21-1.275-3.528-1.924-6.884-1.924a37.018,37.018,0,0,0-5.561.471,27.32,27.32,0,0,1-3.2-3.668,33.513,33.513,0,0,1-2-3.056,30.575,30.575,0,0,0,1.781-8.815c0-2.7-1.09-5.584-4.147-5.584a3.087,3.087,0,0,0-2.56,1.484c-1.3,2.2-.785,6.72,1.3,11.322-.725,2.113-1.515,4.172-2.482,6.453a57.045,57.045,0,0,1-2.807,5.718c-3.118,1.233-9.748,4.221-10.379,7.523a2.768,2.768,0,0,0,.907,2.631,3.993,3.993,0,0,0,2.7.942c3.992,0,7.974-5.424,10.655-10.093,1.522-.509,3.077-.969,4.624-1.371,1.7-.442,3.338-.8,4.885-1.073,4.227,3.62,7.986,4.168,9.87,4.168,2.59,0,3.555-1.1,3.908-2.026a3.062,3.062,0,0,0-.6-3.108Z" transform="translate(1390.072 418.712)" fill="#fa0f00" fill-rule="evenodd"/>
      <g id="Group_155518" data-name="Group 155518" transform="translate(1741.826 482.094)">
        <line id="Line_6847" data-name="Line 6847" y2="2.967" transform="translate(6.066)" fill="none" stroke="#fddc76" stroke-linecap="round" stroke-width="3"/>
        <line id="Line_6848" data-name="Line 6848" y2="2.967" transform="translate(6.066 9.163)" fill="none" stroke="#fddc76" stroke-linecap="round" stroke-width="3"/>
        <line id="Line_6850" data-name="Line 6850" y2="2.967" transform="translate(12.132 6.065) rotate(90)" fill="none" stroke="#fddc76" stroke-linecap="round" stroke-width="3"/>
        <line id="Line_6849" data-name="Line 6849" y2="2.967" transform="translate(2.967 6.065) rotate(90)" fill="none" stroke="#fddc76" stroke-linecap="round" stroke-width="3"/>
      </g>
      <g id="Group_156060" data-name="Group 156060" transform="translate(1647.334 698.899)">
        <line id="Line_6847-2" data-name="Line 6847" y2="2.967" transform="translate(6.066)" fill="none" stroke="#44b755" stroke-linecap="round" stroke-width="3"/>
        <line id="Line_6848-2" data-name="Line 6848" y2="2.967" transform="translate(6.066 9.163)" fill="none" stroke="#44b755" stroke-linecap="round" stroke-width="3"/>
        <line id="Line_6850-2" data-name="Line 6850" y2="2.967" transform="translate(12.132 6.065) rotate(90)" fill="none" stroke="#44b755" stroke-linecap="round" stroke-width="3"/>
        <line id="Line_6849-2" data-name="Line 6849" y2="2.967" transform="translate(2.967 6.065) rotate(90)" fill="none" stroke="#44b755" stroke-linecap="round" stroke-width="3"/>
      </g>
      <path id="Path_102813-2" data-name="Path 102813" d="M25.954,92.641C11.517,92.295,0,80.875,0,66.907S11.517,41.52,25.954,41.173h0a26.4,26.4,0,0,1,2.926.164A32.431,32.431,0,0,1,38.194,8.692,33.056,33.056,0,0,1,71.712,1.937,32.652,32.652,0,0,1,93.128,28.384a27.835,27.835,0,0,1,26.733,7.095,27.318,27.318,0,0,1,7.193,26.508A15.622,15.622,0,0,1,142.209,68a15.34,15.34,0,0,1,1.4,16.14,15.576,15.576,0,0,1-13.9,8.5Z" transform="translate(1614.253 488.159) rotate(1)" fill="#fdfeff" stroke="#c6ddf9" stroke-width="4"/>
      <g id="Group_155517" data-name="Group 155517" transform="translate(1367.124 477.159)">
        <line id="Line_6847-3" data-name="Line 6847" y2="8.122" transform="translate(13.086)" fill="none" stroke="#0d66d0" stroke-linecap="round" stroke-width="3"/>
        <line id="Line_6848-3" data-name="Line 6848" y2="8.122" transform="translate(13.086 18.049)" fill="none" stroke="#0d66d0" stroke-linecap="round" stroke-width="3"/>
        <line id="Line_6850-3" data-name="Line 6850" y2="8.122" transform="translate(26.171 13.086) rotate(90)" fill="none" stroke="#0d66d0" stroke-linecap="round" stroke-width="3"/>
        <line id="Line_6849-3" data-name="Line 6849" y2="8.122" transform="translate(8.122 13.086) rotate(90)" fill="none" stroke="#0d66d0" stroke-linecap="round" stroke-width="3"/>
      </g>
      <g id="Group_295782" data-name="Group 295782" transform="translate(1636.681 521.492)">
        <g id="Group_295781" data-name="Group 295781" transform="translate(10.37 0.714) rotate(8)">
          <g id="Group_295761" data-name="Group 295761" transform="matrix(0.978, -0.208, 0.208, 0.978, 5.246, 6.831)">
            <g id="Group_295760" data-name="Group 295760" transform="translate(0.07 -0.998)">
              <path id="Path_101220" data-name="Path 101220" d="M12.2,52.484l36.5-39.6c1.558-1.55-.986-14.092-2.58-12.795C45.8.362,31.744,10.4,7.1,36.435L0,59.529l20.274,1.418c7.98-6.068,10.076-8.569,7.508-10.529-3.852-2.941-10.723,10.654-5.723,10.654s8.609-.656,11.46-4.116-1.806,4.548-.342,4.893,2.987-.523,6.88-2.964c1.716-.869-.218,3.18,2.484,3.986,1.8.537,14.8,1.157,18.146-2.543" transform="translate(0 0)" fill="none" stroke="#fff" stroke-linecap="round" stroke-linejoin="round" stroke-width="10"/>
              <path id="Path_101221" data-name="Path 101221" d="M7.337,43.524,44.408,5.881l-.047-.1a4.029,4.029,0,0,0-.217-.375l-.1-.145A15.966,15.966,0,0,0,41.589,2.6,18.024,18.024,0,0,0,38.57.383a5.652,5.652,0,0,0-.755-.358L37.742,0,0,37.239Z" transform="translate(2.298 5.663)" fill="#fff" style="isolation: isolate"/>
            </g>
          </g>
        </g>
        <g id="Group_295780" data-name="Group 295780" transform="translate(5.506 -1)">
          <g id="Group_295778" data-name="Group 295778" transform="translate(52.847 60.725) rotate(-17)">
            <path id="Path_596168" data-name="Path 596168" d="M5.6,0,3.678,3.446,0,10.025" transform="translate(8.682 0) rotate(60)" fill="none" stroke="#fff" stroke-width="6"/>
          </g>
          <g id="Group_295773" data-name="Group 295773" transform="translate(0 0)">
            <path id="Path_596168-2" data-name="Path 596168" d="M19.838,0,13.019,11.925,0,34.69" transform="translate(28.146 29.852) rotate(9)" fill="none" stroke="#fff" stroke-width="4"/>
            <g id="Group_295762" data-name="Group 295762" transform="translate(9.883 1) rotate(8)">
              <path id="Polygon_1" data-name="Polygon 1" d="M10.367,0,20.734,17.419H0Z" transform="translate(10.599 47.286) rotate(-14)" fill="#fff"/>
              <g id="Group_295784" data-name="Group 295784">
                <path id="Polygon_2" data-name="Polygon 2" d="M26.2,0l26.2,23.562H0Z" transform="translate(17.62 40.391) rotate(-11)" fill="#fff"/>
                <g id="Group_155670" data-name="Group 155670" transform="translate(4.946 8.88) rotate(-9)">
                  <path id="Path_101220-2" data-name="Path 101220" d="M16.956,46.738,52.373,8.17c1.512-1.51-6.773-9.3-8.319-8.032Q43.577.529,7.707,38.562L0,56.456H24.195q11.614-8.865,7.877-11.73c-3.737-2.865-10.636,11.73-5.785,11.73S35.568,53,38.335,49.629s-2.449,5.9-1.028,6.231,6.861-3.007,10.637-5.385c1.665-.846-4.174,5.6-1.552,6.38q2.622.784,7.493-4.621" transform="translate(0 0)" fill="none" stroke="#864ccc" stroke-linecap="round" stroke-linejoin="round" stroke-width="3"/>
                  <path id="Path_101221-2" data-name="Path 101221" d="M7.018,44.6,42.479,6.026l-.045-.1a4.21,4.21,0,0,0-.207-.384l-.091-.148a16,16,0,0,0-2.352-2.724A17.354,17.354,0,0,0,36.9.392a5.253,5.253,0,0,0-.722-.367L36.1,0,0,38.157Z" transform="translate(8.606 1.447)" fill="#e5dcf4" style="isolation: isolate"/>
                </g>
              </g>
            </g>
          </g>
        </g>
      </g>
      <path id="Path_102813-3" data-name="Path 102813" d="M19.2,62.97C8.6,62.97,0,55.485,0,46.253S8.6,29.535,19.2,29.535h0q1.085,0,2.165.106c-2.439-7.635.218-15.818,6.893-21.207A27.042,27.042,0,0,1,53.05,4.045c8.556,2.7,14.67,9.324,15.847,17.183a22.608,22.608,0,0,1,19.776,4.606c5.175,4.5,7.2,11.065,5.32,17.219a12.4,12.4,0,0,1,11.218,3.909,8.971,8.971,0,0,1,1.037,10.485A11.8,11.8,0,0,1,95.962,62.97Z" transform="translate(1494.87 648.059)" fill="#fdfeff"/>
      <path id="Path_102813-4" data-name="Path 102813" d="M17.839,62.97C7.99,62.97,0,55.485,0,46.253S7.987,29.535,17.837,29.535h0a19.076,19.076,0,0,1,2.012.106,20.324,20.324,0,0,1,6.4-21.207A23.714,23.714,0,0,1,49.288,4.045,21.528,21.528,0,0,1,64.011,21.229a19.905,19.905,0,0,1,18.374,4.606,17.1,17.1,0,0,1,4.943,17.219A11.06,11.06,0,0,1,97.75,46.963a9.513,9.513,0,0,1,.964,10.485,10.8,10.8,0,0,1-9.556,5.521Z" transform="translate(1497.49 653.059)" fill="#fdfeff" stroke="#c6ddf9" stroke-width="4"/>
    </g>
  </g>
</svg>
