<svg xmlns="http://www.w3.org/2000/svg" width="42" height="42" viewBox="0 0 42 42">
  <g fill="none" fill-rule="evenodd">
    <path fill="#8E8E8E" fill-rule="nonzero" d="M28,9.25 C20.9582309,9.25 15.25,14.9582309 15.25,22 C15.25,29.0417691 20.9582309,34.75 28,34.75 C35.0417691,34.75 40.75,29.0417691 40.75,22 C40.75,14.9582309 35.0417691,9.25 28,9.25 Z M28,10.75 C34.213342,10.75 39.25,15.786658 39.25,22 C39.25,28.213342 34.213342,33.25 28,33.25 C21.786658,33.25 16.75,28.213342 16.75,22 C16.75,15.786658 21.786658,10.75 28,10.75 Z"/>
    <g fill="#8E8E8E" fill-rule="nonzero" transform="translate(18 11.5)">
      <path d="M11.2431557 1.6018376C11.1935091 1.9681143 10.8798046 2.25 10.5 2.25 10.0856677 2.25 9.75 1.91453272 9.75 1.5 9.75 1.08578361 10.0857836.75 10.5.75 10.8796984.75 11.1934914 1.03215151 11.2431534 1.39822885L11.25 1.5 11.2431557 1.6018376zM11.2431534 19.6017712C11.1934914 19.9678485 10.8796984 20.25 10.5 20.25 10.0857836 20.25 9.75 19.9142164 9.75 19.5 9.75 19.0854673 10.0856677 18.75 10.5 18.75 10.8798046 18.75 11.1935091 19.0318857 11.2431557 19.3981624L11.25 19.5 11.2431534 19.6017712zM1.60174684 9.7568526C1.96775123 9.80655693 2.25 10.1205916 2.25 10.5 2.25 10.9142164 1.91421639 11.25 1.5 11.25 1.08578361 11.25.75 10.9142164.75 10.5.75 10.1205916 1.03224877 9.80655693 1.39825316 9.7568526L1.5 9.75 1.60174684 9.7568526zM3.96953675 3.96989336C4.26207828 3.67673486 4.73727329 3.67673486 5.03026758 3.9696975 5.32324414 4.26264241 5.32324414 4.73768167 5.03007169 5.03082223 4.73712236 5.32309187 4.2622293 5.32309187 3.96973242 5.03062658 3.67675586 4.73768167 3.67675586 4.26264241 3.96953675 3.96989336zM4.05406085 15.8967144C4.34771442 15.6793252 4.76436132 15.7034959 5.03026758 15.9693734 5.32324414 16.2623183 5.32324414 16.7373576 5.03046325 17.0301066 4.73792172 17.3232651 4.26272671 17.3232651 3.96973242 17.0303025 3.70339009 16.7639889 3.67917715 16.3471842 3.8970936 16.0535086L3.96973242 15.9693734 4.05406085 15.8967144z"/>
    </g>
    <path fill="#FE0200" fill-rule="nonzero" d="M30.3112722,15.7030925 C30.4752497,15.3227187 30.9165336,15.1472948 31.2969075,15.3112722 C31.6455835,15.4615849 31.8220447,15.8449121 31.7227291,16.2007408 L31.6887278,16.2969075 L28.875,22.822 L31.2084602,25.5080797 C31.4554421,25.7923255 31.4504328,26.2096617 31.2125669,26.4873091 L31.1342406,26.5661399 C30.8499948,26.8131218 30.4326586,26.8081125 30.1550112,26.5702467 L30.0761804,26.4919203 L27.4338601,23.4509341 C27.2684596,23.2605784 27.2113019,23.0020261 27.2760296,22.7630635 L27.3112722,22.6621063 L30.3112722,15.7030925 Z"/>
    <g fill="#FE0200" fill-rule="nonzero" transform="translate(0 13.75)">
      <path d="M12.2563226 6.99999607L.758379886 6.99999607C.340460943 6.99999607 2.09876561e-12 7.33484705 2.09876561e-12 7.74999614 2.09876561e-12 8.16515091.340458812 8.49999607.758379886 8.49999607L12.2564569 8.49999607C12.4566486 8.50011328 12.6490618 8.42179146 12.7913222 8.28187621 12.9343313 8.14122457 13.0148369 7.94984241 13.0148369 7.74999614 13.0148369 7.55015515 12.9343316 7.35877283 12.7913237 7.21812235 12.6490667 7.07821048 12.4566579 6.99988853 12.2563226 6.99999607zM12.7067681 13.9999975L5.47026407 13.9999975C5.03665085 13.9999975 4.67716062 14.3309581 4.67716062 14.7499976 4.67716062 15.1690407 5.03664936 15.4999975 5.47026407 15.4999975L12.7068965 15.4999975C12.9129301 15.5001085 13.1117717 15.4243443 13.2603466 15.2875612 13.4129951 15.1470278 13.5000004 14.9534195 13.5000004 14.7499976 13.5000004 14.5465787 13.4129959 14.35297 13.2603482 14.2124374 13.1117752 14.075656 12.9129355 13.9998917 12.7067681 13.9999975zM13.2087629 0L5.15867767 0C4.72592031 0 4.36744055.331167013 4.36744055.75 4.36744055 1.16883299 4.72592031 1.5 5.15867767 1.5L13.2087629 1.5C13.6415202 1.5 14 1.16883299 14 .75 14 .331167013 13.6415202 0 13.2087629 0z"/>
    </g>
  </g>
</svg>
