<svg xmlns="http://www.w3.org/2000/svg" width="42" height="42" viewBox="0 0 42 42"><g fill="none" fill-rule="evenodd"><path fill="#FA0F00" d="M10.2998,29.027 C9.7648,28.615 9.4138,27.976 9.4138,27.25 L9.4138,13.75 C9.4138,12.51 10.4238,11.5 11.6638,11.5 L31.1638,11.5 C32.2628,11.5 33.1768,12.293 33.3718,13.337 L33.3726966,13.34557 C33.4161957,13.7613308 33.7666994,14.0770761 34.1847295,14.0770761 C34.5652223,14.0770761 34.8736725,13.7686258 34.8736725,13.3881331 C34.8736725,13.3731256 34.8731822,13.3581222 34.8722022,13.3431469 L34.8718,13.337 L34.8718,13.337 C34.6628,11.465 33.0898,10 31.1638,10 L11.6638,10 C9.5958,10 7.9138,11.682 7.9138,13.75 L7.9138,27.25 C7.9138,28.835 8.9068,30.187 10.2998,30.734 C10.5879966,30.8539022 10.9189832,30.7192126 11.0415715,30.4321483 L11.1151453,30.2598608 C11.2803972,29.8728913 11.1133606,29.4243046 10.7352608,29.2396585 L10.2998,29.027 L10.2998,29.027 Z"/><path fill="#8E8E8E" d="M6.2998 24.027C5.7648 23.615 5.4138 22.976 5.4138 22.25L5.4138 8.75C5.4138 7.51 6.4238 6.5 7.6638 6.5L27.1638 6.5C28.2628 6.5 29.1768 7.293 29.3718 8.337L29.3726966 8.34556999C29.4161957 8.76133076 29.7666994 9.07707606 30.1847295 9.07707606 30.5652223 9.07707606 30.8736725 8.76862577 30.8736725 8.38813305 30.8736725 8.37312564 30.8731822 8.35812224 30.8722022 8.34314686L30.8718 8.337 30.8718 8.337C30.6628 6.465 29.0898 5 27.1638 5L7.6638 5C5.5958 5 3.9138 6.682 3.9138 8.75L3.9138 22.25C3.9138 23.835 4.9068 25.187 6.2998 25.734 6.58799658 25.8539022 6.91898323 25.7192126 7.04157148 25.4321483L7.11514529 25.2598608C7.28039717 24.8728913 7.11336056 24.4243046 6.7352608 24.2396585L6.2998 24.027 6.2998 24.027ZM31.377 20C30.288 20 29.397 20.879 29.384 21.971 29.378 22.501 29.58 23.003 29.952 23.384 30.325 23.765 30.823 23.978 31.354 23.983L31.355 23.983C31.885 23.979 32.387 23.788 32.768 23.415 33.148 23.043 33.361 22.545 33.367 22.015 33.373 21.483 33.172 20.98 32.799 20.599 32.427 20.218 31.93 20.006 31.399 20L31.377 20ZM31.378 24.983 31.343 24.983C30.545 24.975 29.797 24.655 29.237 24.084 28.678 23.512 28.375 22.757 28.384 21.959 28.402 20.32 29.742 19 31.376 19L31.41 19C32.207 19.008 32.955 19.328 33.514 19.9 34.073 20.472 34.376 21.227 34.367 22.025 34.358 22.823 34.039 23.57 33.468 24.13 32.904 24.682 32.163 24.983 31.378 24.983L31.378 24.983Z"/><path fill="#8E8E8E" d="M35.25,34.5 L31.818,34.5 C31.138,33.741 30.28,32.776 29.224,31.582 L31.861,28.733 C31.954,28.638 32.088,28.584 32.229,28.584 C32.358,28.575 32.513,28.642 32.604,28.738 C34.346,30.65 35.49,31.962 36.321,32.914 C36.566,33.195 36.784,33.443 36.982,33.668 C36.569,34.172 35.95,34.5 35.25,34.5 L35.25,34.5 Z M13.898,33.523 L22.027,25.452 C22.093,25.386 22.197,25.361 22.266,25.35 C22.354,25.352 22.437,25.39 22.49,25.446 C26.118,29.579 28.751,32.564 30.477,34.5 L15.75,34.5 C14.982,34.5 14.304,34.112 13.898,33.523 L13.898,33.523 Z M13.5,18.75 C13.5,17.509 14.509,16.5 15.75,16.5 L35.25,16.5 C36.49,16.5 37.5,17.509 37.5,18.75 L37.5,32.25 C37.5,32.401 37.484,32.548 37.455,32.691 C37.331,32.549 37.216,32.418 37.075,32.257 C36.24,31.301 35.091,29.984 33.339,28.061 C33.061,27.762 32.662,27.588 32.246,27.584 C31.86,27.596 31.429,27.744 31.136,28.045 L28.559,30.828 C27.103,29.18 25.345,27.183 23.231,24.775 C22.98,24.505 22.641,24.354 22.277,24.351 C22.271,24.35 22.267,24.35 22.262,24.35 C21.903,24.35 21.567,24.493 21.318,24.748 L13.524,32.486 C13.516,32.407 13.5,32.331 13.5,32.25 L13.5,18.75 Z M35.25,15 L15.75,15 C13.682,15 12,16.682 12,18.75 L12,32.25 C12,34.317 13.682,36 15.75,36 L35.25,36 C37.317,36 39,34.317 39,32.25 L39,18.75 C39,16.682 37.317,15 35.25,15 L35.25,15 Z"/></g></svg>